<svg xmlns="http://www.w3.org/2000/svg" width="106mm" height="99.051mm" viewBox="0 0 900 841" role="img" aria-labelledby="title desc">
<title id="title">上下文窗口的构成概览</title><desc id="desc">北京天气示例：系统指令、天气工具定义、带调用ID的历史、当前推理和回答生成位置。</desc>
<defs><marker id="arrow" viewBox="0 0 10 10" refX="9" refY="5" markerWidth="7" markerHeight="7" orient="auto-start-reverse"><path d="M0 0 L10 5 L0 10 Z" fill="#333333" /></marker></defs>
<rect width="900" height="841" fill="#ffffff" y="0" />
<rect x="20" y="20" width="795" height="781" rx="6" fill="#ffffff" stroke="#333333" stroke-width="1.8" />
<rect x="35" y="35" width="765" height="120" rx="6" fill="#f2f2f2" stroke="#333333" stroke-width="1.8" />
<g aria-label="系统提示词（System Prompt）" fill="#292929" data-font="Source Han Sans CN 700" data-size="28.0"><use href="#g700-7cfb" transform="translate(211.984 68) scale(0.028 -0.028)" /><use href="#g700-7edf" transform="translate(239.984 68) scale(0.028 -0.028)" /><use href="#g700-63d0" transform="translate(267.984 68) scale(0.028 -0.028)" /><use href="#g700-793a" transform="translate(295.984 68) scale(0.028 -0.028)" /><use href="#g700-8bcd" transform="translate(323.984 68) scale(0.028 -0.028)" /><use href="#g700-ff08" transform="translate(351.984 68) scale(0.028 -0.028)" /><use href="#g700-53" transform="translate(379.984 68) scale(0.028 -0.028)" /><use href="#g700-79" transform="translate(397.456 68) scale(0.028 -0.028)" /><use href="#g700-73" transform="translate(413.528 68) scale(0.028 -0.028)" /><use href="#g700-74" transform="translate(427.388 68) scale(0.028 -0.028)" /><use href="#g700-65" transform="translate(439.176 68) scale(0.028 -0.028)" /><use href="#g700-6d" transform="translate(455.444 68) scale(0.028 -0.028)" /><use href="#g700-20" transform="translate(482.436 68) scale(0.028 -0.028)" /><use href="#g700-50" transform="translate(488.792 68) scale(0.028 -0.028)" /><use href="#g700-72" transform="translate(507.468 68) scale(0.028 -0.028)" /><use href="#g700-6f" transform="translate(519.676 68) scale(0.028 -0.028)" /><use href="#g700-6d" transform="translate(537.204 68) scale(0.028 -0.028)" /><use href="#g700-70" transform="translate(564.196 68) scale(0.028 -0.028)" /><use href="#g700-74" transform="translate(582.228 68) scale(0.028 -0.028)" /><use href="#g700-ff09" transform="translate(594.016 68) scale(0.028 -0.028)" /></g><g aria-label="You are a helpful assistant. Answer concisely." fill="#292929" data-font="Source Han Sans CN 400" data-size="26.0"><use href="#g400-59" transform="translate(144.910 107) scale(0.026 -0.026)" /><use href="#g400-6f" transform="translate(158.716 107) scale(0.026 -0.026)" /><use href="#g400-75" transform="translate(174.472 107) scale(0.026 -0.026)" /><use href="#g400-20" transform="translate(190.254 107) scale(0.026 -0.026)" /><use href="#g400-61" transform="translate(196.078 107) scale(0.026 -0.026)" /><use href="#g400-72" transform="translate(210.716 107) scale(0.026 -0.026)" /><use href="#g400-65" transform="translate(220.804 107) scale(0.026 -0.026)" /><use href="#g400-20" transform="translate(235.208 107) scale(0.026 -0.026)" /><use href="#g400-61" transform="translate(241.032 107) scale(0.026 -0.026)" /><use href="#g400-20" transform="translate(255.670 107) scale(0.026 -0.026)" /><use href="#g400-68" transform="translate(261.494 107) scale(0.026 -0.026)" /><use href="#g400-65" transform="translate(277.276 107) scale(0.026 -0.026)" /><use href="#g400-6c" transform="translate(291.680 107) scale(0.026 -0.026)" /><use href="#g400-70" transform="translate(299.064 107) scale(0.026 -0.026)" /><use href="#g400-66" transform="translate(315.184 107) scale(0.026 -0.026)" /><use href="#g400-75" transform="translate(323.634 107) scale(0.026 -0.026)" /><use href="#g400-6c" transform="translate(339.416 107) scale(0.026 -0.026)" /><use href="#g400-20" transform="translate(346.800 107) scale(0.026 -0.026)" /><use href="#g400-61" transform="translate(352.624 107) scale(0.026 -0.026)" /><use href="#g400-73" transform="translate(367.262 107) scale(0.026 -0.026)" /><use href="#g400-73" transform="translate(379.430 107) scale(0.026 -0.026)" /><use href="#g400-69" transform="translate(391.598 107) scale(0.026 -0.026)" /><use href="#g400-73" transform="translate(398.748 107) scale(0.026 -0.026)" /><use href="#g400-74" transform="translate(410.916 107) scale(0.026 -0.026)" /><use href="#g400-61" transform="translate(420.718 107) scale(0.026 -0.026)" /><use href="#g400-6e" transform="translate(435.356 107) scale(0.026 -0.026)" /><use href="#g400-74" transform="translate(451.216 107) scale(0.026 -0.026)" /><use href="#g400-2e" transform="translate(461.018 107) scale(0.026 -0.026)" /><use href="#g400-20" transform="translate(468.246 107) scale(0.026 -0.026)" /><use href="#g400-41" transform="translate(474.070 107) scale(0.026 -0.026)" /><use href="#g400-6e" transform="translate(489.878 107) scale(0.026 -0.026)" /><use href="#g400-73" transform="translate(505.738 107) scale(0.026 -0.026)" /><use href="#g400-77" transform="translate(517.906 107) scale(0.026 -0.026)" /><use href="#g400-65" transform="translate(538.758 107) scale(0.026 -0.026)" /><use href="#g400-72" transform="translate(553.162 107) scale(0.026 -0.026)" /><use href="#g400-20" transform="translate(563.250 107) scale(0.026 -0.026)" /><use href="#g400-63" transform="translate(569.074 107) scale(0.026 -0.026)" /><use href="#g400-6f" transform="translate(582.334 107) scale(0.026 -0.026)" /><use href="#g400-6e" transform="translate(598.090 107) scale(0.026 -0.026)" /><use href="#g400-63" transform="translate(613.950 107) scale(0.026 -0.026)" /><use href="#g400-69" transform="translate(627.210 107) scale(0.026 -0.026)" /><use href="#g400-73" transform="translate(634.360 107) scale(0.026 -0.026)" /><use href="#g400-65" transform="translate(646.528 107) scale(0.026 -0.026)" /><use href="#g400-6c" transform="translate(660.932 107) scale(0.026 -0.026)" /><use href="#g400-79" transform="translate(668.316 107) scale(0.026 -0.026)" /><use href="#g400-2e" transform="translate(681.862 107) scale(0.026 -0.026)" /></g><g aria-label="Use tools for real-time information." fill="#292929" data-font="Source Han Sans CN 400" data-size="26.0"><use href="#g400-55" transform="translate(203.722 141) scale(0.026 -0.026)" /><use href="#g400-73" transform="translate(222.468 141) scale(0.026 -0.026)" /><use href="#g400-65" transform="translate(234.636 141) scale(0.026 -0.026)" /><use href="#g400-20" transform="translate(249.040 141) scale(0.026 -0.026)" /><use href="#g400-74" transform="translate(254.864 141) scale(0.026 -0.026)" /><use href="#g400-6f" transform="translate(264.666 141) scale(0.026 -0.026)" /><use href="#g400-6f" transform="translate(280.422 141) scale(0.026 -0.026)" /><use href="#g400-6c" transform="translate(296.178 141) scale(0.026 -0.026)" /><use href="#g400-73" transform="translate(303.562 141) scale(0.026 -0.026)" /><use href="#g400-20" transform="translate(315.730 141) scale(0.026 -0.026)" /><use href="#g400-66" transform="translate(321.554 141) scale(0.026 -0.026)" /><use href="#g400-6f" transform="translate(330.004 141) scale(0.026 -0.026)" /><use href="#g400-72" transform="translate(345.760 141) scale(0.026 -0.026)" /><use href="#g400-20" transform="translate(355.848 141) scale(0.026 -0.026)" /><use href="#g400-72" transform="translate(361.672 141) scale(0.026 -0.026)" /><use href="#g400-65" transform="translate(371.760 141) scale(0.026 -0.026)" /><use href="#g400-61" transform="translate(386.164 141) scale(0.026 -0.026)" /><use href="#g400-6c" transform="translate(400.802 141) scale(0.026 -0.026)" /><use href="#g400-2d" transform="translate(408.186 141) scale(0.026 -0.026)" /><use href="#g400-74" transform="translate(417.208 141) scale(0.026 -0.026)" /><use href="#g400-69" transform="translate(427.010 141) scale(0.026 -0.026)" /><use href="#g400-6d" transform="translate(434.160 141) scale(0.026 -0.026)" /><use href="#g400-65" transform="translate(458.236 141) scale(0.026 -0.026)" /><use href="#g400-20" transform="translate(472.640 141) scale(0.026 -0.026)" /><use href="#g400-69" transform="translate(478.464 141) scale(0.026 -0.026)" /><use href="#g400-6e" transform="translate(485.614 141) scale(0.026 -0.026)" /><use href="#g400-66" transform="translate(501.474 141) scale(0.026 -0.026)" /><use href="#g400-6f" transform="translate(509.924 141) scale(0.026 -0.026)" /><use href="#g400-72" transform="translate(525.680 141) scale(0.026 -0.026)" /><use href="#g400-6d" transform="translate(535.768 141) scale(0.026 -0.026)" /><use href="#g400-61" transform="translate(559.844 141) scale(0.026 -0.026)" /><use href="#g400-74" transform="translate(574.482 141) scale(0.026 -0.026)" /><use href="#g400-69" transform="translate(584.284 141) scale(0.026 -0.026)" /><use href="#g400-6f" transform="translate(591.434 141) scale(0.026 -0.026)" /><use href="#g400-6e" transform="translate(607.190 141) scale(0.026 -0.026)" /><use href="#g400-2e" transform="translate(623.050 141) scale(0.026 -0.026)" /></g><rect x="35" y="170" width="765" height="205" rx="6" fill="#f2f2f2" stroke="#333333" stroke-width="1.8" />
<g aria-label="工具定义（Tool Definitions）" fill="#292929" data-font="Source Han Sans CN 700" data-size="28.0"><use href="#g700-5de5" transform="translate(223.492 203) scale(0.028 -0.028)" /><use href="#g700-5177" transform="translate(251.492 203) scale(0.028 -0.028)" /><use href="#g700-5b9a" transform="translate(279.492 203) scale(0.028 -0.028)" /><use href="#g700-4e49" transform="translate(307.492 203) scale(0.028 -0.028)" /><use href="#g700-ff08" transform="translate(335.492 203) scale(0.028 -0.028)" /><use href="#g700-54" transform="translate(363.492 203) scale(0.028 -0.028)" /><use href="#g700-6f" transform="translate(380.992 203) scale(0.028 -0.028)" /><use href="#g700-6f" transform="translate(398.520 203) scale(0.028 -0.028)" /><use href="#g700-6c" transform="translate(416.048 203) scale(0.028 -0.028)" /><use href="#g700-20" transform="translate(424.868 203) scale(0.028 -0.028)" /><use href="#g700-44" transform="translate(431.224 203) scale(0.028 -0.028)" /><use href="#g700-65" transform="translate(451.216 203) scale(0.028 -0.028)" /><use href="#g700-66" transform="translate(467.484 203) scale(0.028 -0.028)" /><use href="#g700-69" transform="translate(477.900 203) scale(0.028 -0.028)" /><use href="#g700-6e" transform="translate(486.412 203) scale(0.028 -0.028)" /><use href="#g700-69" transform="translate(504.360 203) scale(0.028 -0.028)" /><use href="#g700-74" transform="translate(512.872 203) scale(0.028 -0.028)" /><use href="#g700-69" transform="translate(524.660 203) scale(0.028 -0.028)" /><use href="#g700-6f" transform="translate(533.172 203) scale(0.028 -0.028)" /><use href="#g700-6e" transform="translate(550.700 203) scale(0.028 -0.028)" /><use href="#g700-73" transform="translate(568.648 203) scale(0.028 -0.028)" /><use href="#g700-ff09" transform="translate(582.508 203) scale(0.028 -0.028)" /></g><g aria-label="{&quot;name&quot;: &quot;get_weather&quot;, &quot;description&quot;: &quot;查询城市天气&quot;," fill="#292929" data-font="Source Han Sans CN 400" data-size="26.0"><use href="#g400-7b" transform="translate(82.003 242) scale(0.026 -0.026)" /><use href="#g400-22" transform="translate(90.791 242) scale(0.026 -0.026)" /><use href="#g400-6e" transform="translate(103.115 242) scale(0.026 -0.026)" /><use href="#g400-61" transform="translate(118.975 242) scale(0.026 -0.026)" /><use href="#g400-6d" transform="translate(133.613 242) scale(0.026 -0.026)" /><use href="#g400-65" transform="translate(157.689 242) scale(0.026 -0.026)" /><use href="#g400-22" transform="translate(172.093 242) scale(0.026 -0.026)" /><use href="#g400-3a" transform="translate(184.417 242) scale(0.026 -0.026)" /><use href="#g400-20" transform="translate(191.645 242) scale(0.026 -0.026)" /><use href="#g400-22" transform="translate(197.469 242) scale(0.026 -0.026)" /><use href="#g400-67" transform="translate(209.793 242) scale(0.026 -0.026)" /><use href="#g400-65" transform="translate(224.457 242) scale(0.026 -0.026)" /><use href="#g400-74" transform="translate(238.861 242) scale(0.026 -0.026)" /><use href="#g400-5f" transform="translate(248.663 242) scale(0.026 -0.026)" /><use href="#g400-77" transform="translate(263.197 242) scale(0.026 -0.026)" /><use href="#g400-65" transform="translate(284.049 242) scale(0.026 -0.026)" /><use href="#g400-61" transform="translate(298.453 242) scale(0.026 -0.026)" /><use href="#g400-74" transform="translate(313.091 242) scale(0.026 -0.026)" /><use href="#g400-68" transform="translate(322.893 242) scale(0.026 -0.026)" /><use href="#g400-65" transform="translate(338.675 242) scale(0.026 -0.026)" /><use href="#g400-72" transform="translate(353.079 242) scale(0.026 -0.026)" /><use href="#g400-22" transform="translate(363.167 242) scale(0.026 -0.026)" /><use href="#g400-2c" transform="translate(375.491 242) scale(0.026 -0.026)" /><use href="#g400-20" transform="translate(382.719 242) scale(0.026 -0.026)" /><use href="#g400-22" transform="translate(388.543 242) scale(0.026 -0.026)" /><use href="#g400-64" transform="translate(400.867 242) scale(0.026 -0.026)" /><use href="#g400-65" transform="translate(416.987 242) scale(0.026 -0.026)" /><use href="#g400-73" transform="translate(431.391 242) scale(0.026 -0.026)" /><use href="#g400-63" transform="translate(443.559 242) scale(0.026 -0.026)" /><use href="#g400-72" transform="translate(456.819 242) scale(0.026 -0.026)" /><use href="#g400-69" transform="translate(466.907 242) scale(0.026 -0.026)" /><use href="#g400-70" transform="translate(474.057 242) scale(0.026 -0.026)" /><use href="#g400-74" transform="translate(490.177 242) scale(0.026 -0.026)" /><use href="#g400-69" transform="translate(499.979 242) scale(0.026 -0.026)" /><use href="#g400-6f" transform="translate(507.129 242) scale(0.026 -0.026)" /><use href="#g400-6e" transform="translate(522.885 242) scale(0.026 -0.026)" /><use href="#g400-22" transform="translate(538.745 242) scale(0.026 -0.026)" /><use href="#g400-3a" transform="translate(551.069 242) scale(0.026 -0.026)" /><use href="#g400-20" transform="translate(558.297 242) scale(0.026 -0.026)" /><use href="#g400-22" transform="translate(564.121 242) scale(0.026 -0.026)" /><use href="#g400-67e5" transform="translate(576.445 242) scale(0.026 -0.026)" /><use href="#g400-8be2" transform="translate(602.445 242) scale(0.026 -0.026)" /><use href="#g400-57ce" transform="translate(628.445 242) scale(0.026 -0.026)" /><use href="#g400-5e02" transform="translate(654.445 242) scale(0.026 -0.026)" /><use href="#g400-5929" transform="translate(680.445 242) scale(0.026 -0.026)" /><use href="#g400-6c14" transform="translate(706.445 242) scale(0.026 -0.026)" /><use href="#g400-22" transform="translate(732.445 242) scale(0.026 -0.026)" /><use href="#g400-2c" transform="translate(744.769 242) scale(0.026 -0.026)" /></g><g aria-label=" &quot;parameters&quot;: {&quot;type&quot;: &quot;object&quot;, &quot;properties&quot;: {" fill="#292929" data-font="Source Han Sans CN 400" data-size="26.0"><use href="#g400-20" transform="translate(131.481 276) scale(0.026 -0.026)" /><use href="#g400-22" transform="translate(137.305 276) scale(0.026 -0.026)" /><use href="#g400-70" transform="translate(149.629 276) scale(0.026 -0.026)" /><use href="#g400-61" transform="translate(165.749 276) scale(0.026 -0.026)" /><use href="#g400-72" transform="translate(180.387 276) scale(0.026 -0.026)" /><use href="#g400-61" transform="translate(190.475 276) scale(0.026 -0.026)" /><use href="#g400-6d" transform="translate(205.113 276) scale(0.026 -0.026)" /><use href="#g400-65" transform="translate(229.189 276) scale(0.026 -0.026)" /><use href="#g400-74" transform="translate(243.593 276) scale(0.026 -0.026)" /><use href="#g400-65" transform="translate(253.395 276) scale(0.026 -0.026)" /><use href="#g400-72" transform="translate(267.799 276) scale(0.026 -0.026)" /><use href="#g400-73" transform="translate(277.887 276) scale(0.026 -0.026)" /><use href="#g400-22" transform="translate(290.055 276) scale(0.026 -0.026)" /><use href="#g400-3a" transform="translate(302.379 276) scale(0.026 -0.026)" /><use href="#g400-20" transform="translate(309.607 276) scale(0.026 -0.026)" /><use href="#g400-7b" transform="translate(315.431 276) scale(0.026 -0.026)" /><use href="#g400-22" transform="translate(324.219 276) scale(0.026 -0.026)" /><use href="#g400-74" transform="translate(336.543 276) scale(0.026 -0.026)" /><use href="#g400-79" transform="translate(346.345 276) scale(0.026 -0.026)" /><use href="#g400-70" transform="translate(359.891 276) scale(0.026 -0.026)" /><use href="#g400-65" transform="translate(376.011 276) scale(0.026 -0.026)" /><use href="#g400-22" transform="translate(390.415 276) scale(0.026 -0.026)" /><use href="#g400-3a" transform="translate(402.739 276) scale(0.026 -0.026)" /><use href="#g400-20" transform="translate(409.967 276) scale(0.026 -0.026)" /><use href="#g400-22" transform="translate(415.791 276) scale(0.026 -0.026)" /><use href="#g400-6f" transform="translate(428.115 276) scale(0.026 -0.026)" /><use href="#g400-62" transform="translate(443.871 276) scale(0.026 -0.026)" /><use href="#g400-6a" transform="translate(459.939 276) scale(0.026 -0.026)" /><use href="#g400-65" transform="translate(467.089 276) scale(0.026 -0.026)" /><use href="#g400-63" transform="translate(481.493 276) scale(0.026 -0.026)" /><use href="#g400-74" transform="translate(494.753 276) scale(0.026 -0.026)" /><use href="#g400-22" transform="translate(504.555 276) scale(0.026 -0.026)" /><use href="#g400-2c" transform="translate(516.879 276) scale(0.026 -0.026)" /><use href="#g400-20" transform="translate(524.107 276) scale(0.026 -0.026)" /><use href="#g400-22" transform="translate(529.931 276) scale(0.026 -0.026)" /><use href="#g400-70" transform="translate(542.255 276) scale(0.026 -0.026)" /><use href="#g400-72" transform="translate(558.375 276) scale(0.026 -0.026)" /><use href="#g400-6f" transform="translate(568.463 276) scale(0.026 -0.026)" /><use href="#g400-70" transform="translate(584.219 276) scale(0.026 -0.026)" /><use href="#g400-65" transform="translate(600.339 276) scale(0.026 -0.026)" /><use href="#g400-72" transform="translate(614.743 276) scale(0.026 -0.026)" /><use href="#g400-74" transform="translate(624.831 276) scale(0.026 -0.026)" /><use href="#g400-69" transform="translate(634.633 276) scale(0.026 -0.026)" /><use href="#g400-65" transform="translate(641.783 276) scale(0.026 -0.026)" /><use href="#g400-73" transform="translate(656.187 276) scale(0.026 -0.026)" /><use href="#g400-22" transform="translate(668.355 276) scale(0.026 -0.026)" /><use href="#g400-3a" transform="translate(680.679 276) scale(0.026 -0.026)" /><use href="#g400-20" transform="translate(687.907 276) scale(0.026 -0.026)" /><use href="#g400-7b" transform="translate(693.731 276) scale(0.026 -0.026)" /></g><g aria-label="   &quot;city&quot;: {&quot;type&quot;: &quot;string&quot;}}, &quot;required&quot;: [&quot;city&quot;]}}" fill="#292929" data-font="Source Han Sans CN 400" data-size="26.0"><use href="#g400-20" transform="translate(132.144 310) scale(0.026 -0.026)" /><use href="#g400-20" transform="translate(137.968 310) scale(0.026 -0.026)" /><use href="#g400-20" transform="translate(143.792 310) scale(0.026 -0.026)" /><use href="#g400-22" transform="translate(149.616 310) scale(0.026 -0.026)" /><use href="#g400-63" transform="translate(161.940 310) scale(0.026 -0.026)" /><use href="#g400-69" transform="translate(175.200 310) scale(0.026 -0.026)" /><use href="#g400-74" transform="translate(182.350 310) scale(0.026 -0.026)" /><use href="#g400-79" transform="translate(192.152 310) scale(0.026 -0.026)" /><use href="#g400-22" transform="translate(205.698 310) scale(0.026 -0.026)" /><use href="#g400-3a" transform="translate(218.022 310) scale(0.026 -0.026)" /><use href="#g400-20" transform="translate(225.250 310) scale(0.026 -0.026)" /><use href="#g400-7b" transform="translate(231.074 310) scale(0.026 -0.026)" /><use href="#g400-22" transform="translate(239.862 310) scale(0.026 -0.026)" /><use href="#g400-74" transform="translate(252.186 310) scale(0.026 -0.026)" /><use href="#g400-79" transform="translate(261.988 310) scale(0.026 -0.026)" /><use href="#g400-70" transform="translate(275.534 310) scale(0.026 -0.026)" /><use href="#g400-65" transform="translate(291.654 310) scale(0.026 -0.026)" /><use href="#g400-22" transform="translate(306.058 310) scale(0.026 -0.026)" /><use href="#g400-3a" transform="translate(318.382 310) scale(0.026 -0.026)" /><use href="#g400-20" transform="translate(325.610 310) scale(0.026 -0.026)" /><use href="#g400-22" transform="translate(331.434 310) scale(0.026 -0.026)" /><use href="#g400-73" transform="translate(343.758 310) scale(0.026 -0.026)" /><use href="#g400-74" transform="translate(355.926 310) scale(0.026 -0.026)" /><use href="#g400-72" transform="translate(365.728 310) scale(0.026 -0.026)" /><use href="#g400-69" transform="translate(375.816 310) scale(0.026 -0.026)" /><use href="#g400-6e" transform="translate(382.966 310) scale(0.026 -0.026)" /><use href="#g400-67" transform="translate(398.826 310) scale(0.026 -0.026)" /><use href="#g400-22" transform="translate(413.490 310) scale(0.026 -0.026)" /><use href="#g400-7d" transform="translate(425.814 310) scale(0.026 -0.026)" /><use href="#g400-7d" transform="translate(434.602 310) scale(0.026 -0.026)" /><use href="#g400-2c" transform="translate(443.390 310) scale(0.026 -0.026)" /><use href="#g400-20" transform="translate(450.618 310) scale(0.026 -0.026)" /><use href="#g400-22" transform="translate(456.442 310) scale(0.026 -0.026)" /><use href="#g400-72" transform="translate(468.766 310) scale(0.026 -0.026)" /><use href="#g400-65" transform="translate(478.854 310) scale(0.026 -0.026)" /><use href="#g400-71" transform="translate(493.258 310) scale(0.026 -0.026)" /><use href="#g400-75" transform="translate(509.378 310) scale(0.026 -0.026)" /><use href="#g400-69" transform="translate(525.160 310) scale(0.026 -0.026)" /><use href="#g400-72" transform="translate(532.310 310) scale(0.026 -0.026)" /><use href="#g400-65" transform="translate(542.398 310) scale(0.026 -0.026)" /><use href="#g400-64" transform="translate(556.802 310) scale(0.026 -0.026)" /><use href="#g400-22" transform="translate(572.922 310) scale(0.026 -0.026)" /><use href="#g400-3a" transform="translate(585.246 310) scale(0.026 -0.026)" /><use href="#g400-20" transform="translate(592.474 310) scale(0.026 -0.026)" /><use href="#g400-5b" transform="translate(598.298 310) scale(0.026 -0.026)" /><use href="#g400-22" transform="translate(607.086 310) scale(0.026 -0.026)" /><use href="#g400-63" transform="translate(619.410 310) scale(0.026 -0.026)" /><use href="#g400-69" transform="translate(632.670 310) scale(0.026 -0.026)" /><use href="#g400-74" transform="translate(639.820 310) scale(0.026 -0.026)" /><use href="#g400-79" transform="translate(649.622 310) scale(0.026 -0.026)" /><use href="#g400-22" transform="translate(663.168 310) scale(0.026 -0.026)" /><use href="#g400-5d" transform="translate(675.492 310) scale(0.026 -0.026)" /><use href="#g400-7d" transform="translate(684.280 310) scale(0.026 -0.026)" /><use href="#g400-7d" transform="translate(693.068 310) scale(0.026 -0.026)" /></g><rect x="35" y="390" width="765" height="176" rx="6" fill="#f2f2f2" stroke="#333333" stroke-width="1.8" />
<g aria-label="对话历史（Conversation History）" fill="#292929" data-font="Source Han Sans CN 700" data-size="28.0"><use href="#g700-5bf9" transform="translate(186.924 423) scale(0.028 -0.028)" /><use href="#g700-8bdd" transform="translate(214.924 423) scale(0.028 -0.028)" /><use href="#g700-5386" transform="translate(242.924 423) scale(0.028 -0.028)" /><use href="#g700-53f2" transform="translate(270.924 423) scale(0.028 -0.028)" /><use href="#g700-ff08" transform="translate(298.924 423) scale(0.028 -0.028)" /><use href="#g700-43" transform="translate(326.924 423) scale(0.028 -0.028)" /><use href="#g700-6f" transform="translate(345.292 423) scale(0.028 -0.028)" /><use href="#g700-6e" transform="translate(362.820 423) scale(0.028 -0.028)" /><use href="#g700-76" transform="translate(380.768 423) scale(0.028 -0.028)" /><use href="#g700-65" transform="translate(396.896 423) scale(0.028 -0.028)" /><use href="#g700-72" transform="translate(413.164 423) scale(0.028 -0.028)" /><use href="#g700-73" transform="translate(425.372 423) scale(0.028 -0.028)" /><use href="#g700-61" transform="translate(439.232 423) scale(0.028 -0.028)" /><use href="#g700-74" transform="translate(455.780 423) scale(0.028 -0.028)" /><use href="#g700-69" transform="translate(467.568 423) scale(0.028 -0.028)" /><use href="#g700-6f" transform="translate(476.080 423) scale(0.028 -0.028)" /><use href="#g700-6e" transform="translate(493.608 423) scale(0.028 -0.028)" /><use href="#g700-20" transform="translate(511.556 423) scale(0.028 -0.028)" /><use href="#g700-48" transform="translate(517.912 423) scale(0.028 -0.028)" /><use href="#g700-69" transform="translate(539.108 423) scale(0.028 -0.028)" /><use href="#g700-73" transform="translate(547.620 423) scale(0.028 -0.028)" /><use href="#g700-74" transform="translate(561.480 423) scale(0.028 -0.028)" /><use href="#g700-6f" transform="translate(573.268 423) scale(0.028 -0.028)" /><use href="#g700-72" transform="translate(590.796 423) scale(0.028 -0.028)" /><use href="#g700-79" transform="translate(603.004 423) scale(0.028 -0.028)" /><use href="#g700-ff09" transform="translate(619.076 423) scale(0.028 -0.028)" /></g><g aria-label="user：北京今天天气怎么样？" fill="#292929" data-font="Source Han Sans CN 400" data-size="26.0"><use href="#g400-75" transform="translate(247.779 462) scale(0.026 -0.026)" /><use href="#g400-73" transform="translate(263.561 462) scale(0.026 -0.026)" /><use href="#g400-65" transform="translate(275.729 462) scale(0.026 -0.026)" /><use href="#g400-72" transform="translate(290.133 462) scale(0.026 -0.026)" /><use href="#g400-ff1a" transform="translate(300.221 462) scale(0.026 -0.026)" /><use href="#g400-5317" transform="translate(326.221 462) scale(0.026 -0.026)" /><use href="#g400-4eac" transform="translate(352.221 462) scale(0.026 -0.026)" /><use href="#g400-4eca" transform="translate(378.221 462) scale(0.026 -0.026)" /><use href="#g400-5929" transform="translate(404.221 462) scale(0.026 -0.026)" /><use href="#g400-5929" transform="translate(430.221 462) scale(0.026 -0.026)" /><use href="#g400-6c14" transform="translate(456.221 462) scale(0.026 -0.026)" /><use href="#g400-600e" transform="translate(482.221 462) scale(0.026 -0.026)" /><use href="#g400-4e48" transform="translate(508.221 462) scale(0.026 -0.026)" /><use href="#g400-6837" transform="translate(534.221 462) scale(0.026 -0.026)" /><use href="#g400-ff1f" transform="translate(560.221 462) scale(0.026 -0.026)" /></g><g aria-label="assistant：call_1 → get_weather(city=&quot;北京&quot;)" fill="#292929" data-font="Source Han Sans CN 400" data-size="26.0"><use href="#g400-61" transform="translate(142.271 496) scale(0.026 -0.026)" /><use href="#g400-73" transform="translate(156.909 496) scale(0.026 -0.026)" /><use href="#g400-73" transform="translate(169.077 496) scale(0.026 -0.026)" /><use href="#g400-69" transform="translate(181.245 496) scale(0.026 -0.026)" /><use href="#g400-73" transform="translate(188.395 496) scale(0.026 -0.026)" /><use href="#g400-74" transform="translate(200.563 496) scale(0.026 -0.026)" /><use href="#g400-61" transform="translate(210.365 496) scale(0.026 -0.026)" /><use href="#g400-6e" transform="translate(225.003 496) scale(0.026 -0.026)" /><use href="#g400-74" transform="translate(240.863 496) scale(0.026 -0.026)" /><use href="#g400-ff1a" transform="translate(250.665 496) scale(0.026 -0.026)" /><use href="#g400-63" transform="translate(276.665 496) scale(0.026 -0.026)" /><use href="#g400-61" transform="translate(289.925 496) scale(0.026 -0.026)" /><use href="#g400-6c" transform="translate(304.563 496) scale(0.026 -0.026)" /><use href="#g400-6c" transform="translate(311.947 496) scale(0.026 -0.026)" /><use href="#g400-5f" transform="translate(319.331 496) scale(0.026 -0.026)" /><use href="#g400-31" transform="translate(333.865 496) scale(0.026 -0.026)" /><use href="#g400-20" transform="translate(348.295 496) scale(0.026 -0.026)" /><use href="#g400-2192" transform="translate(354.119 496) scale(0.026 -0.026)" /><use href="#g400-20" transform="translate(380.119 496) scale(0.026 -0.026)" /><use href="#g400-67" transform="translate(385.943 496) scale(0.026 -0.026)" /><use href="#g400-65" transform="translate(400.607 496) scale(0.026 -0.026)" /><use href="#g400-74" transform="translate(415.011 496) scale(0.026 -0.026)" /><use href="#g400-5f" transform="translate(424.813 496) scale(0.026 -0.026)" /><use href="#g400-77" transform="translate(439.347 496) scale(0.026 -0.026)" /><use href="#g400-65" transform="translate(460.199 496) scale(0.026 -0.026)" /><use href="#g400-61" transform="translate(474.603 496) scale(0.026 -0.026)" /><use href="#g400-74" transform="translate(489.241 496) scale(0.026 -0.026)" /><use href="#g400-68" transform="translate(499.043 496) scale(0.026 -0.026)" /><use href="#g400-65" transform="translate(514.825 496) scale(0.026 -0.026)" /><use href="#g400-72" transform="translate(529.229 496) scale(0.026 -0.026)" /><use href="#g400-28" transform="translate(539.317 496) scale(0.026 -0.026)" /><use href="#g400-63" transform="translate(548.105 496) scale(0.026 -0.026)" /><use href="#g400-69" transform="translate(561.365 496) scale(0.026 -0.026)" /><use href="#g400-74" transform="translate(568.515 496) scale(0.026 -0.026)" /><use href="#g400-79" transform="translate(578.317 496) scale(0.026 -0.026)" /><use href="#g400-3d" transform="translate(591.863 496) scale(0.026 -0.026)" /><use href="#g400-22" transform="translate(606.293 496) scale(0.026 -0.026)" /><use href="#g400-5317" transform="translate(618.617 496) scale(0.026 -0.026)" /><use href="#g400-4eac" transform="translate(644.617 496) scale(0.026 -0.026)" /><use href="#g400-22" transform="translate(670.617 496) scale(0.026 -0.026)" /><use href="#g400-29" transform="translate(682.941 496) scale(0.026 -0.026)" /></g><g aria-label="tool（call_1）：{&quot;temp&quot;: &quot;23°C&quot;, &quot;conditions&quot;: &quot;晴&quot;}" fill="#292929" data-font="Source Han Sans CN 400" data-size="26.0"><use href="#g400-74" transform="translate(102.998 530) scale(0.026 -0.026)" /><use href="#g400-6f" transform="translate(112.800 530) scale(0.026 -0.026)" /><use href="#g400-6f" transform="translate(128.556 530) scale(0.026 -0.026)" /><use href="#g400-6c" transform="translate(144.312 530) scale(0.026 -0.026)" /><use href="#g400-ff08" transform="translate(151.696 530) scale(0.026 -0.026)" /><use href="#g400-63" transform="translate(177.696 530) scale(0.026 -0.026)" /><use href="#g400-61" transform="translate(190.956 530) scale(0.026 -0.026)" /><use href="#g400-6c" transform="translate(205.594 530) scale(0.026 -0.026)" /><use href="#g400-6c" transform="translate(212.978 530) scale(0.026 -0.026)" /><use href="#g400-5f" transform="translate(220.362 530) scale(0.026 -0.026)" /><use href="#g400-31" transform="translate(234.896 530) scale(0.026 -0.026)" /><use href="#g400-ff09" transform="translate(249.326 530) scale(0.026 -0.026)" /><use href="#g400-ff1a" transform="translate(275.326 530) scale(0.026 -0.026)" /><use href="#g400-7b" transform="translate(301.326 530) scale(0.026 -0.026)" /><use href="#g400-22" transform="translate(310.114 530) scale(0.026 -0.026)" /><use href="#g400-74" transform="translate(322.438 530) scale(0.026 -0.026)" /><use href="#g400-65" transform="translate(332.240 530) scale(0.026 -0.026)" /><use href="#g400-6d" transform="translate(346.644 530) scale(0.026 -0.026)" /><use href="#g400-70" transform="translate(370.720 530) scale(0.026 -0.026)" /><use href="#g400-22" transform="translate(386.840 530) scale(0.026 -0.026)" /><use href="#g400-3a" transform="translate(399.164 530) scale(0.026 -0.026)" /><use href="#g400-20" transform="translate(406.392 530) scale(0.026 -0.026)" /><use href="#g400-22" transform="translate(412.216 530) scale(0.026 -0.026)" /><use href="#g400-32" transform="translate(424.540 530) scale(0.026 -0.026)" /><use href="#g400-33" transform="translate(438.970 530) scale(0.026 -0.026)" /><use href="#g400-b0" transform="translate(453.400 530) scale(0.026 -0.026)" /><use href="#g400-43" transform="translate(463.020 530) scale(0.026 -0.026)" /><use href="#g400-22" transform="translate(479.608 530) scale(0.026 -0.026)" /><use href="#g400-2c" transform="translate(491.932 530) scale(0.026 -0.026)" /><use href="#g400-20" transform="translate(499.160 530) scale(0.026 -0.026)" /><use href="#g400-22" transform="translate(504.984 530) scale(0.026 -0.026)" /><use href="#g400-63" transform="translate(517.308 530) scale(0.026 -0.026)" /><use href="#g400-6f" transform="translate(530.568 530) scale(0.026 -0.026)" /><use href="#g400-6e" transform="translate(546.324 530) scale(0.026 -0.026)" /><use href="#g400-64" transform="translate(562.184 530) scale(0.026 -0.026)" /><use href="#g400-69" transform="translate(578.304 530) scale(0.026 -0.026)" /><use href="#g400-74" transform="translate(585.454 530) scale(0.026 -0.026)" /><use href="#g400-69" transform="translate(595.256 530) scale(0.026 -0.026)" /><use href="#g400-6f" transform="translate(602.406 530) scale(0.026 -0.026)" /><use href="#g400-6e" transform="translate(618.162 530) scale(0.026 -0.026)" /><use href="#g400-73" transform="translate(634.022 530) scale(0.026 -0.026)" /><use href="#g400-22" transform="translate(646.190 530) scale(0.026 -0.026)" /><use href="#g400-3a" transform="translate(658.514 530) scale(0.026 -0.026)" /><use href="#g400-20" transform="translate(665.742 530) scale(0.026 -0.026)" /><use href="#g400-22" transform="translate(671.566 530) scale(0.026 -0.026)" /><use href="#g400-6674" transform="translate(683.890 530) scale(0.026 -0.026)" /><use href="#g400-22" transform="translate(709.890 530) scale(0.026 -0.026)" /><use href="#g400-7d" transform="translate(722.214 530) scale(0.026 -0.026)" /></g><rect x="35" y="581" width="765" height="125" rx="6" fill="#f2f2f2" stroke="#333333" stroke-width="1.8" />
<g aria-label="本轮推理（Reasoning）" fill="#292929" data-font="Source Han Sans CN 700" data-size="28.0"><use href="#g700-672c" transform="translate(260.788 614) scale(0.028 -0.028)" /><use href="#g700-8f6e" transform="translate(288.788 614) scale(0.028 -0.028)" /><use href="#g700-63a8" transform="translate(316.788 614) scale(0.028 -0.028)" /><use href="#g700-7406" transform="translate(344.788 614) scale(0.028 -0.028)" /><use href="#g700-ff08" transform="translate(372.788 614) scale(0.028 -0.028)" /><use href="#g700-52" transform="translate(400.788 614) scale(0.028 -0.028)" /><use href="#g700-65" transform="translate(419.884 614) scale(0.028 -0.028)" /><use href="#g700-61" transform="translate(436.152 614) scale(0.028 -0.028)" /><use href="#g700-73" transform="translate(452.700 614) scale(0.028 -0.028)" /><use href="#g700-6f" transform="translate(466.560 614) scale(0.028 -0.028)" /><use href="#g700-6e" transform="translate(484.088 614) scale(0.028 -0.028)" /><use href="#g700-69" transform="translate(502.036 614) scale(0.028 -0.028)" /><use href="#g700-6e" transform="translate(510.548 614) scale(0.028 -0.028)" /><use href="#g700-67" transform="translate(528.496 614) scale(0.028 -0.028)" /><use href="#g700-ff09" transform="translate(545.212 614) scale(0.028 -0.028)" /></g><g aria-label="&lt;think&gt;已获得北京天气，接下来汇总回答。&lt;/think&gt;" fill="#292929" data-font="Source Han Sans CN 400" data-size="26.0"><use href="#g400-3c" transform="translate(112.098 653) scale(0.026 -0.026)" /><use href="#g400-74" transform="translate(126.528 653) scale(0.026 -0.026)" /><use href="#g400-68" transform="translate(136.330 653) scale(0.026 -0.026)" /><use href="#g400-69" transform="translate(152.112 653) scale(0.026 -0.026)" /><use href="#g400-6e" transform="translate(159.262 653) scale(0.026 -0.026)" /><use href="#g400-6b" transform="translate(175.122 653) scale(0.026 -0.026)" /><use href="#g400-3e" transform="translate(189.474 653) scale(0.026 -0.026)" /><use href="#g400-5df2" transform="translate(203.904 653) scale(0.026 -0.026)" /><use href="#g400-83b7" transform="translate(229.904 653) scale(0.026 -0.026)" /><use href="#g400-5f97" transform="translate(255.904 653) scale(0.026 -0.026)" /><use href="#g400-5317" transform="translate(281.904 653) scale(0.026 -0.026)" /><use href="#g400-4eac" transform="translate(307.904 653) scale(0.026 -0.026)" /><use href="#g400-5929" transform="translate(333.904 653) scale(0.026 -0.026)" /><use href="#g400-6c14" transform="translate(359.904 653) scale(0.026 -0.026)" /><use href="#g400-ff0c" transform="translate(385.904 653) scale(0.026 -0.026)" /><use href="#g400-63a5" transform="translate(411.904 653) scale(0.026 -0.026)" /><use href="#g400-4e0b" transform="translate(437.904 653) scale(0.026 -0.026)" /><use href="#g400-6765" transform="translate(463.904 653) scale(0.026 -0.026)" /><use href="#g400-6c47" transform="translate(489.904 653) scale(0.026 -0.026)" /><use href="#g400-603b" transform="translate(515.904 653) scale(0.026 -0.026)" /><use href="#g400-56de" transform="translate(541.904 653) scale(0.026 -0.026)" /><use href="#g400-7b54" transform="translate(567.904 653) scale(0.026 -0.026)" /><use href="#g400-3002" transform="translate(593.904 653) scale(0.026 -0.026)" /><use href="#g400-3c" transform="translate(619.904 653) scale(0.026 -0.026)" /><use href="#g400-2f" transform="translate(634.334 653) scale(0.026 -0.026)" /><use href="#g400-74" transform="translate(644.526 653) scale(0.026 -0.026)" /><use href="#g400-68" transform="translate(654.328 653) scale(0.026 -0.026)" /><use href="#g400-69" transform="translate(670.110 653) scale(0.026 -0.026)" /><use href="#g400-6e" transform="translate(677.260 653) scale(0.026 -0.026)" /><use href="#g400-6b" transform="translate(693.120 653) scale(0.026 -0.026)" /><use href="#g400-3e" transform="translate(707.472 653) scale(0.026 -0.026)" /></g><rect x="35" y="721" width="765" height="65" rx="6" fill="#dedede" stroke="#333333" stroke-width="1.8" />
<g aria-label="assistant：北京今天晴，气温 23°C…" fill="#292929" data-font="Source Han Sans CN 700" data-size="28.0"><use href="#g700-61" transform="translate(180.106 761) scale(0.028 -0.028)" /><use href="#g700-73" transform="translate(196.654 761) scale(0.028 -0.028)" /><use href="#g700-73" transform="translate(210.514 761) scale(0.028 -0.028)" /><use href="#g700-69" transform="translate(224.374 761) scale(0.028 -0.028)" /><use href="#g700-73" transform="translate(232.886 761) scale(0.028 -0.028)" /><use href="#g700-74" transform="translate(246.746 761) scale(0.028 -0.028)" /><use href="#g700-61" transform="translate(258.534 761) scale(0.028 -0.028)" /><use href="#g700-6e" transform="translate(275.082 761) scale(0.028 -0.028)" /><use href="#g700-74" transform="translate(293.030 761) scale(0.028 -0.028)" /><use href="#g700-ff1a" transform="translate(304.818 761) scale(0.028 -0.028)" /><use href="#g700-5317" transform="translate(332.818 761) scale(0.028 -0.028)" /><use href="#g700-4eac" transform="translate(360.818 761) scale(0.028 -0.028)" /><use href="#g700-4eca" transform="translate(388.818 761) scale(0.028 -0.028)" /><use href="#g700-5929" transform="translate(416.818 761) scale(0.028 -0.028)" /><use href="#g700-6674" transform="translate(444.818 761) scale(0.028 -0.028)" /><use href="#g700-ff0c" transform="translate(472.818 761) scale(0.028 -0.028)" /><use href="#g700-6c14" transform="translate(500.818 761) scale(0.028 -0.028)" /><use href="#g700-6e29" transform="translate(528.818 761) scale(0.028 -0.028)" /><use href="#g700-20" transform="translate(556.818 761) scale(0.028 -0.028)" /><use href="#g700-32" transform="translate(563.174 761) scale(0.028 -0.028)" /><use href="#g700-33" transform="translate(579.694 761) scale(0.028 -0.028)" /><use href="#g700-b0" transform="translate(596.214 761) scale(0.028 -0.028)" /><use href="#g700-43" transform="translate(607.526 761) scale(0.028 -0.028)" /><use href="#g700-2026" transform="translate(625.894 761) scale(0.028 -0.028)" /></g><path d="M835 35 L855 35 L855 706 L835 706" fill="none" stroke="#333333" stroke-width="1.8" />
<g aria-label="上" fill="#292929" data-font="Source Han Sans CN 400" data-size="26.0"><use href="#g400-4e0a" transform="translate(866.000 335) scale(0.026 -0.026)" /></g><g aria-label="下" fill="#292929" data-font="Source Han Sans CN 400" data-size="26.0"><use href="#g400-4e0b" transform="translate(866.000 370) scale(0.026 -0.026)" /></g><g aria-label="文" fill="#292929" data-font="Source Han Sans CN 400" data-size="26.0"><use href="#g400-6587" transform="translate(866.000 405) scale(0.026 -0.026)" /></g><g aria-label="窗" fill="#292929" data-font="Source Han Sans CN 400" data-size="26.0"><use href="#g400-7a97" transform="translate(866.000 440) scale(0.026 -0.026)" /></g><g aria-label="口" fill="#292929" data-font="Source Han Sans CN 400" data-size="26.0"><use href="#g400-53e3" transform="translate(866.000 475) scale(0.026 -0.026)" /></g><g aria-label="当前生成位置" fill="#292929" data-font="Source Han Sans CN 400" data-size="26.0"><use href="#g400-5f53" transform="translate(372.000 828) scale(0.026 -0.026)" /><use href="#g400-524d" transform="translate(398.000 828) scale(0.026 -0.026)" /><use href="#g400-751f" transform="translate(424.000 828) scale(0.026 -0.026)" /><use href="#g400-6210" transform="translate(450.000 828) scale(0.026 -0.026)" /><use href="#g400-4f4d" transform="translate(476.000 828) scale(0.026 -0.026)" /><use href="#g400-7f6e" transform="translate(502.000 828) scale(0.026 -0.026)" /></g><path d="M450 806 L450 787" fill="none" stroke="#333333" stroke-width="1.8" marker-end="url(#arrow)" />
<defs><path id="g700-7cfb" d="M364 173 242 216C195 153 114 85 38 43C68 25 118 -13 143 -36C216 14 305 96 364 173ZM717 221 619 158C697 100 795 17 839 -37L946 34C895 90 794 169 717 221ZM732 488 642 441C660 423 680 402 699 381L398 361C528 427 657 506 775 599L688 677C644 639 595 602 546 568L346 558C405 600 464 649 515 699C645 712 769 730 872 754L786 853C617 813 338 788 92 779C103 752 118 704 121 674C194 676 272 680 349 685C296 636 245 597 223 584C193 564 170 550 147 546C159 517 175 466 180 444C203 453 235 458 393 469C327 430 273 401 243 388C180 356 141 339 102 333C114 303 131 248 136 227C169 240 213 246 444 265V45C444 33 439 30 422 30C405 30 344 30 292 32C310 0 330 -51 336 -85C410 -85 466 -84 510 -66C554 -48 566 -16 566 41V275L773 292C798 259 820 228 835 202L929 260C889 324 807 418 732 488Z" /><path id="g700-7edf" d="M799 63V345H681V62C681 -39 702 -73 792 -73C808 -73 844 -73 861 -73C937 -73 964 -27 972 131C943 138 894 158 871 178C869 50 865 28 849 28C842 28 820 28 815 28C801 28 799 32 799 63ZM611 344H492C486 174 473 68 320 4C347 -18 380 -65 393 -95C576 -11 603 133 611 344ZM34 68 62 -50C159 -13 282 35 395 82L373 184C248 139 119 93 34 68ZM694 854 580 826C594 793 610 751 620 719H397V612H555C514 557 464 495 446 477C423 457 394 448 373 443C383 418 403 357 408 328C441 343 491 350 833 385C847 359 859 334 867 314L967 367C940 430 877 524 824 594L731 548C747 526 763 503 778 478L581 461C617 507 659 563 695 612H956V719H680L744 737C734 767 712 817 694 854ZM67 169C93 186 135 199 375 254C371 280 371 327 374 360L235 332C298 409 359 498 407 585L302 650C285 614 266 578 246 544L174 539C230 618 283 714 320 803L197 859C164 745 100 623 79 592C57 560 40 539 18 533C33 499 54 438 61 413C76 421 99 427 178 437C148 393 122 360 108 345C76 308 55 286 28 280C42 250 61 193 67 169Z" /><path id="g700-63d0" d="M517 556V607H788V556ZM517 684V734H788V684ZM903 819H408V472H903ZM527 285 418 298C404 162 363 50 279 -16C304 -32 349 -68 367 -87C411 -46 446 7 473 70C540 -52 641 -77 774 -77H948C952 -46 967 4 981 29C937 27 812 27 779 27C755 27 731 28 709 30V147H900V241H709V328H954V425H359V328H596V66C560 89 530 125 509 182C516 215 522 249 527 285ZM251 50V285L357 316L341 424L251 400V550H351V660H251V849H141V660H33V550H141V371L23 342L49 227L141 253V51C141 38 137 34 125 34C113 33 78 33 41 34C56 3 69 -47 72 -76C136 -76 181 -72 211 -53C242 -35 251 -5 251 50Z" /><path id="g700-793a" d="M324 319 197 352C161 248 95 141 22 75C54 59 108 24 133 3C204 78 279 199 324 319ZM784 355 671 309C736 211 804 82 826 0L951 54C923 140 850 263 784 355ZM854 785H145V666H854ZM948 544H54V425H438V54C438 40 431 35 413 35C394 34 322 35 265 38C283 2 302 -53 308 -90C395 -90 461 -88 508 -69C555 -50 569 -16 569 51V425H948Z" /><path id="g700-8bcd" d="M163 829 87 756C141 709 211 642 242 599L323 680C288 723 216 786 163 829ZM767 626H385V526H767ZM165 -73C183 -49 214 -22 391 114C380 137 365 185 358 217L272 153V541H38V426H160V126C160 69 125 26 101 6C120 -10 154 -50 165 -73ZM931 48V805H367V695H816V50C816 33 810 27 793 27C775 27 714 26 660 29C677 -2 693 -57 698 -90C783 -90 841 -87 880 -68C918 -48 931 -15 931 48ZM733 453H416V63H520V123H733ZM520 352H628V224H520Z" /><path id="g700-ff08" d="M663 380C663 166 752 6 860 -100L955 -58C855 50 776 188 776 380C776 572 855 710 955 818L860 860C752 754 663 594 663 380Z" /><path id="g700-53" d="M312 -14C483 -14 584 89 584 210C584 317 526 374 435 412L338 451C275 477 223 496 223 549C223 598 263 627 328 627C382 627 435 604 484 567L561 662C502 719 417 754 328 754C179 754 72 660 72 540C72 433 148 373 223 341L321 299C387 271 433 254 433 199C433 147 392 114 315 114C247 114 173 141 120 191L42 95C114 23 211 -14 312 -14Z" /><path id="g700-79" d="M128 -224C253 -224 313 -149 362 -17L561 560H420L343 300C329 248 315 194 303 142H298C282 196 268 250 251 300L162 560H14L232 11L222 -23C206 -72 174 -108 117 -108C105 -108 94 -107 78 -102L51 -212C73 -220 95 -224 128 -224Z" /><path id="g700-73" d="M239 -14C384 -14 462 64 462 163C462 259 390 304 302 334C233 357 195 372 195 410C195 440 219 464 270 464C312 464 352 452 393 422L456 505C410 545 343 574 266 574C138 574 57 503 57 403C57 314 130 267 210 237C271 215 324 197 324 155C324 120 299 96 243 96C190 96 139 112 89 152L26 69C81 16 162 -14 239 -14Z" /><path id="g700-74" d="M284 -12C332 -12 373 -2 403 11L378 114C362 107 341 104 323 104C273 104 246 133 246 198V444H385V560H246V733H125L108 560L21 553V444H100V197C100 72 151 -12 284 -12Z" /><path id="g700-65" d="M323 -14C392 -14 463 9 518 48L471 137C429 113 388 100 343 100C269 100 201 136 184 238H532C536 252 539 279 539 306C539 462 459 574 305 574C172 574 44 461 44 280C44 95 166 -14 323 -14ZM184 337C199 426 256 460 307 460C380 460 413 412 413 337Z" /><path id="g700-6d" d="M79 0H226V385C265 428 301 448 333 448C387 448 412 418 412 331V0H558V385C598 428 634 448 666 448C719 448 744 418 744 331V0H890V349C890 490 836 574 717 574C645 574 590 530 538 476C512 538 465 574 385 574C312 574 260 534 213 485H210L199 560H79Z" /><path id="g700-20" d="" /><path id="g700-50" d="M91 0H239V263H338C497 263 624 339 624 508C624 683 498 741 334 741H91ZM239 380V623H323C425 623 479 594 479 508C479 423 430 380 328 380Z" /><path id="g700-72" d="M79 0H226V334C258 415 310 444 353 444C377 444 390 442 408 437L437 562C421 569 403 574 372 574C313 574 253 534 213 461H210L199 560H79Z" /><path id="g700-6f" d="M313 -14C453 -14 582 94 582 280C582 466 453 574 313 574C172 574 44 466 44 280C44 94 172 -14 313 -14ZM313 106C236 106 194 174 194 280C194 385 236 454 313 454C389 454 432 385 432 280C432 174 389 106 313 106Z" /><path id="g700-70" d="M79 -215H226V-44L221 47C263 8 311 -14 360 -14C483 -14 598 97 598 289C598 461 515 574 378 574C317 574 260 542 213 502H210L199 560H79ZM328 107C297 107 262 118 226 149V396C264 434 298 453 336 453C413 453 447 394 447 287C447 165 394 107 328 107Z" /><path id="g700-ff09" d="M337 380C337 594 248 754 140 860L45 818C145 710 224 572 224 380C224 188 145 50 45 -58L140 -100C248 6 337 166 337 380Z" /><path id="g400-59" d="M219 0H311V284L532 733H436L342 526C319 472 294 420 268 365H264C238 420 216 472 192 526L97 733H-1L219 284Z" /><path id="g400-6f" d="M303 -13C436 -13 554 91 554 271C554 452 436 557 303 557C170 557 52 452 52 271C52 91 170 -13 303 -13ZM303 63C209 63 146 146 146 271C146 396 209 480 303 480C397 480 461 396 461 271C461 146 397 63 303 63Z" /><path id="g400-75" d="M251 -13C325 -13 379 26 430 85H433L440 0H516V543H425V158C373 94 334 66 278 66C206 66 176 109 176 210V543H84V199C84 60 136 -13 251 -13Z" /><path id="g400-20" d="" /><path id="g400-61" d="M217 -13C284 -13 345 22 397 65H400L408 0H483V334C483 469 428 557 295 557C207 557 131 519 82 486L117 425C160 452 217 481 280 481C369 481 392 414 392 344C161 318 59 259 59 141C59 43 126 -13 217 -13ZM243 61C189 61 147 85 147 147C147 217 209 262 392 283V132C339 85 295 61 243 61Z" /><path id="g400-72" d="M92 0H184V349C220 441 275 475 320 475C343 475 354 473 370 468L390 545C373 554 356 557 332 557C270 557 215 513 178 444H176L167 543H92Z" /><path id="g400-65" d="M312 -13C385 -13 443 10 490 42L459 100C419 75 375 60 322 60C228 60 149 124 140 250H508C510 264 512 282 512 302C512 457 434 557 295 557C171 557 52 448 52 271C52 92 167 -13 312 -13ZM141 315C154 433 228 484 297 484C382 484 432 425 432 315Z" /><path id="g400-68" d="M92 0H184V394C238 449 276 477 332 477C404 477 435 434 435 332V0H526V344C526 482 474 557 360 557C286 557 230 516 180 466L184 578V796H92Z" /><path id="g400-6c" d="M188 -11C211 -11 228 -7 241 0L228 67C220 65 215 65 210 65C195 65 184 75 184 105V796H92V111C92 33 120 -11 188 -11Z" /><path id="g400-70" d="M92 -229H184V-45L181 50C230 9 282 -13 331 -13C455 -13 567 94 567 280C567 448 491 557 351 557C288 557 227 521 178 480H176L167 543H92ZM316 64C280 64 232 78 184 120V406C236 454 283 480 328 480C432 480 472 400 472 279C472 145 406 64 316 64Z" /><path id="g400-66" d="M27 469H107V0H198V469H313V543H198V629C198 699 223 736 275 736C294 736 315 732 336 724L356 792C333 802 299 809 265 809C157 809 107 740 107 630V543L27 538Z" /><path id="g400-73" d="M234 -13C362 -13 431 60 431 148C431 247 350 283 264 314C198 338 149 357 149 407C149 448 181 486 250 486C298 486 337 470 375 442L417 495C376 531 316 557 249 557C130 557 62 489 62 403C62 313 141 275 222 245C283 223 344 198 344 143C344 96 309 58 237 58C169 58 120 79 74 118L32 64C81 15 154 -13 234 -13Z" /><path id="g400-69" d="M92 0H184V543H92ZM137 655C172 655 198 679 198 716C198 751 172 775 137 775C101 775 76 751 76 716C76 679 101 655 137 655Z" /><path id="g400-74" d="M262 -11C299 -11 335 -1 364 13L345 78C324 67 303 64 283 64C220 64 199 102 199 169V469H347V543H199V718H123L113 543L27 538V469H108V171C108 63 147 -11 262 -11Z" /><path id="g400-6e" d="M92 0H184V394C238 449 276 477 332 477C404 477 435 434 435 332V0H526V344C526 482 474 557 360 557C286 557 229 516 178 464H176L167 543H92Z" /><path id="g400-2e" d="M139 -13C175 -13 205 15 205 56C205 98 175 126 139 126C102 126 73 98 73 56C73 15 102 -13 139 -13Z" /><path id="g400-41" d="M4 0H97L168 224H436L506 0H604L355 733H252ZM191 297 227 410C253 493 277 572 300 658H304C328 573 351 493 378 410L413 297Z" /><path id="g400-77" d="M178 0H284L361 291C375 343 387 394 398 450H403C416 394 426 344 440 293L518 0H629L776 543H688L609 229C597 177 587 128 576 78H571C558 128 546 177 533 229L448 543H359L274 229C261 177 249 128 238 78H233C222 128 212 177 201 229L120 543H27Z" /><path id="g400-63" d="M308 -13C376 -13 437 14 482 57L442 113C409 83 364 63 315 63C214 63 146 146 146 271C146 396 219 480 317 480C363 480 398 463 426 437L471 493C434 530 384 557 313 557C173 557 52 452 52 271C52 91 162 -13 308 -13Z" /><path id="g400-79" d="M101 -234C209 -234 266 -152 304 -46L508 543H419L321 242C307 193 291 138 277 88H272C253 139 235 194 218 242L108 543H13L231 -1L219 -42C196 -109 158 -159 97 -159C84 -159 70 -156 56 -151L37 -222C54 -230 76 -234 101 -234Z" /><path id="g400-55" d="M361 -13C510 -13 624 66 624 299V733H535V296C535 122 458 68 361 68C265 68 190 122 190 296V733H98V299C98 66 211 -13 361 -13Z" /><path id="g400-2d" d="M46 245H302V315H46Z" /><path id="g400-6d" d="M92 0H184V394C233 450 279 477 320 477C389 477 421 434 421 332V0H512V394C563 450 607 477 649 477C718 477 750 434 750 332V0H841V344C841 482 788 557 677 557C610 557 554 514 497 453C475 517 431 557 347 557C282 557 226 516 178 464H176L167 543H92Z" /><path id="g700-5de5" d="M959 101H565V620H903V746H100V620H428V101H45V-20H959Z" /><path id="g700-5177" d="M806 803H202V233H45V126H294C228 80 120 27 29 -4C57 -27 96 -66 117 -90C217 -55 341 8 420 66L335 126H639L581 64C690 17 807 -47 874 -91L973 -3C910 33 806 83 708 126H959V233H806ZM318 233V291H685V233ZM318 654V708H685V654ZM318 569H685V516H318ZM318 431H685V376H318Z" /><path id="g700-5b9a" d="M324 369 202 381C184 208 135 69 27 -11C54 -28 104 -70 123 -91C181 -42 225 23 258 101C349 -44 487 -75 674 -75H925C931 -39 950 19 968 47C900 45 734 45 680 45C638 45 599 47 562 52V196H837V308H562V428H776V542H223V428H437V88C379 117 333 166 303 246C312 285 319 326 324 369ZM529 860 409 827C421 802 434 772 443 744H71V492H189V630H807V492H931V744H581C569 780 548 825 529 860Z" /><path id="g700-4e49" d="M489 852 384 816C422 738 468 634 488 566L599 610C576 676 530 775 489 852ZM902 738 777 775C723 589 637 422 505 287C386 405 299 551 243 716L129 681C197 493 288 332 411 203C308 122 182 58 28 14C49 -14 78 -61 91 -92C256 -40 390 32 500 119C609 29 739 -41 894 -87C912 -54 949 -2 976 23C829 62 703 125 597 207C740 353 834 534 902 738Z" /><path id="g700-54" d="M238 0H386V617H595V741H30V617H238Z" /><path id="g700-6c" d="M218 -12C251 -12 276 -7 293 1L275 109C266 107 262 107 255 107C241 107 226 117 226 152V798H79V158C79 54 115 -12 218 -12Z" /><path id="g700-44" d="M91 0H302C521 0 660 124 660 374C660 623 521 741 294 741H91ZM239 120V622H284C423 622 509 554 509 374C509 194 423 120 284 120Z" /><path id="g700-66" d="M21 444H104V0H250V444H357V560H250V608C250 670 275 696 318 696C338 696 357 694 376 687L405 793C382 803 342 812 298 812C158 812 104 721 104 605V559L21 553Z" /><path id="g700-69" d="M79 0H226V560H79ZM152 651C202 651 238 682 238 731C238 779 202 811 152 811C101 811 66 779 66 731C66 682 101 651 152 651Z" /><path id="g700-6e" d="M79 0H226V385C267 426 297 448 342 448C397 448 421 418 421 331V0H568V349C568 490 516 574 395 574C319 574 262 534 213 486H210L199 560H79Z" /><path id="g400-7b" d="M254 -170H304V-118H275C215 -118 199 -88 199 -16C199 52 205 111 205 187C205 258 187 295 138 308V313C187 326 205 362 205 434C205 511 199 569 199 637C199 710 215 739 275 739H304V792H254C166 792 124 758 124 642C124 561 134 502 134 426C134 384 114 341 38 340V282C114 282 134 239 134 194C134 119 124 60 124 -22C124 -137 166 -170 254 -170Z" /><path id="g400-22" d="M110 483H167L184 669L186 771H90L92 669ZM307 483H362L381 669L383 771H286L288 669Z" /><path id="g400-3a" d="M139 390C175 390 205 418 205 460C205 501 175 530 139 530C102 530 73 501 73 460C73 418 102 390 139 390ZM139 -13C175 -13 205 15 205 56C205 98 175 126 139 126C102 126 73 98 73 56C73 15 102 -13 139 -13Z" /><path id="g400-67" d="M275 -250C443 -250 550 -163 550 -62C550 28 486 67 361 67H254C181 67 159 92 159 126C159 156 174 174 194 191C218 179 248 172 274 172C386 172 473 245 473 359C473 409 454 445 427 469V473H540V543H351C332 551 305 557 274 557C165 557 71 482 71 363C71 298 106 245 142 217V213C113 193 82 157 82 112C82 69 103 40 131 23V18C80 -13 51 -58 51 -105C51 -198 143 -250 275 -250ZM274 234C212 234 159 284 159 363C159 443 211 490 274 490C339 490 390 443 390 363C390 284 337 234 274 234ZM288 -187C189 -187 131 -150 131 -92C131 -61 147 -28 186 0C210 -6 236 -8 256 -8H350C422 -8 460 -26 460 -77C460 -133 393 -187 288 -187Z" /><path id="g400-5f" d="M13 -140H545V-80H13Z" /><path id="g400-2c" d="M75 -190C165 -152 221 -77 221 19C221 86 192 126 144 126C107 126 75 102 75 62C75 22 106 -2 142 -2L153 -1C152 -61 115 -109 53 -136Z" /><path id="g400-64" d="M277 -13C342 -13 400 22 442 64H445L453 0H528V796H436V587L441 494C393 533 352 557 288 557C164 557 53 447 53 271C53 90 141 -13 277 -13ZM297 64C202 64 147 141 147 272C147 396 217 480 304 480C349 480 391 464 436 423V138C391 88 347 64 297 64Z" /><path id="g400-67e5" d="M295 134V218H700V134ZM295 270V352H700V270ZM778 406H221V80H778ZM930 20H74V-48H930ZM534 840H460V713H57V647H379C293 553 158 467 36 424C52 410 74 383 85 365C221 419 369 524 460 642V437H534V643C626 528 776 424 914 373C925 391 947 420 964 434C838 473 702 556 615 647H944V713H534Z" /><path id="g400-8be2" d="M166 819 114 775C163 729 223 664 251 622L305 672C276 713 215 775 166 819ZM174 -40C189 -20 216 2 385 128C378 143 366 171 360 191L256 116V527H42V454H183V111C183 66 153 37 135 24C148 10 168 -22 174 -40ZM941 690H528C549 732 567 776 583 820L506 840C464 713 394 588 312 506C331 495 363 471 377 458C417 502 457 558 492 621H866C853 203 837 46 804 10C793 -4 783 -6 763 -6C741 -6 686 -6 626 -1C639 -21 647 -53 648 -74C703 -76 760 -78 793 -75C826 -71 849 -62 871 -33C910 16 925 176 940 650C941 662 941 690 941 690ZM672 353H499V460H672ZM672 292V184H499V292ZM499 523H430V61H499V122H739V523Z" /><path id="g400-57ce" d="M41 129 65 56C145 86 244 125 340 164L326 232L229 196V526H325V596H229V828H159V596H53V526H159V170C115 154 74 140 41 129ZM935 493 866 506C844 413 814 329 774 254C758 354 747 478 742 617H953V687H880L930 722C905 754 853 802 809 834L759 801C801 768 850 720 874 687H740C739 737 739 788 739 841H667L670 687H366V375C366 245 356 80 256 -36C272 -45 300 -69 311 -83C420 42 436 233 436 375V419H562C559 238 556 174 546 159C540 150 532 148 520 148C507 148 477 148 442 151C452 135 458 107 459 88C495 86 530 86 550 89C574 91 588 98 602 115C620 141 624 222 627 453C628 462 628 482 628 482H436V617H672C679 443 694 285 720 165C667 88 601 25 521 -24C537 -37 564 -63 575 -76C639 -33 694 20 743 81C774 -14 815 -70 872 -70C936 -70 959 -23 970 127C953 135 929 150 914 166C910 50 901 2 881 2C847 2 818 58 794 153C855 249 902 363 935 493Z" /><path id="g400-5e02" d="M486 847 413 825C437 785 464 732 480 693H51V620H458V484H148V36H223V411H458V-78H535V411H785V132C785 118 780 113 762 112C745 111 684 111 616 114C627 92 639 62 642 40C728 40 784 40 819 53C852 65 862 88 862 131V484H535V620H951V693H549L564 698C549 738 515 801 486 847Z" /><path id="g400-5929" d="M533 568V687H894V763H102V687H454V568C454 532 453 494 448 455H66V379H434C398 238 300 90 42 -15C58 -30 81 -60 90 -78C346 27 455 175 501 323C582 127 715 -11 914 -77C926 -56 949 -26 966 -10C763 49 625 189 555 379H937V455H528C532 494 533 532 533 568Z" /><path id="g400-6c14" d="M853 590H254V527H853ZM332 824 257 842C209 697 126 558 28 470C47 460 80 437 95 425C156 486 214 570 262 663H927V729H294C308 760 321 792 332 824ZM771 448H153V382H698C709 123 746 -79 879 -79C939 -79 956 -32 963 87C946 97 925 114 910 131C908 47 902 -5 884 -5C806 -6 778 219 771 448Z" /><path id="g400-62" d="M331 -13C455 -13 567 94 567 280C567 448 491 557 351 557C290 557 230 523 180 481L184 578V796H92V0H165L173 56H177C224 13 281 -13 331 -13ZM316 64C280 64 231 78 184 120V406C235 454 283 480 328 480C432 480 472 400 472 279C472 145 406 64 316 64Z" /><path id="g400-6a" d="M35 -242C143 -242 184 -173 184 -62V543H93V-62C93 -128 80 -169 26 -169C8 -169 -12 -164 -26 -159L-44 -227C-25 -236 4 -242 35 -242ZM138 655C173 655 199 679 199 716C199 751 173 775 138 775C102 775 77 751 77 716C77 679 102 655 138 655Z" /><path id="g400-7d" d="M34 -170H84C172 -170 215 -137 215 -22C215 60 205 119 205 194C205 239 225 282 300 282V340C225 341 205 384 205 426C205 502 215 561 215 642C215 758 172 792 84 792H34V739H63C123 739 139 710 139 637C139 569 134 511 134 434C134 362 151 326 200 313V308C151 295 134 258 134 187C134 111 139 52 139 -16C139 -88 123 -118 63 -118H34Z" /><path id="g400-71" d="M436 -229H528V543H455L446 492H444C396 534 352 557 288 557C164 557 53 447 53 271C53 90 141 -13 277 -13C340 -13 397 20 441 63L436 -36ZM297 64C202 64 147 141 147 272C147 396 217 480 304 480C349 480 391 464 436 423V138C391 88 347 64 297 64Z" /><path id="g400-5b" d="M106 -170H304V-118H174V739H304V792H106Z" /><path id="g400-5d" d="M34 -170H233V792H34V739H164V-118H34Z" /><path id="g700-5bf9" d="M575 432 479 386C524 317 568 226 582 167L686 219C670 280 622 367 575 432ZM146 519 64 442C122 391 184 331 241 270C187 157 117 67 32 10C60 -12 98 -57 116 -88C202 -22 273 63 328 169C367 121 399 75 420 35L513 126C484 176 438 235 384 294C428 413 457 552 473 712L394 735L374 730H65V616H342C330 536 312 461 289 391C241 437 192 481 146 519ZM860 60V512H967V627H860V850H741V627H487V512H741V60C741 43 734 38 717 38C700 38 646 37 590 40C606 4 624 -54 627 -89C711 -89 771 -84 809 -63C847 -43 860 -8 860 60Z" /><path id="g700-8bdd" d="M155 834 78 761C131 713 201 645 232 601L314 684C280 726 208 790 155 834ZM922 296H722V435H967V549H722V706C796 718 867 732 928 749L849 846C729 810 535 784 364 770C377 744 392 700 396 672C462 676 532 682 602 690V549H353V435H602V296H412V-90H533V-54H796V-86H922ZM533 55V188H796V55ZM161 -73C178 -48 213 -19 395 139C380 161 358 209 348 241L264 169V541H35V426H152V133C152 82 117 40 95 21C115 1 150 -46 161 -73Z" /><path id="g700-5386" d="M610 652H484C483 603 482 556 479 509H258V396H469C447 234 388 96 215 5C244 -16 278 -55 293 -83C494 28 564 199 592 396H794C783 179 770 84 746 61C734 49 722 47 703 47C679 47 622 48 564 52C587 19 602 -32 605 -67C664 -69 722 -70 756 -66C797 -61 824 -50 850 -18C887 26 902 148 916 458C917 473 918 509 918 509H603C606 556 608 604 610 652ZM219 455V698H951V811H96V455C96 308 92 111 22 -24C52 -36 108 -69 130 -89C207 58 219 293 219 455Z" /><path id="g700-53f2" d="M564 590H772V449H564ZM227 449V590H439V449ZM261 323 150 283C188 205 235 144 290 96C230 62 146 34 29 14C56 -14 89 -66 103 -93C234 -65 328 -25 397 24C533 -47 708 -70 926 -80C933 -38 957 15 981 44C772 47 611 60 487 113C535 178 555 254 562 334H896V705H564V844H439V705H109V334H437C432 275 418 222 382 175C335 212 295 261 261 323Z" /><path id="g700-43" d="M396 -14C489 -14 564 23 627 93L552 180C514 140 466 114 406 114C285 114 206 211 206 372C206 529 290 627 401 627C457 627 500 607 538 571L615 659C567 712 492 754 398 754C211 754 54 611 54 367C54 120 208 -14 396 -14Z" /><path id="g700-76" d="M205 0H375L562 560H421L339 281C324 226 309 168 294 111H289C273 168 259 226 243 281L162 560H14Z" /><path id="g700-61" d="M216 -14C281 -14 337 17 385 60H390L400 0H520V327C520 489 447 574 305 574C217 574 137 541 72 500L124 405C176 435 226 456 278 456C347 456 371 414 373 359C148 335 51 272 51 153C51 57 116 -14 216 -14ZM265 101C222 101 191 120 191 164C191 215 236 252 373 268V156C338 121 307 101 265 101Z" /><path id="g700-48" d="M91 0H239V320H519V0H666V741H519V448H239V741H91Z" /><path id="g400-ff1a" d="M250 486C290 486 326 515 326 560C326 606 290 636 250 636C210 636 174 606 174 560C174 515 210 486 250 486ZM250 -4C290 -4 326 26 326 71C326 117 290 146 250 146C210 146 174 117 174 71C174 26 210 -4 250 -4Z" /><path id="g400-5317" d="M34 122 68 48C141 78 232 116 322 155V-71H398V822H322V586H64V511H322V230C214 189 107 147 34 122ZM947 603 891 668C830 611 736 544 643 488V821H565V80C565 -27 593 -57 687 -57C707 -57 827 -57 848 -57C946 -57 965 8 974 190C953 195 922 210 903 226C896 60 889 16 842 16C816 16 716 16 695 16C651 16 643 26 643 79V410C749 469 863 537 947 603Z" /><path id="g400-4eac" d="M262 334V495H743V334ZM746 205 685 167C750 100 831 6 869 -52L933 -8C894 49 811 139 746 205ZM308 177 235 204C196 137 120 52 52 -1C68 -12 94 -34 107 -48C178 10 257 99 308 177ZM487 848 415 824C436 791 459 751 476 716H65V642H937V716H563C546 754 514 808 487 848ZM543 7V267H822V561H188V267H464V8C464 -6 460 -10 441 -11C423 -11 361 -12 292 -10C303 -31 313 -60 318 -81C406 -82 463 -82 498 -70C533 -58 543 -37 543 7Z" /><path id="g400-4eca" d="M441 579 390 533C456 484 540 412 580 367L634 420C592 464 505 532 441 579ZM787 348H161V272H722C650 179 547 51 461 -48L538 -83C644 46 776 212 859 324L801 352ZM567 813 495 847C394 695 216 556 35 475C57 457 80 429 92 408C244 485 394 599 503 729C612 605 774 482 906 415C920 435 945 467 965 483C823 544 649 668 548 786Z" /><path id="g400-600e" d="M346 36V216H272V35C272 -46 303 -66 420 -66C445 -66 628 -66 654 -66C749 -66 774 -37 784 83C763 88 732 98 715 111C710 15 701 2 648 2C607 2 454 2 423 2C358 2 346 7 346 36ZM824 236 753 215C799 133 853 24 878 -40L953 -14C926 48 869 156 824 236ZM219 195 153 221C133 151 97 52 60 -10L128 -42C163 24 196 125 219 195ZM355 825 279 843C236 703 158 573 61 492C79 480 110 454 123 440C184 497 240 574 287 663H414V269H440L405 237C466 192 545 129 584 90L636 143C599 176 531 228 474 269H489V357H900V422H489V513H875V575H489V663H926V729H318C332 760 344 792 355 825Z" /><path id="g400-4e48" d="M520 800 443 829C362 689 208 519 61 414C78 400 104 375 118 360C268 473 421 646 520 800ZM702 330 635 296C681 240 730 173 773 108L258 67C418 204 586 385 739 593L662 631C510 413 304 203 237 147C176 92 133 57 102 50C113 28 129 -10 134 -27C172 -13 231 -12 818 38C841 -1 862 -37 876 -68L947 -28C899 69 796 218 702 330Z" /><path id="g400-6837" d="M507 836 441 811C474 760 510 692 525 649L595 678C580 721 542 786 507 836ZM898 817 822 843C800 784 763 704 729 648H399V579H624V441H430V372H624V231H361V160H624V-79H699V160H947V231H699V372H895V441H699V579H928V648H808C838 698 870 761 898 817ZM255 840H183V647H55V577H183C154 440 93 281 31 197C44 179 63 146 71 124C112 185 152 281 183 382V-79H255V440C282 390 313 332 326 300L373 355C356 383 282 498 255 534V577H361V647H255Z" /><path id="g400-ff1f" d="M195 242H277C250 393 461 425 461 578C461 690 382 761 258 761C161 761 94 717 33 653L87 603C137 658 190 686 248 686C333 686 372 636 372 570C372 456 164 410 195 242ZM238 -5C273 -5 302 21 302 61C302 101 273 128 238 128C202 128 173 101 173 61C173 21 202 -5 238 -5Z" /><path id="g400-31" d="M88 0H490V76H343V733H273C233 710 186 693 121 681V623H252V76H88Z" /><path id="g400-2192" d="M649 182 709 147C776 235 876 323 965 380C876 437 776 525 709 613L649 578C694 516 760 453 811 414H40V346H811C760 307 694 244 649 182Z" /><path id="g400-28" d="M239 -196 295 -171C209 -29 168 141 168 311C168 480 209 649 295 792L239 818C147 668 92 507 92 311C92 114 147 -47 239 -196Z" /><path id="g400-3d" d="M38 455H518V523H38ZM38 215H518V283H38Z" /><path id="g400-29" d="M99 -196C191 -47 246 114 246 311C246 507 191 668 99 818L42 792C128 649 171 480 171 311C171 141 128 -29 42 -171Z" /><path id="g400-ff08" d="M695 380C695 185 774 26 894 -96L954 -65C839 54 768 202 768 380C768 558 839 706 954 825L894 856C774 734 695 575 695 380Z" /><path id="g400-ff09" d="M305 380C305 575 226 734 106 856L46 825C161 706 232 558 232 380C232 202 161 54 46 -65L106 -96C226 26 305 185 305 380Z" /><path id="g400-32" d="M44 0H505V79H296C259 79 215 75 176 72C350 235 470 382 470 531C470 661 387 746 256 746C164 746 101 702 42 637L93 587C134 636 185 672 245 672C336 672 380 611 380 527C380 402 277 255 44 58Z" /><path id="g400-33" d="M263 -13C394 -13 499 65 499 196C499 297 430 361 344 382V387C422 414 474 474 474 563C474 679 384 746 260 746C176 746 111 709 56 659L105 601C147 643 198 672 257 672C334 672 381 626 381 556C381 477 330 416 178 416V346C348 346 406 288 406 199C406 115 345 63 257 63C174 63 119 103 76 147L29 88C77 35 149 -13 263 -13Z" /><path id="g400-b0" d="M186 480C260 480 325 536 325 622C325 709 260 765 186 765C111 765 45 709 45 622C45 536 111 480 186 480ZM186 531C136 531 101 569 101 622C101 676 136 715 186 715C235 715 270 676 270 622C270 569 235 531 186 531Z" /><path id="g400-43" d="M379 -13C474 -13 542 24 601 92L553 146C506 95 453 68 385 68C243 68 153 184 153 369C153 551 246 665 384 665C445 665 495 641 534 600L584 656C542 706 471 746 383 746C197 746 58 603 58 366C58 128 196 -13 379 -13Z" /><path id="g400-6674" d="M263 481H139V703H263ZM263 414V185H139V414ZM139 771H76V36H139V117H327V771ZM705 840H632V759H402V701H632V639H428V584H632V517H375V459H958V517H705V584H920V639H705V701H939V759H705ZM896 -2V398H446V-79H515V84H826V-2C826 -13 822 -17 810 -17C798 -18 756 -18 710 -16C720 -34 729 -60 732 -79C795 -79 836 -78 863 -68C889 -57 896 -39 896 -2ZM826 341V266H515V341ZM515 212H826V137H515Z" /><path id="g700-672c" d="M563 849H436V655H59V533H306C243 381 141 237 24 157C52 134 91 90 112 60C152 91 190 128 225 170V80H436V-90H563V80H771V167C804 128 839 93 877 64C898 98 941 145 972 170C855 249 753 386 690 533H943V655H563ZM436 533V202H251C323 296 384 410 429 533ZM563 533H567C612 411 671 296 743 202H563Z" /><path id="g700-8f6e" d="M876 336 795 438C748 399 681 354 617 317V473H527C587 538 637 608 678 680C736 572 811 470 888 403C908 432 947 475 974 496C883 565 788 688 738 802L750 831L623 853C579 732 494 590 361 485C388 465 426 421 443 393C462 409 481 426 498 444V92C498 -25 529 -61 648 -61C672 -61 768 -61 792 -61C895 -61 926 -16 939 140C907 147 857 167 831 186C827 69 820 47 782 47C760 47 683 47 664 47C624 47 617 52 617 93V191C699 230 797 286 876 336ZM28 185 52 70 217 99V-84H321V118L429 139L423 242L321 226V325H408V433H321V577H217V433H166C189 492 212 559 232 628H411V741H262C269 771 275 801 280 830L171 850C167 814 161 777 154 741H38V628H129C112 561 95 508 87 487C70 442 56 413 36 406C49 380 66 331 71 310C79 319 117 325 148 325H217V211C146 200 80 191 28 185Z" /><path id="g700-63a8" d="M745 842 642 801C663 763 685 714 698 676H561C581 721 599 767 615 813L502 844C456 696 376 550 284 459C296 450 311 435 326 419L261 402V554H360V665H261V849H145V665H34V554H145V372C99 360 57 350 22 342L49 226L145 254V47C145 34 141 30 129 30C117 30 81 30 46 31C61 -3 75 -55 78 -86C144 -87 188 -82 220 -62C251 -43 261 -10 261 46V288L359 317L347 396L369 370C391 394 412 421 433 450V-91H548V-28H966V81H783V176H931V282H783V372H932V478H783V567H944V676H752L813 703C800 741 772 799 745 842ZM548 478V567H671V478ZM548 372H671V282H548ZM548 176H671V81H548Z" /><path id="g700-7406" d="M514 442V527H617V442ZM718 527H816V442H718ZM514 622V706H617V622ZM718 706H816V622H718ZM975 51H729V146H941V254H729V340H931V807H405V340H606V254H399V146H606V51H329V-58H975ZM24 124 51 2C147 33 268 73 379 111L359 225L261 194V394H351V504H261V681H368V792H36V681H146V504H45V394H146V159Z" /><path id="g700-52" d="M239 397V623H335C430 623 482 596 482 516C482 437 430 397 335 397ZM494 0H659L486 303C571 336 627 405 627 516C627 686 504 741 348 741H91V0H239V280H342Z" /><path id="g700-67" d="M276 -243C463 -243 581 -157 581 -44C581 54 507 96 372 96H276C211 96 188 112 188 141C188 165 198 177 212 190C237 181 263 177 284 177C405 177 501 240 501 365C501 400 490 426 472 448V452H571V560H370C346 568 317 574 284 574C166 574 59 503 59 372C59 306 95 253 134 225V221C100 197 72 158 72 117C72 70 93 41 123 22V17C70 -12 43 -52 43 -99C43 -198 144 -243 276 -243ZM284 268C236 268 197 305 197 372C197 437 235 473 284 473C334 473 373 437 373 372C373 305 334 268 284 268ZM298 -149C217 -149 165 -123 165 -77C165 -53 176 -31 201 -11C222 -16 245 -18 278 -18H347C407 -18 440 -29 440 -69C440 -112 383 -149 298 -149Z" /><path id="g400-3c" d="M518 146V226L281 313L131 369V373L281 429L518 517V596L38 407V335Z" /><path id="g400-6b" d="M92 0H182V143L284 262L443 0H542L337 324L518 543H416L186 257H182V796H92Z" /><path id="g400-3e" d="M38 146 518 335V407L38 596V517L274 429L424 373V369L274 313L38 226Z" /><path id="g400-5df2" d="M825 778H93V703H747V440H222V605H146V102C146 -22 197 -52 359 -52C397 -52 695 -52 735 -52C900 -52 933 3 952 187C929 191 896 204 876 218C862 57 845 22 736 22C668 22 408 22 355 22C245 22 222 37 222 100V366H747V316H825Z" /><path id="g400-83b7" d="M760 590 709 554C761 518 819 465 846 427L900 469C872 506 812 557 760 590ZM678 448V596H608V448L607 413H373V343H601C584 220 527 78 345 -34C364 -47 388 -66 401 -82C551 11 621 125 653 238C704 94 784 -17 904 -78C914 -59 937 -32 954 -18C815 43 729 176 685 343H942V413H678ZM707 840H633V760H373V840H299V760H62V692H299V610H373V692H633V615H707V692H942V760H707ZM386 556 325 590C304 566 278 541 248 517C221 548 186 578 143 606L94 566C136 538 168 509 193 478C146 447 93 418 41 396C55 383 76 361 86 346C135 368 184 395 230 425C246 396 257 365 264 334C215 265 119 191 39 156C55 142 74 117 84 100C148 135 221 192 275 251L276 211C276 109 268 38 244 9C236 -1 227 -6 213 -7C191 -10 153 -10 108 -7C121 -26 130 -53 131 -74C172 -76 209 -76 242 -70C264 -67 282 -57 295 -42C335 5 346 93 346 207C346 296 337 384 287 465C325 494 359 525 386 556Z" /><path id="g400-5f97" d="M482 535V617H813V535ZM482 672V752H813V672ZM888 809H409V478H888ZM464 179 411 144C456 100 510 38 535 -2L592 40C566 78 511 137 464 179ZM322 810 251 838C207 767 117 683 38 632C50 617 69 587 78 571C167 630 263 723 322 810ZM803 3V195H953V260H803V346H936V410H347V346H728V260H324V195H728V4C728 -9 724 -12 708 -13C693 -15 644 -15 587 -13C597 -33 608 -60 612 -81C686 -81 734 -80 764 -69C795 -58 803 -38 803 3ZM335 591 269 617C209 514 113 411 22 345C34 327 55 288 61 272C100 303 140 341 179 382V-79H252V468C283 508 311 549 335 591Z" /><path id="g400-ff0c" d="M157 -107C262 -70 330 12 330 120C330 190 300 235 245 235C204 235 169 210 169 163C169 116 203 92 244 92L261 94C256 25 212 -22 135 -54Z" /><path id="g400-63a5" d="M513 659 456 635C485 595 515 539 528 504L588 532C575 566 543 619 513 659ZM230 10V295L329 327L319 397L230 369V568H330V638H230V839H160V638H41V568H160V347C110 332 64 318 28 309L47 235L160 272V9C160 -4 155 -8 143 -8C132 -8 96 -8 57 -7C66 -27 76 -59 78 -77C136 -78 173 -75 196 -63C220 -51 230 -31 230 10ZM637 832 568 821C584 795 600 764 613 735H383V669H926V735H692C678 766 657 803 637 832ZM840 637 769 658C751 611 714 544 685 501H348V436H952V501H758C785 540 814 591 840 637ZM765 261C745 198 715 148 671 108C615 130 558 151 503 168C523 196 544 228 564 261ZM963 326H601C618 357 633 388 646 418L576 432C562 398 544 362 524 326H335V261H486C457 214 427 171 400 136C465 116 537 91 606 62C536 23 443 -1 320 -14C333 -30 345 -57 352 -78C496 -57 604 -24 682 29C764 -8 837 -47 886 -82L935 -25C886 9 817 44 742 78C788 126 820 186 840 261H963Z" /><path id="g400-4e0b" d="M534 527 520 511V691H946V766H55V691H441V-79H520V451C635 389 769 306 839 250L891 319C812 379 653 469 534 527Z" /><path id="g400-6765" d="M834 605 756 629C733 568 690 482 655 429L719 406C754 456 798 535 834 605ZM252 624 185 600C224 539 263 459 276 408L347 436C332 487 292 566 252 624ZM539 840H460V719H104V648H460V396H57V324H409C317 202 169 85 34 26C52 11 75 -18 88 -36C219 30 363 150 460 283V-79H539V285C636 151 780 27 914 -39C927 -20 950 8 968 23C832 83 683 202 591 324H945V396H539V648H903V719H539Z" /><path id="g400-6c47" d="M137 818 91 767C151 732 224 678 260 641L309 698C272 733 196 784 137 818ZM86 543 42 491C103 459 180 410 218 377L264 435C224 469 146 514 86 543ZM63 -10 127 -60C183 30 247 148 297 249L240 298C185 189 113 64 63 -10ZM933 708V782H345V-30H953V45H422V708Z" /><path id="g400-603b" d="M816 247 759 214C816 145 875 52 897 -9L958 29C936 91 875 180 816 247ZM465 311 412 269C478 223 554 153 591 104L647 152C609 199 532 267 465 311ZM360 35V241H281V34C281 -47 312 -69 431 -69C455 -69 630 -69 656 -69C748 -69 773 -40 784 74C762 79 730 90 713 101C707 13 700 -1 650 -1C611 -1 464 -1 435 -1C371 -1 360 5 360 35ZM208 212 137 225C119 148 84 60 43 9L112 -24C157 36 190 130 208 212ZM265 390V567H737V390ZM820 638H657C692 690 729 751 761 808L684 839C658 779 614 696 575 638H370L429 668C411 715 365 784 321 836L257 806C299 755 341 685 358 638H186V319H820Z" /><path id="g400-56de" d="M374 271V500H618V271ZM692 568H303V204H692ZM159 46V724H839V46ZM919 799H82V-79H159V-25H839V-79H919Z" /><path id="g400-7b54" d="M343 381C400 417 451 458 495 502C543 464 608 421 680 381ZM556 574 486 602C402 485 231 383 40 319C56 305 79 275 89 258C163 285 233 317 297 354V317H711V364C778 328 850 295 918 272C930 292 954 323 971 339C814 384 633 474 537 549ZM284 27V171H719V27ZM794 236H212V-80H284V-39H719V-76H794ZM271 825 200 844C165 748 105 653 37 592C55 582 86 562 100 549C134 585 169 630 200 681H253C277 639 301 588 311 554L378 577C368 605 350 645 329 681H490V746H236C249 772 261 798 271 825ZM666 828 595 844C571 763 527 685 474 633C492 624 522 603 536 592C559 616 581 646 601 680H671C701 639 731 589 743 555L814 581C803 609 780 646 755 680H941V745H635C647 772 658 800 666 828Z" /><path id="g400-3002" d="M194 -61C279 -61 347 7 347 92C347 176 279 244 194 244C111 244 42 176 42 92C42 7 111 -61 194 -61ZM194 -10C139 -10 93 35 93 92C93 147 139 193 194 193C251 193 296 147 296 92C296 35 251 -10 194 -10Z" /><path id="g400-2f" d="M11 -179H78L377 794H311Z" /><path id="g700-ff1a" d="M250 469C303 469 345 509 345 563C345 618 303 658 250 658C197 658 155 618 155 563C155 509 197 469 250 469ZM250 -8C303 -8 345 32 345 86C345 141 303 181 250 181C197 181 155 141 155 86C155 32 197 -8 250 -8Z" /><path id="g700-5317" d="M20 159 74 35 293 128V-79H418V833H293V612H56V493H293V250C191 214 89 179 20 159ZM962 577 875 684C820 637 746 580 670 531V833H545V113C545 -28 578 -71 693 -71C715 -71 803 -71 827 -71C940 -71 970 3 982 196C949 203 896 227 867 250C860 89 854 47 815 47C798 47 728 47 712 47C675 47 670 56 670 112V405C769 456 874 517 962 577Z" /><path id="g700-4eac" d="M291 358V466H709V358ZM764 207 666 146C726 81 802 -11 835 -69L941 2C904 58 824 145 764 207ZM326 162 209 205C174 143 102 60 40 9C66 -9 105 -44 128 -67C195 -8 272 82 326 162ZM521 859 403 822C417 796 433 765 446 736H57V618H942V736H587C571 773 543 823 521 859ZM568 34V254H836V569H171V254H441V38C441 25 436 22 419 22C402 22 339 21 288 23C304 -9 321 -58 326 -92C407 -93 468 -92 511 -74C557 -57 568 -26 568 34Z" /><path id="g700-4eca" d="M770 365H595L656 428C613 472 522 538 460 583L381 508C435 466 504 409 549 365H155V242H667C599 154 514 48 440 -38L565 -95C672 38 798 200 886 326L791 371ZM600 805 480 861C381 705 201 576 25 500C60 470 98 423 118 389C258 462 396 562 507 686C615 574 757 466 881 400C902 434 944 485 975 512C838 570 678 675 579 775Z" /><path id="g700-5929" d="M555 556V659H897V783H101V659H429V558C429 534 428 508 426 481H64V358H401C360 231 261 100 29 19C55 -5 92 -55 107 -84C333 -1 447 126 503 259C586 94 709 -22 897 -82C915 -48 951 4 980 30C784 81 656 197 585 358H936V481H553C554 507 555 532 555 556Z" /><path id="g700-6674" d="M248 490H164V674H248ZM248 387V202H164V387ZM164 779H66V16H164V97H347V779ZM734 850H617V776H413V691H617V651H438V571H617V528H388V442H967V528H734V571H924V651H734V691H943V776H734ZM918 18V400H445V-90H555V62H807V20C807 9 803 5 790 5C778 4 735 4 699 6C712 -21 725 -61 730 -89C794 -90 841 -88 874 -73C909 -58 918 -31 918 18ZM807 315V267H555V315ZM555 188H807V140H555Z" /><path id="g700-ff0c" d="M194 -138C318 -101 391 -9 391 105C391 189 354 242 283 242C230 242 185 208 185 152C185 95 230 62 280 62L291 63C285 11 239 -32 162 -57Z" /><path id="g700-6c14" d="M848 603H260V505H848ZM359 821 239 850C193 711 109 577 10 496C40 480 94 444 117 424C177 481 235 560 283 650H931V751H332C342 774 351 797 359 821ZM785 452H151V349H665C675 105 714 -87 864 -87C941 -87 964 -33 973 90C947 107 917 136 893 164C892 83 887 33 871 33C807 32 786 228 785 452Z" /><path id="g700-6e29" d="M492 504V563H762V504ZM492 654V712H762V654ZM880 809H379V407H880ZM155 838 90 752C153 722 235 675 274 641L343 738C301 770 216 812 155 838ZM89 566 28 480C92 451 176 404 215 372L280 468C237 500 152 542 89 566ZM47 3 150 -69C203 28 260 142 306 247L216 319C164 204 95 79 47 3ZM972 43H914V347H347V43H271V-60H972ZM454 43V246H510V43ZM599 43V246H655V43ZM744 43V246H801V43Z" /><path id="g700-32" d="M43 0H539V124H367C333 124 284 120 246 115C385 248 504 388 504 526C504 664 411 754 271 754C172 754 107 712 39 638L117 562C154 603 198 638 252 638C323 638 363 592 363 519C363 406 250 266 43 91Z" /><path id="g700-33" d="M273 -14C415 -14 534 64 534 200C534 298 470 360 387 383V388C465 419 510 477 510 557C510 684 413 754 270 754C183 754 112 719 48 664L124 573C167 614 210 638 263 638C326 638 362 604 362 546C362 479 318 433 183 433V327C343 327 386 282 386 209C386 143 335 106 260 106C192 106 139 139 95 182L26 89C78 30 157 -14 273 -14Z" /><path id="g700-b0" d="M203 461C289 461 360 526 360 619C360 712 289 778 203 778C115 778 44 712 44 619C44 526 115 461 203 461ZM203 533C156 533 124 568 124 619C124 670 156 705 203 705C249 705 281 670 281 619C281 568 249 533 203 533Z" /><path id="g700-2026" d="M833 299C878 299 914 335 914 380C914 425 878 461 833 461C788 461 752 425 752 380C752 335 788 299 833 299ZM167 299C212 299 248 335 248 380C248 425 212 461 167 461C122 461 86 425 86 380C86 335 122 299 167 299ZM500 299C545 299 581 335 581 380C581 425 545 461 500 461C455 461 419 425 419 380C419 335 455 299 500 299Z" /><path id="g400-4e0a" d="M506 825H427V43H51V-32H950V43H506V441H881V516H506Z" /><path id="g400-6587" d="M501 847 423 823C453 774 484 707 497 666L580 693C566 735 532 799 501 847ZM954 664H50V590H206C265 438 344 307 447 200C337 108 201 40 35 -7C51 -25 74 -60 83 -78C250 -24 389 48 502 147C615 46 752 -28 916 -73C928 -52 950 -20 968 -4C808 36 671 107 560 201C660 304 738 432 796 590H954ZM504 253C409 348 336 461 284 590H711C661 454 592 343 504 253Z" /><path id="g400-7a97" d="M426 637 371 673C293 611 182 560 86 534L125 476C230 508 342 568 426 637ZM622 674 576 631C679 587 809 516 874 469L923 518C854 566 722 632 622 674ZM511 557 432 573C417 543 391 503 367 471H164V-82H239V-40H769V-76H847V471H446C468 497 491 527 511 557ZM239 17V414H769V17ZM402 257 365 219C405 203 448 183 490 162C426 124 352 97 278 82C289 70 304 48 311 34C394 55 476 86 546 133C597 104 644 76 675 51L714 94C684 117 641 143 593 169C640 209 679 259 705 319L665 337L654 335H427C437 352 445 369 453 386L395 395C373 346 332 288 275 244C288 237 308 220 319 208C348 232 373 258 394 286H623C601 252 573 222 540 196C494 219 446 240 402 257ZM504 845 426 826C438 805 451 779 461 755H77V597H152V695H844V601H922V755H551C538 784 520 818 504 845Z" /><path id="g400-53e3" d="M205 107V660H796V107ZM876 735H127V-55H205V30H796V-51H876Z" /><path id="g400-5f53" d="M189 796 121 769C173 698 228 601 250 537L322 569C299 632 244 726 189 796ZM882 778 801 805C772 728 716 622 673 555L738 530C783 594 839 693 882 778ZM869 486H540V840H458V486H135V411H790V266H168V194H790V38H115V-37H790V-81H869Z" /><path id="g400-524d" d="M674 514H604V104H674ZM881 13V544H807V14C807 -1 802 -5 786 -5C769 -6 715 -6 654 -4C665 -24 677 -56 681 -76C758 -77 809 -75 839 -63C870 -51 881 -30 881 13ZM803 819 723 845C701 796 663 730 629 682H328L377 700C359 740 316 799 278 841L208 816C244 775 281 721 300 682H53V613H947V682H714C743 723 775 773 803 819ZM409 360H187V459H409ZM409 301V200H187V301ZM433 523H116V-75H187V141H409V7C409 -6 405 -10 391 -10C378 -11 332 -11 281 -9C291 -28 302 -57 307 -76C374 -76 419 -75 446 -63C474 -52 482 -32 482 6V523Z" /><path id="g400-751f" d="M315 807 239 824C201 681 136 542 54 453C73 443 107 421 121 408C159 453 194 510 226 573H463V352H165V280H463V25H55V-48H949V25H541V280H865V352H541V573H901V646H541V840H463V646H259C281 697 300 752 315 807Z" /><path id="g400-6210" d="M622 839H544C544 782 546 725 549 670H128V389C128 259 119 86 36 -37C54 -46 86 -72 100 -87C191 44 206 247 206 388V395H389C385 223 380 159 367 144C359 135 350 133 335 133C318 133 275 133 229 138C241 119 249 89 250 68C299 65 345 65 371 67C398 70 415 77 431 96C452 123 457 208 462 433C463 443 463 465 463 465H206V597H554C566 435 590 287 628 172C562 96 485 34 396 -13C412 -27 439 -59 450 -74C527 -29 597 27 657 92C703 -11 764 -73 841 -73C918 -73 946 -24 959 147C939 155 911 172 894 188C888 56 876 3 847 3C796 3 750 61 714 159C788 255 846 369 889 500L815 519C783 418 740 327 686 247C660 344 641 463 630 597H951V670H626C623 725 622 781 622 839ZM716 835 671 790C734 757 812 706 850 670L897 722C858 756 779 805 716 835Z" /><path id="g400-4f4d" d="M914 658H369V585H914ZM503 524 435 509C465 369 495 185 503 80L577 102C567 204 536 384 503 524ZM641 847 570 828C588 778 609 712 617 669L692 691C681 734 660 798 641 847ZM955 34H749C786 168 826 365 852 519L774 532C757 382 716 169 679 34H326V-38H955ZM180 -78H255V601C294 669 329 742 357 815L286 836C230 685 136 535 38 437C51 420 73 381 81 363C115 398 148 439 180 484Z" /><path id="g400-7f6e" d="M651 658V748H820V658ZM417 658V748H582V658ZM189 658V748H348V658ZM808 427H495L509 486H922V545H520L531 603H895V802H117V603H454L446 545H68V486H436L424 427H190V6H57V-50H945V6H808ZM262 6V68H734V6ZM262 320V376H734V320ZM262 275H734V217H262ZM262 172H734V113H262Z" /></defs></svg>
