<svg xmlns="http://www.w3.org/2000/svg" width="106mm" height="113.538mm" viewBox="0 0 900 964" role="img" aria-labelledby="title desc">
<title id="title">稠密嵌入技术演进</title><desc id="desc">从静态词向量、上下文词元表示，到面向相似度计算的句向量及多种检索表示。维度采用图内指定配置。</desc>
<defs><marker id="arrow" viewBox="0 0 10 10" refX="9" refY="5" markerWidth="7" markerHeight="7" orient="auto-start-reverse"><path d="M0 0 L10 5 L0 10 Z" fill="#333333" /></marker></defs>
<rect width="900" height="964" fill="#ffffff" y="0" />
<rect x="20" y="20" width="860" height="140" rx="6" fill="#ffffff" stroke="#333333" stroke-width="1.8" />
<rect x="20" y="20" width="220" height="140" rx="6" fill="#dedede" stroke="#333333" stroke-width="1.8" />
<g aria-label="2013" fill="#292929" data-font="Source Han Sans CN 400" data-size="26.0"><use href="#g400-32" transform="translate(101.140 63) scale(0.026 -0.026)" /><use href="#g400-30" transform="translate(115.570 63) scale(0.026 -0.026)" /><use href="#g400-31" transform="translate(130.000 63) scale(0.026 -0.026)" /><use href="#g400-33" transform="translate(144.430 63) scale(0.026 -0.026)" /></g><g aria-label="Word2Vec" fill="#292929" data-font="Source Han Sans CN 700" data-size="28.0"><use href="#g700-57" transform="translate(60.868 110) scale(0.028 -0.028)" /><use href="#g700-6f" transform="translate(86.488 110) scale(0.028 -0.028)" /><use href="#g700-72" transform="translate(104.016 110) scale(0.028 -0.028)" /><use href="#g700-64" transform="translate(116.224 110) scale(0.028 -0.028)" /><use href="#g700-32" transform="translate(134.256 110) scale(0.028 -0.028)" /><use href="#g700-56" transform="translate(150.776 110) scale(0.028 -0.028)" /><use href="#g700-65" transform="translate(168.108 110) scale(0.028 -0.028)" /><use href="#g700-63" transform="translate(184.376 110) scale(0.028 -0.028)" /></g><g aria-label="局部窗口中的词汇共现" fill="#292929" data-font="Source Han Sans CN 400" data-size="26.0"><use href="#g400-5c40" transform="translate(310.000 77) scale(0.026 -0.026)" /><use href="#g400-90e8" transform="translate(336.000 77) scale(0.026 -0.026)" /><use href="#g400-7a97" transform="translate(362.000 77) scale(0.026 -0.026)" /><use href="#g400-53e3" transform="translate(388.000 77) scale(0.026 -0.026)" /><use href="#g400-4e2d" transform="translate(414.000 77) scale(0.026 -0.026)" /><use href="#g400-7684" transform="translate(440.000 77) scale(0.026 -0.026)" /><use href="#g400-8bcd" transform="translate(466.000 77) scale(0.026 -0.026)" /><use href="#g400-6c47" transform="translate(492.000 77) scale(0.026 -0.026)" /><use href="#g400-5171" transform="translate(518.000 77) scale(0.026 -0.026)" /><use href="#g400-73b0" transform="translate(544.000 77) scale(0.026 -0.026)" /></g><g aria-label="预测上下文或中心词" fill="#292929" data-font="Source Han Sans CN 400" data-size="26.0"><use href="#g400-9884" transform="translate(323.000 107) scale(0.026 -0.026)" /><use href="#g400-6d4b" transform="translate(349.000 107) scale(0.026 -0.026)" /><use href="#g400-4e0a" transform="translate(375.000 107) scale(0.026 -0.026)" /><use href="#g400-4e0b" transform="translate(401.000 107) scale(0.026 -0.026)" /><use href="#g400-6587" transform="translate(427.000 107) scale(0.026 -0.026)" /><use href="#g400-6216" transform="translate(453.000 107) scale(0.026 -0.026)" /><use href="#g400-4e2d" transform="translate(479.000 107) scale(0.026 -0.026)" /><use href="#g400-5fc3" transform="translate(505.000 107) scale(0.026 -0.026)" /><use href="#g400-8bcd" transform="translate(531.000 107) scale(0.026 -0.026)" /></g><path d="M640 40 L640 140" fill="none" stroke="#333333" stroke-width="1.8" />
<g aria-label="静态词向量" fill="#292929" data-font="Source Han Sans CN 400" data-size="26.0"><use href="#g400-9759" transform="translate(696.000 77) scale(0.026 -0.026)" /><use href="#g400-6001" transform="translate(722.000 77) scale(0.026 -0.026)" /><use href="#g400-8bcd" transform="translate(748.000 77) scale(0.026 -0.026)" /><use href="#g400-5411" transform="translate(774.000 77) scale(0.026 -0.026)" /><use href="#g400-91cf" transform="translate(800.000 77) scale(0.026 -0.026)" /></g><g aria-label="示例配置：300 维" fill="#292929" data-font="Source Han Sans CN 400" data-size="26.0"><use href="#g400-793a" transform="translate(658.443 107) scale(0.026 -0.026)" /><use href="#g400-4f8b" transform="translate(684.443 107) scale(0.026 -0.026)" /><use href="#g400-914d" transform="translate(710.443 107) scale(0.026 -0.026)" /><use href="#g400-7f6e" transform="translate(736.443 107) scale(0.026 -0.026)" /><use href="#g400-ff1a" transform="translate(762.443 107) scale(0.026 -0.026)" /><use href="#g400-33" transform="translate(788.443 107) scale(0.026 -0.026)" /><use href="#g400-30" transform="translate(802.873 107) scale(0.026 -0.026)" /><use href="#g400-30" transform="translate(817.303 107) scale(0.026 -0.026)" /><use href="#g400-20" transform="translate(831.733 107) scale(0.026 -0.026)" /><use href="#g400-7ef4" transform="translate(837.557 107) scale(0.026 -0.026)" /></g><path d="M450 160 L450 195" fill="none" stroke="#333333" stroke-width="1.8" marker-end="url(#arrow)" />
<rect x="20" y="195" width="860" height="140" rx="6" fill="#ffffff" stroke="#333333" stroke-width="1.8" />
<rect x="20" y="195" width="220" height="140" rx="6" fill="#dedede" stroke="#333333" stroke-width="1.8" />
<g aria-label="2014" fill="#292929" data-font="Source Han Sans CN 400" data-size="26.0"><use href="#g400-32" transform="translate(101.140 238) scale(0.026 -0.026)" /><use href="#g400-30" transform="translate(115.570 238) scale(0.026 -0.026)" /><use href="#g400-31" transform="translate(130.000 238) scale(0.026 -0.026)" /><use href="#g400-34" transform="translate(144.430 238) scale(0.026 -0.026)" /></g><g aria-label="GloVe" fill="#292929" data-font="Source Han Sans CN 700" data-size="28.0"><use href="#g700-47" transform="translate(89.988 285) scale(0.028 -0.028)" /><use href="#g700-6c" transform="translate(110.064 285) scale(0.028 -0.028)" /><use href="#g700-6f" transform="translate(118.884 285) scale(0.028 -0.028)" /><use href="#g700-56" transform="translate(136.412 285) scale(0.028 -0.028)" /><use href="#g700-65" transform="translate(153.744 285) scale(0.028 -0.028)" /></g><g aria-label="全局词共现统计" fill="#292929" data-font="Source Han Sans CN 400" data-size="26.0"><use href="#g400-5168" transform="translate(349.000 252) scale(0.026 -0.026)" /><use href="#g400-5c40" transform="translate(375.000 252) scale(0.026 -0.026)" /><use href="#g400-8bcd" transform="translate(401.000 252) scale(0.026 -0.026)" /><use href="#g400-5171" transform="translate(427.000 252) scale(0.026 -0.026)" /><use href="#g400-73b0" transform="translate(453.000 252) scale(0.026 -0.026)" /><use href="#g400-7edf" transform="translate(479.000 252) scale(0.026 -0.026)" /><use href="#g400-8ba1" transform="translate(505.000 252) scale(0.026 -0.026)" /></g><g aria-label="加权最小二乘目标" fill="#292929" data-font="Source Han Sans CN 400" data-size="26.0"><use href="#g400-52a0" transform="translate(336.000 282) scale(0.026 -0.026)" /><use href="#g400-6743" transform="translate(362.000 282) scale(0.026 -0.026)" /><use href="#g400-6700" transform="translate(388.000 282) scale(0.026 -0.026)" /><use href="#g400-5c0f" transform="translate(414.000 282) scale(0.026 -0.026)" /><use href="#g400-4e8c" transform="translate(440.000 282) scale(0.026 -0.026)" /><use href="#g400-4e58" transform="translate(466.000 282) scale(0.026 -0.026)" /><use href="#g400-76ee" transform="translate(492.000 282) scale(0.026 -0.026)" /><use href="#g400-6807" transform="translate(518.000 282) scale(0.026 -0.026)" /></g><path d="M640 215 L640 315" fill="none" stroke="#333333" stroke-width="1.8" />
<g aria-label="静态词向量" fill="#292929" data-font="Source Han Sans CN 400" data-size="26.0"><use href="#g400-9759" transform="translate(696.000 252) scale(0.026 -0.026)" /><use href="#g400-6001" transform="translate(722.000 252) scale(0.026 -0.026)" /><use href="#g400-8bcd" transform="translate(748.000 252) scale(0.026 -0.026)" /><use href="#g400-5411" transform="translate(774.000 252) scale(0.026 -0.026)" /><use href="#g400-91cf" transform="translate(800.000 252) scale(0.026 -0.026)" /></g><g aria-label="示例配置：300 维" fill="#292929" data-font="Source Han Sans CN 400" data-size="26.0"><use href="#g400-793a" transform="translate(658.443 282) scale(0.026 -0.026)" /><use href="#g400-4f8b" transform="translate(684.443 282) scale(0.026 -0.026)" /><use href="#g400-914d" transform="translate(710.443 282) scale(0.026 -0.026)" /><use href="#g400-7f6e" transform="translate(736.443 282) scale(0.026 -0.026)" /><use href="#g400-ff1a" transform="translate(762.443 282) scale(0.026 -0.026)" /><use href="#g400-33" transform="translate(788.443 282) scale(0.026 -0.026)" /><use href="#g400-30" transform="translate(802.873 282) scale(0.026 -0.026)" /><use href="#g400-30" transform="translate(817.303 282) scale(0.026 -0.026)" /><use href="#g400-20" transform="translate(831.733 282) scale(0.026 -0.026)" /><use href="#g400-7ef4" transform="translate(837.557 282) scale(0.026 -0.026)" /></g><path d="M450 335 L450 370" fill="none" stroke="#333333" stroke-width="1.8" marker-end="url(#arrow)" />
<rect x="20" y="370" width="860" height="172" rx="6" fill="#ffffff" stroke="#333333" stroke-width="1.8" />
<rect x="20" y="370" width="220" height="172" rx="6" fill="#dedede" stroke="#333333" stroke-width="1.8" />
<g aria-label="2018" fill="#292929" data-font="Source Han Sans CN 400" data-size="26.0"><use href="#g400-32" transform="translate(101.140 413) scale(0.026 -0.026)" /><use href="#g400-30" transform="translate(115.570 413) scale(0.026 -0.026)" /><use href="#g400-31" transform="translate(130.000 413) scale(0.026 -0.026)" /><use href="#g400-38" transform="translate(144.430 413) scale(0.026 -0.026)" /></g><g aria-label="BERT" fill="#292929" data-font="Source Han Sans CN 700" data-size="28.0"><use href="#g700-42" transform="translate(93.558 460) scale(0.028 -0.028)" /><use href="#g700-45" transform="translate(112.626 460) scale(0.028 -0.028)" /><use href="#g700-52" transform="translate(129.846 460) scale(0.028 -0.028)" /><use href="#g700-54" transform="translate(148.942 460) scale(0.028 -0.028)" /></g><g aria-label="Transformer · 掩码语言模型" fill="#292929" data-font="Source Han Sans CN 400" data-size="26.0"><use href="#g400-54" transform="translate(267.581 427) scale(0.026 -0.026)" /><use href="#g400-72" transform="translate(283.155 427) scale(0.026 -0.026)" /><use href="#g400-61" transform="translate(293.243 427) scale(0.026 -0.026)" /><use href="#g400-6e" transform="translate(307.881 427) scale(0.026 -0.026)" /><use href="#g400-73" transform="translate(323.741 427) scale(0.026 -0.026)" /><use href="#g400-66" transform="translate(335.909 427) scale(0.026 -0.026)" /><use href="#g400-6f" transform="translate(344.359 427) scale(0.026 -0.026)" /><use href="#g400-72" transform="translate(360.115 427) scale(0.026 -0.026)" /><use href="#g400-6d" transform="translate(370.203 427) scale(0.026 -0.026)" /><use href="#g400-65" transform="translate(394.279 427) scale(0.026 -0.026)" /><use href="#g400-72" transform="translate(408.683 427) scale(0.026 -0.026)" /><use href="#g400-20" transform="translate(418.771 427) scale(0.026 -0.026)" /><use href="#g400-b7" transform="translate(424.595 427) scale(0.026 -0.026)" /><use href="#g400-20" transform="translate(450.595 427) scale(0.026 -0.026)" /><use href="#g400-63a9" transform="translate(456.419 427) scale(0.026 -0.026)" /><use href="#g400-7801" transform="translate(482.419 427) scale(0.026 -0.026)" /><use href="#g400-8bed" transform="translate(508.419 427) scale(0.026 -0.026)" /><use href="#g400-8a00" transform="translate(534.419 427) scale(0.026 -0.026)" /><use href="#g400-6a21" transform="translate(560.419 427) scale(0.026 -0.026)" /><use href="#g400-578b" transform="translate(586.419 427) scale(0.026 -0.026)" /></g><g aria-label="词元表示随所在上下文变化" fill="#292929" data-font="Source Han Sans CN 400" data-size="26.0"><use href="#g400-8bcd" transform="translate(284.000 457) scale(0.026 -0.026)" /><use href="#g400-5143" transform="translate(310.000 457) scale(0.026 -0.026)" /><use href="#g400-8868" transform="translate(336.000 457) scale(0.026 -0.026)" /><use href="#g400-793a" transform="translate(362.000 457) scale(0.026 -0.026)" /><use href="#g400-968f" transform="translate(388.000 457) scale(0.026 -0.026)" /><use href="#g400-6240" transform="translate(414.000 457) scale(0.026 -0.026)" /><use href="#g400-5728" transform="translate(440.000 457) scale(0.026 -0.026)" /><use href="#g400-4e0a" transform="translate(466.000 457) scale(0.026 -0.026)" /><use href="#g400-4e0b" transform="translate(492.000 457) scale(0.026 -0.026)" /><use href="#g400-6587" transform="translate(518.000 457) scale(0.026 -0.026)" /><use href="#g400-53d8" transform="translate(544.000 457) scale(0.026 -0.026)" /><use href="#g400-5316" transform="translate(570.000 457) scale(0.026 -0.026)" /></g><path d="M640 390 L640 522" fill="none" stroke="#333333" stroke-width="1.8" />
<g aria-label="上下文词元表示" fill="#292929" data-font="Source Han Sans CN 400" data-size="26.0"><use href="#g400-4e0a" transform="translate(670.000 427) scale(0.026 -0.026)" /><use href="#g400-4e0b" transform="translate(696.000 427) scale(0.026 -0.026)" /><use href="#g400-6587" transform="translate(722.000 427) scale(0.026 -0.026)" /><use href="#g400-8bcd" transform="translate(748.000 427) scale(0.026 -0.026)" /><use href="#g400-5143" transform="translate(774.000 427) scale(0.026 -0.026)" /><use href="#g400-8868" transform="translate(800.000 427) scale(0.026 -0.026)" /><use href="#g400-793a" transform="translate(826.000 427) scale(0.026 -0.026)" /></g><g aria-label="BERT-base" fill="#292929" data-font="Source Han Sans CN 400" data-size="26.0"><use href="#g400-42" transform="translate(695.610 457) scale(0.026 -0.026)" /><use href="#g400-45" transform="translate(712.692 457) scale(0.026 -0.026)" /><use href="#g400-52" transform="translate(728.006 457) scale(0.026 -0.026)" /><use href="#g400-54" transform="translate(744.516 457) scale(0.026 -0.026)" /><use href="#g400-2d" transform="translate(760.090 457) scale(0.026 -0.026)" /><use href="#g400-62" transform="translate(769.112 457) scale(0.026 -0.026)" /><use href="#g400-61" transform="translate(785.180 457) scale(0.026 -0.026)" /><use href="#g400-73" transform="translate(799.818 457) scale(0.026 -0.026)" /><use href="#g400-65" transform="translate(811.986 457) scale(0.026 -0.026)" /></g><g aria-label="：768 维" fill="#292929" data-font="Source Han Sans CN 400" data-size="26.0"><use href="#g400-ff1a" transform="translate(710.443 489) scale(0.026 -0.026)" /><use href="#g400-37" transform="translate(736.443 489) scale(0.026 -0.026)" /><use href="#g400-36" transform="translate(750.873 489) scale(0.026 -0.026)" /><use href="#g400-38" transform="translate(765.303 489) scale(0.026 -0.026)" /><use href="#g400-20" transform="translate(779.733 489) scale(0.026 -0.026)" /><use href="#g400-7ef4" transform="translate(785.557 489) scale(0.026 -0.026)" /></g><path d="M450 542 L450 577" fill="none" stroke="#333333" stroke-width="1.8" marker-end="url(#arrow)" />
<rect x="20" y="577" width="860" height="172" rx="6" fill="#ffffff" stroke="#333333" stroke-width="1.8" />
<rect x="20" y="577" width="220" height="172" rx="6" fill="#dedede" stroke="#333333" stroke-width="1.8" />
<g aria-label="2019" fill="#292929" data-font="Source Han Sans CN 400" data-size="26.0"><use href="#g400-32" transform="translate(101.140 620) scale(0.026 -0.026)" /><use href="#g400-30" transform="translate(115.570 620) scale(0.026 -0.026)" /><use href="#g400-31" transform="translate(130.000 620) scale(0.026 -0.026)" /><use href="#g400-39" transform="translate(144.430 620) scale(0.026 -0.026)" /></g><g aria-label="Sentence-" fill="#292929" data-font="Source Han Sans CN 700" data-size="28.0"><use href="#g700-53" transform="translate(60.462 667) scale(0.028 -0.028)" /><use href="#g700-65" transform="translate(77.934 667) scale(0.028 -0.028)" /><use href="#g700-6e" transform="translate(94.202 667) scale(0.028 -0.028)" /><use href="#g700-74" transform="translate(112.150 667) scale(0.028 -0.028)" /><use href="#g700-65" transform="translate(123.938 667) scale(0.028 -0.028)" /><use href="#g700-6e" transform="translate(140.206 667) scale(0.028 -0.028)" /><use href="#g700-63" transform="translate(158.154 667) scale(0.028 -0.028)" /><use href="#g700-65" transform="translate(172.910 667) scale(0.028 -0.028)" /><use href="#g700-2d" transform="translate(189.178 667) scale(0.028 -0.028)" /></g><g aria-label="BERT" fill="#292929" data-font="Source Han Sans CN 700" data-size="28.0"><use href="#g700-42" transform="translate(93.558 699) scale(0.028 -0.028)" /><use href="#g700-45" transform="translate(112.626 699) scale(0.028 -0.028)" /><use href="#g700-52" transform="translate(129.846 699) scale(0.028 -0.028)" /><use href="#g700-54" transform="translate(148.942 699) scale(0.028 -0.028)" /></g><g aria-label="孪生 / 三元组网络 · 池化" fill="#292929" data-font="Source Han Sans CN 400" data-size="26.0"><use href="#g400-5b6a" transform="translate(293.256 634) scale(0.026 -0.026)" /><use href="#g400-751f" transform="translate(319.256 634) scale(0.026 -0.026)" /><use href="#g400-20" transform="translate(345.256 634) scale(0.026 -0.026)" /><use href="#g400-2f" transform="translate(351.080 634) scale(0.026 -0.026)" /><use href="#g400-20" transform="translate(361.272 634) scale(0.026 -0.026)" /><use href="#g400-4e09" transform="translate(367.096 634) scale(0.026 -0.026)" /><use href="#g400-5143" transform="translate(393.096 634) scale(0.026 -0.026)" /><use href="#g400-7ec4" transform="translate(419.096 634) scale(0.026 -0.026)" /><use href="#g400-7f51" transform="translate(445.096 634) scale(0.026 -0.026)" /><use href="#g400-7edc" transform="translate(471.096 634) scale(0.026 -0.026)" /><use href="#g400-20" transform="translate(497.096 634) scale(0.026 -0.026)" /><use href="#g400-b7" transform="translate(502.920 634) scale(0.026 -0.026)" /><use href="#g400-20" transform="translate(528.920 634) scale(0.026 -0.026)" /><use href="#g400-6c60" transform="translate(534.744 634) scale(0.026 -0.026)" /><use href="#g400-5316" transform="translate(560.744 634) scale(0.026 -0.026)" /></g><g aria-label="句向量可用余弦比较" fill="#292929" data-font="Source Han Sans CN 400" data-size="26.0"><use href="#g400-53e5" transform="translate(323.000 664) scale(0.026 -0.026)" /><use href="#g400-5411" transform="translate(349.000 664) scale(0.026 -0.026)" /><use href="#g400-91cf" transform="translate(375.000 664) scale(0.026 -0.026)" /><use href="#g400-53ef" transform="translate(401.000 664) scale(0.026 -0.026)" /><use href="#g400-7528" transform="translate(427.000 664) scale(0.026 -0.026)" /><use href="#g400-4f59" transform="translate(453.000 664) scale(0.026 -0.026)" /><use href="#g400-5f26" transform="translate(479.000 664) scale(0.026 -0.026)" /><use href="#g400-6bd4" transform="translate(505.000 664) scale(0.026 -0.026)" /><use href="#g400-8f83" transform="translate(531.000 664) scale(0.026 -0.026)" /></g><path d="M640 597 L640 729" fill="none" stroke="#333333" stroke-width="1.8" />
<g aria-label="句子表示" fill="#292929" data-font="Source Han Sans CN 400" data-size="26.0"><use href="#g400-53e5" transform="translate(709.000 634) scale(0.026 -0.026)" /><use href="#g400-5b50" transform="translate(735.000 634) scale(0.026 -0.026)" /><use href="#g400-8868" transform="translate(761.000 634) scale(0.026 -0.026)" /><use href="#g400-793a" transform="translate(787.000 634) scale(0.026 -0.026)" /></g><g aria-label="base 版本：768 维" fill="#292929" data-font="Source Han Sans CN 400" data-size="26.0"><use href="#g400-62" transform="translate(652.892 664) scale(0.026 -0.026)" /><use href="#g400-61" transform="translate(668.960 664) scale(0.026 -0.026)" /><use href="#g400-73" transform="translate(683.598 664) scale(0.026 -0.026)" /><use href="#g400-65" transform="translate(695.766 664) scale(0.026 -0.026)" /><use href="#g400-20" transform="translate(710.170 664) scale(0.026 -0.026)" /><use href="#g400-7248" transform="translate(715.994 664) scale(0.026 -0.026)" /><use href="#g400-672c" transform="translate(741.994 664) scale(0.026 -0.026)" /><use href="#g400-ff1a" transform="translate(767.994 664) scale(0.026 -0.026)" /><use href="#g400-37" transform="translate(793.994 664) scale(0.026 -0.026)" /><use href="#g400-36" transform="translate(808.424 664) scale(0.026 -0.026)" /><use href="#g400-38" transform="translate(822.854 664) scale(0.026 -0.026)" /><use href="#g400-20" transform="translate(837.284 664) scale(0.026 -0.026)" /><use href="#g400-7ef4" transform="translate(843.108 664) scale(0.026 -0.026)" /></g><path d="M450 749 L450 784" fill="none" stroke="#333333" stroke-width="1.8" marker-end="url(#arrow)" />
<rect x="20" y="784" width="860" height="140" rx="6" fill="#ffffff" stroke="#333333" stroke-width="1.8" />
<rect x="20" y="784" width="220" height="140" rx="6" fill="#dedede" stroke="#333333" stroke-width="1.8" />
<g aria-label="2024" fill="#292929" data-font="Source Han Sans CN 400" data-size="26.0"><use href="#g400-32" transform="translate(101.140 827) scale(0.026 -0.026)" /><use href="#g400-30" transform="translate(115.570 827) scale(0.026 -0.026)" /><use href="#g400-32" transform="translate(130.000 827) scale(0.026 -0.026)" /><use href="#g400-34" transform="translate(144.430 827) scale(0.026 -0.026)" /></g><g aria-label="BGE-M3" fill="#292929" data-font="Source Han Sans CN 700" data-size="28.0"><use href="#g700-42" transform="translate(76.436 874) scale(0.028 -0.028)" /><use href="#g700-47" transform="translate(95.504 874) scale(0.028 -0.028)" /><use href="#g700-45" transform="translate(115.580 874) scale(0.028 -0.028)" /><use href="#g700-2d" transform="translate(132.800 874) scale(0.028 -0.028)" /><use href="#g700-4d" transform="translate(143.160 874) scale(0.028 -0.028)" /><use href="#g700-33" transform="translate(167.044 874) scale(0.028 -0.028)" /></g><g aria-label="多语言 · 最长 8192 token" fill="#292929" data-font="Source Han Sans CN 400" data-size="26.0"><use href="#g400-591a" transform="translate(286.405 841) scale(0.026 -0.026)" /><use href="#g400-8bed" transform="translate(312.405 841) scale(0.026 -0.026)" /><use href="#g400-8a00" transform="translate(338.405 841) scale(0.026 -0.026)" /><use href="#g400-20" transform="translate(364.405 841) scale(0.026 -0.026)" /><use href="#g400-b7" transform="translate(370.229 841) scale(0.026 -0.026)" /><use href="#g400-20" transform="translate(396.229 841) scale(0.026 -0.026)" /><use href="#g400-6700" transform="translate(402.053 841) scale(0.026 -0.026)" /><use href="#g400-957f" transform="translate(428.053 841) scale(0.026 -0.026)" /><use href="#g400-20" transform="translate(454.053 841) scale(0.026 -0.026)" /><use href="#g400-38" transform="translate(459.877 841) scale(0.026 -0.026)" /><use href="#g400-31" transform="translate(474.307 841) scale(0.026 -0.026)" /><use href="#g400-39" transform="translate(488.737 841) scale(0.026 -0.026)" /><use href="#g400-32" transform="translate(503.167 841) scale(0.026 -0.026)" /><use href="#g400-20" transform="translate(517.597 841) scale(0.026 -0.026)" /><use href="#g400-74" transform="translate(523.421 841) scale(0.026 -0.026)" /><use href="#g400-6f" transform="translate(533.223 841) scale(0.026 -0.026)" /><use href="#g400-6b" transform="translate(548.979 841) scale(0.026 -0.026)" /><use href="#g400-65" transform="translate(563.331 841) scale(0.026 -0.026)" /><use href="#g400-6e" transform="translate(577.735 841) scale(0.026 -0.026)" /></g><g aria-label="稠密 / 稀疏 / 多向量检索" fill="#292929" data-font="Source Han Sans CN 400" data-size="26.0"><use href="#g400-7a20" transform="translate(301.160 871) scale(0.026 -0.026)" /><use href="#g400-5bc6" transform="translate(327.160 871) scale(0.026 -0.026)" /><use href="#g400-20" transform="translate(353.160 871) scale(0.026 -0.026)" /><use href="#g400-2f" transform="translate(358.984 871) scale(0.026 -0.026)" /><use href="#g400-20" transform="translate(369.176 871) scale(0.026 -0.026)" /><use href="#g400-7a00" transform="translate(375.000 871) scale(0.026 -0.026)" /><use href="#g400-758f" transform="translate(401.000 871) scale(0.026 -0.026)" /><use href="#g400-20" transform="translate(427.000 871) scale(0.026 -0.026)" /><use href="#g400-2f" transform="translate(432.824 871) scale(0.026 -0.026)" /><use href="#g400-20" transform="translate(443.016 871) scale(0.026 -0.026)" /><use href="#g400-591a" transform="translate(448.840 871) scale(0.026 -0.026)" /><use href="#g400-5411" transform="translate(474.840 871) scale(0.026 -0.026)" /><use href="#g400-91cf" transform="translate(500.840 871) scale(0.026 -0.026)" /><use href="#g400-68c0" transform="translate(526.840 871) scale(0.026 -0.026)" /><use href="#g400-7d22" transform="translate(552.840 871) scale(0.026 -0.026)" /></g><path d="M640 804 L640 904" fill="none" stroke="#333333" stroke-width="1.8" />
<g aria-label="稠密表示" fill="#292929" data-font="Source Han Sans CN 400" data-size="26.0"><use href="#g400-7a20" transform="translate(709.000 841) scale(0.026 -0.026)" /><use href="#g400-5bc6" transform="translate(735.000 841) scale(0.026 -0.026)" /><use href="#g400-8868" transform="translate(761.000 841) scale(0.026 -0.026)" /><use href="#g400-793a" transform="translate(787.000 841) scale(0.026 -0.026)" /></g><g aria-label="1024 维" fill="#292929" data-font="Source Han Sans CN 400" data-size="26.0"><use href="#g400-31" transform="translate(716.228 871) scale(0.026 -0.026)" /><use href="#g400-30" transform="translate(730.658 871) scale(0.026 -0.026)" /><use href="#g400-32" transform="translate(745.088 871) scale(0.026 -0.026)" /><use href="#g400-34" transform="translate(759.518 871) scale(0.026 -0.026)" /><use href="#g400-20" transform="translate(773.948 871) scale(0.026 -0.026)" /><use href="#g400-7ef4" transform="translate(779.772 871) scale(0.026 -0.026)" /></g><defs><path id="g400-32" d="M44 0H505V79H296C259 79 215 75 176 72C350 235 470 382 470 531C470 661 387 746 256 746C164 746 101 702 42 637L93 587C134 636 185 672 245 672C336 672 380 611 380 527C380 402 277 255 44 58Z" /><path id="g400-30" d="M278 -13C417 -13 506 113 506 369C506 623 417 746 278 746C138 746 50 623 50 369C50 113 138 -13 278 -13ZM278 61C195 61 138 154 138 369C138 583 195 674 278 674C361 674 418 583 418 369C418 154 361 61 278 61Z" /><path id="g400-31" d="M88 0H490V76H343V733H273C233 710 186 693 121 681V623H252V76H88Z" /><path id="g400-33" d="M263 -13C394 -13 499 65 499 196C499 297 430 361 344 382V387C422 414 474 474 474 563C474 679 384 746 260 746C176 746 111 709 56 659L105 601C147 643 198 672 257 672C334 672 381 626 381 556C381 477 330 416 178 416V346C348 346 406 288 406 199C406 115 345 63 257 63C174 63 119 103 76 147L29 88C77 35 149 -13 263 -13Z" /><path id="g700-57" d="M158 0H339L421 367C433 424 443 481 453 537H458C467 481 477 424 489 367L572 0H756L895 741H755L694 379C683 302 672 223 661 143H656C640 223 625 303 609 379L525 741H398L310 379C295 302 279 223 264 143H260C249 223 237 301 225 379L170 741H19Z" /><path id="g700-6f" d="M313 -14C453 -14 582 94 582 280C582 466 453 574 313 574C172 574 44 466 44 280C44 94 172 -14 313 -14ZM313 106C236 106 194 174 194 280C194 385 236 454 313 454C389 454 432 385 432 280C432 174 389 106 313 106Z" /><path id="g700-72" d="M79 0H226V334C258 415 310 444 353 444C377 444 390 442 408 437L437 562C421 569 403 574 372 574C313 574 253 534 213 461H210L199 560H79Z" /><path id="g700-64" d="M276 -14C334 -14 390 17 431 58H435L446 0H566V798H419V601L424 513C384 550 345 574 282 574C162 574 47 462 47 280C47 96 136 -14 276 -14ZM314 107C240 107 198 165 198 282C198 393 251 453 314 453C350 453 385 442 419 411V165C387 123 353 107 314 107Z" /><path id="g700-32" d="M43 0H539V124H367C333 124 284 120 246 115C385 248 504 388 504 526C504 664 411 754 271 754C172 754 107 712 39 638L117 562C154 603 198 638 252 638C323 638 363 592 363 519C363 406 250 266 43 91Z" /><path id="g700-56" d="M217 0H393L624 741H474L373 380C350 298 334 225 310 141H306C283 225 265 298 243 380L151 741H-5Z" /><path id="g700-65" d="M323 -14C392 -14 463 9 518 48L471 137C429 113 388 100 343 100C269 100 201 136 184 238H532C536 252 539 279 539 306C539 462 459 574 305 574C172 574 44 461 44 280C44 95 166 -14 323 -14ZM184 337C199 426 256 460 307 460C380 460 413 412 413 337Z" /><path id="g700-63" d="M320 -14C389 -14 454 13 500 56L442 146C412 121 374 106 334 106C252 106 194 174 194 280C194 385 254 454 338 454C374 454 401 441 424 422L493 511C454 548 399 574 330 574C178 574 44 466 44 280C44 94 163 -14 320 -14Z" /><path id="g400-5c40" d="M913 444H224L226 530H843V788H153V549C153 386 141 156 28 -6C44 -14 75 -40 88 -54C173 68 207 231 219 377H836C825 121 813 25 791 2C782 -9 772 -11 754 -11C735 -11 686 -10 633 -6C645 -26 653 -55 654 -76C708 -80 760 -80 788 -77C819 -74 838 -67 857 -45C887 -9 899 103 912 409C913 420 913 444 913 444ZM226 723H768V595H226ZM378 298H308V-19H378V39H690V298ZM378 236H620V102H378Z" /><path id="g400-90e8" d="M206 645 141 628C168 574 194 502 203 455L272 475C262 521 236 591 206 645ZM885 787H627V-78H694V718H855C828 639 789 533 751 448C841 358 866 284 866 222C867 187 860 155 840 143C829 136 814 133 799 132C779 132 751 132 722 135C734 114 741 83 742 64C771 62 803 62 828 65C852 68 874 74 890 85C923 108 936 156 936 215C936 284 914 363 824 457C867 550 913 664 948 757L897 790ZM314 844 247 826C262 794 278 755 288 722H80V654H553V722H366C355 756 334 806 314 844ZM508 631 433 648C417 591 387 508 361 452H51V383H574V452H433C458 504 485 572 508 631ZM180 42V223H454V42ZM529 291H109V-73H180V-26H454V-66H529Z" /><path id="g400-7a97" d="M426 637 371 673C293 611 182 560 86 534L125 476C230 508 342 568 426 637ZM622 674 576 631C679 587 809 516 874 469L923 518C854 566 722 632 622 674ZM511 557 432 573C417 543 391 503 367 471H164V-82H239V-40H769V-76H847V471H446C468 497 491 527 511 557ZM239 17V414H769V17ZM402 257 365 219C405 203 448 183 490 162C426 124 352 97 278 82C289 70 304 48 311 34C394 55 476 86 546 133C597 104 644 76 675 51L714 94C684 117 641 143 593 169C640 209 679 259 705 319L665 337L654 335H427C437 352 445 369 453 386L395 395C373 346 332 288 275 244C288 237 308 220 319 208C348 232 373 258 394 286H623C601 252 573 222 540 196C494 219 446 240 402 257ZM504 845 426 826C438 805 451 779 461 755H77V597H152V695H844V601H922V755H551C538 784 520 818 504 845Z" /><path id="g400-53e3" d="M205 107V660H796V107ZM876 735H127V-55H205V30H796V-51H876Z" /><path id="g400-4e2d" d="M171 322V588H458V322ZM537 840H458V661H96V186H171V248H458V-79H537V248H825V191H902V661H537ZM825 322H537V588H825Z" /><path id="g400-7684" d="M610 456 552 423C607 350 675 250 705 190L768 229C736 288 666 385 610 456ZM321 828 240 842C232 794 215 727 199 679H87V-54H156V25H435V679H268C285 722 304 778 321 828ZM156 612H366V401H156ZM156 93V335H366V93ZM670 828 598 844C566 706 512 568 443 479C461 469 492 448 506 436C540 484 572 545 600 613H856C844 212 828 58 796 24C784 10 773 7 753 7C730 7 670 8 604 13C618 -6 627 -38 629 -59C685 -62 744 -64 778 -61C814 -57 836 -49 859 -19C899 30 913 185 928 644C929 654 929 682 929 682H627C643 729 658 779 670 828Z" /><path id="g400-8bcd" d="M155 808 107 762C161 715 228 650 259 607L310 660C278 701 209 764 155 808ZM778 620H393V555H778ZM184 -52C198 -33 224 -13 392 111C385 125 375 154 370 174L266 101V526H46V454H196V102C196 51 160 14 141 -1C153 -12 176 -37 184 -52ZM923 17V790H368V720H851V17C851 0 845 -5 828 -6C810 -6 750 -7 689 -4C699 -25 710 -60 714 -80C796 -80 850 -79 881 -67C912 -54 923 -30 923 17ZM730 454H433V67H500V134H730ZM500 389H662V200H500Z" /><path id="g400-6c47" d="M137 818 91 767C151 732 224 678 260 641L309 698C272 733 196 784 137 818ZM86 543 42 491C103 459 180 410 218 377L264 435C224 469 146 514 86 543ZM63 -10 127 -60C183 30 247 148 297 249L240 298C185 189 113 64 63 -10ZM933 708V782H345V-30H953V45H422V708Z" /><path id="g400-5171" d="M653 189 587 150C682 80 804 -20 864 -80L935 -35C870 26 745 122 653 189ZM407 158 329 187C273 112 161 26 62 -28C80 -40 106 -65 121 -80C222 -23 335 70 407 158ZM920 628H720V831H643V628H357V831H280V628H89V556H280V318H48V245H956V318H720V556H920ZM357 318V556H643V318Z" /><path id="g400-73b0" d="M881 791H432V259H504V725H807V259H881ZM43 100 60 27C155 56 282 94 402 129L392 199L261 160V413H366V483H261V702H386V772H55V702H189V483H70V413H189V139C134 124 84 110 43 100ZM687 445V640H617V447C617 290 585 101 332 -29C347 -40 371 -68 379 -83C545 4 624 123 660 243V32C660 -36 686 -54 756 -54H848C934 -54 946 -14 955 144C936 148 912 159 894 174C889 31 883 3 848 3H766C738 3 730 10 730 39V276H669C683 334 687 392 687 445Z" /><path id="g400-9884" d="M741 294V495H670V296C670 193 647 58 410 -21C427 -35 447 -60 456 -75C710 18 741 168 741 294ZM775 134 725 88C788 38 869 -34 908 -79L960 -26C920 17 837 86 775 134ZM129 656 88 608C149 567 227 512 282 470H38V403H203V10C203 -3 199 -6 184 -7C170 -7 124 -7 72 -6C83 -27 93 -57 96 -77C165 -77 210 -77 238 -65C267 -53 275 -32 275 9V403H382C364 349 344 294 326 256L384 241C410 295 441 383 467 460L420 473L409 470H341L361 496C338 514 306 538 270 562C329 616 394 693 437 764L391 796L378 792H59V725H328C297 679 256 631 219 597ZM919 628H724L759 728H959V796H464V728H677C670 696 660 659 651 628H500V152H570V559H846V154H919Z" /><path id="g400-6d4b" d="M533 120 486 92C536 42 596 -28 624 -73L673 -38C644 4 583 72 533 120ZM649 782H312V154H371V724H588V157H649ZM929 7V827H867V7C867 -8 861 -13 847 -13C833 -14 786 -14 733 -13C742 -31 752 -60 755 -76C825 -77 868 -75 894 -64C919 -53 929 -34 929 7ZM790 750H730V151H790ZM504 298V653H446V299C446 178 426 53 259 -32C270 -41 289 -66 295 -78C476 13 504 164 504 298ZM126 829 81 776C137 745 209 697 243 666L289 727C253 756 180 800 126 829ZM81 560 38 506C93 475 166 430 202 400L247 460C209 489 135 532 81 560ZM58 -27 126 -67C168 25 218 148 254 253L194 292C154 180 98 50 58 -27Z" /><path id="g400-4e0a" d="M506 825H427V43H51V-32H950V43H506V441H881V516H506Z" /><path id="g400-4e0b" d="M534 527 520 511V691H946V766H55V691H441V-79H520V451C635 389 769 306 839 250L891 319C812 379 653 469 534 527Z" /><path id="g400-6587" d="M501 847 423 823C453 774 484 707 497 666L580 693C566 735 532 799 501 847ZM954 664H50V590H206C265 438 344 307 447 200C337 108 201 40 35 -7C51 -25 74 -60 83 -78C250 -24 389 48 502 147C615 46 752 -28 916 -73C928 -52 950 -20 968 -4C808 36 671 107 560 201C660 304 738 432 796 590H954ZM504 253C409 348 336 461 284 590H711C661 454 592 343 504 253Z" /><path id="g400-6216" d="M736 837 692 791C753 761 827 716 863 681L909 734C872 767 797 811 736 837ZM62 66 77 -11C192 14 357 50 511 84L505 155C342 121 171 86 62 66ZM195 278V452H399V278ZM472 518H125V213H472ZM936 680H635C632 731 631 784 631 838H552C552 785 554 732 557 680H68V606H561C573 443 596 293 632 175C564 95 484 29 391 -22C408 -35 437 -65 449 -80C528 -32 599 26 661 94C706 -15 766 -81 843 -81C920 -81 948 -31 962 141C941 149 913 166 896 184C890 50 877 -3 850 -3C800 -3 755 60 719 164C793 264 853 381 897 516L822 534C790 430 746 337 692 255C667 353 649 473 639 606H936Z" /><path id="g400-5fc3" d="M373 65V561H295V65C295 -34 327 -62 435 -62C458 -62 612 -62 637 -62C749 -62 773 -6 784 184C763 190 731 204 712 218C705 44 696 9 634 9C599 9 468 9 441 9C384 9 373 18 373 65ZM207 472 135 486C120 367 87 211 44 108L119 76C161 184 192 353 207 472ZM831 512 761 485C817 367 872 208 892 105L966 135C945 238 889 392 831 512ZM393 805 342 756C437 689 555 590 611 527L665 584C606 647 487 741 393 805Z" /><path id="g400-9759" d="M299 840H229V751H60V694H229V634H78V580H229V515H41V458H484V515H299V580H454V634H299V694H473V751H299ZM796 747H653C665 772 676 798 686 824L619 841C583 743 522 646 455 584C471 573 498 551 510 539L518 547V509H651V401H469V338H651V226H512V162H651V7C651 -7 646 -10 633 -11C619 -11 574 -12 523 -10C533 -30 544 -60 547 -79C615 -79 659 -78 685 -66C713 -55 721 -34 721 6V162H838V123H906V338H968V401H906V573H761C795 618 830 672 853 720L807 750ZM621 687H759C738 649 712 606 685 573H541C569 606 596 645 621 687ZM838 226H721V338H838ZM838 401H721V509H838ZM166 273V343H367V273ZM166 219H367V146H166ZM435 -5V400H100V-80H166V93H367V-4C367 -15 363 -19 351 -19C341 -19 303 -20 260 -18C269 -36 279 -62 283 -80C343 -80 379 -79 404 -68C428 -58 435 -39 435 -5Z" /><path id="g400-6001" d="M444 449 381 409C440 375 511 323 543 286L610 330C574 367 503 417 444 449ZM344 45V241H270V45C270 -36 300 -58 416 -58C441 -58 624 -58 650 -58C746 -58 770 -27 780 99C759 105 728 115 711 128C706 26 698 11 645 11C604 11 450 11 420 11C355 11 344 16 344 45ZM467 299 410 265C467 213 537 138 568 91L630 131C596 179 525 249 467 299ZM816 256 750 235C800 150 851 36 868 -35L940 -9C921 62 868 173 816 256ZM221 219 154 241C135 161 100 59 54 -6L122 -40C166 28 199 136 221 219ZM544 844H466C461 795 455 746 444 699H56V629H424C377 499 278 391 45 333C61 316 80 287 88 269C347 339 454 471 504 629C579 449 710 328 907 274C918 295 940 326 958 343C778 384 651 485 582 629H948V699H522C532 746 539 794 544 844Z" /><path id="g400-5411" d="M531 827 438 842C424 791 399 721 374 667H99V-80H173V594H832V20C832 2 826 -4 806 -4C785 -5 716 -6 644 -2C655 -24 666 -59 670 -80C762 -80 824 -79 860 -67C895 -54 907 -30 907 20V667H457C482 715 509 774 531 827ZM696 461H304V58H373V130H696ZM373 394H626V198H373Z" /><path id="g400-91cf" d="M250 610V665H747V610ZM250 709V763H747V709ZM822 808H177V565H822ZM949 522H52V465H949ZM230 215V273H462V215ZM535 273H777V215H535ZM230 317V373H462V317ZM535 373H777V317H535ZM955 3H535V61H873V114H535V169H851V420H159V169H462V114H131V61H462V3H47V-55H955Z" /><path id="g400-793a" d="M311 330 234 351C191 238 117 127 35 56C55 46 88 24 104 11C183 88 262 207 311 330ZM753 349 684 320C756 224 832 94 859 10L934 44C904 129 826 255 753 349ZM853 766H149V692H853ZM941 523H60V449H461V19C461 3 455 -1 437 -2C418 -3 352 -3 284 0C296 -23 308 -56 311 -79C400 -79 459 -78 494 -66C530 -53 542 -31 542 18V449H941Z" /><path id="g400-4f8b" d="M757 724H690V165H757ZM923 22V835H853V22C853 6 847 1 831 0C814 0 761 -1 701 2C712 -20 722 -52 727 -72C803 -73 854 -71 883 -58C912 -47 923 -25 923 22ZM399 341 358 290C393 263 435 228 466 199C419 98 357 22 286 -23C302 -37 323 -63 333 -81C487 26 591 235 625 554L581 565L568 563H440C454 612 466 662 476 714H645V785H297V714H403C373 554 323 404 250 306C267 295 295 271 307 260C352 322 389 403 419 494H549C537 411 518 335 494 267C465 292 429 320 399 341ZM142 -78H212V626C238 689 261 755 280 820L212 839C173 692 109 548 33 453C45 434 65 393 71 376C96 408 120 444 142 483Z" /><path id="g400-914d" d="M930 795H554V723H858V480H557V46C557 -46 585 -70 678 -70C697 -70 825 -70 846 -70C937 -70 959 -24 968 139C947 144 916 158 898 171C893 27 886 1 841 1C813 1 707 1 686 1C640 1 631 8 631 46V408H858V340H930ZM253 473V553H309V364C309 316 321 307 362 307C369 307 406 307 413 307H420V214H143V553H211V474C211 420 201 355 143 304C153 298 169 284 176 275C239 332 253 412 253 473ZM143 158H420V54H143ZM505 801H57V734H201V618H82V-76H143V-7H420V-62H482V618H369V734H505ZM255 618V734H314V618ZM351 365V553H420V352C418 351 416 350 406 350C398 350 371 350 366 350C353 350 351 352 351 365Z" /><path id="g400-7f6e" d="M651 658V748H820V658ZM417 658V748H582V658ZM189 658V748H348V658ZM808 427H495L509 486H922V545H520L531 603H895V802H117V603H454L446 545H68V486H436L424 427H190V6H57V-50H945V6H808ZM262 6V68H734V6ZM262 320V376H734V320ZM262 275H734V217H262ZM262 172H734V113H262Z" /><path id="g400-ff1a" d="M250 486C290 486 326 515 326 560C326 606 290 636 250 636C210 636 174 606 174 560C174 515 210 486 250 486ZM250 -4C290 -4 326 26 326 71C326 117 290 146 250 146C210 146 174 117 174 71C174 26 210 -4 250 -4Z" /><path id="g400-20" d="" /><path id="g400-7ef4" d="M45 53 59 -18C151 6 274 36 391 66L384 130C258 101 130 70 45 53ZM723 835 660 809C687 764 716 705 727 666L795 697C782 734 753 791 723 835ZM69 182C89 194 123 204 366 252C364 267 364 296 366 314L170 279C248 371 324 483 389 596L329 632C309 593 287 553 263 516L133 502C192 589 249 701 292 808L224 838C186 718 116 587 93 553C72 520 55 495 38 492C47 473 58 438 61 423C76 430 99 436 222 452C179 387 140 335 121 315C91 278 68 252 46 248C55 230 66 197 69 182ZM697 464H536V591H697ZM619 814 546 835C512 719 441 574 362 481C374 465 391 433 399 415C422 442 445 471 466 503V-81H536V-8H957V62H767V199H919V267H767V396H917V464H767V591H942V659H554C579 711 601 764 619 814ZM697 396V267H536V396ZM697 199V62H536V199Z" /><path id="g400-34" d="M340 0H426V202H524V275H426V733H325L20 262V202H340ZM340 275H115L282 525C303 561 323 598 341 633H345C343 596 340 536 340 500Z" /><path id="g700-47" d="M409 -14C511 -14 599 25 650 75V409H386V288H517V142C497 124 460 114 425 114C279 114 206 211 206 372C206 531 290 627 414 627C480 627 522 605 559 570L638 659C590 710 516 754 409 754C212 754 54 611 54 367C54 120 208 -14 409 -14Z" /><path id="g700-6c" d="M218 -12C251 -12 276 -7 293 1L275 109C266 107 262 107 255 107C241 107 226 117 226 152V798H79V158C79 54 115 -12 218 -12Z" /><path id="g400-5168" d="M559 820 493 851C392 692 209 545 26 462C45 446 67 421 78 401C118 421 158 444 197 469V404H461V248H203V181H461V16H76V-52H929V16H539V181H809V248H539V404H809V469C846 444 885 420 924 397C936 420 958 445 976 460C814 546 666 650 542 794ZM200 471C313 544 418 637 500 739C595 630 696 546 807 471Z" /><path id="g400-7edf" d="M772 36V352H698V36C698 -38 715 -60 785 -60C799 -60 859 -60 873 -60C935 -60 952 -22 958 114C939 119 909 132 893 145C891 25 887 6 865 6C853 6 806 6 797 6C775 6 772 10 772 36ZM585 350H510C504 152 481 45 317 -16C334 -30 355 -58 364 -77C545 -3 577 126 585 350ZM42 53 59 -21C149 8 267 45 379 82L367 147C246 111 123 74 42 53ZM664 842 595 824C614 783 639 729 649 695H407V627H587C542 565 473 473 450 451C431 433 406 426 387 421C395 405 409 367 412 348C439 360 482 364 845 399C862 372 876 346 886 326L949 361C919 419 854 513 800 583L741 553C763 524 786 491 808 458L532 435C577 490 634 568 676 627H948V695H660L724 715C712 747 687 802 664 842ZM66 182C87 195 121 205 369 260C367 275 366 305 368 325L178 288C255 376 330 484 393 592L326 632C307 595 285 557 263 521L140 509C202 594 263 703 310 809L233 843C190 723 116 594 92 561C70 527 51 504 33 500C43 479 55 439 60 423C75 430 98 435 217 451C175 389 136 340 118 321C86 284 63 259 41 255C50 235 62 198 66 182Z" /><path id="g400-8ba1" d="M186 823 137 775C193 728 263 660 295 617L346 673C312 714 241 778 186 823ZM196 -61C212 -40 240 -18 428 116C420 130 409 161 404 182L281 98V526H46V452H205V93C205 50 174 20 155 8C169 -7 189 -41 196 -61ZM705 837H626V508H372V431H626V-80H705V431H959V508H705Z" /><path id="g400-52a0" d="M644 81V643H838V81ZM913 716H572V-65H644V9H838V-57H913ZM269 827H195L194 650H53V577H192C185 325 155 103 29 -30C48 -41 74 -64 87 -81C222 66 256 306 265 577H417C409 192 400 55 379 25C370 13 360 9 345 10C327 10 284 10 237 14C250 -7 257 -39 259 -61C304 -64 350 -65 378 -61C407 -57 426 -49 444 -22C475 21 482 167 490 612C490 623 490 650 490 650H267Z" /><path id="g400-6743" d="M875 748H423V675H458C494 469 545 311 633 180C556 90 465 24 366 -17C383 -31 403 -61 413 -79C512 -33 602 32 679 119C740 44 817 -22 914 -85C925 -63 948 -38 968 -23C867 37 789 103 727 179C828 316 901 500 935 736L888 751ZM853 675C821 501 761 356 681 242C606 358 560 497 528 675ZM286 840H212V628H46V558H194C158 419 88 260 18 176C33 157 53 124 62 102C118 175 173 298 212 422V-79H286V430C329 375 385 298 409 260L454 327C430 356 318 485 286 516V558H419V628H286Z" /><path id="g400-6700" d="M248 564V635H753V564ZM248 685V755H753V685ZM828 808H176V511H828ZM396 392V325H214V392ZM47 43 54 -24 396 17V-80H468V26L522 33L521 94L468 88V392H949V455H49V392H145V52ZM863 330H507V268H566L548 263C577 189 619 124 671 71C616 29 554 -2 491 -22C504 -35 521 -60 529 -77C596 -53 661 -19 720 27C776 -19 843 -54 919 -76C929 -59 948 -31 964 -17C891 1 826 31 771 72C836 135 889 215 919 314L877 333ZM613 268H832C806 209 767 157 721 113C675 157 639 209 613 268ZM396 269V198H214V269ZM396 142V80L214 59V142Z" /><path id="g400-5c0f" d="M545 24V826H464V24C464 4 456 -2 436 -3C415 -4 343 -5 270 -2C282 -23 296 -59 301 -80C395 -81 457 -79 494 -66C530 -54 545 -31 545 24ZM777 598 705 571C791 427 872 240 895 121L976 154C950 274 865 458 777 598ZM285 577 202 591C176 457 121 284 32 178C53 169 85 151 103 138C194 250 252 430 285 577Z" /><path id="g400-4e8c" d="M860 697H141V616H860ZM945 104H57V20H945Z" /><path id="g400-4e58" d="M845 770 812 835C649 800 361 780 128 772C135 754 144 727 145 708C244 710 354 715 460 723V630H65V561H460V329C375 190 211 68 34 17C51 2 73 -26 84 -45C230 5 365 103 460 223V-79H538V228C633 103 769 1 915 -49C926 -30 948 -2 964 13C788 64 623 191 538 331V561H935V630H538V729C653 739 761 753 845 770ZM62 278 79 214 284 253V206H354V533H284V463H92V402H284V312ZM902 440 856 496C819 476 766 452 713 432V534H643V289C643 217 662 198 738 198C754 198 837 198 853 198C912 198 931 221 939 311C919 315 891 325 876 337C874 271 869 262 846 262C828 262 760 262 746 262C717 262 713 266 713 289V371C775 391 846 416 902 440Z" /><path id="g400-76ee" d="M233 542V704H759V542ZM233 470H759V305H233ZM233 233H759V67H233ZM837 778H158V-74H233V-6H759V-74H837Z" /><path id="g400-6807" d="M902 764H466V693H902ZM843 345 779 325C826 225 872 95 888 16L957 41C940 120 892 247 843 345ZM560 327 491 342C465 236 420 129 364 57C381 49 411 29 425 18C479 94 529 211 560 327ZM711 17V454H955V525H422V454H636V17C636 4 632 0 617 0C604 -1 558 -1 505 1C515 -22 526 -55 529 -76C599 -76 645 -74 674 -62C703 -49 711 -26 711 17ZM277 840H202V628H49V558H186C153 434 88 290 24 215C37 196 57 165 66 144C117 208 166 313 202 420V-79H277V444C311 395 351 333 368 301L412 360C392 388 306 498 277 531V558H408V628H277Z" /><path id="g400-38" d="M280 -13C417 -13 509 70 509 176C509 277 450 332 386 369V374C429 408 483 474 483 551C483 664 407 744 282 744C168 744 81 669 81 558C81 481 127 426 180 389V385C113 349 46 280 46 182C46 69 144 -13 280 -13ZM330 398C243 432 164 471 164 558C164 629 213 676 281 676C359 676 405 619 405 546C405 492 379 442 330 398ZM281 55C193 55 127 112 127 190C127 260 169 318 228 356C332 314 422 278 422 179C422 106 366 55 281 55Z" /><path id="g700-42" d="M91 0H355C518 0 641 70 641 224C641 321 589 374 503 393V397C567 420 604 483 604 558C604 696 488 741 336 741H91ZM239 439V627H327C416 627 460 601 460 536C460 477 420 439 326 439ZM239 114V330H342C444 330 497 299 497 227C497 150 442 114 342 114Z" /><path id="g700-45" d="M91 0H556V124H239V322H498V446H239V617H545V741H91Z" /><path id="g700-52" d="M239 397V623H335C430 623 482 596 482 516C482 437 430 397 335 397ZM494 0H659L486 303C571 336 627 405 627 516C627 686 504 741 348 741H91V0H239V280H342Z" /><path id="g700-54" d="M238 0H386V617H595V741H30V617H238Z" /><path id="g400-54" d="M253 0H346V655H568V733H31V655H253Z" /><path id="g400-72" d="M92 0H184V349C220 441 275 475 320 475C343 475 354 473 370 468L390 545C373 554 356 557 332 557C270 557 215 513 178 444H176L167 543H92Z" /><path id="g400-61" d="M217 -13C284 -13 345 22 397 65H400L408 0H483V334C483 469 428 557 295 557C207 557 131 519 82 486L117 425C160 452 217 481 280 481C369 481 392 414 392 344C161 318 59 259 59 141C59 43 126 -13 217 -13ZM243 61C189 61 147 85 147 147C147 217 209 262 392 283V132C339 85 295 61 243 61Z" /><path id="g400-6e" d="M92 0H184V394C238 449 276 477 332 477C404 477 435 434 435 332V0H526V344C526 482 474 557 360 557C286 557 229 516 178 464H176L167 543H92Z" /><path id="g400-73" d="M234 -13C362 -13 431 60 431 148C431 247 350 283 264 314C198 338 149 357 149 407C149 448 181 486 250 486C298 486 337 470 375 442L417 495C376 531 316 557 249 557C130 557 62 489 62 403C62 313 141 275 222 245C283 223 344 198 344 143C344 96 309 58 237 58C169 58 120 79 74 118L32 64C81 15 154 -13 234 -13Z" /><path id="g400-66" d="M27 469H107V0H198V469H313V543H198V629C198 699 223 736 275 736C294 736 315 732 336 724L356 792C333 802 299 809 265 809C157 809 107 740 107 630V543L27 538Z" /><path id="g400-6f" d="M303 -13C436 -13 554 91 554 271C554 452 436 557 303 557C170 557 52 452 52 271C52 91 170 -13 303 -13ZM303 63C209 63 146 146 146 271C146 396 209 480 303 480C397 480 461 396 461 271C461 146 397 63 303 63Z" /><path id="g400-6d" d="M92 0H184V394C233 450 279 477 320 477C389 477 421 434 421 332V0H512V394C563 450 607 477 649 477C718 477 750 434 750 332V0H841V344C841 482 788 557 677 557C610 557 554 514 497 453C475 517 431 557 347 557C282 557 226 516 178 464H176L167 543H92Z" /><path id="g400-65" d="M312 -13C385 -13 443 10 490 42L459 100C419 75 375 60 322 60C228 60 149 124 140 250H508C510 264 512 282 512 302C512 457 434 557 295 557C171 557 52 448 52 271C52 92 167 -13 312 -13ZM141 315C154 433 228 484 297 484C382 484 432 425 432 315Z" /><path id="g400-b7" d="M606 380C606 439 559 486 500 486C441 486 394 439 394 380C394 321 441 274 500 274C559 274 606 321 606 380Z" /><path id="g400-63a9" d="M677 31V120H884V413C896 403 909 395 922 387C932 405 955 430 971 444C895 484 821 564 776 650H955V717H628C643 752 655 790 666 829L594 842C583 798 569 756 551 717H355V650H517C466 563 397 494 311 445C326 432 353 403 363 389C380 400 396 411 412 424V76H479V120H609V32C609 -53 631 -75 715 -75C733 -75 842 -75 861 -75C934 -75 953 -40 961 78C942 82 915 94 899 106C895 9 890 -11 856 -11C834 -11 740 -11 722 -11C684 -11 677 -4 677 31ZM597 650H703C730 589 768 530 813 480H677V567H609V480H475C523 528 563 585 597 650ZM479 420H609V332H479ZM479 180V277H609V180ZM816 332H677V420H816ZM816 277V180H677V277ZM232 14V298L337 332L328 399L232 369V568H332V638H232V839H162V638H41V568H162V348C111 332 65 319 28 309L46 237L162 275V14C162 0 157 -4 145 -4C133 -5 94 -5 51 -4C60 -24 70 -55 72 -73C135 -74 174 -71 198 -59C223 -48 232 -27 232 14Z" /><path id="g400-7801" d="M792 205H410V137H792ZM791 781H443V712H778C770 624 757 502 745 401H537C546 476 556 569 561 645L491 650C484 551 471 417 458 336H863C844 117 822 28 796 2C786 -8 776 -10 758 -9C740 -9 696 -9 647 -4C659 -23 666 -52 668 -73C716 -76 763 -76 788 -74C818 -72 837 -65 856 -43C892 -7 914 98 937 368C938 379 940 401 940 401H816C832 525 848 675 856 779L803 785ZM365 479H181C208 554 229 635 245 718H394V787H51V718H173C145 565 100 423 29 328C41 308 58 266 63 247C82 272 100 300 116 329V-34H181V46H365ZM181 411H299V113H181Z" /><path id="g400-8bed" d="M146 813 98 767C152 720 217 654 249 610L300 664C268 705 200 768 146 813ZM795 624H610L634 737H924V804H355V737H557L534 624H391V559H520C509 510 497 462 486 422H320V354H958V422H840C848 486 856 560 860 623L807 628ZM564 422 596 559H783C780 517 775 467 769 422ZM475 25V204H816V25ZM890 271H403V-80H475V-41H816V-77H890ZM224 527H45V454H184V91C184 50 163 27 148 17C161 1 180 -32 186 -50C201 -31 226 -12 394 104C387 119 377 148 374 168L254 89V527Z" /><path id="g400-8a00" d="M803 392H200V330H803ZM803 542H200V480H803ZM264 27V171H738V27ZM814 235H190V-79H264V-37H738V-76H814ZM485 842 412 820C447 781 483 728 503 690H54V624H951V690H549L585 702C566 741 523 799 485 842Z" /><path id="g400-6a21" d="M472 345V417H820V345ZM472 472V542H820V472ZM805 840H732V757H578V840H507V757H360V693H507V618H578V693H732V618H805V693H945V757H805ZM893 599H402V289H606C602 259 598 232 591 206H340V142H569C531 65 459 12 312 -20C326 -35 345 -63 352 -80C526 -38 607 34 647 140C697 30 790 -44 920 -80C930 -60 950 -32 966 -18C853 6 767 61 719 142H943V206H666C671 232 676 260 679 289H893ZM247 840H175V647H50V577H175V576C148 440 90 281 32 197C45 179 63 146 72 124C110 183 146 274 175 372V-79H247V436C274 383 305 320 318 286L365 340C349 371 273 496 247 535V577H350V647H247Z" /><path id="g400-578b" d="M704 783H635V448H704ZM893 386V834H822V387C822 374 818 370 802 369C787 368 737 368 680 370C691 350 701 321 705 301C776 301 825 302 855 314C885 325 893 344 893 386ZM264 601V733H388V595H264ZM573 595H459V733H552V799H100V733H195V602V595H67V528H189C178 461 145 393 59 340C73 330 98 302 108 288C210 351 248 441 259 528H388V313H459V528H573ZM544 332H467V221H151V152H467V25H47V-45H952V25H544V152H848V221H544Z" /><path id="g400-5143" d="M857 762H147V690H857ZM942 482H59V408H314C299 221 262 62 48 -19C65 -33 87 -60 95 -77C328 16 376 193 394 408H583V50C583 -37 607 -62 697 -62C716 -62 822 -62 841 -62C929 -62 949 -15 958 157C937 162 905 176 887 190C884 36 877 9 836 9C812 9 724 9 706 9C667 9 659 15 659 51V408H942Z" /><path id="g400-8868" d="M908 302 846 346C802 303 732 249 672 207C628 259 592 319 566 385H934V450H536V539H858V601H536V686H902V751H536V840H460V751H105V686H460V601H156V539H460V450H65V385H397C302 300 160 223 36 183C52 168 74 140 86 122C142 142 201 170 258 203V55C258 15 236 -2 219 -11C231 -27 247 -61 252 -79C275 -64 312 -51 591 38C587 54 581 83 579 104L335 31V251C395 292 449 337 492 385C570 175 710 23 917 -46C928 -26 950 3 967 19C868 48 783 97 714 162C777 201 850 253 908 302Z" /><path id="g400-968f" d="M376 753 327 726C366 678 410 611 428 568L481 600C462 641 417 706 376 753ZM741 829 673 841C665 802 655 764 643 728H497V663H618C582 582 533 514 473 463C488 451 514 426 524 414C550 437 574 464 596 493V68H660V235H846V137C846 127 843 124 833 124C824 124 795 124 762 125C769 108 778 85 781 67C831 67 864 68 886 78C908 88 914 105 914 137V576H649C664 603 678 632 690 663H955V728H714C724 760 733 794 741 829ZM660 434V517H846V434ZM660 379H846V292H660ZM277 797H79V-79H146V729H254C237 660 213 568 188 494C248 412 262 342 262 286C262 255 257 225 244 214C237 209 228 206 218 206C205 205 190 205 171 207C182 188 188 161 189 143C207 142 227 142 244 144C261 147 277 152 290 162C315 181 325 225 325 278C325 342 311 416 251 501C279 583 310 689 335 773L288 801ZM479 101V455H323V391H414V108C376 92 333 49 289 -8L335 -70C374 -5 415 55 441 55C462 55 491 23 527 -2C582 -43 644 -59 733 -59C795 -59 901 -55 948 -52C949 -32 958 1 966 19C898 11 800 6 734 6C652 6 593 18 541 55C515 73 496 90 479 101Z" /><path id="g400-6240" d="M611 406V429H766V-77H841V429H958V501H611V685C726 702 854 729 939 765L888 828C806 790 660 759 534 739V406C534 267 523 91 404 -32C420 -42 451 -67 462 -82C591 48 611 255 611 406ZM489 756 441 819C362 783 218 756 98 741V391C98 261 93 88 29 -35C45 -43 77 -68 90 -82C147 21 165 167 170 293H442V589H172V685C284 698 408 721 489 756ZM172 391V521H370V361H172Z" /><path id="g400-5728" d="M469 821 391 840C377 789 359 736 338 685H63V613H305C241 485 153 366 39 286C51 268 70 237 78 217C120 247 158 281 193 318V-76H268V407C315 471 356 541 389 613H939V685H421C439 730 455 776 469 821ZM673 561H598V368H373V298H598V14H333V-56H938V14H673V298H900V368H673Z" /><path id="g400-53d8" d="M290 611 223 629C193 558 143 486 88 438C105 429 133 409 147 397C200 450 257 530 290 611ZM747 623 691 591C752 534 825 450 860 396L920 435C885 487 812 567 747 623ZM504 849 432 831C450 803 469 767 483 738H70V671H347V367H422V671H576V368H651V671H930V738H567C554 769 527 816 504 849ZM762 339H133V272H213C266 193 338 128 424 75C311 30 183 1 51 -17C65 -32 83 -63 89 -82C233 -59 375 -22 499 34C617 -24 758 -62 913 -82C922 -62 940 -33 956 -16C815 -1 686 29 576 74C680 133 766 210 823 309L775 342ZM296 272H709C658 206 585 152 500 109C416 153 347 207 296 272Z" /><path id="g400-5316" d="M939 647 867 695C797 588 701 490 596 406V822H516V346C452 301 386 262 322 230C341 216 365 190 377 174C423 198 469 225 516 255V81C516 -31 546 -62 647 -62C668 -62 801 -62 824 -62C930 -62 951 4 962 191C939 197 907 212 887 228C880 57 873 13 820 13C791 13 678 13 654 13C606 13 596 23 596 79V310C725 403 847 519 939 647ZM387 817 313 840C252 687 149 538 42 442C58 425 83 386 92 369C131 407 170 452 207 502V-80H286V619C324 682 359 750 387 817Z" /><path id="g400-42" d="M101 0H334C498 0 612 71 612 218C612 316 554 373 463 390V395C532 417 570 478 570 554C570 683 466 733 318 733H101ZM193 422V660H306C421 660 479 628 479 542C479 467 428 422 302 422ZM193 74V350H321C450 350 521 309 521 218C521 119 447 74 321 74Z" /><path id="g400-45" d="M101 0H534V79H193V346H471V425H193V655H523V733H101Z" /><path id="g400-52" d="M193 385V658H316C431 658 494 624 494 528C494 432 431 385 316 385ZM503 0H607L421 321C520 345 586 413 586 528C586 680 479 733 330 733H101V0H193V311H325Z" /><path id="g400-2d" d="M46 245H302V315H46Z" /><path id="g400-62" d="M331 -13C455 -13 567 94 567 280C567 448 491 557 351 557C290 557 230 523 180 481L184 578V796H92V0H165L173 56H177C224 13 281 -13 331 -13ZM316 64C280 64 231 78 184 120V406C235 454 283 480 328 480C432 480 472 400 472 279C472 145 406 64 316 64Z" /><path id="g400-37" d="M198 0H293C305 287 336 458 508 678V733H49V655H405C261 455 211 278 198 0Z" /><path id="g400-36" d="M301 -13C415 -13 512 83 512 225C512 379 432 455 308 455C251 455 187 422 142 367C146 594 229 671 331 671C375 671 419 649 447 615L499 671C458 715 403 746 327 746C185 746 56 637 56 350C56 108 161 -13 301 -13ZM144 294C192 362 248 387 293 387C382 387 425 324 425 225C425 125 371 59 301 59C209 59 154 142 144 294Z" /><path id="g400-39" d="M235 -13C372 -13 501 101 501 398C501 631 395 746 254 746C140 746 44 651 44 508C44 357 124 278 246 278C307 278 370 313 415 367C408 140 326 63 232 63C184 63 140 84 108 119L58 62C99 19 155 -13 235 -13ZM414 444C365 374 310 346 261 346C174 346 130 410 130 508C130 609 184 675 255 675C348 675 404 595 414 444Z" /><path id="g700-53" d="M312 -14C483 -14 584 89 584 210C584 317 526 374 435 412L338 451C275 477 223 496 223 549C223 598 263 627 328 627C382 627 435 604 484 567L561 662C502 719 417 754 328 754C179 754 72 660 72 540C72 433 148 373 223 341L321 299C387 271 433 254 433 199C433 147 392 114 315 114C247 114 173 141 120 191L42 95C114 23 211 -14 312 -14Z" /><path id="g700-6e" d="M79 0H226V385C267 426 297 448 342 448C397 448 421 418 421 331V0H568V349C568 490 516 574 395 574C319 574 262 534 213 486H210L199 560H79Z" /><path id="g700-74" d="M284 -12C332 -12 373 -2 403 11L378 114C362 107 341 104 323 104C273 104 246 133 246 198V444H385V560H246V733H125L108 560L21 553V444H100V197C100 72 151 -12 284 -12Z" /><path id="g700-2d" d="M49 233H322V339H49Z" /><path id="g400-5b6a" d="M294 614 226 633C193 561 136 489 75 442C92 433 122 413 135 401C194 453 256 534 294 614ZM748 630 691 595C754 540 832 457 868 403L929 445C891 496 815 575 748 630ZM504 852 432 834C448 809 464 779 477 752H70V686H347V398H422V686H576V399H651V686H930V752H562C548 782 525 822 504 852ZM950 208H582C666 243 750 288 813 336L762 379L746 375H200V310H653C597 278 527 246 465 226V208H53V142H465V14C465 0 459 -5 439 -5C419 -6 340 -7 262 -4C273 -24 286 -52 290 -73C391 -73 455 -73 494 -63C533 -52 545 -32 545 12V142H950Z" /><path id="g400-751f" d="M315 807 239 824C201 681 136 542 54 453C73 443 107 421 121 408C159 453 194 510 226 573H463V352H165V280H463V25H55V-48H949V25H541V280H865V352H541V573H901V646H541V840H463V646H259C281 697 300 752 315 807Z" /><path id="g400-2f" d="M11 -179H78L377 794H311Z" /><path id="g400-4e09" d="M879 743H123V667H879ZM801 416H187V341H801ZM934 69H65V-7H934Z" /><path id="g400-7ec4" d="M48 58 63 -14C157 10 282 42 401 73L394 137C266 106 134 76 48 58ZM872 790H481V11H380V-58H959V11H872ZM553 11V207H798V11ZM553 535V721H798V535ZM553 466H798V274H553ZM73 182C94 194 129 204 401 259C399 274 400 301 402 321L182 281C265 370 346 480 415 591L355 628C334 591 311 555 288 520L143 505C207 591 269 701 318 808L249 840C204 719 125 588 102 555C79 521 60 497 42 493C50 473 62 438 66 423C81 430 105 436 242 454C193 388 150 335 130 315C97 278 71 253 49 249C58 231 69 197 73 182Z" /><path id="g400-7f51" d="M240 578 194 536C239 481 288 416 333 352C295 245 242 155 172 88C188 79 218 57 230 46C291 110 340 191 379 286C410 238 438 194 457 157L505 206C482 249 447 304 407 361C434 443 455 534 471 632L403 640C392 565 377 494 358 428C320 480 279 532 240 578ZM532 574 483 535C529 480 577 415 620 350C580 240 526 148 452 80C469 71 499 49 511 38C575 103 625 184 664 280C699 224 728 171 747 127L799 171C776 224 738 290 693 358C720 440 740 531 756 630L687 638C676 564 662 494 644 428C608 479 570 529 532 574ZM915 20V780H88V-78H164V708H840V20C840 2 833 -3 814 -4C795 -5 729 -6 663 -3C674 -23 687 -57 692 -77C782 -78 837 -76 869 -64C902 -52 915 -28 915 20Z" /><path id="g400-7edc" d="M41 50 59 -25C151 5 274 42 391 78L380 143C254 107 125 71 41 50ZM639 833 570 853C529 745 460 641 383 570L392 585L326 626C308 590 287 554 265 520L138 507C198 592 257 699 302 803L229 836C188 718 116 590 92 556C71 523 53 500 34 496C43 476 56 438 60 423C74 430 98 436 220 452C176 388 136 338 118 319C87 282 63 258 42 254C50 234 62 198 66 182C88 196 121 206 368 266C366 281 365 311 367 331L183 291C251 370 317 464 376 558C390 544 412 515 421 502C452 531 483 566 512 605C541 556 579 511 623 470C548 420 462 382 374 356C385 341 401 307 407 287C502 318 596 364 679 424C753 368 841 323 935 293C939 313 952 344 964 361C879 384 801 420 733 466C814 535 880 619 923 719L879 747L866 744H598C613 773 627 803 639 833ZM536 46V229H820V46ZM892 296H466V-71H536V-21H820V-69H892ZM823 676C787 612 737 557 677 509C625 554 582 606 552 664L560 676Z" /><path id="g400-6c60" d="M134 829 93 774C158 746 238 698 277 665L321 727C280 760 198 802 134 829ZM79 555 40 499C102 471 180 426 219 394L260 456C220 488 142 529 79 555ZM73 -16 138 -65C195 29 261 154 312 259L255 306C200 193 124 61 73 -16ZM470 70V425L616 482V143H690V511L846 572C845 413 843 308 836 281C830 255 820 251 802 251C790 251 753 251 725 253C735 235 742 203 744 182C775 181 819 182 847 189C878 197 898 216 906 262C915 304 918 449 918 631L922 645L868 666L855 654L848 649L690 587V838H616V559L470 502V742H396V474L276 427L305 361L396 396V71C396 -40 431 -70 552 -70C579 -70 786 -70 815 -70C926 -70 950 -24 963 115C942 120 911 132 893 146C885 28 874 0 812 0C768 0 589 0 554 0C483 0 470 13 470 70Z" /><path id="g400-53e5" d="M302 478H229V43H302V115H623V478ZM302 410H548V184H302ZM365 821 288 840C235 671 146 510 37 410C55 398 88 371 102 358C168 427 230 517 282 620H839C825 206 808 44 772 8C760 -5 747 -8 725 -8C698 -8 629 -7 553 -1C568 -23 578 -57 579 -79C646 -83 715 -85 754 -81C793 -77 818 -68 842 -37C885 14 901 181 917 653C917 664 918 694 918 694H317C335 735 351 778 365 821Z" /><path id="g400-53ef" d="M948 769H56V694H747V28C747 8 740 1 718 0C694 -1 612 -2 531 3C544 -20 558 -56 563 -79C662 -79 732 -78 772 -65C811 -52 825 -26 825 28V694H948ZM568 547H158V93H231V173H568ZM231 475H494V245H231Z" /><path id="g400-7528" d="M887 22V770H153V407C153 266 143 89 32 -36C49 -45 79 -70 90 -85C167 0 201 115 216 227H467V-71H543V227H813V22C813 4 806 -2 786 -3C767 -4 699 -5 629 -2C639 -22 651 -55 655 -74C749 -75 807 -74 841 -62C875 -50 887 -27 887 22ZM227 698H467V537H227ZM813 698V537H543V698ZM227 407V466H467V298H223C226 336 227 373 227 407ZM813 466V298H543V466Z" /><path id="g400-4f59" d="M708 208 647 170C724 107 817 18 861 -40L926 4C880 62 784 148 708 208ZM343 179 273 205C219 132 136 57 57 7C74 -4 102 -30 115 -43C192 12 283 97 343 179ZM561 817 503 850C394 709 202 575 25 499C44 482 64 456 77 437C130 463 185 494 239 529V465H465V338H95V267H465V11C465 -4 460 -8 444 -9C427 -10 370 -10 309 -8C321 -28 335 -60 339 -80C419 -81 469 -79 500 -67C533 -55 544 -34 544 10V267H913V338H544V465H760V534H247C339 595 427 668 500 745C625 609 763 522 927 449C938 471 959 497 978 513C809 580 664 664 544 795Z" /><path id="g400-5f26" d="M651 838 586 815C611 773 642 718 656 679H383V609H596C549 517 488 432 467 407C443 378 424 357 406 353C414 334 426 299 430 284C449 291 478 296 654 310C581 217 514 143 485 115C438 66 406 36 380 29C389 10 402 -27 406 -42C436 -30 480 -25 860 11C873 -17 883 -43 890 -65L958 -35C934 38 870 153 809 239L746 214C775 172 804 123 829 75L511 48C636 169 765 326 876 493L807 530C776 479 742 428 706 379L517 367C575 436 632 522 681 609H955V679H676L727 700C712 737 681 795 651 838ZM271 573H75C75 478 71 356 64 280H270C261 98 250 26 232 8C223 -2 213 -3 197 -3C178 -3 130 -2 81 2C94 -18 102 -48 104 -71C152 -73 201 -74 226 -71C255 -68 274 -63 291 -42C318 -10 330 78 342 314C342 324 343 346 343 346H134C137 394 139 450 140 504H343V793H57V725H271Z" /><path id="g400-6bd4" d="M456 531H208V829H129V69C129 26 105 3 88 -7C101 -22 119 -54 125 -72C148 -55 185 -39 459 50C455 68 453 102 454 126L208 50V456H456ZM611 85V377C722 440 841 516 928 590L865 656C804 593 707 516 611 457V835H534V87C534 -24 561 -54 657 -54C676 -54 791 -54 811 -54C913 -54 933 15 942 215C921 221 889 235 870 250C863 65 856 18 806 18C780 18 685 18 665 18C620 18 611 28 611 85Z" /><path id="g400-8f83" d="M818 603 763 572C815 503 878 408 906 350L965 389C936 445 871 536 818 603ZM640 580 573 602C539 529 487 451 435 398C450 385 475 355 484 343C538 402 598 496 640 580ZM40 167 55 94 247 127V-75H314V139L418 158L415 225L314 208V346H400V414H314V569H247V414H147C176 483 204 565 228 650H398V722H247C255 756 263 791 269 825L196 840C191 801 183 761 174 722H47V650H157C136 570 115 504 105 479C88 435 75 403 58 398C66 380 77 346 81 332C89 340 120 346 153 346H247V198ZM679 845 615 817C639 780 667 730 681 697H446V628H942V697H693L749 725C735 757 705 808 679 845ZM851 400 783 417C764 341 734 272 694 210C652 272 619 342 595 415L530 397C560 307 600 223 650 151C589 77 511 17 416 -28C432 -41 454 -67 463 -81C555 -35 632 23 693 94C755 21 828 -37 912 -75C922 -56 945 -28 961 -14C875 21 800 79 739 152C789 224 826 307 851 400Z" /><path id="g400-5b50" d="M543 19V320H953V395H543V501C657 560 786 649 873 734L816 777L799 772H151V698H716C645 640 548 579 465 540V395H51V320H465V20C465 2 458 -3 438 -4C416 -5 342 -6 261 -2C273 -24 287 -58 293 -80C389 -80 454 -78 491 -66C530 -54 543 -31 543 19Z" /><path id="g400-7248" d="M174 423V496H439V563H351V842H282V563H174V820H105V422C105 271 96 90 30 -37C47 -47 72 -69 84 -83C143 20 164 151 171 283H309V-79H378V351H173ZM555 427V479H576C602 345 642 226 700 128C646 61 583 11 514 -21C530 -35 549 -64 559 -82C627 -47 689 2 742 65C789 3 845 -46 912 -82C923 -63 946 -36 963 -22C893 11 834 60 786 123C857 228 908 365 932 539L887 551L875 548H555V712C691 723 842 742 948 768L901 832C800 806 629 784 483 772V427C483 278 474 90 397 -43C415 -52 444 -72 457 -85C543 58 555 259 555 427ZM852 479C830 365 792 268 743 188C694 272 659 371 636 479Z" /><path id="g400-672c" d="M539 839H460V629H65V553H367C294 383 170 221 37 140C55 125 80 98 92 79C237 178 365 357 443 553H460V183H226V107H460V-80H539V107H772V183H539V553H553C630 358 758 177 906 81C920 102 946 131 965 146C826 226 700 384 628 553H937V629H539Z" /><path id="g700-4d" d="M91 0H224V309C224 380 212 497 205 568H209L268 378L383 67H468L582 378L642 568H647C639 497 628 380 628 309V0H763V741H599L475 393C460 348 447 299 431 252H426C411 299 397 348 381 393L255 741H91Z" /><path id="g700-33" d="M273 -14C415 -14 534 64 534 200C534 298 470 360 387 383V388C465 419 510 477 510 557C510 684 413 754 270 754C183 754 112 719 48 664L124 573C167 614 210 638 263 638C326 638 362 604 362 546C362 479 318 433 183 433V327C343 327 386 282 386 209C386 143 335 106 260 106C192 106 139 139 95 182L26 89C78 30 157 -14 273 -14Z" /><path id="g400-591a" d="M539 824 456 842C393 759 272 662 111 595C128 583 151 558 163 541C253 583 330 632 396 685H679C629 623 560 569 481 524C445 554 395 589 353 613L298 574C338 551 382 519 415 489C309 437 190 401 78 381C91 365 107 334 114 314C375 369 668 503 796 726L747 756L734 753H473C497 776 519 800 539 824ZM702 475 619 493C547 394 403 283 200 210C216 197 237 171 246 154C372 203 476 264 560 332H833C783 254 711 191 624 142C589 175 540 214 500 242L438 206C477 177 522 139 554 106C414 42 246 7 75 -9C87 -28 100 -61 106 -82C461 -40 804 76 944 373L894 404L880 400H636C660 425 682 450 702 475Z" /><path id="g400-957f" d="M844 786 769 818C682 714 536 619 395 561C414 547 444 517 458 501C593 567 745 671 844 786ZM944 449H326V835H248V449H56V374H248V55C248 15 225 0 207 -7C219 -23 233 -56 238 -74C262 -59 299 -47 574 28C571 44 568 76 567 98L326 38V374H483C564 167 706 19 914 -51C925 -28 949 3 967 20C775 75 635 202 561 374H944Z" /><path id="g400-74" d="M262 -11C299 -11 335 -1 364 13L345 78C324 67 303 64 283 64C220 64 199 102 199 169V469H347V543H199V718H123L113 543L27 538V469H108V171C108 63 147 -11 262 -11Z" /><path id="g400-6b" d="M92 0H182V143L284 262L443 0H542L337 324L518 543H416L186 257H182V796H92Z" /><path id="g400-7a20" d="M378 772 330 832C263 801 148 772 49 753C59 736 69 711 72 694C108 700 146 707 184 715V553H47V483H167C135 370 77 239 24 167C36 148 56 117 63 95C107 157 150 257 184 357V-80H251V380C281 334 317 276 331 246L378 308C359 333 277 435 251 461V483H379V553H251V731C297 743 341 757 378 772ZM926 8V793H422V421C422 275 412 90 306 -40C322 -47 349 -68 359 -80C471 55 488 265 488 421V726H860V9C860 -6 855 -11 841 -11C827 -12 780 -12 728 -10C738 -28 748 -58 751 -76C821 -77 864 -75 890 -64C916 -52 926 -31 926 8ZM702 696H642V612H540V554H642V452H524V395H827V452H702V554H806V612H702ZM600 313H543V34H600V79H801V313ZM600 257H744V136H600Z" /><path id="g400-5bc6" d="M243 526 182 553C154 492 105 419 47 375L108 338C166 386 211 462 243 526ZM390 672 352 628C414 599 488 553 524 518L564 567C527 601 451 645 390 672ZM784 548 729 511C793 456 866 376 898 323L955 365C922 418 847 494 784 548ZM751 606 688 638C611 544 499 466 370 404V569H302V376V374C218 338 128 310 38 288C51 272 73 241 82 224C163 247 244 275 321 309C340 288 375 282 436 282C458 282 625 282 649 282C736 282 758 311 768 430C749 434 721 444 704 455C701 358 692 344 644 344C607 344 467 344 440 344C424 344 411 344 402 346C540 413 663 499 751 606ZM235 196H161V-34H771V-78H846V204H771V37H536V250H460V37H235ZM513 850 442 838C452 813 461 781 467 754H77V558H151V686H849V558H925V754H545C539 783 526 820 513 850Z" /><path id="g400-7a00" d="M649 607 591 620C624 634 657 649 688 666C771 630 845 592 898 559L942 614C895 642 831 674 760 706C813 737 862 772 901 810L837 840C798 803 746 768 689 736C615 767 537 795 467 816L421 765C482 747 547 724 611 698C539 665 461 638 387 618C402 605 426 576 436 560C482 576 530 594 577 614C567 581 555 549 541 519H385V454H507C461 372 402 302 334 251C350 239 376 213 387 199C408 217 429 236 449 257V7H518V269H643V-80H711V269H847V84C847 74 844 71 834 71C824 71 794 71 758 72C767 53 776 28 779 8C830 8 865 9 887 20C911 30 917 49 917 83V335H711V425H643V335H513C539 372 564 412 586 454H962V519H616C628 547 639 577 649 607ZM356 771 312 831C250 799 143 771 52 752C60 736 70 711 74 695C107 700 143 707 178 715V553H45V483H162C132 374 77 248 27 179C38 162 55 133 63 114C105 174 146 271 178 369V-80H244V380C268 341 297 293 309 269L348 327C335 347 266 430 244 454V483H353V553H244V732C285 743 324 756 356 771Z" /><path id="g400-758f" d="M702 369H639V-47H702ZM848 31V374H782V39C782 -24 786 -39 799 -52C812 -65 831 -70 849 -70C859 -70 878 -70 889 -70C904 -70 921 -66 931 -59C943 -53 951 -41 956 -22C961 -6 964 44 965 87C949 92 928 102 916 113C915 68 914 34 912 18C911 4 907 -4 903 -8C900 -11 893 -12 886 -12C880 -12 871 -12 866 -12C860 -12 854 -10 852 -7C848 -3 848 10 848 31ZM563 250V373H498V251C498 157 484 49 362 -32C378 -42 401 -65 411 -79C546 13 563 136 563 250ZM375 778H63V710H319C290 675 254 638 223 612V133L151 112V537H90V95L28 79L46 6C147 37 284 80 412 120L403 186L290 152V369H408V436H290V589C341 633 397 693 438 747L389 782ZM701 845 631 825C647 794 664 756 676 722H441V656H614C579 603 525 526 506 506C490 489 464 482 445 478C452 462 466 425 470 407C495 416 535 419 862 439C874 420 885 403 893 388L952 423C921 477 853 565 797 629L742 599C767 569 795 534 819 500L582 488C618 537 663 605 697 656H955V722H758C745 759 722 808 701 845Z" /><path id="g400-68c0" d="M807 530H468V465H807ZM456 370 397 355C425 279 453 179 461 113L523 131C514 195 486 294 456 370ZM650 391 591 383C609 307 626 208 631 142L694 153C688 218 670 315 650 391ZM248 840H179V650H49V580H172C145 448 89 293 33 211C45 193 63 159 71 138C111 200 149 300 179 404V-79H248V443C274 394 303 335 316 304L361 357C345 387 271 505 248 538V580H352V650H248ZM690 823 624 847C556 706 437 579 311 502C325 487 347 455 356 440C458 511 558 611 634 726C711 626 826 518 927 451C935 471 952 502 966 519C864 579 739 689 670 786ZM938 35H754C806 129 866 265 909 373L842 391C807 283 743 130 690 35H343V-32H938Z" /><path id="g400-7d22" d="M690 141 633 104C718 58 825 -12 877 -58L937 -14C881 32 773 98 690 141ZM358 109 290 136C233 82 143 26 61 -10C78 -22 106 -47 119 -61C198 -19 294 46 358 109ZM552 8V189L797 204C824 176 848 149 864 127L922 166C879 222 789 304 718 362L665 328C691 306 719 281 746 255L309 232C450 285 592 352 727 434L673 480C629 451 581 424 533 398L309 385C378 419 447 460 510 505L480 528H862V405H936V593H539V686H923V752H539V841H461V752H76V686H461V593H66V405H137V528H434C363 473 274 425 246 411C218 396 194 386 174 385C181 367 191 333 194 319C211 326 237 329 422 341C339 302 269 272 237 260C179 236 135 222 102 219C109 200 119 166 122 153C148 162 187 166 479 185V10C479 -2 475 -6 458 -6C443 -8 389 -8 327 -6C339 -25 351 -54 355 -75C428 -75 479 -75 510 -63C543 -52 552 -32 552 8Z" /></defs></svg>
