<svg xmlns="http://www.w3.org/2000/svg" width="106mm" height="77.733mm" viewBox="0 0 900 660" role="img" aria-labelledby="title desc">
<title id="title">本章知识脉络</title><desc id="desc">用户记忆与共享知识库通过检索技术连接，并组合关键事实与按需细节。</desc>
<defs><marker id="arrow" viewBox="0 0 10 10" refX="9" refY="5" markerWidth="7" markerHeight="7" orient="auto-start-reverse"><path d="M0 0 L10 5 L0 10 Z" fill="#333333" /></marker></defs>
<rect width="900" height="660" fill="#ffffff" y="0" />
<rect x="20" y="20" width="410" height="260" rx="6" fill="#ffffff" stroke="#333333" stroke-width="1.8" />
<rect x="20" y="20" width="410" height="60" rx="6" fill="#dedede" stroke="#333333" stroke-width="1.8" />
<g aria-label="用户记忆" fill="#292929" data-font="Source Han Sans CN 700" data-size="28.0"><use href="#g700-7528" transform="translate(169.000 59) scale(0.028 -0.028)" /><use href="#g700-6237" transform="translate(197.000 59) scale(0.028 -0.028)" /><use href="#g700-8bb0" transform="translate(225.000 59) scale(0.028 -0.028)" /><use href="#g700-5fc6" transform="translate(253.000 59) scale(0.028 -0.028)" /></g><g aria-label="记录层次 · 三层次评估" fill="#292929" data-font="Source Han Sans CN 400" data-size="26.0"><use href="#g400-8bb0" transform="translate(89.176 120) scale(0.026 -0.026)" /><use href="#g400-5f55" transform="translate(115.176 120) scale(0.026 -0.026)" /><use href="#g400-5c42" transform="translate(141.176 120) scale(0.026 -0.026)" /><use href="#g400-6b21" transform="translate(167.176 120) scale(0.026 -0.026)" /><use href="#g400-20" transform="translate(193.176 120) scale(0.026 -0.026)" /><use href="#g400-b7" transform="translate(199.000 120) scale(0.026 -0.026)" /><use href="#g400-20" transform="translate(225.000 120) scale(0.026 -0.026)" /><use href="#g400-4e09" transform="translate(230.824 120) scale(0.026 -0.026)" /><use href="#g400-5c42" transform="translate(256.824 120) scale(0.026 -0.026)" /><use href="#g400-6b21" transform="translate(282.824 120) scale(0.026 -0.026)" /><use href="#g400-8bc4" transform="translate(308.824 120) scale(0.026 -0.026)" /><use href="#g400-4f30" transform="translate(334.824 120) scale(0.026 -0.026)" /></g><g aria-label="四种格式 · 可执行状态" fill="#292929" data-font="Source Han Sans CN 400" data-size="26.0"><use href="#g400-56db" transform="translate(89.176 151) scale(0.026 -0.026)" /><use href="#g400-79cd" transform="translate(115.176 151) scale(0.026 -0.026)" /><use href="#g400-683c" transform="translate(141.176 151) scale(0.026 -0.026)" /><use href="#g400-5f0f" transform="translate(167.176 151) scale(0.026 -0.026)" /><use href="#g400-20" transform="translate(193.176 151) scale(0.026 -0.026)" /><use href="#g400-b7" transform="translate(199.000 151) scale(0.026 -0.026)" /><use href="#g400-20" transform="translate(225.000 151) scale(0.026 -0.026)" /><use href="#g400-53ef" transform="translate(230.824 151) scale(0.026 -0.026)" /><use href="#g400-6267" transform="translate(256.824 151) scale(0.026 -0.026)" /><use href="#g400-884c" transform="translate(282.824 151) scale(0.026 -0.026)" /><use href="#g400-72b6" transform="translate(308.824 151) scale(0.026 -0.026)" /><use href="#g400-6001" transform="translate(334.824 151) scale(0.026 -0.026)" /></g><g aria-label="情景 · 语义 · 程序记忆" fill="#292929" data-font="Source Han Sans CN 400" data-size="26.0"><use href="#g400-60c5" transform="translate(83.352 182) scale(0.026 -0.026)" /><use href="#g400-666f" transform="translate(109.352 182) scale(0.026 -0.026)" /><use href="#g400-20" transform="translate(135.352 182) scale(0.026 -0.026)" /><use href="#g400-b7" transform="translate(141.176 182) scale(0.026 -0.026)" /><use href="#g400-20" transform="translate(167.176 182) scale(0.026 -0.026)" /><use href="#g400-8bed" transform="translate(173.000 182) scale(0.026 -0.026)" /><use href="#g400-4e49" transform="translate(199.000 182) scale(0.026 -0.026)" /><use href="#g400-20" transform="translate(225.000 182) scale(0.026 -0.026)" /><use href="#g400-b7" transform="translate(230.824 182) scale(0.026 -0.026)" /><use href="#g400-20" transform="translate(256.824 182) scale(0.026 -0.026)" /><use href="#g400-7a0b" transform="translate(262.648 182) scale(0.026 -0.026)" /><use href="#g400-5e8f" transform="translate(288.648 182) scale(0.026 -0.026)" /><use href="#g400-8bb0" transform="translate(314.648 182) scale(0.026 -0.026)" /><use href="#g400-5fc6" transform="translate(340.648 182) scale(0.026 -0.026)" /></g><g aria-label="Mem0 · Memobase" fill="#292929" data-font="Source Han Sans CN 400" data-size="26.0"><use href="#g400-4d" transform="translate(102.852 213) scale(0.026 -0.026)" /><use href="#g400-65" transform="translate(123.964 213) scale(0.026 -0.026)" /><use href="#g400-6d" transform="translate(138.368 213) scale(0.026 -0.026)" /><use href="#g400-30" transform="translate(162.444 213) scale(0.026 -0.026)" /><use href="#g400-20" transform="translate(176.874 213) scale(0.026 -0.026)" /><use href="#g400-b7" transform="translate(182.698 213) scale(0.026 -0.026)" /><use href="#g400-20" transform="translate(208.698 213) scale(0.026 -0.026)" /><use href="#g400-4d" transform="translate(214.522 213) scale(0.026 -0.026)" /><use href="#g400-65" transform="translate(235.634 213) scale(0.026 -0.026)" /><use href="#g400-6d" transform="translate(250.038 213) scale(0.026 -0.026)" /><use href="#g400-6f" transform="translate(274.114 213) scale(0.026 -0.026)" /><use href="#g400-62" transform="translate(289.870 213) scale(0.026 -0.026)" /><use href="#g400-61" transform="translate(305.938 213) scale(0.026 -0.026)" /><use href="#g400-73" transform="translate(320.576 213) scale(0.026 -0.026)" /><use href="#g400-65" transform="translate(332.744 213) scale(0.026 -0.026)" /></g><g aria-label="压缩整理 · 日志脱敏" fill="#292929" data-font="Source Han Sans CN 400" data-size="26.0"><use href="#g400-538b" transform="translate(102.176 244) scale(0.026 -0.026)" /><use href="#g400-7f29" transform="translate(128.176 244) scale(0.026 -0.026)" /><use href="#g400-6574" transform="translate(154.176 244) scale(0.026 -0.026)" /><use href="#g400-7406" transform="translate(180.176 244) scale(0.026 -0.026)" /><use href="#g400-20" transform="translate(206.176 244) scale(0.026 -0.026)" /><use href="#g400-b7" transform="translate(212.000 244) scale(0.026 -0.026)" /><use href="#g400-20" transform="translate(238.000 244) scale(0.026 -0.026)" /><use href="#g400-65e5" transform="translate(243.824 244) scale(0.026 -0.026)" /><use href="#g400-5fd7" transform="translate(269.824 244) scale(0.026 -0.026)" /><use href="#g400-8131" transform="translate(295.824 244) scale(0.026 -0.026)" /><use href="#g400-654f" transform="translate(321.824 244) scale(0.026 -0.026)" /></g><path d="M225 280 L225 320" fill="none" stroke="#333333" stroke-width="1.8" marker-end="url(#arrow)" />
<rect x="470" y="20" width="410" height="260" rx="6" fill="#ffffff" stroke="#333333" stroke-width="1.8" />
<rect x="470" y="20" width="410" height="60" rx="6" fill="#dedede" stroke="#333333" stroke-width="1.8" />
<g aria-label="共享知识库" fill="#292929" data-font="Source Han Sans CN 700" data-size="28.0"><use href="#g700-5171" transform="translate(605.000 59) scale(0.028 -0.028)" /><use href="#g700-4eab" transform="translate(633.000 59) scale(0.028 -0.028)" /><use href="#g700-77e5" transform="translate(661.000 59) scale(0.028 -0.028)" /><use href="#g700-8bc6" transform="translate(689.000 59) scale(0.028 -0.028)" /><use href="#g700-5e93" transform="translate(717.000 59) scale(0.028 -0.028)" /></g><g aria-label="文档分块 · 多模态材料" fill="#292929" data-font="Source Han Sans CN 400" data-size="26.0"><use href="#g400-6587" transform="translate(539.176 120) scale(0.026 -0.026)" /><use href="#g400-6863" transform="translate(565.176 120) scale(0.026 -0.026)" /><use href="#g400-5206" transform="translate(591.176 120) scale(0.026 -0.026)" /><use href="#g400-5757" transform="translate(617.176 120) scale(0.026 -0.026)" /><use href="#g400-20" transform="translate(643.176 120) scale(0.026 -0.026)" /><use href="#g400-b7" transform="translate(649.000 120) scale(0.026 -0.026)" /><use href="#g400-20" transform="translate(675.000 120) scale(0.026 -0.026)" /><use href="#g400-591a" transform="translate(680.824 120) scale(0.026 -0.026)" /><use href="#g400-6a21" transform="translate(706.824 120) scale(0.026 -0.026)" /><use href="#g400-6001" transform="translate(732.824 120) scale(0.026 -0.026)" /><use href="#g400-6750" transform="translate(758.824 120) scale(0.026 -0.026)" /><use href="#g400-6599" transform="translate(784.824 120) scale(0.026 -0.026)" /></g><g aria-label="稠密 / 稀疏 · 混合检索" fill="#292929" data-font="Source Han Sans CN 400" data-size="26.0"><use href="#g400-7a20" transform="translate(541.256 151) scale(0.026 -0.026)" /><use href="#g400-5bc6" transform="translate(567.256 151) scale(0.026 -0.026)" /><use href="#g400-20" transform="translate(593.256 151) scale(0.026 -0.026)" /><use href="#g400-2f" transform="translate(599.080 151) scale(0.026 -0.026)" /><use href="#g400-20" transform="translate(609.272 151) scale(0.026 -0.026)" /><use href="#g400-7a00" transform="translate(615.096 151) scale(0.026 -0.026)" /><use href="#g400-758f" transform="translate(641.096 151) scale(0.026 -0.026)" /><use href="#g400-20" transform="translate(667.096 151) scale(0.026 -0.026)" /><use href="#g400-b7" transform="translate(672.920 151) scale(0.026 -0.026)" /><use href="#g400-20" transform="translate(698.920 151) scale(0.026 -0.026)" /><use href="#g400-6df7" transform="translate(704.744 151) scale(0.026 -0.026)" /><use href="#g400-5408" transform="translate(730.744 151) scale(0.026 -0.026)" /><use href="#g400-68c0" transform="translate(756.744 151) scale(0.026 -0.026)" /><use href="#g400-7d22" transform="translate(782.744 151) scale(0.026 -0.026)" /></g><g aria-label="RAPTOR · GraphRAG" fill="#292929" data-font="Source Han Sans CN 400" data-size="26.0"><use href="#g400-52" transform="translate(543.713 182) scale(0.026 -0.026)" /><use href="#g400-41" transform="translate(560.223 182) scale(0.026 -0.026)" /><use href="#g400-50" transform="translate(576.031 182) scale(0.026 -0.026)" /><use href="#g400-54" transform="translate(592.489 182) scale(0.026 -0.026)" /><use href="#g400-4f" transform="translate(608.063 182) scale(0.026 -0.026)" /><use href="#g400-52" transform="translate(627.355 182) scale(0.026 -0.026)" /><use href="#g400-20" transform="translate(643.865 182) scale(0.026 -0.026)" /><use href="#g400-b7" transform="translate(649.689 182) scale(0.026 -0.026)" /><use href="#g400-20" transform="translate(675.689 182) scale(0.026 -0.026)" /><use href="#g400-47" transform="translate(681.513 182) scale(0.026 -0.026)" /><use href="#g400-72" transform="translate(699.427 182) scale(0.026 -0.026)" /><use href="#g400-61" transform="translate(709.515 182) scale(0.026 -0.026)" /><use href="#g400-70" transform="translate(724.153 182) scale(0.026 -0.026)" /><use href="#g400-68" transform="translate(740.273 182) scale(0.026 -0.026)" /><use href="#g400-52" transform="translate(756.055 182) scale(0.026 -0.026)" /><use href="#g400-41" transform="translate(772.565 182) scale(0.026 -0.026)" /><use href="#g400-47" transform="translate(788.373 182) scale(0.026 -0.026)" /></g><g aria-label="目录导航 · Agentic RAG" fill="#292929" data-font="Source Han Sans CN 400" data-size="26.0"><use href="#g400-76ee" transform="translate(530.674 213) scale(0.026 -0.026)" /><use href="#g400-5f55" transform="translate(556.674 213) scale(0.026 -0.026)" /><use href="#g400-5bfc" transform="translate(582.674 213) scale(0.026 -0.026)" /><use href="#g400-822a" transform="translate(608.674 213) scale(0.026 -0.026)" /><use href="#g400-20" transform="translate(634.674 213) scale(0.026 -0.026)" /><use href="#g400-b7" transform="translate(640.498 213) scale(0.026 -0.026)" /><use href="#g400-20" transform="translate(666.498 213) scale(0.026 -0.026)" /><use href="#g400-41" transform="translate(672.322 213) scale(0.026 -0.026)" /><use href="#g400-67" transform="translate(688.130 213) scale(0.026 -0.026)" /><use href="#g400-65" transform="translate(702.794 213) scale(0.026 -0.026)" /><use href="#g400-6e" transform="translate(717.198 213) scale(0.026 -0.026)" /><use href="#g400-74" transform="translate(733.058 213) scale(0.026 -0.026)" /><use href="#g400-69" transform="translate(742.860 213) scale(0.026 -0.026)" /><use href="#g400-63" transform="translate(750.010 213) scale(0.026 -0.026)" /><use href="#g400-20" transform="translate(763.270 213) scale(0.026 -0.026)" /><use href="#g400-52" transform="translate(769.094 213) scale(0.026 -0.026)" /><use href="#g400-41" transform="translate(785.604 213) scale(0.026 -0.026)" /><use href="#g400-47" transform="translate(801.412 213) scale(0.026 -0.026)" /></g><g aria-label="上下文前缀 · 案例知识提取" fill="#292929" data-font="Source Han Sans CN 400" data-size="26.0"><use href="#g400-4e0a" transform="translate(513.176 244) scale(0.026 -0.026)" /><use href="#g400-4e0b" transform="translate(539.176 244) scale(0.026 -0.026)" /><use href="#g400-6587" transform="translate(565.176 244) scale(0.026 -0.026)" /><use href="#g400-524d" transform="translate(591.176 244) scale(0.026 -0.026)" /><use href="#g400-7f00" transform="translate(617.176 244) scale(0.026 -0.026)" /><use href="#g400-20" transform="translate(643.176 244) scale(0.026 -0.026)" /><use href="#g400-b7" transform="translate(649.000 244) scale(0.026 -0.026)" /><use href="#g400-20" transform="translate(675.000 244) scale(0.026 -0.026)" /><use href="#g400-6848" transform="translate(680.824 244) scale(0.026 -0.026)" /><use href="#g400-4f8b" transform="translate(706.824 244) scale(0.026 -0.026)" /><use href="#g400-77e5" transform="translate(732.824 244) scale(0.026 -0.026)" /><use href="#g400-8bc6" transform="translate(758.824 244) scale(0.026 -0.026)" /><use href="#g400-63d0" transform="translate(784.824 244) scale(0.026 -0.026)" /><use href="#g400-53d6" transform="translate(810.824 244) scale(0.026 -0.026)" /></g><path d="M675 280 L675 320" fill="none" stroke="#333333" stroke-width="1.8" marker-end="url(#arrow)" />
<rect x="20" y="320" width="860" height="100" rx="6" fill="#f2f2f2" stroke="#333333" stroke-width="1.8" />
<g aria-label="共同使用：检索与索引" fill="#292929" data-font="Source Han Sans CN 700" data-size="28.0"><use href="#g700-5171" transform="translate(310.000 356) scale(0.028 -0.028)" /><use href="#g700-540c" transform="translate(338.000 356) scale(0.028 -0.028)" /><use href="#g700-4f7f" transform="translate(366.000 356) scale(0.028 -0.028)" /><use href="#g700-7528" transform="translate(394.000 356) scale(0.028 -0.028)" /><use href="#g700-ff1a" transform="translate(422.000 356) scale(0.028 -0.028)" /><use href="#g700-68c0" transform="translate(450.000 356) scale(0.028 -0.028)" /><use href="#g700-7d22" transform="translate(478.000 356) scale(0.028 -0.028)" /><use href="#g700-4e0e" transform="translate(506.000 356) scale(0.028 -0.028)" /><use href="#g700-7d22" transform="translate(534.000 356) scale(0.028 -0.028)" /><use href="#g700-5f15" transform="translate(562.000 356) scale(0.028 -0.028)" /></g><g aria-label="分块 · 向量 / 关键词 · 融合 · 重排序" fill="#292929" data-font="Source Han Sans CN 400" data-size="26.0"><use href="#g400-5206" transform="translate(226.608 395) scale(0.026 -0.026)" /><use href="#g400-5757" transform="translate(252.608 395) scale(0.026 -0.026)" /><use href="#g400-20" transform="translate(278.608 395) scale(0.026 -0.026)" /><use href="#g400-b7" transform="translate(284.432 395) scale(0.026 -0.026)" /><use href="#g400-20" transform="translate(310.432 395) scale(0.026 -0.026)" /><use href="#g400-5411" transform="translate(316.256 395) scale(0.026 -0.026)" /><use href="#g400-91cf" transform="translate(342.256 395) scale(0.026 -0.026)" /><use href="#g400-20" transform="translate(368.256 395) scale(0.026 -0.026)" /><use href="#g400-2f" transform="translate(374.080 395) scale(0.026 -0.026)" /><use href="#g400-20" transform="translate(384.272 395) scale(0.026 -0.026)" /><use href="#g400-5173" transform="translate(390.096 395) scale(0.026 -0.026)" /><use href="#g400-952e" transform="translate(416.096 395) scale(0.026 -0.026)" /><use href="#g400-8bcd" transform="translate(442.096 395) scale(0.026 -0.026)" /><use href="#g400-20" transform="translate(468.096 395) scale(0.026 -0.026)" /><use href="#g400-b7" transform="translate(473.920 395) scale(0.026 -0.026)" /><use href="#g400-20" transform="translate(499.920 395) scale(0.026 -0.026)" /><use href="#g400-878d" transform="translate(505.744 395) scale(0.026 -0.026)" /><use href="#g400-5408" transform="translate(531.744 395) scale(0.026 -0.026)" /><use href="#g400-20" transform="translate(557.744 395) scale(0.026 -0.026)" /><use href="#g400-b7" transform="translate(563.568 395) scale(0.026 -0.026)" /><use href="#g400-20" transform="translate(589.568 395) scale(0.026 -0.026)" /><use href="#g400-91cd" transform="translate(595.392 395) scale(0.026 -0.026)" /><use href="#g400-6392" transform="translate(621.392 395) scale(0.026 -0.026)" /><use href="#g400-5e8f" transform="translate(647.392 395) scale(0.026 -0.026)" /></g><path d="M450 420 L450 460" fill="none" stroke="#333333" stroke-width="1.8" marker-end="url(#arrow)" />
<rect x="20" y="460" width="860" height="175" rx="6" fill="#ffffff" stroke="#333333" stroke-width="1.8" />
<g aria-label="双层记忆" fill="#292929" data-font="Source Han Sans CN 700" data-size="28.0"><use href="#g700-53cc" transform="translate(394.000 500) scale(0.028 -0.028)" /><use href="#g700-5c42" transform="translate(422.000 500) scale(0.028 -0.028)" /><use href="#g700-8bb0" transform="translate(450.000 500) scale(0.028 -0.028)" /><use href="#g700-5fc6" transform="translate(478.000 500) scale(0.028 -0.028)" /></g><rect x="45" y="525" width="385" height="80" rx="6" fill="#f2f2f2" stroke="#333333" stroke-width="1.8" />
<g aria-label="结构化卡片" fill="#292929" data-font="Source Han Sans CN 700" data-size="28.0"><use href="#g700-7ed3" transform="translate(167.000 557) scale(0.028 -0.028)" /><use href="#g700-6784" transform="translate(195.000 557) scale(0.028 -0.028)" /><use href="#g700-5316" transform="translate(223.000 557) scale(0.028 -0.028)" /><use href="#g700-5361" transform="translate(251.000 557) scale(0.028 -0.028)" /><use href="#g700-7247" transform="translate(279.000 557) scale(0.028 -0.028)" /></g><g aria-label="关键事实与关系" fill="#292929" data-font="Source Han Sans CN 400" data-size="26.0"><use href="#g400-5173" transform="translate(146.000 590) scale(0.026 -0.026)" /><use href="#g400-952e" transform="translate(172.000 590) scale(0.026 -0.026)" /><use href="#g400-4e8b" transform="translate(198.000 590) scale(0.026 -0.026)" /><use href="#g400-5b9e" transform="translate(224.000 590) scale(0.026 -0.026)" /><use href="#g400-4e0e" transform="translate(250.000 590) scale(0.026 -0.026)" /><use href="#g400-5173" transform="translate(276.000 590) scale(0.026 -0.026)" /><use href="#g400-7cfb" transform="translate(302.000 590) scale(0.026 -0.026)" /></g><rect x="470" y="525" width="385" height="80" rx="6" fill="#f2f2f2" stroke="#333333" stroke-width="1.8" />
<g aria-label="上下文感知检索" fill="#292929" data-font="Source Han Sans CN 700" data-size="28.0"><use href="#g700-4e0a" transform="translate(564.000 557) scale(0.028 -0.028)" /><use href="#g700-4e0b" transform="translate(592.000 557) scale(0.028 -0.028)" /><use href="#g700-6587" transform="translate(620.000 557) scale(0.028 -0.028)" /><use href="#g700-611f" transform="translate(648.000 557) scale(0.028 -0.028)" /><use href="#g700-77e5" transform="translate(676.000 557) scale(0.028 -0.028)" /><use href="#g700-68c0" transform="translate(704.000 557) scale(0.028 -0.028)" /><use href="#g700-7d22" transform="translate(732.000 557) scale(0.028 -0.028)" /></g><g aria-label="按需取回原始细节" fill="#292929" data-font="Source Han Sans CN 400" data-size="26.0"><use href="#g400-6309" transform="translate(558.000 590) scale(0.026 -0.026)" /><use href="#g400-9700" transform="translate(584.000 590) scale(0.026 -0.026)" /><use href="#g400-53d6" transform="translate(610.000 590) scale(0.026 -0.026)" /><use href="#g400-56de" transform="translate(636.000 590) scale(0.026 -0.026)" /><use href="#g400-539f" transform="translate(662.000 590) scale(0.026 -0.026)" /><use href="#g400-59cb" transform="translate(688.000 590) scale(0.026 -0.026)" /><use href="#g400-7ec6" transform="translate(714.000 590) scale(0.026 -0.026)" /><use href="#g400-8282" transform="translate(740.000 590) scale(0.026 -0.026)" /></g><defs><path id="g700-7528" d="M902 52V783H142V424C142 283 133 104 23 -17C50 -32 99 -73 118 -95C190 -17 227 93 244 203H450V-77H571V203H782V53C782 35 775 29 757 29C738 29 672 28 615 31C631 0 650 -52 654 -84C745 -85 806 -82 847 -63C888 -45 902 -12 902 52ZM260 668H450V552H260ZM782 668V552H571V668ZM260 423V440H450V316H257C259 354 260 390 260 423ZM782 440V316H571V440Z" /><path id="g700-6237" d="M867 699H536L596 716C584 755 561 812 539 855L419 825C436 786 456 737 467 699H144V472C144 326 134 117 26 -24C55 -37 110 -76 132 -97C217 14 251 175 264 318H744V266H867ZM270 471V587H744V430H270Z" /><path id="g700-8bb0" d="M182 834 102 760C159 709 234 635 267 588L353 673C315 718 238 787 182 834ZM195 -78C213 -56 245 -30 417 95C404 119 388 168 381 201L303 147V543H38V428H184V120C184 66 155 27 133 9C152 -9 184 -53 195 -78ZM912 785H413V666H791V462H434V91C434 -38 476 -73 610 -73C638 -73 768 -73 798 -73C922 -73 957 -24 972 149C938 158 886 178 858 199C851 65 843 42 789 42C758 42 649 42 623 42C567 42 558 49 558 92V349H791V300H912Z" /><path id="g700-5fc6" d="M158 640 67 652C61 568 43 456 19 389L114 355C137 432 154 552 158 640ZM342 684 282 659V850H166V-89H282V601C304 548 324 491 332 452L420 493C407 543 373 623 342 684ZM842 768H396V655H725C379 240 360 164 360 91C360 -2 425 -64 576 -64H776C901 -64 948 -20 962 200C929 206 887 222 856 239C850 78 836 51 785 51H572C514 51 480 67 480 105C480 155 506 228 930 713C936 719 941 726 944 731L869 772Z" /><path id="g400-8bb0" d="M176 815 124 769C179 720 248 652 280 608L334 661C300 703 230 769 176 815ZM200 -61C214 -41 241 -22 407 98C400 112 389 142 384 163L280 92V526H46V453H206V93C206 44 175 10 157 -4C171 -17 192 -45 200 -61ZM891 770H419V695H816V442H438V57C438 -41 474 -65 586 -65C611 -65 790 -65 816 -65C925 -65 951 -20 962 143C940 148 908 161 889 175C884 33 874 7 812 7C773 7 621 7 591 7C527 7 515 16 515 56V370H816V318H891Z" /><path id="g400-5f55" d="M185 363 134 317C199 281 278 225 316 186L369 238C329 276 248 329 185 363ZM68 54 108 -12C207 29 336 85 461 141V2C461 -12 456 -16 440 -17C424 -18 368 -18 309 -16C319 -35 331 -63 335 -82C413 -82 464 -82 495 -71C527 -60 537 -42 537 1V237C624 107 749 10 904 -40C914 -19 937 9 953 25C845 54 751 107 675 177C739 216 814 272 874 323L810 370C765 325 691 266 629 224C592 266 561 314 537 365V395H940V462H804C813 565 820 688 822 784L763 788L750 784H134V715H740L736 623H164V554H732L726 462H67V395H461V212C316 152 165 91 68 54Z" /><path id="g400-5c42" d="M873 456H304V389H873ZM886 792H133V499C133 340 124 117 31 -40C50 -47 83 -66 98 -78C195 86 209 331 209 499V541H886ZM209 727H811V607H209ZM751 189 686 162C711 125 739 82 765 41L380 18C433 74 487 145 533 218H942V284H239V218H438C393 142 339 72 320 52C298 27 278 9 261 6C270 -13 283 -49 288 -64C319 -52 367 -48 802 -19C817 -45 831 -70 841 -89L911 -55C877 6 806 112 751 189Z" /><path id="g400-6b21" d="M102 771 57 717C125 679 210 619 250 578L298 639C256 680 170 735 102 771ZM42 73 111 21C173 111 249 227 308 329L250 379C185 270 100 146 42 73ZM862 670H493C508 720 522 772 533 825L454 840C422 680 366 524 289 426C309 417 345 397 360 384C401 441 437 514 467 596H837C818 527 787 451 763 403C781 395 811 380 827 371C862 440 906 546 932 644L877 674ZM649 484V547H569V485C569 342 547 124 240 -26C259 -39 285 -66 297 -84C494 15 582 143 620 265C676 106 766 -11 911 -73C921 -52 944 -22 961 -7C787 56 692 210 647 411C648 437 649 461 649 484Z" /><path id="g400-20" d="" /><path id="g400-b7" d="M606 380C606 439 559 486 500 486C441 486 394 439 394 380C394 321 441 274 500 274C559 274 606 321 606 380Z" /><path id="g400-4e09" d="M879 743H123V667H879ZM801 416H187V341H801ZM934 69H65V-7H934Z" /><path id="g400-8bc4" d="M900 646 826 664C813 588 783 477 759 410L819 393C845 457 875 561 900 646ZM456 662 392 646C419 567 443 465 448 397L516 416C509 482 485 584 456 662ZM145 807 97 762C150 714 216 648 247 605L297 658C266 699 198 763 145 807ZM916 789H358V718H603V349H330V277H603V-79H679V277H961V349H679V718H916ZM172 -60C186 -40 212 -20 377 108C369 122 356 150 350 171L252 97V527L182 526H43V454H182V84C182 41 154 15 135 4C148 -11 165 -42 172 -60Z" /><path id="g400-4f30" d="M160 -78H232V595C273 665 309 740 338 815L266 836C210 685 117 535 18 437C32 420 53 381 61 363C95 398 128 439 160 483ZM960 621H675V840H598V621H324V548H598V343H382V-80H456V-37H823V-76H899V343H675V548H960ZM456 35V272H823V35Z" /><path id="g400-56db" d="M636 366V681H832V102H164V681H352C347 434 330 307 176 235C192 222 214 194 222 176C395 261 419 410 424 681H565V367C565 289 582 257 652 257C668 257 741 257 761 257C784 257 809 257 822 262C820 280 818 306 816 326C803 322 775 321 758 321C742 321 677 321 661 321C640 321 636 333 636 366ZM909 753H88V-47H164V29H832V-39H909Z" /><path id="g400-79cd" d="M728 838H653V629H441V184H512V245H653V-78H728V245H866V190H939V629H728ZM653 556V318H512V556ZM728 556H866V318H728ZM412 766 367 826C291 793 159 763 46 745C55 729 65 703 68 687C112 693 160 700 207 710V558H46V488H196C156 373 86 243 23 172C35 154 53 124 60 103C112 165 166 265 207 367V-78H280V384C313 335 354 272 370 241L415 300C396 327 308 435 280 466V488H408V558H280V725C329 737 374 751 412 766Z" /><path id="g400-683c" d="M273 840H202V626H52V555H193C162 417 95 260 28 175C41 158 60 129 67 109C117 175 165 284 202 397V-79H273V425C304 381 339 327 355 299L400 356C382 382 300 481 273 511V555H387L363 535C380 523 409 497 422 484C456 514 490 550 521 591C548 543 584 495 626 450C542 377 441 323 341 291C356 276 375 248 383 230C410 240 436 250 462 263V-81H532V-37H811V-77H884V271L930 253C940 271 962 301 977 315C878 345 794 393 726 450C796 523 853 611 889 714L841 735L828 732H612C628 761 642 791 654 822L582 841C543 739 478 641 403 570V626H273ZM575 667H794C764 604 723 547 675 497C627 545 590 597 563 648ZM532 29V222H811V29ZM511 287C569 318 625 357 677 402C726 358 783 319 849 287Z" /><path id="g400-5f0f" d="M760 833 709 791C761 755 823 701 853 665L905 712C875 748 811 798 760 833ZM645 836H565C565 774 567 713 570 653H55V580H575C601 208 685 -82 849 -82C925 -82 954 -31 967 144C946 151 918 168 901 185C894 51 883 -4 855 -4C756 -4 678 241 653 580H947V653H649C646 712 645 773 645 836ZM59 24 83 -50C211 -22 395 19 565 60L560 127L345 82V358H532V431H90V358H270V66Z" /><path id="g400-53ef" d="M948 769H56V694H747V28C747 8 740 1 718 0C694 -1 612 -2 531 3C544 -20 558 -56 563 -79C662 -79 732 -78 772 -65C811 -52 825 -26 825 28V694H948ZM568 547H158V93H231V173H568ZM231 475H494V245H231Z" /><path id="g400-6267" d="M247 11V296L364 334L353 404L247 371V560H350V630H247V840H175V630H48V560H175V348L33 307L53 234L175 273V11C175 -3 169 -7 157 -7C145 -8 107 -8 63 -7C73 -28 82 -60 85 -79C149 -79 188 -77 212 -64C237 -52 247 -31 247 11ZM599 841H525C527 764 528 693 527 626H373V557H526C524 489 519 426 510 368L416 421L374 370C412 348 455 323 497 297C464 157 399 52 276 -21C291 -35 320 -69 329 -83C455 2 524 111 560 257C614 222 662 189 694 162L739 222C700 252 639 291 575 329C587 398 594 473 597 557H750C745 158 737 -80 867 -80C929 -80 953 -42 962 92C944 98 916 112 900 126C897 26 889 -8 870 -8C813 -8 817 211 827 626H599C600 693 600 764 599 841Z" /><path id="g400-884c" d="M927 780H435V708H927ZM339 811 267 841C216 768 119 679 35 623C48 608 69 579 79 562C169 626 272 724 339 811ZM955 504H391V432H728V17C728 1 721 -4 702 -5C684 -6 616 -6 545 -3C556 -25 567 -56 570 -77C668 -77 725 -77 759 -66C792 -53 804 -30 804 16V432H955ZM377 600 307 626C238 512 128 396 25 322C40 307 67 274 78 259C115 289 154 325 192 364V-83H266V446C307 496 346 548 377 600Z" /><path id="g400-72b6" d="M798 806 741 774C785 719 836 643 859 596L920 634C896 680 843 752 798 806ZM106 709 49 674C96 615 152 537 175 486L237 528C212 577 155 653 106 709ZM663 605V838H589V605L588 545H356V471H583C568 306 512 120 327 -30C347 -43 373 -63 388 -78C539 47 609 197 640 344C695 156 782 6 918 -78C930 -59 955 -30 973 -16C816 70 723 252 675 471H951V545H662ZM32 194 76 130C127 176 188 234 247 290V-78H321V841H247V382C168 309 86 237 32 194Z" /><path id="g400-6001" d="M444 449 381 409C440 375 511 323 543 286L610 330C574 367 503 417 444 449ZM344 45V241H270V45C270 -36 300 -58 416 -58C441 -58 624 -58 650 -58C746 -58 770 -27 780 99C759 105 728 115 711 128C706 26 698 11 645 11C604 11 450 11 420 11C355 11 344 16 344 45ZM467 299 410 265C467 213 537 138 568 91L630 131C596 179 525 249 467 299ZM816 256 750 235C800 150 851 36 868 -35L940 -9C921 62 868 173 816 256ZM221 219 154 241C135 161 100 59 54 -6L122 -40C166 28 199 136 221 219ZM544 844H466C461 795 455 746 444 699H56V629H424C377 499 278 391 45 333C61 316 80 287 88 269C347 339 454 471 504 629C579 449 710 328 907 274C918 295 940 326 958 343C778 384 651 485 582 629H948V699H522C532 746 539 794 544 844Z" /><path id="g400-60c5" d="M220 840H152V-79H220ZM129 640 73 647C67 569 51 458 27 390L86 370C109 445 125 561 129 640ZM279 694 229 674C250 627 273 564 282 526L334 552C325 588 301 648 279 694ZM446 267V342H808V267ZM446 210H808V134H446ZM664 840H590V762H334V704H590V640H358V585H590V516H304V458H958V516H664V585H903V640H664V704H928V762H664ZM879 4V400H376V-79H446V77H808V5C808 -7 803 -11 790 -12C776 -13 728 -13 677 -11C686 -29 696 -57 699 -76C770 -76 815 -76 843 -64C871 -53 879 -33 879 4Z" /><path id="g400-666f" d="M242 576V640H755V576ZM242 690V753H755V690ZM265 195V290H736V195ZM671 110 623 66C715 31 830 -26 888 -66L939 -17C877 24 761 78 671 110ZM359 86 291 114C231 67 132 21 44 -9C61 -21 87 -48 100 -63C185 -28 292 29 359 86ZM941 461H543C533 482 518 505 502 524H830V804H170V524H487L433 506C443 493 453 477 462 461H56V399H941ZM538 -8V140H811V346H193V140H462V-5C462 -17 459 -20 445 -21C431 -22 382 -22 330 -20C340 -37 350 -61 354 -79C424 -80 471 -80 499 -70C529 -61 538 -44 538 -8Z" /><path id="g400-8bed" d="M146 813 98 767C152 720 217 654 249 610L300 664C268 705 200 768 146 813ZM795 624H610L634 737H924V804H355V737H557L534 624H391V559H520C509 510 497 462 486 422H320V354H958V422H840C848 486 856 560 860 623L807 628ZM564 422 596 559H783C780 517 775 467 769 422ZM475 25V204H816V25ZM890 271H403V-80H475V-41H816V-77H890ZM224 527H45V454H184V91C184 50 163 27 148 17C161 1 180 -32 186 -50C201 -31 226 -12 394 104C387 119 377 148 374 168L254 89V527Z" /><path id="g400-4e49" d="M478 844 413 819C449 744 494 642 512 576L580 604C560 670 516 768 478 844ZM869 743 792 767C730 575 638 405 503 268C377 395 279 553 214 725L145 703C218 516 318 349 447 214C338 118 203 40 36 -15C50 -31 68 -60 76 -79C248 -19 387 62 501 162C616 56 752 -27 911 -79C922 -59 945 -28 963 -12C808 35 673 114 558 216C701 361 798 539 869 743Z" /><path id="g400-7a0b" d="M532 549V733H834V549ZM907 798H462V484H907ZM919 209H718V330H941V396H425V330H644V209H448V144H644V13H381V-53H963V13H718V144H919ZM413 768 361 826C287 792 155 763 43 745C52 728 62 703 65 687C112 693 162 702 212 712V558H49V488H202C162 373 93 243 28 172C41 154 59 124 67 103C118 165 171 264 212 365V-78H286V353C320 311 360 257 377 229L422 288C402 311 315 401 286 426V488H411V558H286V729C333 740 377 753 413 768Z" /><path id="g400-5e8f" d="M416 481 371 437C438 408 518 370 583 336H230V271H542V8C542 -7 537 -11 517 -12C498 -13 431 -13 357 -11C367 -32 379 -60 383 -81C473 -81 533 -81 569 -70C606 -59 617 -38 617 7V271H833C799 225 762 178 730 146L789 116C841 166 897 245 949 317L895 340L882 336H697L705 344C684 356 658 370 629 384C712 429 798 493 857 554L808 591L791 587H288V525H724C678 485 619 444 564 416C514 439 461 462 416 481ZM543 845 471 824C486 795 504 759 517 728H120V450C120 305 113 102 31 -41C48 -49 81 -70 94 -83C180 69 193 295 193 450V658H951V728H603C589 761 564 809 543 845Z" /><path id="g400-5fc6" d="M253 840H181V-79H253ZM141 639 81 647C74 566 56 456 30 390L92 368C118 442 136 557 141 639ZM315 679 262 656C292 596 324 517 335 469L392 497C379 544 347 621 315 679ZM857 745H390V674H782C379 211 359 138 359 74C359 -1 415 -47 537 -47H800C904 -47 935 -7 945 206C925 209 897 221 878 231C872 59 860 26 804 26H532C474 26 435 43 435 81C435 130 461 202 911 710C916 714 920 719 922 723L875 748Z" /><path id="g400-4d" d="M101 0H184V406C184 469 178 565 172 630H176L235 455L374 74H436L574 455L633 630H637C632 565 625 469 625 406V0H711V733H600L460 341C443 291 428 239 409 188H405C387 239 371 291 352 341L212 733H101Z" /><path id="g400-65" d="M312 -13C385 -13 443 10 490 42L459 100C419 75 375 60 322 60C228 60 149 124 140 250H508C510 264 512 282 512 302C512 457 434 557 295 557C171 557 52 448 52 271C52 92 167 -13 312 -13ZM141 315C154 433 228 484 297 484C382 484 432 425 432 315Z" /><path id="g400-6d" d="M92 0H184V394C233 450 279 477 320 477C389 477 421 434 421 332V0H512V394C563 450 607 477 649 477C718 477 750 434 750 332V0H841V344C841 482 788 557 677 557C610 557 554 514 497 453C475 517 431 557 347 557C282 557 226 516 178 464H176L167 543H92Z" /><path id="g400-30" d="M278 -13C417 -13 506 113 506 369C506 623 417 746 278 746C138 746 50 623 50 369C50 113 138 -13 278 -13ZM278 61C195 61 138 154 138 369C138 583 195 674 278 674C361 674 418 583 418 369C418 154 361 61 278 61Z" /><path id="g400-6f" d="M303 -13C436 -13 554 91 554 271C554 452 436 557 303 557C170 557 52 452 52 271C52 91 170 -13 303 -13ZM303 63C209 63 146 146 146 271C146 396 209 480 303 480C397 480 461 396 461 271C461 146 397 63 303 63Z" /><path id="g400-62" d="M331 -13C455 -13 567 94 567 280C567 448 491 557 351 557C290 557 230 523 180 481L184 578V796H92V0H165L173 56H177C224 13 281 -13 331 -13ZM316 64C280 64 231 78 184 120V406C235 454 283 480 328 480C432 480 472 400 472 279C472 145 406 64 316 64Z" /><path id="g400-61" d="M217 -13C284 -13 345 22 397 65H400L408 0H483V334C483 469 428 557 295 557C207 557 131 519 82 486L117 425C160 452 217 481 280 481C369 481 392 414 392 344C161 318 59 259 59 141C59 43 126 -13 217 -13ZM243 61C189 61 147 85 147 147C147 217 209 262 392 283V132C339 85 295 61 243 61Z" /><path id="g400-73" d="M234 -13C362 -13 431 60 431 148C431 247 350 283 264 314C198 338 149 357 149 407C149 448 181 486 250 486C298 486 337 470 375 442L417 495C376 531 316 557 249 557C130 557 62 489 62 403C62 313 141 275 222 245C283 223 344 198 344 143C344 96 309 58 237 58C169 58 120 79 74 118L32 64C81 15 154 -13 234 -13Z" /><path id="g400-538b" d="M739 306 684 271C738 224 797 157 824 113L883 155C853 198 794 260 739 306ZM187 469V720H956V792H115V469C115 317 109 109 32 -39C49 -46 81 -68 94 -80C175 75 187 309 187 469ZM607 665H531V450H258V379H531V34H192V-37H952V34H607V379H904V450H607Z" /><path id="g400-7f29" d="M44 53 61 -18C146 14 253 56 357 96L344 159C232 118 120 77 44 53ZM69 182C86 194 117 204 318 254C316 269 314 296 315 314L168 282C237 370 305 479 360 585L301 620C285 584 266 548 246 513L136 503C194 590 251 700 294 806L227 836C187 716 117 586 95 552C74 518 57 495 39 491C48 472 60 438 63 423C77 429 99 434 208 448C169 383 133 331 117 312C88 276 67 250 47 246C55 229 66 196 69 182ZM922 404H742L768 505H936V567H547V505H694C688 472 681 435 674 404H562V-79H627V-32H854V-74H922ZM653 843 590 821C603 798 618 769 630 743H369V580H438V680H879V594H951V743H707C694 772 672 812 653 843ZM539 596 472 612C446 506 389 374 316 291C328 280 347 256 356 242C379 267 400 295 419 325V-80H483V445C506 496 524 547 539 596ZM627 221V342H854V221ZM627 160H854V29H627Z" /><path id="g400-6574" d="M284 178H212V11H47V-53H955V11H536V94H824V152H536V230H890V294H114V230H462V11H284ZM351 492 322 457V495H487V669H322V720H513V777H322V840H256V777H57V720H256V669H86V495H233C186 441 108 388 39 362C54 351 73 329 83 314C142 340 207 390 256 443V321H322V451C369 426 425 389 455 363L487 407C458 434 399 470 351 492ZM148 545V619H256V545ZM322 619H423V545H322ZM952 728H672C686 759 697 792 707 825L639 840C611 739 561 645 495 585C510 573 535 547 546 534C567 554 586 578 605 605C626 559 654 512 691 469C639 424 573 390 496 365C510 352 532 324 540 310C616 339 682 375 736 422C785 375 846 335 919 307C928 325 948 353 962 366C890 389 830 425 781 467C828 521 864 586 887 665H952ZM642 665H815C798 606 771 556 735 514C693 561 662 614 642 665Z" /><path id="g400-7406" d="M476 411V540H629V411ZM694 540H847V411H694ZM476 602V728H629V602ZM694 728H847V602H694ZM967 22H700V160H933V228H700V346H919V794H407V346H623V228H395V160H623V22H318V-47H967ZM35 100 54 24C142 53 257 92 365 129L353 201L242 164V413H343V483H242V702H358V772H46V702H170V483H56V413H170V141Z" /><path id="g400-65e5" d="M253 426V697H752V426ZM253 352H752V71H253ZM832 772H176V-69H253V-4H752V-64H832Z" /><path id="g400-5fd7" d="M345 39V256H270V38C270 -44 301 -66 416 -66C440 -66 618 -66 644 -66C741 -66 765 -33 776 98C755 103 724 113 707 126C702 19 693 3 639 3C600 3 450 3 420 3C356 3 345 9 345 39ZM430 361 378 316C460 268 556 194 601 143L656 194C608 246 510 315 430 361ZM812 256 744 232C793 147 849 33 873 -36L945 -5C921 62 862 174 812 256ZM217 224 150 247C130 169 95 68 50 5L117 -30C162 36 196 143 217 224ZM537 840H459V696H56V624H459V454H121V383H886V454H537V624H947V696H537Z" /><path id="g400-8131" d="M515 389V573H827V389ZM370 15V803H100V444C100 297 95 96 31 -46C48 -52 77 -68 90 -79C132 16 152 141 160 259H302V15C302 2 298 -1 285 -2C273 -3 234 -3 191 -2C200 -20 209 -52 212 -71C276 -71 313 -70 337 -57C362 -45 370 -23 370 15ZM166 735H302V569H166ZM166 444V500H302V329H164C165 370 166 409 166 444ZM903 640H789C819 691 852 756 880 813L803 840C782 779 743 697 709 640H570L630 667C617 714 580 784 543 837L480 811C513 758 547 687 560 640H442V321H551C540 168 510 45 367 -22C384 -35 405 -62 414 -79C573 0 612 141 626 321H710V32C710 -43 726 -66 796 -66C811 -66 870 -66 884 -66C943 -66 962 -32 969 98C949 103 919 115 904 127C901 18 897 2 876 2C863 2 817 2 808 2C786 2 783 6 783 32V321H903Z" /><path id="g400-654f" d="M274 501 229 478C260 443 292 395 304 362L352 387C340 420 307 468 274 501ZM196 570H136C152 598 166 628 180 660H538V727H205C217 759 227 792 235 826L163 840C136 725 89 612 26 538C43 528 74 507 87 495C100 512 113 532 126 552C122 493 117 427 111 361H38V298H105C97 216 88 137 79 79H388C382 38 375 15 367 5C359 -7 350 -10 335 -10C317 -10 278 -9 236 -6C246 -24 253 -52 255 -71C296 -74 339 -75 365 -72C393 -68 411 -60 427 -36C440 -19 450 15 457 79H546V142H463C467 184 470 236 473 298H552V361H475L481 534C481 544 481 570 481 570ZM407 361H179L191 506H412ZM264 289 217 265C250 228 284 178 298 142H157L173 298H404C401 234 398 183 395 142H303L348 167C335 202 298 254 264 289ZM708 829 638 840C611 678 563 518 490 416C507 405 536 380 547 368C566 396 584 429 600 464C624 356 656 257 697 173C646 92 577 27 487 -21C501 -35 527 -64 536 -77C618 -28 683 32 735 104C782 27 841 -36 914 -82C926 -62 949 -35 967 -22C889 22 827 90 778 173C837 283 875 417 899 579H954V648H666C683 706 697 767 708 829ZM645 579H828C810 451 782 341 739 249C696 345 665 457 645 579Z" /><path id="g700-5171" d="M680 197 570 137C658 68 778 -30 833 -90L952 -20C889 41 764 135 680 197ZM431 144 303 193C251 126 145 44 51 -6C79 -25 123 -64 149 -90C246 -33 356 58 431 144ZM928 657H741V843H615V657H385V843H260V657H79V541H260V349H44V232H959V349H741V541H928ZM385 349V541H615V349Z" /><path id="g700-4eab" d="M298 491V547H701V491ZM829 629H179V408H829ZM752 369 719 368H146V275H563C521 260 476 247 434 237V194H48V92H434V26C434 12 428 8 408 7C391 7 312 6 255 9C271 -19 288 -60 296 -89C383 -90 449 -90 497 -77C544 -63 562 -37 562 21V92H952V194H577C679 224 775 263 855 306L779 374ZM534 857 411 836C419 817 426 796 432 775H63V674H936V775H566C558 802 546 832 534 857Z" /><path id="g700-77e5" d="M652 125V651H797V125ZM919 763H536V-61H652V12H797V-46H919ZM245 826 130 849C110 735 72 619 18 547C45 532 94 498 115 479C140 516 163 561 183 612H223V478V453H37V340H215C198 223 152 98 22 4C47 -14 92 -62 108 -87C205 -16 263 78 298 176C347 115 405 39 437 -13L518 89C491 122 380 248 329 299L336 340H509V453H344V477V612H485V723H220C230 757 238 791 245 826Z" /><path id="g700-8bc6" d="M549 423V672H783V423ZM908 786H430V309H908ZM830 233 718 194C770 105 825 -11 843 -84L965 -38C943 36 884 148 830 233ZM616 201 492 228C465 134 413 39 348 -19C377 -35 430 -68 454 -88C520 -19 581 90 616 201ZM159 834 81 761C136 713 207 644 239 600L322 682C287 725 213 789 159 834ZM168 -72C186 -47 221 -18 409 143C394 166 373 214 363 248L274 174V541H40V426H158V138C158 76 120 28 95 5C115 -10 154 -49 168 -72Z" /><path id="g700-5e93" d="M582 854 461 828C472 806 482 780 490 756H111V474C111 327 104 117 21 -25C49 -37 102 -73 124 -94C215 62 230 310 230 473V644H460C451 615 440 585 429 557H267V450H380C364 419 351 396 343 385C322 352 305 333 284 327C298 295 318 236 324 212C333 222 378 228 425 228H574V147H242V38H574V-89H694V38H958V147H694V228H890L891 334H694V418H574V334H439C463 369 487 409 510 450H925V557H564L587 610L478 644H960V756H625C615 788 599 825 582 854Z" /><path id="g400-6587" d="M501 847 423 823C453 774 484 707 497 666L580 693C566 735 532 799 501 847ZM954 664H50V590H206C265 438 344 307 447 200C337 108 201 40 35 -7C51 -25 74 -60 83 -78C250 -24 389 48 502 147C615 46 752 -28 916 -73C928 -52 950 -20 968 -4C808 36 671 107 560 201C660 304 738 432 796 590H954ZM504 253C409 348 336 461 284 590H711C661 454 592 343 504 253Z" /><path id="g400-6863" d="M925 755 851 776C830 702 788 597 754 534L814 515C849 575 891 673 925 755ZM458 774 397 751C430 679 469 582 486 521L551 547C533 608 493 701 458 774ZM264 840H193V626H47V555H181C151 418 88 260 26 175C38 158 56 128 65 108C113 175 159 287 193 401V-79H264V424C295 374 332 312 347 279L393 337C375 365 291 482 264 516V555H390V626H264ZM916 471H694V837H621V471H392V398H842V269H404V201H842V63H369V-9H842V-71H916Z" /><path id="g400-5206" d="M673 822 604 794C675 646 795 483 900 393C915 414 942 441 961 456C857 534 735 687 673 822ZM403 798 324 820C266 666 164 528 43 442C62 428 94 399 108 384C135 406 161 430 187 457V388H380C357 218 302 59 65 -19C82 -35 102 -64 111 -83C366 9 432 190 459 388H731C720 138 705 40 680 14C670 4 658 2 637 2C614 2 552 2 487 8C501 -13 510 -45 512 -67C575 -71 637 -72 670 -69C705 -66 727 -59 748 -34C783 5 796 119 811 426C812 436 812 462 812 462H192C277 553 352 670 403 798Z" /><path id="g400-5757" d="M656 488V600H809V379H652C655 415 656 452 656 488ZM950 379H880V671H656V829H583V671H402V600H583V489C583 452 582 415 578 379H372V308H568C541 181 470 63 289 -25C306 -38 330 -65 340 -82C529 12 606 139 637 277C689 110 778 -16 916 -82C927 -61 951 -31 968 -16C833 40 744 157 697 308H950ZM36 163 66 88C153 126 265 177 371 226L354 293L244 246V528H354V599H244V828H173V599H52V528H173V217C121 196 74 177 36 163Z" /><path id="g400-591a" d="M539 824 456 842C393 759 272 662 111 595C128 583 151 558 163 541C253 583 330 632 396 685H679C629 623 560 569 481 524C445 554 395 589 353 613L298 574C338 551 382 519 415 489C309 437 190 401 78 381C91 365 107 334 114 314C375 369 668 503 796 726L747 756L734 753H473C497 776 519 800 539 824ZM702 475 619 493C547 394 403 283 200 210C216 197 237 171 246 154C372 203 476 264 560 332H833C783 254 711 191 624 142C589 175 540 214 500 242L438 206C477 177 522 139 554 106C414 42 246 7 75 -9C87 -28 100 -61 106 -82C461 -40 804 76 944 373L894 404L880 400H636C660 425 682 450 702 475Z" /><path id="g400-6a21" d="M472 345V417H820V345ZM472 472V542H820V472ZM805 840H732V757H578V840H507V757H360V693H507V618H578V693H732V618H805V693H945V757H805ZM893 599H402V289H606C602 259 598 232 591 206H340V142H569C531 65 459 12 312 -20C326 -35 345 -63 352 -80C526 -38 607 34 647 140C697 30 790 -44 920 -80C930 -60 950 -32 966 -18C853 6 767 61 719 142H943V206H666C671 232 676 260 679 289H893ZM247 840H175V647H50V577H175V576C148 440 90 281 32 197C45 179 63 146 72 124C110 183 146 274 175 372V-79H247V436C274 383 305 320 318 286L365 340C349 371 273 496 247 535V577H350V647H247Z" /><path id="g400-6750" d="M855 23V553H959V625H855V839H777V625H477V553H752C676 395 545 227 419 141C438 126 461 99 473 79C583 164 697 306 777 450V22C777 4 770 -2 752 -2C733 -3 668 -4 604 -2C614 -23 626 -58 630 -79C716 -79 775 -77 808 -64C842 -52 855 -30 855 23ZM302 840H227V626H60V553H217C178 414 102 259 26 175C39 156 59 125 68 104C127 173 184 287 227 405V-79H302V437C344 383 396 312 417 275L466 339C441 370 338 490 302 527V553H440V626H302Z" /><path id="g400-6599" d="M109 777 54 762C80 692 103 600 108 540L168 555C161 615 137 706 109 777ZM443 763 377 780C363 712 334 613 311 553L360 538C386 594 418 688 443 763ZM554 769 516 717C573 682 642 627 674 589L714 647C681 684 611 735 554 769ZM500 518 465 465C524 433 597 382 632 346L669 405C634 441 560 488 500 518ZM442 504H278V837H208V504H47V434H188C152 323 89 191 31 121C44 102 61 69 69 48C119 115 170 225 208 333V-78H278V334C315 276 361 200 379 162L429 222C407 254 307 389 278 420V434H442ZM954 296 837 275V840H765V262L440 203L453 134L765 191V-79H837V204L966 227Z" /><path id="g400-7a20" d="M378 772 330 832C263 801 148 772 49 753C59 736 69 711 72 694C108 700 146 707 184 715V553H47V483H167C135 370 77 239 24 167C36 148 56 117 63 95C107 157 150 257 184 357V-80H251V380C281 334 317 276 331 246L378 308C359 333 277 435 251 461V483H379V553H251V731C297 743 341 757 378 772ZM926 8V793H422V421C422 275 412 90 306 -40C322 -47 349 -68 359 -80C471 55 488 265 488 421V726H860V9C860 -6 855 -11 841 -11C827 -12 780 -12 728 -10C738 -28 748 -58 751 -76C821 -77 864 -75 890 -64C916 -52 926 -31 926 8ZM702 696H642V612H540V554H642V452H524V395H827V452H702V554H806V612H702ZM600 313H543V34H600V79H801V313ZM600 257H744V136H600Z" /><path id="g400-5bc6" d="M243 526 182 553C154 492 105 419 47 375L108 338C166 386 211 462 243 526ZM390 672 352 628C414 599 488 553 524 518L564 567C527 601 451 645 390 672ZM784 548 729 511C793 456 866 376 898 323L955 365C922 418 847 494 784 548ZM751 606 688 638C611 544 499 466 370 404V569H302V376V374C218 338 128 310 38 288C51 272 73 241 82 224C163 247 244 275 321 309C340 288 375 282 436 282C458 282 625 282 649 282C736 282 758 311 768 430C749 434 721 444 704 455C701 358 692 344 644 344C607 344 467 344 440 344C424 344 411 344 402 346C540 413 663 499 751 606ZM235 196H161V-34H771V-78H846V204H771V37H536V250H460V37H235ZM513 850 442 838C452 813 461 781 467 754H77V558H151V686H849V558H925V754H545C539 783 526 820 513 850Z" /><path id="g400-2f" d="M11 -179H78L377 794H311Z" /><path id="g400-7a00" d="M649 607 591 620C624 634 657 649 688 666C771 630 845 592 898 559L942 614C895 642 831 674 760 706C813 737 862 772 901 810L837 840C798 803 746 768 689 736C615 767 537 795 467 816L421 765C482 747 547 724 611 698C539 665 461 638 387 618C402 605 426 576 436 560C482 576 530 594 577 614C567 581 555 549 541 519H385V454H507C461 372 402 302 334 251C350 239 376 213 387 199C408 217 429 236 449 257V7H518V269H643V-80H711V269H847V84C847 74 844 71 834 71C824 71 794 71 758 72C767 53 776 28 779 8C830 8 865 9 887 20C911 30 917 49 917 83V335H711V425H643V335H513C539 372 564 412 586 454H962V519H616C628 547 639 577 649 607ZM356 771 312 831C250 799 143 771 52 752C60 736 70 711 74 695C107 700 143 707 178 715V553H45V483H162C132 374 77 248 27 179C38 162 55 133 63 114C105 174 146 271 178 369V-80H244V380C268 341 297 293 309 269L348 327C335 347 266 430 244 454V483H353V553H244V732C285 743 324 756 356 771Z" /><path id="g400-758f" d="M702 369H639V-47H702ZM848 31V374H782V39C782 -24 786 -39 799 -52C812 -65 831 -70 849 -70C859 -70 878 -70 889 -70C904 -70 921 -66 931 -59C943 -53 951 -41 956 -22C961 -6 964 44 965 87C949 92 928 102 916 113C915 68 914 34 912 18C911 4 907 -4 903 -8C900 -11 893 -12 886 -12C880 -12 871 -12 866 -12C860 -12 854 -10 852 -7C848 -3 848 10 848 31ZM563 250V373H498V251C498 157 484 49 362 -32C378 -42 401 -65 411 -79C546 13 563 136 563 250ZM375 778H63V710H319C290 675 254 638 223 612V133L151 112V537H90V95L28 79L46 6C147 37 284 80 412 120L403 186L290 152V369H408V436H290V589C341 633 397 693 438 747L389 782ZM701 845 631 825C647 794 664 756 676 722H441V656H614C579 603 525 526 506 506C490 489 464 482 445 478C452 462 466 425 470 407C495 416 535 419 862 439C874 420 885 403 893 388L952 423C921 477 853 565 797 629L742 599C767 569 795 534 819 500L582 488C618 537 663 605 697 656H955V722H758C745 759 722 808 701 845Z" /><path id="g400-6df7" d="M424 492V585H800V492ZM424 644V736H800V644ZM875 798H353V429H875ZM135 825 90 774C150 739 231 690 272 659L317 719C275 747 194 794 135 825ZM86 551 43 499C102 465 181 416 220 388L264 447C224 475 144 521 86 551ZM67 -16 131 -67C190 26 260 151 312 257L258 306C200 193 121 61 67 -16ZM606 266H433V387H360V46C360 11 339 -1 322 -7C333 -27 345 -62 350 -83C369 -71 399 -61 616 -7C612 9 607 36 606 56L433 16V199H606ZM718 38V154C798 186 886 227 950 268L897 325C854 290 785 252 718 221V383H646V37C646 -42 666 -64 746 -64C763 -64 852 -64 869 -64C937 -64 957 -30 965 93C945 98 915 110 900 122C897 20 892 4 862 4C844 4 770 4 755 4C723 4 718 9 718 38Z" /><path id="g400-5408" d="M278 513C363 569 441 636 506 710C583 630 663 567 751 513ZM583 809 517 843C415 688 230 553 40 479C61 461 82 433 95 413C147 436 198 463 248 494V444H753V512C805 479 859 450 916 423C927 446 949 473 969 490C810 557 668 640 551 764ZM272 48V255H738V48ZM817 324H196V-78H272V-22H738V-74H817Z" /><path id="g400-68c0" d="M807 530H468V465H807ZM456 370 397 355C425 279 453 179 461 113L523 131C514 195 486 294 456 370ZM650 391 591 383C609 307 626 208 631 142L694 153C688 218 670 315 650 391ZM248 840H179V650H49V580H172C145 448 89 293 33 211C45 193 63 159 71 138C111 200 149 300 179 404V-79H248V443C274 394 303 335 316 304L361 357C345 387 271 505 248 538V580H352V650H248ZM690 823 624 847C556 706 437 579 311 502C325 487 347 455 356 440C458 511 558 611 634 726C711 626 826 518 927 451C935 471 952 502 966 519C864 579 739 689 670 786ZM938 35H754C806 129 866 265 909 373L842 391C807 283 743 130 690 35H343V-32H938Z" /><path id="g400-7d22" d="M690 141 633 104C718 58 825 -12 877 -58L937 -14C881 32 773 98 690 141ZM358 109 290 136C233 82 143 26 61 -10C78 -22 106 -47 119 -61C198 -19 294 46 358 109ZM552 8V189L797 204C824 176 848 149 864 127L922 166C879 222 789 304 718 362L665 328C691 306 719 281 746 255L309 232C450 285 592 352 727 434L673 480C629 451 581 424 533 398L309 385C378 419 447 460 510 505L480 528H862V405H936V593H539V686H923V752H539V841H461V752H76V686H461V593H66V405H137V528H434C363 473 274 425 246 411C218 396 194 386 174 385C181 367 191 333 194 319C211 326 237 329 422 341C339 302 269 272 237 260C179 236 135 222 102 219C109 200 119 166 122 153C148 162 187 166 479 185V10C479 -2 475 -6 458 -6C443 -8 389 -8 327 -6C339 -25 351 -54 355 -75C428 -75 479 -75 510 -63C543 -52 552 -32 552 8Z" /><path id="g400-52" d="M193 385V658H316C431 658 494 624 494 528C494 432 431 385 316 385ZM503 0H607L421 321C520 345 586 413 586 528C586 680 479 733 330 733H101V0H193V311H325Z" /><path id="g400-41" d="M4 0H97L168 224H436L506 0H604L355 733H252ZM191 297 227 410C253 493 277 572 300 658H304C328 573 351 493 378 410L413 297Z" /><path id="g400-50" d="M101 0H193V292H314C475 292 584 363 584 518C584 678 474 733 310 733H101ZM193 367V658H298C427 658 492 625 492 518C492 413 431 367 302 367Z" /><path id="g400-54" d="M253 0H346V655H568V733H31V655H253Z" /><path id="g400-4f" d="M371 -13C555 -13 684 134 684 369C684 604 555 746 371 746C187 746 58 604 58 369C58 134 187 -13 371 -13ZM371 68C239 68 153 186 153 369C153 552 239 665 371 665C503 665 589 552 589 369C589 186 503 68 371 68Z" /><path id="g400-47" d="M389 -13C487 -13 568 23 615 72V380H374V303H530V111C501 84 450 68 398 68C241 68 153 184 153 369C153 552 249 665 397 665C470 665 518 638 555 599L605 656C563 702 496 746 394 746C200 746 58 603 58 366C58 128 196 -13 389 -13Z" /><path id="g400-72" d="M92 0H184V349C220 441 275 475 320 475C343 475 354 473 370 468L390 545C373 554 356 557 332 557C270 557 215 513 178 444H176L167 543H92Z" /><path id="g400-70" d="M92 -229H184V-45L181 50C230 9 282 -13 331 -13C455 -13 567 94 567 280C567 448 491 557 351 557C288 557 227 521 178 480H176L167 543H92ZM316 64C280 64 232 78 184 120V406C236 454 283 480 328 480C432 480 472 400 472 279C472 145 406 64 316 64Z" /><path id="g400-68" d="M92 0H184V394C238 449 276 477 332 477C404 477 435 434 435 332V0H526V344C526 482 474 557 360 557C286 557 230 516 180 466L184 578V796H92Z" /><path id="g400-76ee" d="M233 542V704H759V542ZM233 470H759V305H233ZM233 233H759V67H233ZM837 778H158V-74H233V-6H759V-74H837Z" /><path id="g400-5bfc" d="M725 9V221H944V291H725V369H648V291H62V221H256L211 182C274 130 345 53 374 1L430 51C399 100 331 170 270 221H648V11C648 -4 642 -9 622 -10C603 -10 531 -11 457 -9C468 -28 480 -56 484 -76C580 -76 641 -76 677 -65C713 -55 725 -35 725 9ZM752 629H213V734H752ZM213 509V562H826V800H135V508C135 414 185 394 350 394C387 394 709 394 750 394C875 394 908 418 921 521C898 524 868 533 848 544C840 470 826 456 744 456C674 456 397 456 344 456C233 456 213 467 213 509Z" /><path id="g400-822a" d="M248 611 200 592C222 547 248 487 259 448L309 470C297 507 271 566 248 611ZM245 305 198 284C224 236 256 171 269 130L320 153C305 193 273 256 245 305ZM665 851 596 829C621 781 652 716 665 674L738 699C723 740 692 803 665 851ZM949 674H439V606H949ZM839 44V508H527V290C527 186 515 52 417 -43C435 -51 464 -72 475 -84C579 18 597 172 597 289V441H769V49C769 -20 773 -37 788 -51C802 -64 822 -69 841 -69C852 -69 875 -69 887 -69C905 -69 923 -65 934 -57C946 -48 955 -35 959 -14C964 5 967 62 968 108C951 113 931 124 917 135C917 85 916 46 913 28C912 12 909 3 905 -1C901 -4 892 -5 884 -5C877 -5 865 -5 860 -5C853 -5 848 -4 844 -1C841 3 839 18 839 44ZM306 832 230 847C223 811 211 761 198 721H110V404H40V342H110C110 217 104 60 34 -50C50 -57 80 -75 92 -87C165 28 176 207 176 342H346V9C346 -3 341 -7 329 -7C317 -8 279 -8 236 -7C246 -24 256 -54 258 -72C320 -72 356 -71 381 -59C404 -48 412 -27 412 9V721H266C279 754 293 794 306 832ZM346 659V404H176V659Z" /><path id="g400-67" d="M275 -250C443 -250 550 -163 550 -62C550 28 486 67 361 67H254C181 67 159 92 159 126C159 156 174 174 194 191C218 179 248 172 274 172C386 172 473 245 473 359C473 409 454 445 427 469V473H540V543H351C332 551 305 557 274 557C165 557 71 482 71 363C71 298 106 245 142 217V213C113 193 82 157 82 112C82 69 103 40 131 23V18C80 -13 51 -58 51 -105C51 -198 143 -250 275 -250ZM274 234C212 234 159 284 159 363C159 443 211 490 274 490C339 490 390 443 390 363C390 284 337 234 274 234ZM288 -187C189 -187 131 -150 131 -92C131 -61 147 -28 186 0C210 -6 236 -8 256 -8H350C422 -8 460 -26 460 -77C460 -133 393 -187 288 -187Z" /><path id="g400-6e" d="M92 0H184V394C238 449 276 477 332 477C404 477 435 434 435 332V0H526V344C526 482 474 557 360 557C286 557 229 516 178 464H176L167 543H92Z" /><path id="g400-74" d="M262 -11C299 -11 335 -1 364 13L345 78C324 67 303 64 283 64C220 64 199 102 199 169V469H347V543H199V718H123L113 543L27 538V469H108V171C108 63 147 -11 262 -11Z" /><path id="g400-69" d="M92 0H184V543H92ZM137 655C172 655 198 679 198 716C198 751 172 775 137 775C101 775 76 751 76 716C76 679 101 655 137 655Z" /><path id="g400-63" d="M308 -13C376 -13 437 14 482 57L442 113C409 83 364 63 315 63C214 63 146 146 146 271C146 396 219 480 317 480C363 480 398 463 426 437L471 493C434 530 384 557 313 557C173 557 52 452 52 271C52 91 162 -13 308 -13Z" /><path id="g400-4e0a" d="M506 825H427V43H51V-32H950V43H506V441H881V516H506Z" /><path id="g400-4e0b" d="M534 527 520 511V691H946V766H55V691H441V-79H520V451C635 389 769 306 839 250L891 319C812 379 653 469 534 527Z" /><path id="g400-524d" d="M674 514H604V104H674ZM881 13V544H807V14C807 -1 802 -5 786 -5C769 -6 715 -6 654 -4C665 -24 677 -56 681 -76C758 -77 809 -75 839 -63C870 -51 881 -30 881 13ZM803 819 723 845C701 796 663 730 629 682H328L377 700C359 740 316 799 278 841L208 816C244 775 281 721 300 682H53V613H947V682H714C743 723 775 773 803 819ZM409 360H187V459H409ZM409 301V200H187V301ZM433 523H116V-75H187V141H409V7C409 -6 405 -10 391 -10C378 -11 332 -11 281 -9C291 -28 302 -57 307 -76C374 -76 419 -75 446 -63C474 -52 482 -32 482 6V523Z" /><path id="g400-7f00" d="M38 57 55 -12C136 19 240 59 340 98L328 158C221 119 112 80 38 57ZM63 182C81 195 112 206 326 264C323 278 322 306 322 325L161 286C227 376 290 483 342 590L286 622C271 586 253 550 235 515L126 505C178 592 228 702 265 807L201 835C168 715 104 584 85 550C67 516 50 491 34 488C42 470 53 437 56 423C70 430 92 435 198 449C160 383 125 331 109 310C82 273 61 247 41 243C50 227 60 196 63 182ZM393 665 350 624C385 605 423 581 458 555C418 502 369 462 318 437C333 424 350 400 358 384C414 415 466 458 508 515C534 493 557 471 572 452L620 497C601 519 575 544 544 568C577 626 603 695 619 775L578 788L566 786H346V724H541C529 681 512 642 491 606C459 628 425 648 393 665ZM681 666 635 624C674 601 715 574 754 545C713 498 665 462 614 439C628 426 646 402 654 386C709 414 760 454 804 506C839 477 870 448 891 423L939 471C916 497 882 527 843 558C882 618 913 690 931 775L890 788L878 786H653V724H853C838 676 817 633 792 595C755 621 717 646 681 666ZM381 224 336 183C372 162 411 136 446 109C397 47 335 3 267 -24C281 -37 298 -63 306 -79C379 -47 444 1 497 68C526 44 550 20 567 -1L615 46C595 68 567 94 534 120C572 181 601 254 619 340L577 354L565 351H337V288H539C525 240 506 197 482 159C449 183 414 206 381 224ZM887 351H637V288H648L644 287C666 212 696 143 736 84C686 34 628 -2 566 -25C580 -39 597 -64 605 -81C668 -55 726 -18 777 31C818 -16 867 -54 922 -80C932 -63 953 -37 968 -24C912 -1 863 35 822 80C877 148 919 234 942 339L900 354ZM861 288C841 230 814 178 780 134C748 180 723 232 705 288Z" /><path id="g400-6848" d="M949 230H535V313H460V230H52V166H401C312 89 167 24 34 -5C49 -19 71 -48 81 -66C218 -29 366 48 460 141V-79H535V146C631 50 784 -30 924 -68C934 -49 956 -20 972 -5C837 24 690 89 599 166H949ZM494 846 431 823 466 765H80V621H151V701H852V621H925V765H545C532 790 512 822 494 846ZM663 535C629 490 583 454 524 426C454 441 381 454 307 465C329 486 353 510 377 535ZM940 596H432C452 620 471 644 487 667L420 689C401 660 377 628 351 596H64V535H298C262 495 224 457 190 427C268 415 345 402 418 388C322 361 203 346 61 339C73 323 83 299 89 279C274 292 422 317 535 363C663 335 773 304 854 274L918 327C839 353 735 381 619 406C673 440 715 483 746 535H940Z" /><path id="g400-4f8b" d="M757 724H690V165H757ZM923 22V835H853V22C853 6 847 1 831 0C814 0 761 -1 701 2C712 -20 722 -52 727 -72C803 -73 854 -71 883 -58C912 -47 923 -25 923 22ZM399 341 358 290C393 263 435 228 466 199C419 98 357 22 286 -23C302 -37 323 -63 333 -81C487 26 591 235 625 554L581 565L568 563H440C454 612 466 662 476 714H645V785H297V714H403C373 554 323 404 250 306C267 295 295 271 307 260C352 322 389 403 419 494H549C537 411 518 335 494 267C465 292 429 320 399 341ZM142 -78H212V626C238 689 261 755 280 820L212 839C173 692 109 548 33 453C45 434 65 393 71 376C96 408 120 444 142 483Z" /><path id="g400-77e5" d="M620 99V682H832V99ZM907 753H547V-51H620V28H832V-40H907ZM230 827 157 841C134 718 92 599 32 522C50 512 81 490 94 479C124 522 151 576 175 636H252V472V436H45V364H247C234 231 186 87 34 -21C49 -32 77 -62 86 -77C201 5 262 112 294 220C348 158 427 63 461 14L512 78C482 112 360 249 312 296C317 319 320 342 322 364H515V436H326L327 471V636H486V706H199C211 745 221 786 230 827Z" /><path id="g400-8bc6" d="M513 398V697H816V398ZM893 769H439V326H893ZM806 230 738 205C791 118 847 1 869 -71L943 -41C921 30 861 144 806 230ZM587 211 510 228C482 126 428 28 362 -36C380 -46 413 -67 428 -79C494 -9 553 98 587 211ZM151 814 102 769C156 723 224 657 256 615L309 667C275 708 206 771 151 814ZM181 -52C196 -32 224 -10 397 126C388 140 375 169 369 190L264 110V526H50V454H191V107C191 54 154 15 135 -1C148 -12 172 -37 181 -52Z" /><path id="g400-63d0" d="M479 537V618H812V537ZM479 671V751H812V671ZM885 808H409V480H885ZM498 289 429 297C413 149 369 36 280 -35C296 -45 324 -67 336 -79C388 -32 428 29 456 104C521 -37 627 -65 773 -65H947C951 -46 961 -14 971 2C936 1 801 1 776 1C742 1 710 2 680 7V165H890V227H680V345H939V408H364V345H609V27C552 51 508 97 479 181C487 215 493 251 498 289ZM234 14V296L345 333L335 401L234 370V568H345V638H234V839H164V638H40V568H164V348C113 332 66 319 29 309L48 235L164 273V14C164 0 159 -4 147 -4C135 -5 96 -5 53 -4C62 -24 72 -55 74 -73C137 -74 176 -71 200 -59C225 -48 234 -27 234 14Z" /><path id="g400-53d6" d="M870 728H506V656H556C584 479 624 323 687 195C628 100 557 25 479 -24C496 -37 517 -62 528 -80C602 -29 669 38 727 123C777 42 839 -25 915 -74C926 -54 950 -28 967 -14C886 33 821 104 770 192C847 329 902 503 929 718L883 730ZM850 656C826 508 784 379 730 270C679 381 645 513 623 656ZM38 130 55 58 356 110V-78H429V123L518 140L514 203L429 189V725H502V793H48V725H115V141ZM187 725H356V585H187ZM187 520H356V375H187ZM187 309H356V178L187 152Z" /><path id="g700-540c" d="M750 618H249V517H750ZM705 441H296V37H406V104H705ZM406 342H594V203H406ZM927 48V802H75V-90H192V689H809V49C809 33 803 27 785 26C768 25 710 25 657 28C675 -3 693 -58 698 -90C782 -91 837 -87 876 -68C914 -49 927 -14 927 48Z" /><path id="g700-4f7f" d="M158 -92H272V620C294 658 314 697 332 736V643H584V572H353V278H577C572 238 561 199 541 164C503 194 471 228 447 267L349 238C383 180 424 130 473 88C430 55 371 28 290 10C315 -15 350 -64 364 -89C454 -62 521 -26 570 19C664 -35 778 -69 914 -88C929 -56 960 -7 985 19C850 31 733 59 640 103C672 156 689 215 697 278H943V572H703V643H969V751H703V843H584V751H339L367 816L256 852C201 709 108 567 13 478C33 449 65 383 77 354C104 382 132 413 158 448ZM703 387V475H828V376H703ZM462 376V475H584V388V376Z" /><path id="g700-ff1a" d="M250 469C303 469 345 509 345 563C345 618 303 658 250 658C197 658 155 618 155 563C155 509 197 469 250 469ZM250 -8C303 -8 345 32 345 86C345 141 303 181 250 181C197 181 155 141 155 86C155 32 197 -8 250 -8Z" /><path id="g700-68c0" d="M485 371 392 347C416 271 439 172 446 107L544 134C534 198 510 295 485 371ZM675 389 583 377C599 302 616 203 621 139L718 154C712 219 694 314 675 389ZM712 822 609 861C548 748 448 641 344 567V669H265V850H156V669H38V558H147C124 446 78 314 27 240C44 208 70 153 80 118C108 162 134 225 156 294V-89H265V377C283 340 300 302 310 276L379 356C363 383 291 490 265 524V558H332L296 535C317 511 352 460 365 436C399 460 433 487 466 517V443H821V524C856 497 891 473 925 452C936 485 961 538 981 568C880 617 765 707 692 788ZM631 698C679 646 736 592 795 544H495C543 591 590 643 631 698ZM941 56H790C836 143 888 263 929 367L824 390C795 288 740 149 691 56H345V-49H941Z" /><path id="g700-7d22" d="M711 144 620 85C700 39 807 -29 856 -74L955 -6C898 38 788 103 711 144ZM374 92 266 137C212 88 123 36 43 5C68 -14 112 -54 133 -76C211 -36 309 31 374 92ZM578 33V170L787 183C812 156 834 130 849 108L940 169C896 225 806 308 737 366L653 313L710 261L400 244C521 291 641 348 751 414L669 483C625 453 573 423 521 396L356 390C419 420 480 454 532 490L510 508H833V400H951V608H565V669H928V772H565V850H438V772H73V669H438V608H51V400H165V508H392C332 467 267 434 244 422C213 406 190 396 168 393C178 366 193 317 197 297C215 303 239 307 351 315C298 292 255 275 232 266C173 242 134 230 96 225C106 198 120 147 124 127C157 139 201 144 462 162V36C462 25 458 22 441 21C424 21 364 21 310 23C327 -7 346 -53 353 -87C426 -87 481 -85 524 -69C567 -52 578 -22 578 33Z" /><path id="g700-4e0e" d="M674 261H49V146H674ZM371 822 248 833C226 683 187 487 155 366H781C763 175 739 76 706 50C691 39 676 38 651 38C618 38 536 38 456 45C482 11 500 -40 503 -75C575 -78 649 -80 690 -76C743 -71 777 -62 810 -27C858 21 884 141 910 425C912 441 914 477 914 477H307L334 613H888V728H355Z" /><path id="g700-5f15" d="M874 834H753V-90H874ZM435 585H132C119 475 96 337 75 247H432C421 124 407 64 387 48C375 38 362 37 342 37C315 37 250 37 190 43C214 8 232 -44 234 -82C297 -85 358 -84 392 -80C435 -77 464 -68 491 -37C527 1 545 95 561 307C562 324 564 358 564 358H220L239 474H553V811H107V698H435Z" /><path id="g400-5411" d="M531 827 438 842C424 791 399 721 374 667H99V-80H173V594H832V20C832 2 826 -4 806 -4C785 -5 716 -6 644 -2C655 -24 666 -59 670 -80C762 -80 824 -79 860 -67C895 -54 907 -30 907 20V667H457C482 715 509 774 531 827ZM696 461H304V58H373V130H696ZM373 394H626V198H373Z" /><path id="g400-91cf" d="M250 610V665H747V610ZM250 709V763H747V709ZM822 808H177V565H822ZM949 522H52V465H949ZM230 215V273H462V215ZM535 273H777V215H535ZM230 317V373H462V317ZM535 373H777V317H535ZM955 3H535V61H873V114H535V169H851V420H159V169H462V114H131V61H462V3H47V-55H955Z" /><path id="g400-5173" d="M546 429V552H881V627H682C718 681 759 749 792 809L711 836C686 774 640 687 600 627H326L391 663C372 710 330 780 287 831L224 799C265 746 307 675 324 627H129V552H461V430C461 412 460 393 459 374H68V300H444C412 192 317 77 48 -13C68 -30 93 -62 102 -79C360 11 470 127 515 243C599 88 729 -21 907 -74C919 -51 942 -18 960 -1C777 44 640 152 565 300H935V374H544Z" /><path id="g400-952e" d="M340 346H229V482H330V548H92C116 581 138 618 158 659H334V728H188C201 760 213 793 222 826L156 843C129 743 82 645 27 580C40 566 62 534 70 520L89 544V482H165V346H51V278H165V83C165 36 132 1 115 -12C128 -25 148 -52 156 -68C170 -50 194 -31 349 77C342 90 332 116 327 134L229 69V278H340ZM904 761H756V837H697V761H578V706H697V626H553V568H697V487H578V431H697V355H575V296H697V214H550V155H697V32H756V155H942V214H756V296H919V355H756V431H904V568H965V626H904ZM756 626V706H849V626ZM756 568H849V487H756ZM367 408C367 413 374 419 382 425H488C480 343 467 272 449 211C434 246 420 287 409 334L358 313C376 243 398 185 423 138C390 60 345 4 289 -32C302 -46 319 -69 327 -85C383 -46 428 6 463 76C552 -39 673 -66 811 -66H942C945 -48 955 -18 965 -1C932 -2 840 -2 815 -2C690 -2 572 23 490 139C522 228 543 341 552 485L515 490L504 489H441C483 566 525 665 559 764L517 792L496 782H353V712H473C444 626 406 546 392 522C376 491 353 464 336 460C346 447 361 421 367 408Z" /><path id="g400-8bcd" d="M155 808 107 762C161 715 228 650 259 607L310 660C278 701 209 764 155 808ZM778 620H393V555H778ZM184 -52C198 -33 224 -13 392 111C385 125 375 154 370 174L266 101V526H46V454H196V102C196 51 160 14 141 -1C153 -12 176 -37 184 -52ZM923 17V790H368V720H851V17C851 0 845 -5 828 -6C810 -6 750 -7 689 -4C699 -25 710 -60 714 -80C796 -80 850 -79 881 -67C912 -54 923 -30 923 17ZM730 454H433V67H500V134H730ZM500 389H662V200H500Z" /><path id="g400-878d" d="M167 525V619H409V525ZM478 674H102V470H478ZM526 796H53V731H526ZM215 333 171 318C195 281 218 231 227 199L273 217C263 248 239 297 215 333ZM922 641H776V833H709V641H560V262H709V37C646 28 589 19 543 13L562 -57C652 -41 773 -20 890 2C897 -29 903 -57 906 -80L965 -63C954 5 919 120 881 206L827 193C843 154 859 108 872 64L776 48V262H922ZM617 329V576H714V329ZM771 576H863V329H771ZM412 317 362 339C347 296 318 236 295 194H157V143H261V-52H318V143H415V194H346C368 231 391 277 412 317ZM511 4V414H68V-77H128V355H449V5C449 -6 446 -9 435 -9C425 -9 393 -9 356 -8C364 -25 372 -50 375 -68C426 -68 462 -67 483 -57C505 -46 511 -28 511 4Z" /><path id="g400-91cd" d="M848 540H534V601H944V663H534V739C651 748 760 761 846 776L807 834C649 805 366 786 133 780C140 765 148 738 149 721C248 723 355 727 459 734V663H58V601H459V540H159V229H459V160H127V100H459V13H52V-48H949V13H534V100H886V160H534V229H848ZM232 284V360H459V284ZM534 360H772V284H534ZM232 411V486H459V411ZM534 486H772V411H534Z" /><path id="g400-6392" d="M254 14V295L373 331L364 398L254 367V568H362V638H254V840H182V638H55V568H182V347L42 311L57 237L182 274V14C182 1 177 -3 164 -4C154 -4 115 -4 74 -3C83 -22 93 -53 96 -72C158 -72 196 -70 221 -58C245 -47 254 -27 254 14ZM623 833H550V669H401V601H550V461H404V394H550V253H380V184H550V-79H623ZM787 833H715V-80H787V181H962V250H787V394H941V461H787V601H950V669H787Z" /><path id="g700-53cc" d="M835 776H491V662H545L496 654C524 480 562 327 624 200C561 120 486 58 397 18C424 -6 459 -55 476 -87C559 -43 631 14 692 84C742 14 803 -45 879 -90C897 -58 936 -11 963 12C884 54 820 116 770 191C856 334 911 520 934 759L855 780ZM804 662C784 532 748 418 700 321C657 422 628 537 609 662ZM137 586 49 515C109 447 174 367 231 288C178 167 107 70 21 8C50 -14 88 -59 107 -89C190 -22 258 65 312 171C341 126 365 84 382 47L483 132C457 184 417 245 371 308C416 436 446 586 462 758L385 780L364 776H56V662H333C321 577 303 496 281 422C233 480 183 536 137 586Z" /><path id="g700-5c42" d="M878 458H309V354H878ZM902 807H114V511C114 354 107 127 21 -27C51 -38 105 -67 129 -87C221 79 235 339 235 512V519H902ZM235 706H781V622H235ZM785 178 681 136 728 56 444 38C480 81 515 130 545 178ZM945 283H254V178H398C369 123 336 77 323 62C304 39 286 23 268 19C283 -11 304 -64 311 -86C349 -73 405 -67 780 -38C793 -61 804 -83 812 -101L926 -49C896 10 834 106 788 178H945Z" /><path id="g700-7ed3" d="M26 73 45 -49C152 -27 292 0 423 29L413 141C273 115 125 88 26 73ZM66 170C95 185 140 197 412 245C408 271 405 317 406 349L232 323C304 402 373 494 429 586L322 655C304 620 283 584 262 550L178 544C234 619 288 711 327 800L204 851C166 739 100 622 78 592C56 562 38 542 16 536C31 503 51 444 57 419C74 426 99 433 189 443C155 398 126 363 110 348C76 312 54 291 26 285C40 252 60 194 66 170ZM747 850H622V727H411V612H622V502H438V388H932V502H747V612H956V727H747ZM579 62V206H791V62ZM914 314H462V-89H579V-46H791V-85H914Z" /><path id="g700-6784" d="M288 850H171V663H40V552H164C135 431 81 290 20 212C39 180 66 125 77 91C112 143 144 217 171 298V-89H288V368C309 325 329 281 341 251L413 335C396 364 314 486 288 519V552H377C365 535 353 519 340 504C367 487 415 449 436 428C469 470 500 522 529 580H827C817 220 803 76 777 44C765 30 755 26 737 26C714 26 670 26 618 31C639 -3 654 -55 655 -88C708 -90 760 -90 794 -84C831 -78 857 -66 883 -29C921 22 934 182 947 634C948 650 948 691 948 691H577C593 734 607 779 619 823L503 850C478 745 435 641 383 561V663H288ZM697 384 608 353 642 267 535 249C577 324 617 414 645 500L531 533C506 423 454 304 437 274C420 242 404 222 386 216C398 188 417 135 422 114C445 126 480 137 674 177C681 154 687 133 691 115L786 153C770 212 730 310 697 384Z" /><path id="g700-5316" d="M406 814 284 854C228 709 129 567 29 478C52 450 91 385 106 356C131 380 156 408 181 438V-89H308V241C336 217 370 181 386 158C424 176 462 197 501 220V117C501 -28 536 -72 660 -72C683 -72 781 -72 806 -72C927 -72 958 1 972 196C937 205 883 229 853 253C846 88 838 47 794 47C774 47 697 47 677 47C637 47 631 56 631 116V309C751 399 867 512 960 641L845 720C786 628 711 545 631 472V835H501V368C436 322 371 284 308 254V621C345 684 379 750 406 814Z" /><path id="g700-5361" d="M584 298 542 236V377H957V496H536V616H861V731H536V850H409V496H46V377H414V-89H542V196C644 153 783 91 851 54L919 162C840 200 683 261 584 298Z" /><path id="g700-7247" d="M782 349H283C286 392 287 434 287 476H900V600H663V848H533V600H287V828H161V490C161 322 147 137 23 2C52 -18 98 -66 118 -95C204 -3 247 107 268 223H649V-90H782Z" /><path id="g400-4e8b" d="M955 266H851V391H535V462H835V639H535V698H935V760H535V840H459V760H67V698H459V639H172V462H459V391H143V336H459V266H48V206H459V131H134V72H459V4C459 -14 453 -20 434 -20C417 -21 356 -22 297 -20C307 -37 319 -65 323 -83C407 -83 459 -82 490 -71C521 -61 535 -42 535 4V72H775V28H851V206H955ZM535 586H759V515H535ZM244 515V586H459V515ZM535 336H775V266H535ZM535 206H775V131H535Z" /><path id="g400-5b9e" d="M574 162 538 107C671 57 804 -13 885 -74L931 -16C848 44 708 113 574 162ZM285 605 240 557C294 525 358 475 387 440L435 495C404 530 339 576 285 605ZM185 451 140 401C197 370 264 321 296 285L342 341C309 376 241 422 185 451ZM912 726H569C555 761 527 809 503 847L429 824C447 794 466 758 480 726H90V523H165V656H835V523H912ZM935 256H541C570 353 577 469 581 606H503C499 464 493 349 461 256H71V191H432C376 94 273 29 81 -11C97 -28 116 -57 124 -77C349 -25 461 63 518 191H935Z" /><path id="g400-4e0e" d="M681 238H57V166H681ZM336 810 261 818C236 680 195 492 164 379H807C784 150 758 45 721 15C708 4 694 3 669 3C640 3 562 4 484 11C499 -10 510 -41 512 -64C583 -68 655 -70 691 -68C734 -65 760 -59 786 -33C832 11 859 127 888 413C890 424 891 450 891 450H261C273 504 287 567 300 630H876V702H315Z" /><path id="g400-7cfb" d="M361 197 286 224C233 152 150 79 70 30C89 19 121 -5 135 -19C211 34 301 117 361 197ZM695 229 636 190C719 126 822 34 872 -22L936 22C882 80 779 168 695 229ZM722 474 664 444C690 420 718 392 745 363L305 334C456 408 609 500 756 612L700 660C649 619 594 580 540 543L294 531C367 582 440 647 507 716C637 729 760 747 855 770L803 833C641 793 350 766 107 753C115 737 124 707 126 688C214 692 308 698 402 706C336 637 262 578 236 560C207 539 183 524 162 521C170 502 181 469 183 454C204 461 235 465 438 478C352 425 279 385 245 369C183 338 138 319 106 315C115 295 126 260 129 245C157 256 196 261 471 282V21C471 9 468 6 451 5C435 4 380 4 320 6C332 -15 345 -46 349 -68C422 -68 472 -67 505 -55C539 -43 547 -22 547 19V287L797 306C825 273 850 241 866 216L926 252C885 313 799 405 722 474Z" /><path id="g700-4e0a" d="M532 837H403V81H43V-40H958V81H532V428H887V549H532Z" /><path id="g700-4e0b" d="M565 521 544 496V655H949V776H52V655H415V-87H544V391C645 333 760 260 818 208L907 318C830 380 673 467 565 521Z" /><path id="g700-6587" d="M540 860 412 822C435 779 458 722 469 681H44V564H202C256 423 326 302 416 202C312 121 182 64 25 25C48 -3 85 -59 98 -88C259 -41 394 26 505 116C611 27 740 -39 898 -81C917 -48 952 4 979 31C828 65 702 125 598 204C687 301 755 420 806 564H960V681H524L609 708C598 750 568 813 540 860ZM507 286C430 365 370 459 326 564H672C631 454 577 362 507 286Z" /><path id="g700-611f" d="M556 616H247V536H556ZM374 49V193H252V47C252 -46 289 -75 429 -75C457 -75 589 -75 619 -75C736 -75 771 -42 785 93C753 100 700 115 675 132C669 32 661 18 611 18C577 18 467 18 441 18C383 18 374 22 374 49ZM507 243 413 201C454 156 510 93 535 54L635 103C607 141 549 201 507 243ZM856 197 749 163C786 100 831 16 849 -35L964 4C941 55 893 137 856 197ZM236 141 129 179C107 118 69 45 33 -5L145 -50C177 2 211 81 236 141ZM345 342V416H454V342ZM545 495H249V263H545V296C568 275 602 241 617 223C644 240 670 259 695 281C732 237 780 212 839 212C923 212 958 248 973 390C945 398 905 418 881 440C876 353 868 319 844 319C818 319 795 333 775 360C835 430 886 515 921 609L813 635C792 575 762 519 725 470C710 523 699 588 692 661H953V757H862L888 777C864 799 819 832 785 854L715 805C734 791 756 774 776 757H686L685 850H572L574 757H112V605C112 504 104 364 29 263C53 251 100 211 118 190C205 305 223 481 223 603V661H581C591 550 609 452 640 377C610 351 579 328 545 309Z" /><path id="g400-6309" d="M772 379C755 284 723 210 675 151C622 181 567 209 516 234C538 278 561 327 583 379ZM959 447H611C630 497 648 547 662 594L587 605C573 556 553 501 531 447H355V379H502C474 315 444 256 417 210C482 178 553 139 623 99C557 45 470 9 358 -16C371 -32 389 -64 394 -81C518 -49 615 -4 688 61C773 10 850 -41 900 -82L954 -24C902 17 824 66 739 115C794 183 830 269 852 379H959ZM945 712H711C701 751 683 803 668 845L593 831C606 795 620 750 629 712H383V517H454V645H873V518H945ZM249 7V267L377 309L367 376L249 340V568H357V639H249V840H177V639H42V568H177V319L30 277L48 204L177 244V7C177 -8 171 -12 158 -12C145 -13 104 -13 58 -12C68 -32 79 -62 81 -80C147 -80 188 -78 214 -67C240 -55 249 -35 249 7Z" /><path id="g400-9700" d="M409 571H194V521H409ZM410 466H172V416H410ZM830 466H585V415H830ZM806 571H585V521H806ZM925 681H533V740H865V800H134V740H461V681H76V490H144V626H461V389H533V626H855V490H925ZM882 -5V224H505L531 295H938V356H65V295H453C448 272 440 247 433 224H143V-78H214V162H362V-72H431V162H584V-72H653V162H809V-4C809 -14 807 -17 795 -17C785 -18 751 -18 710 -17C719 -35 730 -61 734 -80C788 -80 826 -80 851 -68C876 -58 882 -40 882 -5Z" /><path id="g400-56de" d="M374 271V500H618V271ZM692 568H303V204H692ZM159 46V724H839V46ZM919 799H82V-79H159V-25H839V-79H919Z" /><path id="g400-539f" d="M369 308V402H788V308ZM369 459V552H788V459ZM758 197 699 165C759 100 838 11 876 -42L940 -4C899 48 818 135 758 197ZM442 175 371 199C326 132 260 56 201 4C219 -5 250 -25 264 -37C320 17 390 102 442 175ZM205 501V715H943V785H131V501C131 347 123 132 35 -21C53 -28 85 -48 99 -60C192 101 205 338 205 501ZM617 692 530 704C522 678 507 642 492 611H295V248H541V4C541 -8 537 -13 521 -13C506 -14 455 -14 396 -12C405 -32 416 -59 419 -79C496 -79 545 -79 576 -68C605 -57 614 -36 614 3V248H864V611H573C588 636 603 664 617 692Z" /><path id="g400-59cb" d="M532 31V259H833V31ZM905 327H462V-80H532V-36H833V-78H905ZM800 695 740 666C774 622 809 569 838 517L520 497C585 587 651 703 705 819L627 841C577 714 495 579 468 544C443 508 423 484 404 479C413 460 425 423 429 407C458 419 502 423 874 452C887 426 897 402 905 381L969 414C939 491 868 608 800 695ZM333 635H216C229 703 240 770 248 831L178 836C171 774 160 705 147 635H43V565H134C113 462 88 363 65 292C115 258 168 216 217 174C171 84 112 20 40 -19C56 -33 76 -60 86 -78C162 -31 223 34 271 124C309 87 342 52 364 21L410 82C385 115 347 154 303 193C348 305 377 448 388 630L345 637ZM202 565H316C304 437 281 329 247 241C213 268 178 295 144 319C163 390 184 477 202 565Z" /><path id="g400-7ec6" d="M37 53 50 -21C148 -1 282 24 411 50L406 118C270 93 130 67 37 53ZM64 184C87 196 123 204 408 249C405 264 404 293 405 313L177 282C263 366 348 469 422 576L357 616C338 584 316 552 294 522L141 508C207 595 272 704 324 812L251 844C202 722 121 593 95 560C71 525 52 502 33 498C41 478 54 440 58 424C75 432 100 437 243 454C192 389 144 336 123 317C88 282 63 259 40 254C49 235 60 199 64 184ZM647 70H503V353H647ZM716 70V353H858V70ZM930 788H433V-65H503V0H858V-57H930ZM647 424H503V713H647ZM716 424V713H858V424Z" /><path id="g400-8282" d="M805 486H98V414H360V-78H439V414H772V154C772 139 766 135 747 134C727 133 659 133 586 135C596 112 606 80 609 57C704 57 766 57 803 69C839 82 849 106 849 152V486ZM712 840H634V727H366V840H289V727H55V655H289V540H366V655H634V540H712V655H946V727H712Z" /></defs></svg>
