<svg xmlns="http://www.w3.org/2000/svg" width="106mm" height="106.000mm" viewBox="0 0 900 900" role="img" aria-labelledby="title desc">
<title id="title">Agent 自举循环</title><desc id="desc">航空客服参考实现经领域修改与回归验证生成电商客服。</desc>
<defs><marker id="arrow" viewBox="0 0 10 10" refX="9" refY="5" markerWidth="7" markerHeight="7" orient="auto-start-reverse"><path d="M0 0 L10 5 L0 10 Z" fill="#333333" /></marker></defs>
<rect width="900" height="900" fill="#ffffff" y="0" />
<rect x="20" y="20" width="410" height="290" rx="6" fill="#ffffff" stroke="#333333" stroke-width="1.8" />
<rect x="20" y="20" width="410" height="48" rx="6" fill="#dedede" stroke="#333333" stroke-width="1.8" />
<g aria-label="参考 Agent：航空客服" fill="#292929" data-font="Source Han Sans CN 700" data-size="28.0"><use href="#g700-53c2" transform="translate(83.488 53) scale(0.028 -0.028)" /><use href="#g700-8003" transform="translate(111.488 53) scale(0.028 -0.028)" /><use href="#g700-20" transform="translate(139.488 53) scale(0.028 -0.028)" /><use href="#g700-41" transform="translate(145.844 53) scale(0.028 -0.028)" /><use href="#g700-67" transform="translate(163.792 53) scale(0.028 -0.028)" /><use href="#g700-65" transform="translate(180.508 53) scale(0.028 -0.028)" /><use href="#g700-6e" transform="translate(196.776 53) scale(0.028 -0.028)" /><use href="#g700-74" transform="translate(214.724 53) scale(0.028 -0.028)" /><use href="#g700-ff1a" transform="translate(226.512 53) scale(0.028 -0.028)" /><use href="#g700-822a" transform="translate(254.512 53) scale(0.028 -0.028)" /><use href="#g700-7a7a" transform="translate(282.512 53) scale(0.028 -0.028)" /><use href="#g700-5ba2" transform="translate(310.512 53) scale(0.028 -0.028)" /><use href="#g700-670d" transform="translate(338.512 53) scale(0.028 -0.028)" /></g><g aria-label="提示词：取消与转接规则" fill="#292929" data-font="Source Han Sans CN 400" data-size="26.0"><use href="#g400-63d0" transform="translate(82.000 100) scale(0.026 -0.026)" /><use href="#g400-793a" transform="translate(108.000 100) scale(0.026 -0.026)" /><use href="#g400-8bcd" transform="translate(134.000 100) scale(0.026 -0.026)" /><use href="#g400-ff1a" transform="translate(160.000 100) scale(0.026 -0.026)" /><use href="#g400-53d6" transform="translate(186.000 100) scale(0.026 -0.026)" /><use href="#g400-6d88" transform="translate(212.000 100) scale(0.026 -0.026)" /><use href="#g400-4e0e" transform="translate(238.000 100) scale(0.026 -0.026)" /><use href="#g400-8f6c" transform="translate(264.000 100) scale(0.026 -0.026)" /><use href="#g400-63a5" transform="translate(290.000 100) scale(0.026 -0.026)" /><use href="#g400-89c4" transform="translate(316.000 100) scale(0.026 -0.026)" /><use href="#g400-5219" transform="translate(342.000 100) scale(0.026 -0.026)" /></g><g aria-label="工具：cancel_order" fill="#292929" data-font="Source Han Sans CN 400" data-size="26.0"><use href="#g400-5de5" transform="translate(106.102 132) scale(0.026 -0.026)" /><use href="#g400-5177" transform="translate(132.102 132) scale(0.026 -0.026)" /><use href="#g400-ff1a" transform="translate(158.102 132) scale(0.026 -0.026)" /><use href="#g400-63" transform="translate(184.102 132) scale(0.026 -0.026)" /><use href="#g400-61" transform="translate(197.362 132) scale(0.026 -0.026)" /><use href="#g400-6e" transform="translate(212.000 132) scale(0.026 -0.026)" /><use href="#g400-63" transform="translate(227.860 132) scale(0.026 -0.026)" /><use href="#g400-65" transform="translate(241.120 132) scale(0.026 -0.026)" /><use href="#g400-6c" transform="translate(255.524 132) scale(0.026 -0.026)" /><use href="#g400-5f" transform="translate(262.908 132) scale(0.026 -0.026)" /><use href="#g400-6f" transform="translate(277.442 132) scale(0.026 -0.026)" /><use href="#g400-72" transform="translate(293.198 132) scale(0.026 -0.026)" /><use href="#g400-64" transform="translate(303.286 132) scale(0.026 -0.026)" /><use href="#g400-65" transform="translate(319.406 132) scale(0.026 -0.026)" /><use href="#g400-72" transform="translate(333.810 132) scale(0.026 -0.026)" /></g><g aria-label="运行框架：" fill="#292929" data-font="Source Han Sans CN 400" data-size="26.0"><use href="#g400-8fd0" transform="translate(160.000 164) scale(0.026 -0.026)" /><use href="#g400-884c" transform="translate(186.000 164) scale(0.026 -0.026)" /><use href="#g400-6846" transform="translate(212.000 164) scale(0.026 -0.026)" /><use href="#g400-67b6" transform="translate(238.000 164) scale(0.026 -0.026)" /><use href="#g400-ff1a" transform="translate(264.000 164) scale(0.026 -0.026)" /></g><g aria-label="模型请求 → 工具调用决策" fill="#292929" data-font="Source Han Sans CN 400" data-size="26.0"><use href="#g400-6a21" transform="translate(76.176 196) scale(0.026 -0.026)" /><use href="#g400-578b" transform="translate(102.176 196) scale(0.026 -0.026)" /><use href="#g400-8bf7" transform="translate(128.176 196) scale(0.026 -0.026)" /><use href="#g400-6c42" transform="translate(154.176 196) scale(0.026 -0.026)" /><use href="#g400-20" transform="translate(180.176 196) scale(0.026 -0.026)" /><use href="#g400-2192" transform="translate(186.000 196) scale(0.026 -0.026)" /><use href="#g400-20" transform="translate(212.000 196) scale(0.026 -0.026)" /><use href="#g400-5de5" transform="translate(217.824 196) scale(0.026 -0.026)" /><use href="#g400-5177" transform="translate(243.824 196) scale(0.026 -0.026)" /><use href="#g400-8c03" transform="translate(269.824 196) scale(0.026 -0.026)" /><use href="#g400-7528" transform="translate(295.824 196) scale(0.026 -0.026)" /><use href="#g400-51b3" transform="translate(321.824 196) scale(0.026 -0.026)" /><use href="#g400-7b56" transform="translate(347.824 196) scale(0.026 -0.026)" /></g><g aria-label="校验与执行 → 结果写回" fill="#292929" data-font="Source Han Sans CN 400" data-size="26.0"><use href="#g400-6821" transform="translate(89.176 228) scale(0.026 -0.026)" /><use href="#g400-9a8c" transform="translate(115.176 228) scale(0.026 -0.026)" /><use href="#g400-4e0e" transform="translate(141.176 228) scale(0.026 -0.026)" /><use href="#g400-6267" transform="translate(167.176 228) scale(0.026 -0.026)" /><use href="#g400-884c" transform="translate(193.176 228) scale(0.026 -0.026)" /><use href="#g400-20" transform="translate(219.176 228) scale(0.026 -0.026)" /><use href="#g400-2192" transform="translate(225.000 228) scale(0.026 -0.026)" /><use href="#g400-20" transform="translate(251.000 228) scale(0.026 -0.026)" /><use href="#g400-7ed3" transform="translate(256.824 228) scale(0.026 -0.026)" /><use href="#g400-679c" transform="translate(282.824 228) scale(0.026 -0.026)" /><use href="#g400-5199" transform="translate(308.824 228) scale(0.026 -0.026)" /><use href="#g400-56de" transform="translate(334.824 228) scale(0.026 -0.026)" /></g><g aria-label="状态更新 → 下一轮或退出" fill="#292929" data-font="Source Han Sans CN 400" data-size="26.0"><use href="#g400-72b6" transform="translate(76.176 260) scale(0.026 -0.026)" /><use href="#g400-6001" transform="translate(102.176 260) scale(0.026 -0.026)" /><use href="#g400-66f4" transform="translate(128.176 260) scale(0.026 -0.026)" /><use href="#g400-65b0" transform="translate(154.176 260) scale(0.026 -0.026)" /><use href="#g400-20" transform="translate(180.176 260) scale(0.026 -0.026)" /><use href="#g400-2192" transform="translate(186.000 260) scale(0.026 -0.026)" /><use href="#g400-20" transform="translate(212.000 260) scale(0.026 -0.026)" /><use href="#g400-4e0b" transform="translate(217.824 260) scale(0.026 -0.026)" /><use href="#g400-4e00" transform="translate(243.824 260) scale(0.026 -0.026)" /><use href="#g400-8f6e" transform="translate(269.824 260) scale(0.026 -0.026)" /><use href="#g400-6216" transform="translate(295.824 260) scale(0.026 -0.026)" /><use href="#g400-9000" transform="translate(321.824 260) scale(0.026 -0.026)" /><use href="#g400-51fa" transform="translate(347.824 260) scale(0.026 -0.026)" /></g><rect x="470" y="20" width="410" height="290" rx="6" fill="#ffffff" stroke="#333333" stroke-width="1.8" />
<rect x="470" y="20" width="410" height="48" rx="6" fill="#dedede" stroke="#333333" stroke-width="1.8" />
<g aria-label="新 Agent：电商客服" fill="#292929" data-font="Source Han Sans CN 700" data-size="28.0"><use href="#g700-65b0" transform="translate(547.488 53) scale(0.028 -0.028)" /><use href="#g700-20" transform="translate(575.488 53) scale(0.028 -0.028)" /><use href="#g700-41" transform="translate(581.844 53) scale(0.028 -0.028)" /><use href="#g700-67" transform="translate(599.792 53) scale(0.028 -0.028)" /><use href="#g700-65" transform="translate(616.508 53) scale(0.028 -0.028)" /><use href="#g700-6e" transform="translate(632.776 53) scale(0.028 -0.028)" /><use href="#g700-74" transform="translate(650.724 53) scale(0.028 -0.028)" /><use href="#g700-ff1a" transform="translate(662.512 53) scale(0.028 -0.028)" /><use href="#g700-7535" transform="translate(690.512 53) scale(0.028 -0.028)" /><use href="#g700-5546" transform="translate(718.512 53) scale(0.028 -0.028)" /><use href="#g700-5ba2" transform="translate(746.512 53) scale(0.028 -0.028)" /><use href="#g700-670d" transform="translate(774.512 53) scale(0.028 -0.028)" /></g><g aria-label="提示词：退款与物流规则" fill="#292929" data-font="Source Han Sans CN 400" data-size="26.0"><use href="#g400-63d0" transform="translate(532.000 100) scale(0.026 -0.026)" /><use href="#g400-793a" transform="translate(558.000 100) scale(0.026 -0.026)" /><use href="#g400-8bcd" transform="translate(584.000 100) scale(0.026 -0.026)" /><use href="#g400-ff1a" transform="translate(610.000 100) scale(0.026 -0.026)" /><use href="#g400-9000" transform="translate(636.000 100) scale(0.026 -0.026)" /><use href="#g400-6b3e" transform="translate(662.000 100) scale(0.026 -0.026)" /><use href="#g400-4e0e" transform="translate(688.000 100) scale(0.026 -0.026)" /><use href="#g400-7269" transform="translate(714.000 100) scale(0.026 -0.026)" /><use href="#g400-6d41" transform="translate(740.000 100) scale(0.026 -0.026)" /><use href="#g400-89c4" transform="translate(766.000 100) scale(0.026 -0.026)" /><use href="#g400-5219" transform="translate(792.000 100) scale(0.026 -0.026)" /></g><g aria-label="工具：refund_order" fill="#292929" data-font="Source Han Sans CN 400" data-size="26.0"><use href="#g400-5de5" transform="translate(555.153 132) scale(0.026 -0.026)" /><use href="#g400-5177" transform="translate(581.153 132) scale(0.026 -0.026)" /><use href="#g400-ff1a" transform="translate(607.153 132) scale(0.026 -0.026)" /><use href="#g400-72" transform="translate(633.153 132) scale(0.026 -0.026)" /><use href="#g400-65" transform="translate(643.241 132) scale(0.026 -0.026)" /><use href="#g400-66" transform="translate(657.645 132) scale(0.026 -0.026)" /><use href="#g400-75" transform="translate(666.095 132) scale(0.026 -0.026)" /><use href="#g400-6e" transform="translate(681.877 132) scale(0.026 -0.026)" /><use href="#g400-64" transform="translate(697.737 132) scale(0.026 -0.026)" /><use href="#g400-5f" transform="translate(713.857 132) scale(0.026 -0.026)" /><use href="#g400-6f" transform="translate(728.391 132) scale(0.026 -0.026)" /><use href="#g400-72" transform="translate(744.147 132) scale(0.026 -0.026)" /><use href="#g400-64" transform="translate(754.235 132) scale(0.026 -0.026)" /><use href="#g400-65" transform="translate(770.355 132) scale(0.026 -0.026)" /><use href="#g400-72" transform="translate(784.759 132) scale(0.026 -0.026)" /></g><g aria-label="复用框架并调整领域逻辑" fill="#292929" data-font="Source Han Sans CN 400" data-size="26.0"><use href="#g400-590d" transform="translate(532.000 164) scale(0.026 -0.026)" /><use href="#g400-7528" transform="translate(558.000 164) scale(0.026 -0.026)" /><use href="#g400-6846" transform="translate(584.000 164) scale(0.026 -0.026)" /><use href="#g400-67b6" transform="translate(610.000 164) scale(0.026 -0.026)" /><use href="#g400-5e76" transform="translate(636.000 164) scale(0.026 -0.026)" /><use href="#g400-8c03" transform="translate(662.000 164) scale(0.026 -0.026)" /><use href="#g400-6574" transform="translate(688.000 164) scale(0.026 -0.026)" /><use href="#g400-9886" transform="translate(714.000 164) scale(0.026 -0.026)" /><use href="#g400-57df" transform="translate(740.000 164) scale(0.026 -0.026)" /><use href="#g400-903b" transform="translate(766.000 164) scale(0.026 -0.026)" /><use href="#g400-8f91" transform="translate(792.000 164) scale(0.026 -0.026)" /></g><g aria-label="保留调用标识与消息关联" fill="#292929" data-font="Source Han Sans CN 400" data-size="26.0"><use href="#g400-4fdd" transform="translate(532.000 196) scale(0.026 -0.026)" /><use href="#g400-7559" transform="translate(558.000 196) scale(0.026 -0.026)" /><use href="#g400-8c03" transform="translate(584.000 196) scale(0.026 -0.026)" /><use href="#g400-7528" transform="translate(610.000 196) scale(0.026 -0.026)" /><use href="#g400-6807" transform="translate(636.000 196) scale(0.026 -0.026)" /><use href="#g400-8bc6" transform="translate(662.000 196) scale(0.026 -0.026)" /><use href="#g400-4e0e" transform="translate(688.000 196) scale(0.026 -0.026)" /><use href="#g400-6d88" transform="translate(714.000 196) scale(0.026 -0.026)" /><use href="#g400-606f" transform="translate(740.000 196) scale(0.026 -0.026)" /><use href="#g400-5173" transform="translate(766.000 196) scale(0.026 -0.026)" /><use href="#g400-8054" transform="translate(792.000 196) scale(0.026 -0.026)" /></g><g aria-label="维护跨轮状态、预算与退出" fill="#292929" data-font="Source Han Sans CN 400" data-size="26.0"><use href="#g400-7ef4" transform="translate(519.000 228) scale(0.026 -0.026)" /><use href="#g400-62a4" transform="translate(545.000 228) scale(0.026 -0.026)" /><use href="#g400-8de8" transform="translate(571.000 228) scale(0.026 -0.026)" /><use href="#g400-8f6e" transform="translate(597.000 228) scale(0.026 -0.026)" /><use href="#g400-72b6" transform="translate(623.000 228) scale(0.026 -0.026)" /><use href="#g400-6001" transform="translate(649.000 228) scale(0.026 -0.026)" /><use href="#g400-3001" transform="translate(675.000 228) scale(0.026 -0.026)" /><use href="#g400-9884" transform="translate(701.000 228) scale(0.026 -0.026)" /><use href="#g400-7b97" transform="translate(727.000 228) scale(0.026 -0.026)" /><use href="#g400-4e0e" transform="translate(753.000 228) scale(0.026 -0.026)" /><use href="#g400-9000" transform="translate(779.000 228) scale(0.026 -0.026)" /><use href="#g400-51fa" transform="translate(805.000 228) scale(0.026 -0.026)" /></g><g aria-label="按需求更新工具及配置" fill="#292929" data-font="Source Han Sans CN 400" data-size="26.0"><use href="#g400-6309" transform="translate(545.000 260) scale(0.026 -0.026)" /><use href="#g400-9700" transform="translate(571.000 260) scale(0.026 -0.026)" /><use href="#g400-6c42" transform="translate(597.000 260) scale(0.026 -0.026)" /><use href="#g400-66f4" transform="translate(623.000 260) scale(0.026 -0.026)" /><use href="#g400-65b0" transform="translate(649.000 260) scale(0.026 -0.026)" /><use href="#g400-5de5" transform="translate(675.000 260) scale(0.026 -0.026)" /><use href="#g400-5177" transform="translate(701.000 260) scale(0.026 -0.026)" /><use href="#g400-53ca" transform="translate(727.000 260) scale(0.026 -0.026)" /><use href="#g400-914d" transform="translate(753.000 260) scale(0.026 -0.026)" /><use href="#g400-7f6e" transform="translate(779.000 260) scale(0.026 -0.026)" /></g><path d="M430 180 L470 180" fill="none" stroke="#333333" stroke-width="1.8" marker-end="url(#arrow)" />
<rect x="20" y="365" width="860" height="120" rx="6" fill="#ffffff" stroke="#333333" stroke-width="1.8" />
<rect x="20" y="365" width="860" height="48" rx="6" fill="#dedede" stroke="#333333" stroke-width="1.8" />
<g aria-label="创建者修改" fill="#292929" data-font="Source Han Sans CN 700" data-size="28.0"><use href="#g700-521b" transform="translate(380.000 398) scale(0.028 -0.028)" /><use href="#g700-5efa" transform="translate(408.000 398) scale(0.028 -0.028)" /><use href="#g700-8005" transform="translate(436.000 398) scale(0.028 -0.028)" /><use href="#g700-4fee" transform="translate(464.000 398) scale(0.028 -0.028)" /><use href="#g700-6539" transform="translate(492.000 398) scale(0.028 -0.028)" /></g><g aria-label="读取参考实现 → 复制框架 → 修改提示、工具和业务逻辑" fill="#292929" data-font="Source Han Sans CN 400" data-size="26.0"><use href="#g400-8bfb" transform="translate(126.352 445) scale(0.026 -0.026)" /><use href="#g400-53d6" transform="translate(152.352 445) scale(0.026 -0.026)" /><use href="#g400-53c2" transform="translate(178.352 445) scale(0.026 -0.026)" /><use href="#g400-8003" transform="translate(204.352 445) scale(0.026 -0.026)" /><use href="#g400-5b9e" transform="translate(230.352 445) scale(0.026 -0.026)" /><use href="#g400-73b0" transform="translate(256.352 445) scale(0.026 -0.026)" /><use href="#g400-20" transform="translate(282.352 445) scale(0.026 -0.026)" /><use href="#g400-2192" transform="translate(288.176 445) scale(0.026 -0.026)" /><use href="#g400-20" transform="translate(314.176 445) scale(0.026 -0.026)" /><use href="#g400-590d" transform="translate(320.000 445) scale(0.026 -0.026)" /><use href="#g400-5236" transform="translate(346.000 445) scale(0.026 -0.026)" /><use href="#g400-6846" transform="translate(372.000 445) scale(0.026 -0.026)" /><use href="#g400-67b6" transform="translate(398.000 445) scale(0.026 -0.026)" /><use href="#g400-20" transform="translate(424.000 445) scale(0.026 -0.026)" /><use href="#g400-2192" transform="translate(429.824 445) scale(0.026 -0.026)" /><use href="#g400-20" transform="translate(455.824 445) scale(0.026 -0.026)" /><use href="#g400-4fee" transform="translate(461.648 445) scale(0.026 -0.026)" /><use href="#g400-6539" transform="translate(487.648 445) scale(0.026 -0.026)" /><use href="#g400-63d0" transform="translate(513.648 445) scale(0.026 -0.026)" /><use href="#g400-793a" transform="translate(539.648 445) scale(0.026 -0.026)" /><use href="#g400-3001" transform="translate(565.648 445) scale(0.026 -0.026)" /><use href="#g400-5de5" transform="translate(591.648 445) scale(0.026 -0.026)" /><use href="#g400-5177" transform="translate(617.648 445) scale(0.026 -0.026)" /><use href="#g400-548c" transform="translate(643.648 445) scale(0.026 -0.026)" /><use href="#g400-4e1a" transform="translate(669.648 445) scale(0.026 -0.026)" /><use href="#g400-52a1" transform="translate(695.648 445) scale(0.026 -0.026)" /><use href="#g400-903b" transform="translate(721.648 445) scale(0.026 -0.026)" /><use href="#g400-8f91" transform="translate(747.648 445) scale(0.026 -0.026)" /></g><path d="M225 310 L225 365" fill="none" stroke="#333333" stroke-width="1.8" marker-end="url(#arrow)" />
<path d="M675 365 L675 310" fill="none" stroke="#333333" stroke-width="1.8" marker-end="url(#arrow)" />
<rect x="20" y="540" width="860" height="155" rx="6" fill="#ffffff" stroke="#333333" stroke-width="1.8" />
<rect x="20" y="540" width="860" height="48" rx="6" fill="#dedede" stroke="#333333" stroke-width="1.8" />
<g aria-label="验证与反馈" fill="#292929" data-font="Source Han Sans CN 700" data-size="28.0"><use href="#g700-9a8c" transform="translate(380.000 573) scale(0.028 -0.028)" /><use href="#g700-8bc1" transform="translate(408.000 573) scale(0.028 -0.028)" /><use href="#g700-4e0e" transform="translate(436.000 573) scale(0.028 -0.028)" /><use href="#g700-53cd" transform="translate(464.000 573) scale(0.028 -0.028)" /><use href="#g700-9988" transform="translate(492.000 573) scale(0.028 -0.028)" /></g><g aria-label="结构与编译 · 协议配对 · 工具行为 · 多轮状态" fill="#292929" data-font="Source Han Sans CN 400" data-size="26.0"><use href="#g400-7ed3" transform="translate(172.528 620) scale(0.026 -0.026)" /><use href="#g400-6784" transform="translate(198.528 620) scale(0.026 -0.026)" /><use href="#g400-4e0e" transform="translate(224.528 620) scale(0.026 -0.026)" /><use href="#g400-7f16" transform="translate(250.528 620) scale(0.026 -0.026)" /><use href="#g400-8bd1" transform="translate(276.528 620) scale(0.026 -0.026)" /><use href="#g400-20" transform="translate(302.528 620) scale(0.026 -0.026)" /><use href="#g400-b7" transform="translate(308.352 620) scale(0.026 -0.026)" /><use href="#g400-20" transform="translate(334.352 620) scale(0.026 -0.026)" /><use href="#g400-534f" transform="translate(340.176 620) scale(0.026 -0.026)" /><use href="#g400-8bae" transform="translate(366.176 620) scale(0.026 -0.026)" /><use href="#g400-914d" transform="translate(392.176 620) scale(0.026 -0.026)" /><use href="#g400-5bf9" transform="translate(418.176 620) scale(0.026 -0.026)" /><use href="#g400-20" transform="translate(444.176 620) scale(0.026 -0.026)" /><use href="#g400-b7" transform="translate(450.000 620) scale(0.026 -0.026)" /><use href="#g400-20" transform="translate(476.000 620) scale(0.026 -0.026)" /><use href="#g400-5de5" transform="translate(481.824 620) scale(0.026 -0.026)" /><use href="#g400-5177" transform="translate(507.824 620) scale(0.026 -0.026)" /><use href="#g400-884c" transform="translate(533.824 620) scale(0.026 -0.026)" /><use href="#g400-4e3a" transform="translate(559.824 620) scale(0.026 -0.026)" /><use href="#g400-20" transform="translate(585.824 620) scale(0.026 -0.026)" /><use href="#g400-b7" transform="translate(591.648 620) scale(0.026 -0.026)" /><use href="#g400-20" transform="translate(617.648 620) scale(0.026 -0.026)" /><use href="#g400-591a" transform="translate(623.472 620) scale(0.026 -0.026)" /><use href="#g400-8f6e" transform="translate(649.472 620) scale(0.026 -0.026)" /><use href="#g400-72b6" transform="translate(675.472 620) scale(0.026 -0.026)" /><use href="#g400-6001" transform="translate(701.472 620) scale(0.026 -0.026)" /></g><g aria-label="通过：保存版本与参考用例 · 失败：定位并修改" fill="#292929" data-font="Source Han Sans CN 400" data-size="26.0"><use href="#g400-901a" transform="translate(171.176 652) scale(0.026 -0.026)" /><use href="#g400-8fc7" transform="translate(197.176 652) scale(0.026 -0.026)" /><use href="#g400-ff1a" transform="translate(223.176 652) scale(0.026 -0.026)" /><use href="#g400-4fdd" transform="translate(249.176 652) scale(0.026 -0.026)" /><use href="#g400-5b58" transform="translate(275.176 652) scale(0.026 -0.026)" /><use href="#g400-7248" transform="translate(301.176 652) scale(0.026 -0.026)" /><use href="#g400-672c" transform="translate(327.176 652) scale(0.026 -0.026)" /><use href="#g400-4e0e" transform="translate(353.176 652) scale(0.026 -0.026)" /><use href="#g400-53c2" transform="translate(379.176 652) scale(0.026 -0.026)" /><use href="#g400-8003" transform="translate(405.176 652) scale(0.026 -0.026)" /><use href="#g400-7528" transform="translate(431.176 652) scale(0.026 -0.026)" /><use href="#g400-4f8b" transform="translate(457.176 652) scale(0.026 -0.026)" /><use href="#g400-20" transform="translate(483.176 652) scale(0.026 -0.026)" /><use href="#g400-b7" transform="translate(489.000 652) scale(0.026 -0.026)" /><use href="#g400-20" transform="translate(515.000 652) scale(0.026 -0.026)" /><use href="#g400-5931" transform="translate(520.824 652) scale(0.026 -0.026)" /><use href="#g400-8d25" transform="translate(546.824 652) scale(0.026 -0.026)" /><use href="#g400-ff1a" transform="translate(572.824 652) scale(0.026 -0.026)" /><use href="#g400-5b9a" transform="translate(598.824 652) scale(0.026 -0.026)" /><use href="#g400-4f4d" transform="translate(624.824 652) scale(0.026 -0.026)" /><use href="#g400-5e76" transform="translate(650.824 652) scale(0.026 -0.026)" /><use href="#g400-4fee" transform="translate(676.824 652) scale(0.026 -0.026)" /><use href="#g400-6539" transform="translate(702.824 652) scale(0.026 -0.026)" /></g><path d="M675 485 L675 540" fill="none" stroke="#333333" stroke-width="1.8" marker-end="url(#arrow)" />
<path d="M880 620 L895 620 L895 425 L880 425" fill="none" stroke="#333333" stroke-width="1.8" marker-end="url(#arrow)" />
<rect x="20" y="750" width="860" height="120" rx="6" fill="#ffffff" stroke="#333333" stroke-width="1.8" />
<rect x="20" y="750" width="860" height="48" rx="6" fill="#dedede" stroke="#333333" stroke-width="1.8" />
<g aria-label="更新参考基础" fill="#292929" data-font="Source Han Sans CN 700" data-size="28.0"><use href="#g700-66f4" transform="translate(366.000 783) scale(0.028 -0.028)" /><use href="#g700-65b0" transform="translate(394.000 783) scale(0.028 -0.028)" /><use href="#g700-53c2" transform="translate(422.000 783) scale(0.028 -0.028)" /><use href="#g700-8003" transform="translate(450.000 783) scale(0.028 -0.028)" /><use href="#g700-57fa" transform="translate(478.000 783) scale(0.028 -0.028)" /><use href="#g700-7840" transform="translate(506.000 783) scale(0.028 -0.028)" /></g><g aria-label="经过验证的通用修复进入框架，领域用例保留在专用 Agent" fill="#292929" data-font="Source Han Sans CN 400" data-size="26.0"><use href="#g400-7ecf" transform="translate(112.819 830) scale(0.026 -0.026)" /><use href="#g400-8fc7" transform="translate(138.819 830) scale(0.026 -0.026)" /><use href="#g400-9a8c" transform="translate(164.819 830) scale(0.026 -0.026)" /><use href="#g400-8bc1" transform="translate(190.819 830) scale(0.026 -0.026)" /><use href="#g400-7684" transform="translate(216.819 830) scale(0.026 -0.026)" /><use href="#g400-901a" transform="translate(242.819 830) scale(0.026 -0.026)" /><use href="#g400-7528" transform="translate(268.819 830) scale(0.026 -0.026)" /><use href="#g400-4fee" transform="translate(294.819 830) scale(0.026 -0.026)" /><use href="#g400-590d" transform="translate(320.819 830) scale(0.026 -0.026)" /><use href="#g400-8fdb" transform="translate(346.819 830) scale(0.026 -0.026)" /><use href="#g400-5165" transform="translate(372.819 830) scale(0.026 -0.026)" /><use href="#g400-6846" transform="translate(398.819 830) scale(0.026 -0.026)" /><use href="#g400-67b6" transform="translate(424.819 830) scale(0.026 -0.026)" /><use href="#g400-ff0c" transform="translate(450.819 830) scale(0.026 -0.026)" /><use href="#g400-9886" transform="translate(476.819 830) scale(0.026 -0.026)" /><use href="#g400-57df" transform="translate(502.819 830) scale(0.026 -0.026)" /><use href="#g400-7528" transform="translate(528.819 830) scale(0.026 -0.026)" /><use href="#g400-4f8b" transform="translate(554.819 830) scale(0.026 -0.026)" /><use href="#g400-4fdd" transform="translate(580.819 830) scale(0.026 -0.026)" /><use href="#g400-7559" transform="translate(606.819 830) scale(0.026 -0.026)" /><use href="#g400-5728" transform="translate(632.819 830) scale(0.026 -0.026)" /><use href="#g400-4e13" transform="translate(658.819 830) scale(0.026 -0.026)" /><use href="#g400-7528" transform="translate(684.819 830) scale(0.026 -0.026)" /><use href="#g400-20" transform="translate(710.819 830) scale(0.026 -0.026)" /><use href="#g400-41" transform="translate(716.643 830) scale(0.026 -0.026)" /><use href="#g400-67" transform="translate(732.451 830) scale(0.026 -0.026)" /><use href="#g400-65" transform="translate(747.115 830) scale(0.026 -0.026)" /><use href="#g400-6e" transform="translate(761.519 830) scale(0.026 -0.026)" /><use href="#g400-74" transform="translate(777.379 830) scale(0.026 -0.026)" /></g><path d="M450 695 L450 750" fill="none" stroke="#333333" stroke-width="1.8" marker-end="url(#arrow)" />
<defs><path id="g700-53c2" d="M712 231 612 281C529 225 364 184 226 164C251 139 278 101 292 72C444 102 608 153 712 231ZM842 129 730 180C620 78 394 32 157 14C179 -14 203 -59 214 -92C475 -61 704 -4 842 129ZM631 340 533 394C485 367 401 341 323 323C353 354 380 387 405 424H601C674 316 783 222 897 168C915 198 951 242 978 266C889 299 803 358 739 424H958V530H467C478 552 488 575 497 599L755 609C777 589 796 570 810 553L912 621C855 684 741 769 654 825L559 765C587 746 617 724 647 701L366 694C420 726 474 764 522 803L414 862C344 793 245 732 213 715C183 698 160 687 136 683C148 652 165 597 171 574C198 583 231 587 362 593C352 571 342 550 330 530H47V424H254C192 355 114 300 23 262C50 240 95 192 113 168C172 198 226 234 276 278C293 260 308 240 319 225C419 247 545 289 631 340Z" /><path id="g700-8003" d="M907 756 814 809C783 769 748 729 710 692V746H509V850H390V746H153V648H390V569H68V468H422C300 392 167 330 35 285C51 259 74 204 81 177C164 210 248 248 329 292C303 236 273 178 247 133H678C665 74 650 40 633 28C620 20 606 19 583 19C552 19 471 21 403 26C425 -4 442 -51 444 -85C514 -88 580 -88 618 -86C667 -83 698 -76 728 -50C764 -19 787 49 809 181C813 197 816 230 816 230H423L457 303H844V395H503C539 418 573 443 607 468H945V569H730C796 628 855 690 907 756ZM509 569V648H664C634 621 602 594 569 569Z" /><path id="g700-20" d="" /><path id="g700-41" d="M-4 0H146L198 190H437L489 0H645L408 741H233ZM230 305 252 386C274 463 295 547 315 628H319C341 549 361 463 384 386L406 305Z" /><path id="g700-67" d="M276 -243C463 -243 581 -157 581 -44C581 54 507 96 372 96H276C211 96 188 112 188 141C188 165 198 177 212 190C237 181 263 177 284 177C405 177 501 240 501 365C501 400 490 426 472 448V452H571V560H370C346 568 317 574 284 574C166 574 59 503 59 372C59 306 95 253 134 225V221C100 197 72 158 72 117C72 70 93 41 123 22V17C70 -12 43 -52 43 -99C43 -198 144 -243 276 -243ZM284 268C236 268 197 305 197 372C197 437 235 473 284 473C334 473 373 437 373 372C373 305 334 268 284 268ZM298 -149C217 -149 165 -123 165 -77C165 -53 176 -31 201 -11C222 -16 245 -18 278 -18H347C407 -18 440 -29 440 -69C440 -112 383 -149 298 -149Z" /><path id="g700-65" d="M323 -14C392 -14 463 9 518 48L471 137C429 113 388 100 343 100C269 100 201 136 184 238H532C536 252 539 279 539 306C539 462 459 574 305 574C172 574 44 461 44 280C44 95 166 -14 323 -14ZM184 337C199 426 256 460 307 460C380 460 413 412 413 337Z" /><path id="g700-6e" d="M79 0H226V385C267 426 297 448 342 448C397 448 421 418 421 331V0H568V349C568 490 516 574 395 574C319 574 262 534 213 486H210L199 560H79Z" /><path id="g700-74" d="M284 -12C332 -12 373 -2 403 11L378 114C362 107 341 104 323 104C273 104 246 133 246 198V444H385V560H246V733H125L108 560L21 553V444H100V197C100 72 151 -12 284 -12Z" /><path id="g700-ff1a" d="M250 469C303 469 345 509 345 563C345 618 303 658 250 658C197 658 155 618 155 563C155 509 197 469 250 469ZM250 -8C303 -8 345 32 345 86C345 141 303 181 250 181C197 181 155 141 155 86C155 32 197 -8 250 -8Z" /><path id="g700-822a" d="M710 859 594 828C613 787 634 732 645 692H449V587H962V692H698L769 714C757 753 732 813 710 859ZM262 307 198 280 199 329H329V31C329 19 325 15 314 15C303 15 270 14 237 16C250 -11 265 -57 268 -86C326 -86 366 -83 396 -65C409 -57 418 -47 424 -33C451 -47 494 -76 513 -94C612 10 630 178 630 301V408H752V59C752 -15 758 -37 774 -55C791 -72 816 -80 840 -80C853 -80 872 -80 888 -80C907 -80 929 -75 942 -65C956 -53 966 -37 972 -13C978 10 981 71 983 120C957 128 926 144 908 161C907 110 906 71 905 53C904 36 902 27 899 23C896 20 891 19 887 19C883 19 878 19 875 19C870 19 867 20 865 23C863 27 863 40 863 62V512H519V303C519 203 511 75 429 -19C432 -5 433 10 433 29V730H296L332 834L212 853C208 817 199 770 190 730H95V425H30V329H95C94 207 86 60 24 -41C49 -52 95 -81 114 -99C174 -3 192 141 197 266C218 221 242 166 252 129L326 163C314 202 286 262 262 307ZM267 613 199 588V637H329V425H199V577C217 534 236 481 244 447L319 479C309 515 287 570 267 613Z" /><path id="g700-7a7a" d="M617 590 540 508C640 459 783 384 852 340L934 435C858 479 711 547 617 590ZM460 515 377 589C290 524 179 469 69 435L137 326L192 351V249H432V53H69V-56H935V53H560V249H815V356H203C295 400 389 457 460 515ZM530 860 402 824C413 798 425 766 436 737H62V491H180V628H815V511H940V737H584C570 774 548 823 530 860Z" /><path id="g700-5ba2" d="M530 862 410 833 442 768H70V546H187V659H375C325 585 232 509 93 457C119 438 156 396 172 368C217 389 258 411 295 435C322 408 352 383 384 360C276 314 151 282 27 264C48 237 73 188 84 157C128 165 171 175 214 186V-90H331V-59H670V-88H793V193C827 186 863 180 899 175C915 209 949 263 976 290C846 303 725 328 621 365C693 417 754 479 798 551L716 600L696 594H473L504 636L392 659H809V546H932V768H581C565 799 546 834 530 862ZM387 505H615C583 473 544 444 501 418C455 443 415 470 383 501ZM499 291C552 265 609 242 670 224H341C396 243 449 266 499 291ZM331 40V125H670V40Z" /><path id="g700-670d" d="M407 41V815H91V450C91 303 87 101 24 -36C51 -46 100 -74 121 -91C163 0 183 123 192 242H296V42C296 29 292 25 280 24C268 24 230 24 195 26C209 -5 223 -59 226 -90C292 -90 335 -87 367 -67C399 -48 407 -14 407 41ZM199 704H296V588H199ZM199 450V477H296V355H198ZM839 814H463V-90H576V-8C598 -29 624 -65 637 -88C685 -59 729 -23 768 20C810 -24 857 -61 910 -90C927 -61 960 -19 985 2C929 28 879 65 836 109C892 199 933 311 956 446L885 469L866 465H576V703H810V622C810 610 805 607 789 606C774 605 714 605 664 608C678 580 694 538 699 507C775 507 833 507 873 523C914 538 925 567 925 620V814ZM826 356C810 300 789 248 762 201C731 248 705 301 685 356ZM582 356C612 264 650 180 699 108C663 65 621 30 576 4V356Z" /><path id="g400-63d0" d="M479 537V618H812V537ZM479 671V751H812V671ZM885 808H409V480H885ZM498 289 429 297C413 149 369 36 280 -35C296 -45 324 -67 336 -79C388 -32 428 29 456 104C521 -37 627 -65 773 -65H947C951 -46 961 -14 971 2C936 1 801 1 776 1C742 1 710 2 680 7V165H890V227H680V345H939V408H364V345H609V27C552 51 508 97 479 181C487 215 493 251 498 289ZM234 14V296L345 333L335 401L234 370V568H345V638H234V839H164V638H40V568H164V348C113 332 66 319 29 309L48 235L164 273V14C164 0 159 -4 147 -4C135 -5 96 -5 53 -4C62 -24 72 -55 74 -73C137 -74 176 -71 200 -59C225 -48 234 -27 234 14Z" /><path id="g400-793a" d="M311 330 234 351C191 238 117 127 35 56C55 46 88 24 104 11C183 88 262 207 311 330ZM753 349 684 320C756 224 832 94 859 10L934 44C904 129 826 255 753 349ZM853 766H149V692H853ZM941 523H60V449H461V19C461 3 455 -1 437 -2C418 -3 352 -3 284 0C296 -23 308 -56 311 -79C400 -79 459 -78 494 -66C530 -53 542 -31 542 18V449H941Z" /><path id="g400-8bcd" d="M155 808 107 762C161 715 228 650 259 607L310 660C278 701 209 764 155 808ZM778 620H393V555H778ZM184 -52C198 -33 224 -13 392 111C385 125 375 154 370 174L266 101V526H46V454H196V102C196 51 160 14 141 -1C153 -12 176 -37 184 -52ZM923 17V790H368V720H851V17C851 0 845 -5 828 -6C810 -6 750 -7 689 -4C699 -25 710 -60 714 -80C796 -80 850 -79 881 -67C912 -54 923 -30 923 17ZM730 454H433V67H500V134H730ZM500 389H662V200H500Z" /><path id="g400-ff1a" d="M250 486C290 486 326 515 326 560C326 606 290 636 250 636C210 636 174 606 174 560C174 515 210 486 250 486ZM250 -4C290 -4 326 26 326 71C326 117 290 146 250 146C210 146 174 117 174 71C174 26 210 -4 250 -4Z" /><path id="g400-53d6" d="M870 728H506V656H556C584 479 624 323 687 195C628 100 557 25 479 -24C496 -37 517 -62 528 -80C602 -29 669 38 727 123C777 42 839 -25 915 -74C926 -54 950 -28 967 -14C886 33 821 104 770 192C847 329 902 503 929 718L883 730ZM850 656C826 508 784 379 730 270C679 381 645 513 623 656ZM38 130 55 58 356 110V-78H429V123L518 140L514 203L429 189V725H502V793H48V725H115V141ZM187 725H356V585H187ZM187 520H356V375H187ZM187 309H356V178L187 152Z" /><path id="g400-6d88" d="M935 784 863 812C838 753 793 673 757 622L821 595C856 644 900 717 935 784ZM414 807 351 778C394 720 436 641 452 590L519 623C502 674 457 750 414 807ZM130 829 85 778C147 745 222 693 258 656L304 714C267 751 191 799 130 829ZM81 563 38 510C101 478 178 426 216 391L260 450C221 485 144 533 81 563ZM69 -21 134 -70C187 25 249 151 295 258L239 303C188 189 118 56 69 -21ZM453 377V484H822V377ZM453 312H822V203H453ZM679 841H604V555H379V-80H453V139H822V15C822 1 817 -3 802 -4C786 -5 733 -5 676 -3C686 -23 697 -54 700 -74C776 -74 826 -74 857 -62C886 -50 895 -27 895 14V555H679Z" /><path id="g400-4e0e" d="M681 238H57V166H681ZM336 810 261 818C236 680 195 492 164 379H807C784 150 758 45 721 15C708 4 694 3 669 3C640 3 562 4 484 11C499 -10 510 -41 512 -64C583 -68 655 -70 691 -68C734 -65 760 -59 786 -33C832 11 859 127 888 413C890 424 891 450 891 450H261C273 504 287 567 300 630H876V702H315Z" /><path id="g400-8f6c" d="M40 167 56 94 243 130V-76H315V144L450 171L446 236L315 213V346H418V414H315V567H243V414H145C177 484 208 567 234 653H417V723H255C264 757 272 791 280 825L207 840C201 801 192 762 183 723H46V653H165C142 571 118 503 107 478C89 434 75 402 58 398C67 380 77 346 81 332C89 340 120 346 154 346H243V201ZM959 535H671L703 653H923V723H722L750 830L675 840L646 723H465V653H627L594 535H426V464H573C552 394 531 329 513 278H801C766 228 723 168 682 115C647 137 612 160 579 179L531 131C632 70 751 -22 810 -81L860 -23C830 6 787 40 738 76C802 158 871 253 921 327L868 353L856 348H615L650 464H959Z" /><path id="g400-63a5" d="M513 659 456 635C485 595 515 539 528 504L588 532C575 566 543 619 513 659ZM230 10V295L329 327L319 397L230 369V568H330V638H230V839H160V638H41V568H160V347C110 332 64 318 28 309L47 235L160 272V9C160 -4 155 -8 143 -8C132 -8 96 -8 57 -7C66 -27 76 -59 78 -77C136 -78 173 -75 196 -63C220 -51 230 -31 230 10ZM637 832 568 821C584 795 600 764 613 735H383V669H926V735H692C678 766 657 803 637 832ZM840 637 769 658C751 611 714 544 685 501H348V436H952V501H758C785 540 814 591 840 637ZM765 261C745 198 715 148 671 108C615 130 558 151 503 168C523 196 544 228 564 261ZM963 326H601C618 357 633 388 646 418L576 432C562 398 544 362 524 326H335V261H486C457 214 427 171 400 136C465 116 537 91 606 62C536 23 443 -1 320 -14C333 -30 345 -57 352 -78C496 -57 604 -24 682 29C764 -8 837 -47 886 -82L935 -25C886 9 817 44 742 78C788 126 820 186 840 261H963Z" /><path id="g400-89c4" d="M899 791H476V259H548V725H824V259H899ZM279 506V604H416V674H279V830H208V674H65V604H208V505L207 442H43V371H204C194 235 158 83 36 -17C54 -30 79 -55 90 -70C185 15 233 126 256 239C300 184 359 107 383 68L434 123C411 154 310 275 269 316L275 371H428V442H278ZM722 447V640H652V448C652 293 620 104 368 -25C383 -36 406 -64 415 -79C568 0 647 108 686 217V27C686 -40 711 -59 776 -59H857C939 -59 951 -19 959 137C941 141 916 152 898 166C894 27 889 1 857 1H786C761 1 753 8 753 35V290H707C718 344 722 398 722 447Z" /><path id="g400-5219" d="M368 161 322 114C385 63 465 -10 503 -55L550 0C512 43 431 112 368 161ZM535 786H103V179H173V718H462V182H535ZM908 26V833H834V26C834 7 826 1 807 1C788 0 725 -1 654 2C666 -20 678 -53 682 -75C774 -75 829 -73 863 -61C894 -48 908 -25 908 26ZM718 750H647V151H718ZM351 364V650H280V366C280 229 255 78 45 -25C59 -37 83 -65 91 -81C315 28 351 211 351 364Z" /><path id="g400-5de5" d="M951 72H539V650H900V727H104V650H456V72H52V-3H951Z" /><path id="g400-5177" d="M653 137 605 84C716 32 832 -32 902 -81L962 -25C887 22 766 86 653 137ZM398 88 328 133C266 79 141 13 40 -26C58 -40 83 -65 95 -81C195 -40 319 25 398 88ZM802 792H212V209H52V141H951V209H802ZM284 209V300H727V209ZM284 644V730H727V644ZM284 586H727V501H284ZM284 444H727V357H284Z" /><path id="g400-63" d="M308 -13C376 -13 437 14 482 57L442 113C409 83 364 63 315 63C214 63 146 146 146 271C146 396 219 480 317 480C363 480 398 463 426 437L471 493C434 530 384 557 313 557C173 557 52 452 52 271C52 91 162 -13 308 -13Z" /><path id="g400-61" d="M217 -13C284 -13 345 22 397 65H400L408 0H483V334C483 469 428 557 295 557C207 557 131 519 82 486L117 425C160 452 217 481 280 481C369 481 392 414 392 344C161 318 59 259 59 141C59 43 126 -13 217 -13ZM243 61C189 61 147 85 147 147C147 217 209 262 392 283V132C339 85 295 61 243 61Z" /><path id="g400-6e" d="M92 0H184V394C238 449 276 477 332 477C404 477 435 434 435 332V0H526V344C526 482 474 557 360 557C286 557 229 516 178 464H176L167 543H92Z" /><path id="g400-65" d="M312 -13C385 -13 443 10 490 42L459 100C419 75 375 60 322 60C228 60 149 124 140 250H508C510 264 512 282 512 302C512 457 434 557 295 557C171 557 52 448 52 271C52 92 167 -13 312 -13ZM141 315C154 433 228 484 297 484C382 484 432 425 432 315Z" /><path id="g400-6c" d="M188 -11C211 -11 228 -7 241 0L228 67C220 65 215 65 210 65C195 65 184 75 184 105V796H92V111C92 33 120 -11 188 -11Z" /><path id="g400-5f" d="M13 -140H545V-80H13Z" /><path id="g400-6f" d="M303 -13C436 -13 554 91 554 271C554 452 436 557 303 557C170 557 52 452 52 271C52 91 170 -13 303 -13ZM303 63C209 63 146 146 146 271C146 396 209 480 303 480C397 480 461 396 461 271C461 146 397 63 303 63Z" /><path id="g400-72" d="M92 0H184V349C220 441 275 475 320 475C343 475 354 473 370 468L390 545C373 554 356 557 332 557C270 557 215 513 178 444H176L167 543H92Z" /><path id="g400-64" d="M277 -13C342 -13 400 22 442 64H445L453 0H528V796H436V587L441 494C393 533 352 557 288 557C164 557 53 447 53 271C53 90 141 -13 277 -13ZM297 64C202 64 147 141 147 272C147 396 217 480 304 480C349 480 391 464 436 423V138C391 88 347 64 297 64Z" /><path id="g400-8fd0" d="M884 777H380V706H884ZM118 786 68 738C127 697 206 639 245 604L297 658C256 693 175 748 118 786ZM750 432 688 403C720 352 757 291 789 233L459 209C512 286 564 384 605 478H955V549H314V478H515C477 377 422 280 404 253C383 221 367 198 349 195C358 174 371 135 375 119C405 132 449 136 825 169L864 93L931 128C892 204 812 335 750 432ZM252 105V490H42V420H179V101C136 82 86 38 37 -15L90 -84C139 -17 189 42 222 42C245 42 280 9 320 -16C391 -59 474 -71 597 -71C705 -71 876 -65 944 -61C945 -39 958 0 967 21C864 10 713 2 599 2C488 2 403 9 336 51C297 75 273 95 252 105Z" /><path id="g400-884c" d="M927 780H435V708H927ZM339 811 267 841C216 768 119 679 35 623C48 608 69 579 79 562C169 626 272 724 339 811ZM955 504H391V432H728V17C728 1 721 -4 702 -5C684 -6 616 -6 545 -3C556 -25 567 -56 570 -77C668 -77 725 -77 759 -66C792 -53 804 -30 804 16V432H955ZM377 600 307 626C238 512 128 396 25 322C40 307 67 274 78 259C115 289 154 325 192 364V-83H266V446C307 496 346 548 377 600Z" /><path id="g400-6846" d="M946 712V781H396V-31H962V37H468V712ZM931 200H744V356H902V420H744V560H923V625H512V560H674V420H529V356H674V200H503V134H931ZM259 842H190V633H43V562H184C153 430 90 279 27 201C39 183 57 151 64 130C110 193 156 296 190 403V-77H259V446C292 400 331 343 348 312L388 377C369 400 290 495 259 527V562H370V633H259Z" /><path id="g400-67b6" d="M631 485V693H837V485ZM912 759H560V418H912ZM537 394H459V297H61V230H404C317 132 172 43 40 0C56 -16 78 -44 90 -62C221 -12 366 85 459 196V-81H537V190C630 83 771 -7 906 -54C918 -35 940 -6 957 9C818 49 675 132 589 230H928V297H537ZM287 839H214C213 802 211 768 208 735H55V668H199C180 558 137 475 36 423C52 410 73 384 82 366C201 430 250 533 272 668H412C403 539 393 488 379 472C372 464 363 462 350 463C335 463 300 463 262 467C273 449 280 420 282 400C322 398 361 398 382 400C407 402 424 408 440 426C463 453 474 524 486 704C487 714 488 735 488 735H280C283 768 285 803 287 839Z" /><path id="g400-6a21" d="M472 345V417H820V345ZM472 472V542H820V472ZM805 840H732V757H578V840H507V757H360V693H507V618H578V693H732V618H805V693H945V757H805ZM893 599H402V289H606C602 259 598 232 591 206H340V142H569C531 65 459 12 312 -20C326 -35 345 -63 352 -80C526 -38 607 34 647 140C697 30 790 -44 920 -80C930 -60 950 -32 966 -18C853 6 767 61 719 142H943V206H666C671 232 676 260 679 289H893ZM247 840H175V647H50V577H175V576C148 440 90 281 32 197C45 179 63 146 72 124C110 183 146 274 175 372V-79H247V436C274 383 305 320 318 286L365 340C349 371 273 496 247 535V577H350V647H247Z" /><path id="g400-578b" d="M704 783H635V448H704ZM893 386V834H822V387C822 374 818 370 802 369C787 368 737 368 680 370C691 350 701 321 705 301C776 301 825 302 855 314C885 325 893 344 893 386ZM264 601V733H388V595H264ZM573 595H459V733H552V799H100V733H195V602V595H67V528H189C178 461 145 393 59 340C73 330 98 302 108 288C210 351 248 441 259 528H388V313H459V528H573ZM544 332H467V221H151V152H467V25H47V-45H952V25H544V152H848V221H544Z" /><path id="g400-8bf7" d="M155 818 107 772C159 725 225 659 256 617L307 670C276 711 208 773 155 818ZM184 -62C198 -41 224 -20 393 110C384 125 372 153 367 173L264 96V526H42V454H192V88C192 44 162 14 144 2C157 -13 177 -44 184 -62ZM494 265V342H808V265ZM494 212H808V130H494ZM688 840H614V762H382V704H614V640H407V585H614V516H352V458H960V516H688V585H899V640H688V704H929V762H688ZM880 4V400H424V-79H494V75H808V5C808 -7 803 -11 790 -12C776 -13 728 -13 677 -11C687 -29 696 -57 699 -76C770 -76 816 -76 843 -64C872 -53 880 -33 880 4Z" /><path id="g400-6c42" d="M174 540 117 501C180 444 252 363 283 309L344 354C311 408 237 485 174 540ZM43 89 90 21C193 81 330 163 460 242V22C460 2 453 -3 434 -4C414 -4 349 -5 280 -2C292 -25 303 -60 308 -82C396 -82 456 -80 490 -67C523 -54 537 -31 537 22V420C623 235 749 82 912 3C925 24 949 53 967 69C858 116 763 198 687 299C753 356 835 437 896 508L832 554C786 492 711 412 648 355C603 426 565 505 537 586V599H939V672H815L859 721C818 755 737 802 674 834L629 786C690 754 765 707 805 672H537V838H460V672H65V599H460V320C308 233 145 141 43 89Z" /><path id="g400-20" d="" /><path id="g400-2192" d="M649 182 709 147C776 235 876 323 965 380C876 437 776 525 709 613L649 578C694 516 760 453 811 414H40V346H811C760 307 694 244 649 182Z" /><path id="g400-8c03" d="M154 818 105 772C159 726 226 659 256 615L309 668C277 710 209 774 154 818ZM924 10V795H383V422C383 327 380 215 351 112C343 127 334 147 329 163L257 108V526H43V454H184V107C184 54 148 15 128 -1C142 -12 166 -37 175 -52C188 -35 211 -15 345 90C330 44 310 0 283 -39C298 -47 327 -68 338 -79C436 57 450 268 450 422V728H856V11C856 -4 851 -9 836 -9C822 -10 775 -10 723 -8C733 -27 744 -58 747 -77C818 -77 861 -76 888 -65C915 -52 924 -30 924 10ZM681 698H620V614H512V556H620V454H490V397H818V454H681V556H793V614H681ZM570 315H512V35H570V81H781V315ZM570 259H723V138H570Z" /><path id="g400-7528" d="M887 22V770H153V407C153 266 143 89 32 -36C49 -45 79 -70 90 -85C167 0 201 115 216 227H467V-71H543V227H813V22C813 4 806 -2 786 -3C767 -4 699 -5 629 -2C639 -22 651 -55 655 -74C749 -75 807 -74 841 -62C875 -50 887 -27 887 22ZM227 698H467V537H227ZM813 698V537H543V698ZM227 407V466H467V298H223C226 336 227 373 227 407ZM813 466V298H543V466Z" /><path id="g400-51b3" d="M109 800 51 764C108 701 175 615 205 559L268 602C237 657 167 740 109 800ZM38 11 103 -34C157 61 220 188 268 297L212 343C159 226 87 91 38 11ZM637 506V610H789V379H631C636 422 637 465 637 506ZM962 379H861V682H637V838H558V682H358V610H558V506C558 465 557 423 553 379H306V307H541C514 185 441 65 249 -22C267 -37 292 -66 303 -82C496 14 578 145 613 279C668 108 763 -16 917 -78C929 -58 951 -28 968 -13C820 38 726 153 677 307H962Z" /><path id="g400-7b56" d="M652 826 578 844C546 754 487 670 417 616C430 608 450 595 465 584V549H68V483H465V405H140V146H218V340H465V253C376 143 209 54 43 15C59 -1 80 -29 91 -48C228 -9 367 66 465 163V-80H545V161C632 80 764 -2 920 -43C931 -24 953 6 968 22C784 63 625 156 545 245V340H795V219C795 209 792 206 781 206C769 205 731 205 690 206C699 190 711 166 715 147C772 147 812 147 838 157C865 168 872 184 872 219V405H545V483H929V549H545V613H523C543 636 563 661 581 688H656C682 649 706 605 716 573L782 596C774 621 755 656 734 688H942V752H619C631 776 642 801 652 826ZM262 825 191 844C157 756 98 670 33 613C51 603 82 582 96 571C128 603 160 643 190 688H238C260 649 281 602 291 571L357 595C349 620 332 655 314 688H485V752H227C240 776 252 800 262 825Z" /><path id="g400-6821" d="M601 567 533 597C498 527 434 442 368 388C385 377 409 357 421 343C488 402 555 487 601 567ZM771 603 719 563C785 499 859 409 891 350L947 395C914 453 837 540 771 603ZM637 846 574 819C605 782 638 729 653 693H400V623H949V693H658L721 723C706 758 671 808 637 846ZM833 403 760 421C739 341 705 270 660 207C611 269 572 340 545 417L479 399C512 306 557 221 613 149C547 78 463 20 361 -24C376 -37 399 -65 409 -80C509 -35 593 23 661 94C731 20 815 -37 914 -74C926 -53 948 -22 966 -7C866 25 779 80 709 151C764 223 805 307 833 403ZM262 840H193V628H63V558H180C151 421 91 260 30 176C43 158 62 125 69 105C115 174 160 289 193 406V-79H262V420C290 366 322 299 336 264L381 321C363 352 286 485 262 517V558H375V628H262Z" /><path id="g400-9a8c" d="M31 148 47 85C122 106 214 130 303 157L297 214C198 189 101 163 31 148ZM831 530H533V465H831ZM526 376 467 362C496 286 523 186 531 121L593 138C584 203 555 301 526 376ZM702 396 644 387C661 312 679 212 684 147L746 157C740 222 722 320 702 396ZM171 652 107 656C100 548 88 399 75 311H344C331 105 315 24 294 2C286 -8 275 -10 259 -10C240 -10 195 -9 145 -4C156 -22 164 -48 165 -67C214 -70 260 -71 285 -68C315 -66 333 -60 350 -39C382 -7 396 87 412 342C413 351 414 373 414 373L347 372H335C347 480 362 660 372 795H64V730H303C295 610 282 468 270 372H147C156 456 165 565 171 652ZM733 826 667 847C605 707 495 584 374 507C388 493 411 462 419 448C514 514 605 608 674 717C744 620 846 517 936 451C944 471 961 503 974 520C882 580 774 686 710 780ZM945 35H793C842 127 897 259 938 365L870 382C837 277 777 128 727 35H435V-31H945Z" /><path id="g400-6267" d="M247 11V296L364 334L353 404L247 371V560H350V630H247V840H175V630H48V560H175V348L33 307L53 234L175 273V11C175 -3 169 -7 157 -7C145 -8 107 -8 63 -7C73 -28 82 -60 85 -79C149 -79 188 -77 212 -64C237 -52 247 -31 247 11ZM599 841H525C527 764 528 693 527 626H373V557H526C524 489 519 426 510 368L416 421L374 370C412 348 455 323 497 297C464 157 399 52 276 -21C291 -35 320 -69 329 -83C455 2 524 111 560 257C614 222 662 189 694 162L739 222C700 252 639 291 575 329C587 398 594 473 597 557H750C745 158 737 -80 867 -80C929 -80 953 -42 962 92C944 98 916 112 900 126C897 26 889 -8 870 -8C813 -8 817 211 827 626H599C600 693 600 764 599 841Z" /><path id="g400-7ed3" d="M35 53 48 -24C147 -2 280 26 406 55L400 124C266 97 128 68 35 53ZM63 184C87 197 123 205 402 256C400 272 397 301 398 321L175 285C254 372 334 479 401 587L334 629C315 593 292 557 270 522L137 511C196 594 254 700 298 802L221 834C181 717 110 593 87 561C66 529 48 506 30 502C39 481 52 443 56 427C71 434 96 439 223 454C178 391 136 341 117 322C84 286 61 262 38 257C47 237 59 200 63 184ZM716 841H639V706H408V634H639V478H433V406H926V478H716V634H943V706H716ZM532 32V236H826V32ZM901 304H459V-79H532V-36H826V-75H901Z" /><path id="g400-679c" d="M848 792H159V394H461V309H62V240H400C310 144 167 58 36 15C53 -1 76 -28 88 -47C220 3 364 98 461 208V-80H540V213C639 106 785 9 914 -42C925 -23 948 5 965 21C839 63 694 148 601 240H939V309H540V394H848ZM236 459V563H461V459ZM540 563H767V459H540ZM236 625V727H461V625ZM540 727H767V625H540Z" /><path id="g400-5199" d="M923 786H78V590H153V716H845V590H923ZM658 211H91V142H658ZM375 688 300 696C278 578 242 415 215 319H745C726 122 704 36 675 11C664 1 652 0 629 0C603 0 536 1 466 7C480 -13 489 -43 491 -64C556 -68 621 -69 654 -67C692 -65 715 -58 738 -35C777 3 799 103 823 352C825 363 826 387 826 387H310L339 514H799V580H353Z" /><path id="g400-56de" d="M374 271V500H618V271ZM692 568H303V204H692ZM159 46V724H839V46ZM919 799H82V-79H159V-25H839V-79H919Z" /><path id="g400-72b6" d="M798 806 741 774C785 719 836 643 859 596L920 634C896 680 843 752 798 806ZM106 709 49 674C96 615 152 537 175 486L237 528C212 577 155 653 106 709ZM663 605V838H589V605L588 545H356V471H583C568 306 512 120 327 -30C347 -43 373 -63 388 -78C539 47 609 197 640 344C695 156 782 6 918 -78C930 -59 955 -30 973 -16C816 70 723 252 675 471H951V545H662ZM32 194 76 130C127 176 188 234 247 290V-78H321V841H247V382C168 309 86 237 32 194Z" /><path id="g400-6001" d="M444 449 381 409C440 375 511 323 543 286L610 330C574 367 503 417 444 449ZM344 45V241H270V45C270 -36 300 -58 416 -58C441 -58 624 -58 650 -58C746 -58 770 -27 780 99C759 105 728 115 711 128C706 26 698 11 645 11C604 11 450 11 420 11C355 11 344 16 344 45ZM467 299 410 265C467 213 537 138 568 91L630 131C596 179 525 249 467 299ZM816 256 750 235C800 150 851 36 868 -35L940 -9C921 62 868 173 816 256ZM221 219 154 241C135 161 100 59 54 -6L122 -40C166 28 199 136 221 219ZM544 844H466C461 795 455 746 444 699H56V629H424C377 499 278 391 45 333C61 316 80 287 88 269C347 339 454 471 504 629C579 449 710 328 907 274C918 295 940 326 958 343C778 384 651 485 582 629H948V699H522C532 746 539 794 544 844Z" /><path id="g400-66f4" d="M252 238 188 212C222 154 264 108 313 71C252 36 166 7 47 -15C63 -32 83 -64 92 -81C222 -53 315 -16 382 28C519 -45 704 -67 937 -77C941 -52 955 -20 969 -2C745 3 572 18 443 76C495 127 522 185 534 247H873V634H545V719H935V787H65V719H467V634H156V247H455C443 199 420 154 374 114C326 145 285 186 252 238ZM545 369V411H798V309H543C544 329 545 349 545 369ZM228 309V411H467V370C467 349 467 329 465 309ZM545 571H798V471H545ZM228 471V571H467V471Z" /><path id="g400-65b0" d="M410 240 360 213C390 163 425 96 442 51L496 83C480 125 444 190 410 240ZM196 220 135 235C115 174 82 112 42 68C57 60 82 41 93 31C133 78 172 150 196 220ZM623 400V432H775V-75H848V432H958V502H623V693C728 710 843 736 926 766L865 821C793 791 665 762 553 744V400C553 267 545 95 460 -25C476 -34 506 -57 518 -71C610 59 623 256 623 400ZM282 844 214 827C229 799 245 765 258 735H61V672H503V735H335C322 767 301 810 282 844ZM320 17V273H507V339H320V443H519V507H392C410 550 430 603 447 652L377 667C365 621 342 553 323 507H46V443H251V339H50V273H251V18C251 8 249 5 239 5C228 4 197 4 162 5C171 -13 182 -41 184 -59C232 -59 267 -58 290 -47C313 -36 320 -18 320 17ZM187 665 126 651C146 606 161 546 165 507L229 525C225 563 207 622 187 665Z" /><path id="g400-4e0b" d="M534 527 520 511V691H946V766H55V691H441V-79H520V451C635 389 769 306 839 250L891 319C812 379 653 469 534 527Z" /><path id="g400-4e00" d="M960 431H44V349H960Z" /><path id="g400-8f6e" d="M723 828 644 842C601 724 511 577 374 472C390 460 414 434 426 417C534 504 615 612 671 717C735 604 825 491 906 425C919 444 943 470 960 483C869 548 765 674 708 791ZM868 364 817 427C757 379 666 320 586 276V472H511V58C511 -29 537 -53 635 -53C654 -53 786 -53 807 -53C894 -53 915 -15 924 123C903 128 872 141 855 153C851 36 844 15 802 15C774 15 664 15 642 15C594 15 586 21 586 58V198C675 241 786 307 868 364ZM40 167 56 94 232 128V-75H299V141L420 166L415 232L299 211V346H398L399 414H299V569H232V414H144C172 483 199 565 222 650H401V722H240C249 757 256 792 262 826L193 840C188 801 180 761 172 722H47V650H155C134 569 113 502 103 477C87 432 73 400 57 395C65 378 75 346 79 332C87 340 118 346 151 346H232V199Z" /><path id="g400-6216" d="M736 837 692 791C753 761 827 716 863 681L909 734C872 767 797 811 736 837ZM62 66 77 -11C192 14 357 50 511 84L505 155C342 121 171 86 62 66ZM195 278V452H399V278ZM472 518H125V213H472ZM936 680H635C632 731 631 784 631 838H552C552 785 554 732 557 680H68V606H561C573 443 596 293 632 175C564 95 484 29 391 -22C408 -35 437 -65 449 -80C528 -32 599 26 661 94C706 -15 766 -81 843 -81C920 -81 948 -31 962 141C941 149 913 166 896 184C890 50 877 -3 850 -3C800 -3 755 60 719 164C793 264 853 381 897 516L822 534C790 430 746 337 692 255C667 353 649 473 639 606H936Z" /><path id="g400-9000" d="M138 800 80 760C135 711 199 641 227 595L288 640C257 686 191 753 138 800ZM780 639H467V733H780ZM780 580V483H467V580ZM853 795H391V216C391 174 367 155 350 145C362 131 379 101 384 83C404 96 435 106 644 165C642 180 640 208 640 228L467 184V420H853ZM611 388 560 350C667 273 796 161 856 86L912 130C878 170 825 219 767 267C821 298 882 339 933 378L873 422C835 388 773 340 719 307C683 336 645 364 611 388ZM259 107V484H52V414H188V105C143 88 92 48 41 -2L87 -64C141 -3 193 51 229 51C252 51 284 21 326 -3C395 -43 482 -53 600 -53C696 -53 871 -47 944 -43C945 -22 957 13 965 32C867 21 718 14 602 14C493 14 407 21 342 56C304 78 281 97 259 107Z" /><path id="g400-51fa" d="M187 341H104V-21H814V-78H895V341H814V54H539V404H855V750H774V477H539V839H457V477H228V749H150V404H457V54H187Z" /><path id="g700-65b0" d="M206 201 113 225C94 171 63 114 27 76C49 63 87 35 105 19C143 64 182 135 206 201ZM432 234 354 191C382 144 417 81 432 40L513 90C502 56 487 23 468 -6C493 -19 541 -56 560 -77C647 49 660 254 660 401V408H758V-85H874V408H968V519H660V676C758 694 862 719 945 751L852 840C778 806 657 774 548 754V401C548 306 545 191 513 92C497 131 463 190 432 234ZM337 36V251H503V352H337V429H520V527H415C429 559 445 597 460 637L374 653H504V750H345C333 783 317 824 301 855L195 830C205 806 215 777 224 750H53V653H189L106 633C120 601 131 559 136 527H38V429H229V352H44V251H229V38C229 28 226 25 215 25C204 25 172 25 142 26C156 -2 170 -44 174 -72C228 -72 268 -71 298 -55C329 -38 337 -12 337 36ZM202 653H351C341 616 323 565 308 527H189L237 540C233 571 220 618 202 653Z" /><path id="g700-7535" d="M558 491V588H754V491ZM429 491H235V588H429ZM558 381H754V288H558ZM429 381V288H235V381ZM235 705H111V112H235V170H429V117C429 -37 468 -78 606 -78C637 -78 764 -78 798 -78C919 -78 957 -20 973 138C944 144 906 159 876 176V705H558V844H429V705ZM558 116V170H854C846 69 834 43 785 43C758 43 647 43 620 43C565 43 558 52 558 116Z" /><path id="g700-5546" d="M545 855 424 826 455 754H55V653H328L262 632C277 601 296 561 308 531H102V-87H216V435H395C350 394 277 351 219 322C234 299 258 243 264 223L302 248V-7H402V34H692V262L732 226L792 291V22C792 8 786 3 769 3C755 2 697 2 648 4C662 -20 676 -58 681 -84C761 -84 816 -84 852 -69C889 -55 902 -31 902 22V531H694C714 561 736 596 757 632L653 653H948V754H592C579 786 561 825 545 855ZM792 435V314C750 349 682 398 628 435ZM356 531 429 557C419 581 398 621 380 653H626C614 616 594 569 574 531ZM478 395 398 435H596L541 380C580 351 629 314 670 280H346C394 316 443 358 478 395ZM402 197H596V116H402Z" /><path id="g400-6b3e" d="M187 203 124 219C101 149 67 71 32 17C49 10 78 -3 92 -12C124 44 161 129 187 203ZM433 219 376 196C404 145 436 75 449 34L510 62C495 102 461 169 433 219ZM748 468V516H677V469C677 331 663 128 484 -31C503 -42 529 -65 542 -81C642 10 694 116 721 217C762 86 825 -21 918 -79C930 -59 953 -31 970 -17C851 47 780 200 745 372C747 406 748 438 748 468ZM318 837H247V745H51V681H247V595H74V532H493V595H318V681H513V745H318ZM318 -1V253H523V317H39V253H248V0C248 -10 245 -13 233 -13C222 -14 187 -14 147 -13C156 -32 166 -59 169 -78C226 -78 263 -78 287 -67C312 -56 318 -36 318 -1ZM890 659H642C654 714 665 771 673 829L600 840C580 683 543 531 481 432V457H85V394H481V425C498 415 528 394 540 383C574 439 601 510 624 590H867C853 523 835 452 816 404L878 385C905 451 933 557 952 646L902 662Z" /><path id="g400-7269" d="M909 672H557C575 721 590 773 603 827L534 840C501 688 441 545 357 454C374 444 403 423 416 412C459 463 497 528 529 602H616C570 441 481 273 375 189C395 178 420 160 434 145C544 241 635 429 681 602H763C711 349 603 100 438 -18C460 -29 486 -48 501 -63C667 69 778 338 829 602H876C856 203 834 54 802 18C791 5 781 2 764 2C745 2 705 3 660 7C672 -14 679 -46 681 -68C725 -71 769 -71 795 -68C825 -64 845 -56 865 -28C905 21 927 178 949 634C950 644 951 672 951 672ZM395 635H292V839H222V635H144C151 680 158 726 163 772L98 782C86 659 66 532 29 448C44 441 73 423 86 414C103 455 118 507 130 563H222V337C152 317 86 298 35 285L55 213L222 265V-80H292V287L418 327L408 393L292 358V563H395Z" /><path id="g400-6d41" d="M644 361H577V-37H644ZM468 257V362H400V259C400 167 387 56 264 -28C281 -39 306 -62 317 -77C452 19 468 148 468 257ZM825 37V362H755V44C755 -16 760 -32 775 -46C788 -58 810 -63 830 -63C840 -63 867 -63 879 -63C896 -63 916 -59 927 -52C941 -44 949 -32 954 -13C959 5 962 58 964 102C946 108 924 118 911 130C910 82 909 46 907 29C905 13 902 6 897 2C892 -1 884 -2 875 -2C867 -2 854 -2 847 -2C840 -2 834 -1 831 2C826 7 825 17 825 37ZM128 827 85 774C145 739 219 684 254 646L300 705C263 742 189 794 128 827ZM80 555 40 499C104 470 183 423 222 388L264 450C224 485 144 529 80 555ZM65 -16 128 -67C187 26 257 151 310 257L256 306C198 193 119 61 65 -16ZM627 840 559 823C575 788 592 746 602 710H318V642H515C473 588 416 517 397 499C378 482 349 475 330 471C336 454 346 417 350 399C379 410 425 414 837 442C856 415 873 391 885 370L946 410C910 468 833 560 770 627L714 593C738 565 765 534 790 503L476 485C515 530 562 592 600 642H945V710H680C669 748 648 799 627 840Z" /><path id="g400-66" d="M27 469H107V0H198V469H313V543H198V629C198 699 223 736 275 736C294 736 315 732 336 724L356 792C333 802 299 809 265 809C157 809 107 740 107 630V543L27 538Z" /><path id="g400-75" d="M251 -13C325 -13 379 26 430 85H433L440 0H516V543H425V158C373 94 334 66 278 66C206 66 176 109 176 210V543H84V199C84 60 136 -13 251 -13Z" /><path id="g400-590d" d="M288 374V442H753V374ZM288 493V559H753V493ZM759 255H358C375 275 391 296 405 317L399 319H831V614H213V319H325C268 243 180 173 93 126C109 115 136 90 147 78C187 103 229 133 269 167C311 123 362 86 422 54C301 18 165 -3 33 -13C44 -30 58 -61 62 -80C214 -65 372 -36 509 15C628 -32 770 -60 921 -72C930 -52 948 -23 963 -6C830 2 705 21 596 52C688 97 766 155 818 228L771 259ZM902 743H292C308 768 323 793 335 819L267 840C220 741 134 649 48 590C63 576 86 545 96 530C148 570 201 622 246 680H902ZM700 197C650 151 583 113 505 83C430 113 367 151 320 197Z" /><path id="g400-5e76" d="M363 369V561H642V344H363ZM789 818 704 843C683 780 645 695 611 634H89V561H285V370V344H52V272H279C265 162 214 54 54 -27C71 -40 97 -69 108 -87C291 7 345 138 359 272H642V-80H720V272H949V344H720V561H918V634H692C724 688 760 758 789 818ZM287 841 218 813C260 758 305 682 321 634L395 667C376 716 330 788 287 841Z" /><path id="g400-6574" d="M284 178H212V11H47V-53H955V11H536V94H824V152H536V230H890V294H114V230H462V11H284ZM351 492 322 457V495H487V669H322V720H513V777H322V840H256V777H57V720H256V669H86V495H233C186 441 108 388 39 362C54 351 73 329 83 314C142 340 207 390 256 443V321H322V451C369 426 425 389 455 363L487 407C458 434 399 470 351 492ZM148 545V619H256V545ZM322 619H423V545H322ZM952 728H672C686 759 697 792 707 825L639 840C611 739 561 645 495 585C510 573 535 547 546 534C567 554 586 578 605 605C626 559 654 512 691 469C639 424 573 390 496 365C510 352 532 324 540 310C616 339 682 375 736 422C785 375 846 335 919 307C928 325 948 353 962 366C890 389 830 425 781 467C828 521 864 586 887 665H952ZM642 665H815C798 606 771 556 735 514C693 561 662 614 642 665Z" /><path id="g400-9886" d="M758 508H695C692 160 681 37 442 -32C455 -44 474 -69 480 -84C736 -6 755 139 758 508ZM771 134 726 94C793 41 877 -32 918 -78L966 -33C923 13 837 84 771 134ZM254 577 205 548C241 511 283 460 303 427L354 462C334 493 292 541 254 577ZM921 612H727C740 644 754 682 768 718H950V784H506V718H697C687 684 673 644 660 612H531V140H599V554H851V142H921ZM331 823 266 841C221 723 135 591 34 505C49 494 74 471 86 458C160 525 225 611 275 703C342 633 417 548 453 491L499 544C460 601 376 692 305 762C314 782 323 803 331 823ZM396 386H101V320H363C330 253 283 173 244 118C218 142 192 166 167 187L117 149C192 83 283 -10 325 -69L379 -25C358 3 327 37 292 72C346 149 417 265 456 361L408 390Z" /><path id="g400-57df" d="M294 103 313 31C409 58 535 95 656 130L649 193C518 159 383 123 294 103ZM415 299V468H546V299ZM607 529H357V238H607ZM36 129 64 55C143 93 241 143 332 191L312 258L219 213V525H310V596H219V828H149V596H43V525H149V180C107 160 68 142 36 129ZM930 515 862 529C838 434 806 347 766 270C752 369 742 489 737 623H949V692H895L939 735C914 765 861 808 817 838L774 800C818 768 868 723 893 692H735L734 839H662L664 692H327V623H666C673 452 686 298 710 177C654 97 585 30 504 -22C520 -33 549 -58 559 -70C623 -25 680 29 730 92C761 -15 804 -79 865 -79C928 -79 949 -36 961 97C945 104 921 120 907 136C903 32 893 -8 874 -8C838 -8 807 57 784 168C846 267 895 383 930 515Z" /><path id="g400-903b" d="M136 814 80 775C135 722 203 650 233 603L292 648C259 694 191 764 136 814ZM745 603V748H859V603ZM580 603V748H692V603ZM419 603V748H527V603ZM262 105V501H48V431H190V117C143 103 86 56 27 -9L81 -80C133 -9 182 53 217 53C239 53 273 17 314 -10C385 -57 469 -68 597 -68C695 -68 877 -62 947 -57C949 -35 962 4 971 24C872 13 721 5 600 5C484 5 398 12 332 56C301 76 280 93 262 105ZM831 459H574C589 483 603 507 615 533L587 541H927V809H354V541H543C497 449 414 371 323 321C339 309 365 284 376 271C430 304 482 347 527 398H795C763 336 717 284 662 241C626 272 572 314 530 345L479 304C519 274 568 232 603 200C525 153 435 120 342 100C356 85 372 59 380 41C601 97 805 213 891 439L844 462Z" /><path id="g400-8f91" d="M551 650V751H819V650ZM891 808H482V594H891ZM40 167 56 94 244 131V-76H313V145L427 168L423 234L313 214V346H405V414H313V568H244V414H147C176 483 204 565 228 650H412V722H247C255 756 263 791 269 825L196 840C191 801 183 761 174 722H47V650H157C136 570 115 504 105 479C88 435 75 403 58 398C66 380 77 346 81 332C89 340 119 346 153 346H244V202ZM815 472V386H560V472ZM400 76 412 8 815 40V-80H885V46L959 52L960 115L885 110V472H953V535H423V472H491V82ZM815 329V242H560V329ZM815 185V105L560 86V185Z" /><path id="g400-4fdd" d="M452 542V726H824V542ZM899 793H380V474H598V350H306V281H554C486 175 380 75 277 24C294 9 317 -18 329 -36C427 21 527 122 598 232V-80H673V235C740 125 836 21 928 -37C940 -19 964 7 981 22C884 75 782 175 718 281H954V350H673V474H899ZM173 -77H245V607C284 674 319 745 347 815L277 837C219 686 123 537 23 442C36 424 58 384 65 367C102 404 138 448 173 496Z" /><path id="g400-7559" d="M244 180V278H466V180ZM244 121H466V19H244ZM764 180H537V278H764ZM764 121V19H537V121ZM842 340H169V-80H244V-43H764V-76H842ZM918 785H501V718H618C604 583 567 480 435 422C451 410 471 385 479 369C628 439 672 559 689 718H843C836 550 826 486 811 468C804 459 795 457 780 458C765 458 724 458 681 462C691 444 699 417 700 396C745 394 789 394 813 396C840 398 858 405 873 424C897 452 907 533 917 753C917 763 918 785 918 785ZM366 664 305 639C325 608 346 573 364 539L188 494V709C280 729 379 755 451 784L400 839C332 808 216 776 115 754V535C115 489 93 462 78 450C90 438 110 409 118 393C137 406 169 416 393 478C403 457 411 437 416 420L482 448C463 507 413 597 366 664Z" /><path id="g400-6807" d="M902 764H466V693H902ZM843 345 779 325C826 225 872 95 888 16L957 41C940 120 892 247 843 345ZM560 327 491 342C465 236 420 129 364 57C381 49 411 29 425 18C479 94 529 211 560 327ZM711 17V454H955V525H422V454H636V17C636 4 632 0 617 0C604 -1 558 -1 505 1C515 -22 526 -55 529 -76C599 -76 645 -74 674 -62C703 -49 711 -26 711 17ZM277 840H202V628H49V558H186C153 434 88 290 24 215C37 196 57 165 66 144C117 208 166 313 202 420V-79H277V444C311 395 351 333 368 301L412 360C392 388 306 498 277 531V558H408V628H277Z" /><path id="g400-8bc6" d="M513 398V697H816V398ZM893 769H439V326H893ZM806 230 738 205C791 118 847 1 869 -71L943 -41C921 30 861 144 806 230ZM587 211 510 228C482 126 428 28 362 -36C380 -46 413 -67 428 -79C494 -9 553 98 587 211ZM151 814 102 769C156 723 224 657 256 615L309 667C275 708 206 771 151 814ZM181 -52C196 -32 224 -10 397 126C388 140 375 169 369 190L264 110V526H50V454H191V107C191 54 154 15 135 -1C148 -12 172 -37 181 -52Z" /><path id="g400-606f" d="M266 470V550H730V470ZM266 331V412H730V331ZM266 607V687H730V607ZM337 40V202H262V39C262 -41 293 -62 409 -62C433 -62 614 -62 640 -62C736 -62 761 -32 771 96C750 100 718 111 701 124C696 21 688 7 634 7C594 7 443 7 413 7C349 7 337 12 337 40ZM830 220 763 192C809 129 857 43 874 -12L945 20C926 75 877 159 830 220ZM212 176 148 204C124 141 85 55 45 0L114 -33C151 25 187 113 212 176ZM553 835 465 850C457 821 441 780 427 747H194V271H473L419 240C470 193 528 126 553 82L614 120C587 163 530 226 478 271H805V747H507C521 773 538 804 553 835Z" /><path id="g400-5173" d="M546 429V552H881V627H682C718 681 759 749 792 809L711 836C686 774 640 687 600 627H326L391 663C372 710 330 780 287 831L224 799C265 746 307 675 324 627H129V552H461V430C461 412 460 393 459 374H68V300H444C412 192 317 77 48 -13C68 -30 93 -62 102 -79C360 11 470 127 515 243C599 88 729 -21 907 -74C919 -51 942 -18 960 -1C777 44 640 152 565 300H935V374H544Z" /><path id="g400-8054" d="M546 824 485 794C524 747 566 681 583 638L648 673C629 716 587 778 546 824ZM888 801 810 824C786 766 741 685 704 632H453V563H636V442L635 381H428V311H627C609 198 555 69 392 -35C411 -48 437 -72 449 -88C577 -1 643 101 677 199C729 75 809 -24 916 -79C927 -60 950 -32 966 -17C840 39 751 162 707 311H956V381H710L711 441V563H918V632H782C817 681 855 744 888 801ZM38 135 53 63 313 108V-80H379V120L462 134L458 199L379 187V729H423V797H47V729H101V144ZM169 729H313V587H169ZM169 524H313V381H169ZM169 317H313V176L169 154Z" /><path id="g400-7ef4" d="M45 53 59 -18C151 6 274 36 391 66L384 130C258 101 130 70 45 53ZM723 835 660 809C687 764 716 705 727 666L795 697C782 734 753 791 723 835ZM69 182C89 194 123 204 366 252C364 267 364 296 366 314L170 279C248 371 324 483 389 596L329 632C309 593 287 553 263 516L133 502C192 589 249 701 292 808L224 838C186 718 116 587 93 553C72 520 55 495 38 492C47 473 58 438 61 423C76 430 99 436 222 452C179 387 140 335 121 315C91 278 68 252 46 248C55 230 66 197 69 182ZM697 464H536V591H697ZM619 814 546 835C512 719 441 574 362 481C374 465 391 433 399 415C422 442 445 471 466 503V-81H536V-8H957V62H767V199H919V267H767V396H917V464H767V591H942V659H554C579 711 601 764 619 814ZM697 396V267H536V396ZM697 199V62H536V199Z" /><path id="g400-62a4" d="M261 14V297L383 335L372 404L261 371V566H377V638H261V839H188V638H54V566H188V350C132 334 80 319 38 309L59 235L188 274V14C188 0 183 -4 170 -4C157 -5 117 -5 71 -4C81 -25 90 -57 94 -76C161 -76 201 -74 226 -62C252 -49 261 -28 261 14ZM850 408H522V599H850ZM658 837 591 811C627 766 666 708 683 667H447V400C447 266 434 93 323 -29C340 -39 371 -66 383 -82C487 32 515 198 521 337H850V274H925V667H685L754 697C737 736 697 793 658 837Z" /><path id="g400-8de8" d="M146 556V732H315V556ZM712 648C735 602 767 555 803 514H544C583 554 618 598 648 648ZM720 810 653 827C641 787 626 749 607 714H427V648H567C517 579 454 523 381 482C394 466 413 431 420 416C462 442 501 472 536 506V452H804V513C841 470 883 433 924 407C935 425 958 451 974 465C903 501 830 573 784 648H950V714H683C697 744 710 776 720 810ZM390 351H286V491H381V797H83V491H220V88L148 69V396H88V54L39 42L57 -29C159 0 297 38 427 75L418 141L286 105V285H390ZM888 204H577L606 304H944V369H416V304H537C522 248 502 185 485 140H813C802 45 791 1 773 -13C762 -20 750 -21 728 -21C702 -21 630 -20 560 -14C574 -32 585 -59 587 -79C654 -83 718 -84 749 -82C787 -81 809 -75 829 -57C857 -31 872 31 885 173C887 183 888 204 888 204Z" /><path id="g400-3001" d="M273 -56 341 2C279 75 189 166 117 224L52 167C123 109 209 23 273 -56Z" /><path id="g400-9884" d="M741 294V495H670V296C670 193 647 58 410 -21C427 -35 447 -60 456 -75C710 18 741 168 741 294ZM775 134 725 88C788 38 869 -34 908 -79L960 -26C920 17 837 86 775 134ZM129 656 88 608C149 567 227 512 282 470H38V403H203V10C203 -3 199 -6 184 -7C170 -7 124 -7 72 -6C83 -27 93 -57 96 -77C165 -77 210 -77 238 -65C267 -53 275 -32 275 9V403H382C364 349 344 294 326 256L384 241C410 295 441 383 467 460L420 473L409 470H341L361 496C338 514 306 538 270 562C329 616 394 693 437 764L391 796L378 792H59V725H328C297 679 256 631 219 597ZM919 628H724L759 728H959V796H464V728H677C670 696 660 659 651 628H500V152H570V559H846V154H919Z" /><path id="g400-7b97" d="M252 398V457H764V398ZM252 290V350H764V290ZM252 505V562H764V505ZM387 172V239H642V152H386ZM648 828 576 845C548 768 497 695 436 647C452 639 480 624 495 613H296L353 634C346 653 331 680 315 704H487V766H223C234 786 244 806 253 826L183 845C151 767 96 689 35 638C52 628 82 608 96 596C127 625 158 663 185 704H237C257 674 277 638 287 613H177V239H311V174L310 152H56V90H286C258 48 198 6 72 -25C88 -39 109 -65 119 -81C279 -35 346 28 372 90H642V-78H719V90H948V152H719V239H842V613H740L796 639C786 658 768 681 748 704H940V766H620C631 786 640 807 648 828ZM505 613C532 638 559 669 583 704H663C690 674 717 638 731 613Z" /><path id="g400-6309" d="M772 379C755 284 723 210 675 151C622 181 567 209 516 234C538 278 561 327 583 379ZM959 447H611C630 497 648 547 662 594L587 605C573 556 553 501 531 447H355V379H502C474 315 444 256 417 210C482 178 553 139 623 99C557 45 470 9 358 -16C371 -32 389 -64 394 -81C518 -49 615 -4 688 61C773 10 850 -41 900 -82L954 -24C902 17 824 66 739 115C794 183 830 269 852 379H959ZM945 712H711C701 751 683 803 668 845L593 831C606 795 620 750 629 712H383V517H454V645H873V518H945ZM249 7V267L377 309L367 376L249 340V568H357V639H249V840H177V639H42V568H177V319L30 277L48 204L177 244V7C177 -8 171 -12 158 -12C145 -13 104 -13 58 -12C68 -32 79 -62 81 -80C147 -80 188 -78 214 -67C240 -55 249 -35 249 7Z" /><path id="g400-9700" d="M409 571H194V521H409ZM410 466H172V416H410ZM830 466H585V415H830ZM806 571H585V521H806ZM925 681H533V740H865V800H134V740H461V681H76V490H144V626H461V389H533V626H855V490H925ZM882 -5V224H505L531 295H938V356H65V295H453C448 272 440 247 433 224H143V-78H214V162H362V-72H431V162H584V-72H653V162H809V-4C809 -14 807 -17 795 -17C785 -18 751 -18 710 -17C719 -35 730 -61 734 -80C788 -80 826 -80 851 -68C876 -58 882 -40 882 -5Z" /><path id="g400-53ca" d="M709 786H90V711H266V628C266 449 250 197 35 -2C52 -16 80 -46 91 -66C264 97 320 292 337 463C390 324 462 207 559 116C475 55 379 13 277 -12C292 -28 311 -59 320 -78C429 -47 530 0 619 66C700 4 797 -42 913 -73C924 -52 947 -20 964 -4C854 22 760 63 682 118C787 216 867 349 909 526L859 547L845 543H652C671 618 692 709 709 786ZM621 165C482 286 396 455 344 662V711H616C597 627 574 536 553 472H814C774 345 706 243 621 165Z" /><path id="g400-914d" d="M930 795H554V723H858V480H557V46C557 -46 585 -70 678 -70C697 -70 825 -70 846 -70C937 -70 959 -24 968 139C947 144 916 158 898 171C893 27 886 1 841 1C813 1 707 1 686 1C640 1 631 8 631 46V408H858V340H930ZM253 473V553H309V364C309 316 321 307 362 307C369 307 406 307 413 307H420V214H143V553H211V474C211 420 201 355 143 304C153 298 169 284 176 275C239 332 253 412 253 473ZM143 158H420V54H143ZM505 801H57V734H201V618H82V-76H143V-7H420V-62H482V618H369V734H505ZM255 618V734H314V618ZM351 365V553H420V352C418 351 416 350 406 350C398 350 371 350 366 350C353 350 351 352 351 365Z" /><path id="g400-7f6e" d="M651 658V748H820V658ZM417 658V748H582V658ZM189 658V748H348V658ZM808 427H495L509 486H922V545H520L531 603H895V802H117V603H454L446 545H68V486H436L424 427H190V6H57V-50H945V6H808ZM262 6V68H734V6ZM262 320V376H734V320ZM262 275H734V217H262ZM262 172H734V113H262Z" /><path id="g700-521b" d="M928 51V830H809V51C809 32 801 26 781 25C761 25 694 25 630 28C647 -4 665 -55 671 -88C765 -88 830 -85 872 -66C913 -48 928 -17 928 51ZM732 735H617V167H732ZM250 486H182C239 541 290 605 333 675C387 613 444 544 484 486ZM407 817 297 852C244 724 139 589 17 507C43 487 84 444 103 418L134 443V76C134 -41 170 -73 287 -73C313 -73 422 -73 449 -73C551 -73 583 -31 596 111C564 118 518 136 493 155C487 49 479 29 439 29C413 29 323 29 302 29C257 29 250 35 250 76V383H409C403 297 396 260 387 248C379 240 371 238 358 238C343 238 314 238 281 242C297 214 308 172 310 141C353 140 394 141 418 144C445 148 467 156 486 179C509 206 519 279 526 445V449L603 521C558 589 464 693 388 774Z" /><path id="g700-5efa" d="M893 775H670V849H557V775H388V685H557V637H334V548H557V498H383V407H557V359H377V275H557V225H338V134H557V66H670V134H936V225H670V275H903V359H670V407H893V548H947V637H893ZM670 637V685H787V637ZM670 548H787V498H670ZM91 360C91 373 123 393 146 405H231C222 340 209 281 192 230C174 263 157 302 144 348L56 318C80 238 110 173 145 122C113 66 73 22 25 -11C50 -26 94 -67 111 -90C154 -58 191 -16 223 36C327 -49 463 -70 632 -70H928C934 -38 953 15 970 39C901 37 693 37 636 37C488 38 363 55 271 133C310 229 336 350 349 496L282 512L261 509H227C271 584 316 672 354 762L282 810L245 795H56V690H202C168 610 130 542 114 519C93 485 65 458 44 452C59 429 83 383 91 360Z" /><path id="g700-8005" d="M835 361H471C512 386 551 413 589 441H950V546H716C790 613 857 687 915 767L812 821C781 776 746 734 708 693V742H491V850H372V742H136V638H372V546H50V441H391C275 372 149 316 18 274C41 250 76 201 91 175C143 194 194 215 245 239V-90H365V-61H710V-86H835ZM491 546V638H653C619 606 583 575 545 546ZM365 198V262H710V198ZM365 107H710V40H365Z" /><path id="g700-4fee" d="M779 352 692 388C642 343 544 302 461 281C484 262 509 233 524 212C617 241 716 290 779 352ZM876 256 789 291C723 224 592 174 467 149C488 129 512 96 525 74C663 109 796 169 876 256ZM965 138 862 180C776 85 602 31 416 6C439 -19 465 -60 477 -88C682 -51 860 15 965 138ZM850 748H631C643 773 654 798 664 824L555 850C519 748 453 651 375 590C401 574 445 540 465 520C486 539 507 561 526 585C547 557 573 529 602 502C540 470 471 446 399 430V565H300V80H399V400C414 379 428 354 435 336C526 359 612 392 688 437C752 396 828 363 916 342C931 371 960 415 982 438C905 451 838 473 780 501C848 559 902 631 938 720L868 753ZM588 653H786C759 617 726 584 688 556C647 586 613 619 588 653ZM131 -89H245V613C275 679 302 748 323 814L213 846C170 700 96 553 14 459C34 427 63 359 73 329C93 352 112 378 131 406Z" /><path id="g700-6539" d="M438 787H66V669H319V501H76V127C76 90 59 73 39 63C58 33 77 -27 83 -61C114 -37 161 -14 450 95C444 121 437 172 437 208L197 125V382H438V398C462 374 492 342 506 324C523 347 540 372 556 399C579 317 608 242 644 176C589 109 519 56 427 17C449 -9 484 -65 496 -94C585 -51 657 3 715 69C765 7 826 -45 900 -83C918 -52 954 -5 981 19C903 54 840 106 789 172C850 277 890 405 915 560H960V671H667C681 722 694 775 705 829L586 850C558 695 510 544 438 442ZM630 560H790C774 457 750 367 715 291C676 370 648 459 628 556Z" /><path id="g400-8bfb" d="M478 490 443 452C496 424 558 382 588 351L624 394C593 424 530 465 478 490ZM406 400 370 361C424 333 488 288 518 257L555 301C524 332 459 374 406 400ZM728 148 683 105C765 51 863 -30 911 -83L959 -34C910 19 809 96 728 148ZM153 817 105 768C159 722 226 657 259 615L310 670C277 711 207 773 153 817ZM877 593H685V683H894V747H685V840H611V747H404V683H611V593H367V528H851C838 485 822 441 808 411L866 394C890 442 916 517 937 584L889 596ZM711 369V489H639V371C639 333 637 293 626 251H346V185H601C562 108 484 33 330 -26C345 -40 366 -67 375 -84C559 -11 644 86 682 185H946V251H701C709 292 711 331 711 369ZM237 526H40V454H188V89C188 40 158 7 141 -7C153 -19 173 -45 181 -60C195 -40 220 -17 376 112C367 126 355 155 348 175L258 103V526Z" /><path id="g400-53c2" d="M610 368 548 401C480 353 353 308 254 283C272 269 291 246 302 231C404 260 530 310 610 368ZM698 253 635 284C547 219 381 167 239 140C254 124 272 100 282 82C432 115 598 175 698 253ZM829 144 761 177C649 69 422 8 176 -17C191 -34 205 -62 213 -82C470 -50 703 18 829 144ZM950 517H442C459 548 475 580 488 615L770 627C795 604 817 583 833 564L895 609C840 670 728 754 637 810L579 771C617 746 659 717 699 686L312 672C375 710 439 756 499 807L431 845C359 775 260 710 228 693C200 676 177 665 157 663C165 643 175 607 179 591C202 599 233 602 404 611C390 578 374 546 356 517H53V450H307C237 365 145 299 39 253C56 239 85 209 96 194C216 254 321 338 400 450H606C681 345 801 250 915 199C926 218 950 246 966 261C867 298 761 370 691 450H950Z" /><path id="g400-8003" d="M894 759 836 794C764 704 675 619 575 544H490V658H708V722H490V840H416V722H159V658H416V544H70V478H481C345 388 194 313 40 259C52 242 68 209 75 192C165 227 254 269 341 316C318 260 290 199 266 155H712C697 63 681 18 659 3C648 -5 635 -6 610 -6C583 -6 502 -5 428 2C442 -18 452 -47 453 -68C527 -73 597 -73 631 -72C672 -70 695 -66 718 -46C750 -18 772 46 792 183C795 194 797 217 797 217H375L419 317H845V378H449C500 409 549 443 597 478H939V544H681C760 610 832 682 894 759Z" /><path id="g400-5b9e" d="M574 162 538 107C671 57 804 -13 885 -74L931 -16C848 44 708 113 574 162ZM285 605 240 557C294 525 358 475 387 440L435 495C404 530 339 576 285 605ZM185 451 140 401C197 370 264 321 296 285L342 341C309 376 241 422 185 451ZM912 726H569C555 761 527 809 503 847L429 824C447 794 466 758 480 726H90V523H165V656H835V523H912ZM935 256H541C570 353 577 469 581 606H503C499 464 493 349 461 256H71V191H432C376 94 273 29 81 -11C97 -28 116 -57 124 -77C349 -25 461 63 518 191H935Z" /><path id="g400-73b0" d="M881 791H432V259H504V725H807V259H881ZM43 100 60 27C155 56 282 94 402 129L392 199L261 160V413H366V483H261V702H386V772H55V702H189V483H70V413H189V139C134 124 84 110 43 100ZM687 445V640H617V447C617 290 585 101 332 -29C347 -40 371 -68 379 -83C545 4 624 123 660 243V32C660 -36 686 -54 756 -54H848C934 -54 946 -14 955 144C936 148 912 159 894 174C889 31 883 3 848 3H766C738 3 730 10 730 39V276H669C683 334 687 392 687 445Z" /><path id="g400-5236" d="M747 748H676V194H747ZM928 23V830H854V23C854 7 849 2 834 2C815 1 759 0 700 2C710 -20 721 -55 725 -76C800 -76 855 -74 885 -62C916 -48 928 -26 928 23ZM212 802 142 816C121 719 87 619 41 552C59 545 92 532 108 524C125 553 142 588 158 627H289V522H45V453H289V351H91V2H159V283H289V-79H361V283H500V78C500 68 497 64 486 64C475 63 442 63 400 65C409 46 418 19 421 -1C476 -1 515 0 538 12C563 23 569 42 569 76V351H361V453H604V522H361V627H565V696H361V836H289V696H183C194 730 204 766 212 802Z" /><path id="g400-4fee" d="M755 362 698 386C644 335 543 287 454 261C469 249 486 230 496 215C591 247 694 299 755 362ZM850 264 794 287C726 216 595 159 468 130C482 117 497 95 506 80C641 117 774 179 850 264ZM952 151 887 179C798 77 614 13 413 -16C428 -33 444 -59 452 -77C664 -39 852 32 952 151ZM370 561H306V78H370ZM885 734 871 731H590C606 761 621 792 633 823L565 841C523 733 451 629 371 563C387 552 416 530 428 518C458 546 488 579 516 616C545 574 584 532 633 494C554 452 462 424 371 407C384 393 400 366 407 350C507 371 605 404 690 454C756 412 836 378 930 356C939 373 958 402 972 416C887 432 813 459 750 492C827 548 890 620 928 712ZM553 668H832C798 613 749 566 692 528C630 570 584 619 553 668ZM153 -80H224V614C255 678 282 747 304 815L235 834C187 679 107 526 20 426C33 407 53 367 59 349C92 388 123 432 153 481Z" /><path id="g400-6539" d="M431 770H76V696H357V484H89V103C89 66 73 53 58 46C71 27 83 -10 88 -32C111 -13 148 6 439 117C435 134 431 166 430 188L165 93V410H429L424 404C440 392 470 363 482 350C508 385 531 425 553 469C581 361 616 264 663 180C602 96 523 32 416 -16C431 -33 453 -66 461 -84C563 -33 643 31 705 111C761 32 830 -32 915 -75C927 -56 950 -27 968 -12C879 28 808 94 751 177C817 286 859 420 886 585H952V655H626C643 710 658 768 670 827L596 840C565 676 510 517 431 413ZM602 585H808C787 453 755 343 706 251C657 345 622 455 598 574Z" /><path id="g400-548c" d="M604 119V675H827V119ZM903 747H531V-36H604V47H827V-28H903ZM489 772 439 831C351 795 192 765 60 747C68 730 78 705 81 688C134 694 191 702 247 712V544H50V474H228C182 348 102 211 26 134C39 115 59 86 67 64C132 133 198 248 247 366V-78H321V364C364 307 420 231 443 192L489 254C465 285 358 411 321 449V474H496V544H321V726C384 739 442 754 489 772Z" /><path id="g400-4e1a" d="M922 575 854 607C814 497 743 351 688 260L750 228C806 321 874 459 922 575ZM151 610 82 589C134 477 194 324 219 236L294 264C266 352 204 499 151 610ZM661 827H585V46H417V828H340V46H60V-28H943V46H661Z" /><path id="g400-52a1" d="M524 375 446 381C442 345 435 312 427 282H126V216H404C346 87 235 20 57 -14C70 -29 91 -62 98 -78C296 -31 420 53 484 216H788C771 84 751 23 728 4C717 -5 705 -6 684 -6C660 -6 595 -5 532 1C545 -18 554 -46 556 -66C616 -69 675 -70 706 -69C742 -67 765 -61 787 -41C822 -10 844 66 866 248C868 259 870 282 870 282H505C513 311 519 342 524 375ZM460 826 382 841C331 754 232 651 91 580C106 567 128 541 137 523C188 552 234 583 274 616C315 569 365 530 423 497C305 459 173 435 46 423C58 407 71 377 76 357C222 375 373 406 508 457C624 410 764 383 919 370C928 390 945 420 961 437C827 444 702 463 597 495C708 549 802 619 862 710L817 741L804 737H396C420 766 442 796 460 826ZM745 673C686 613 604 565 508 527C430 561 367 604 323 659L338 673Z" /><path id="g700-9a8c" d="M20 168 40 74C114 91 202 112 287 133L278 220C183 200 87 180 20 168ZM552 373 461 349C483 274 507 176 514 112L611 139C601 202 577 299 552 373ZM726 390 634 377C650 302 668 204 672 139L768 155C762 219 744 314 726 390ZM187 640 85 646C81 533 71 383 58 292H318C308 116 297 43 279 24C269 14 260 12 244 12C225 12 183 13 139 17C155 -10 167 -50 169 -79C217 -81 264 -81 291 -78C323 -74 346 -66 367 -40C397 -5 410 93 422 343C423 356 424 386 424 386H347C352 432 357 488 361 547C368 635 374 730 378 813H46V712H273C267 598 258 474 247 385H169C176 465 183 560 187 640ZM757 825 652 861C590 733 478 617 361 547C381 524 416 473 429 449C463 472 496 499 529 529V443H839V520C869 495 900 472 930 452C941 485 964 541 984 571C896 618 797 700 731 777ZM670 685C712 637 761 588 811 544H545C590 587 633 634 670 685ZM957 56H838C879 142 924 259 959 361L851 384C827 284 780 148 738 56H436V-46H957Z" /><path id="g700-8bc1" d="M159 834 81 761C136 713 207 644 239 600L322 682C287 725 213 789 159 834ZM970 60H767V338H932V450H767V675H950V787H382V675H644V60H548V515H429V60H356V-52H970ZM168 -72C185 -47 219 -18 401 140C387 163 365 212 354 246L274 177V541H40V426H158V138C158 76 120 28 95 5C115 -10 154 -49 168 -72Z" /><path id="g700-4e0e" d="M674 261H49V146H674ZM371 822 248 833C226 683 187 487 155 366H781C763 175 739 76 706 50C691 39 676 38 651 38C618 38 536 38 456 45C482 11 500 -40 503 -75C575 -78 649 -80 690 -76C743 -71 777 -62 810 -27C858 21 884 141 910 425C912 441 914 477 914 477H307L334 613H888V728H355Z" /><path id="g700-53cd" d="M904 748 806 844C651 798 384 775 147 768V496C147 343 139 127 38 -20C68 -33 121 -70 144 -91C243 53 266 278 269 445H317C360 325 417 223 493 141C415 88 325 49 227 25C251 -2 281 -51 295 -84C404 -51 502 -5 586 56C666 -4 762 -49 878 -79C895 -48 928 2 954 26C847 50 757 87 681 137C777 235 848 364 889 532L805 566L784 561H270V663C490 671 729 695 904 748ZM732 445C698 355 647 279 584 216C519 280 470 357 435 445Z" /><path id="g700-9988" d="M906 407H406V90H516V315H792V90H906ZM734 97 683 23C757 -6 854 -55 901 -91L955 -9C906 26 808 71 734 97ZM712 187V287H602V191C602 113 570 44 341 -3C361 -23 394 -71 404 -96C655 -39 712 70 712 187ZM314 709H212C221 748 229 788 236 828L129 848C108 708 70 564 14 474C37 457 80 419 98 399C132 454 161 527 185 607H273C260 567 245 529 231 500L317 472C348 528 381 614 406 692L332 713ZM145 -91C162 -69 192 -42 369 94C359 116 344 160 338 191L252 128V481H148V102C148 45 107 2 84 -17C102 -33 133 -70 145 -91ZM904 786H715V849H608V786H416V578H608V531H365V442H969V531H715V578H904ZM513 656V708H608V656ZM715 708H802V656H715Z" /><path id="g400-6784" d="M938 676H543C561 723 577 773 590 824L516 840C484 705 429 572 357 487C375 477 405 453 419 441C453 486 486 543 514 606H862C849 196 834 43 804 8C794 -5 784 -8 766 -7C745 -7 697 -7 644 -2C656 -24 665 -56 667 -77C716 -80 766 -81 797 -77C829 -73 851 -65 871 -37C908 12 922 167 937 637C938 647 938 676 938 676ZM687 395 632 376C649 340 667 298 682 258L505 227C550 310 594 415 626 517L554 538C527 423 471 297 454 265C437 232 423 208 407 205C415 187 427 152 430 138C449 149 480 157 702 201C711 175 719 150 724 130L783 155C767 215 726 318 687 395ZM271 840H199V647H50V577H192C160 440 97 281 32 197C45 179 64 146 72 124C119 191 165 300 199 413V-79H271V437C299 387 332 326 346 293L393 348C376 378 297 499 271 530V577H387V647H271Z" /><path id="g400-7f16" d="M40 54 58 -15C140 18 245 62 346 103L332 163C224 121 114 79 40 54ZM68 182C87 194 118 204 339 255C336 270 333 297 334 316L167 281C238 373 306 485 363 596L302 631C285 593 265 554 245 517L133 505C189 593 245 706 286 815L215 840C179 719 112 587 91 553C71 520 55 496 38 491C46 473 57 438 61 423C75 430 97 435 206 450C167 386 131 335 115 316C87 278 66 252 45 248C53 230 64 196 68 182ZM624 350V202H541V350ZM675 350H746V202H675ZM930 -8V413L871 412H481V-72H541V143H624V-47H675V143H746V-46H797V143H871V-7C871 -14 868 -16 861 -17C854 -17 836 -17 814 -16C822 -32 829 -56 831 -73C867 -73 890 -71 908 -62C926 -52 930 -35 930 -8ZM797 350H871V202H797ZM675 846 605 826C621 798 637 762 648 732H414V515C414 361 405 139 314 -21C329 -28 360 -50 372 -63C465 99 482 335 483 498H920V732H729C717 765 697 811 675 846ZM483 668H850V561H483Z" /><path id="g400-8bd1" d="M157 817 101 780C144 726 195 653 216 606L278 650C254 695 202 766 157 817ZM685 412H611V324H412V257H611V150H357V119C351 132 344 148 340 160L260 101V527H47V455H187V97C187 48 156 14 138 -1C151 -12 172 -40 180 -56C194 -36 217 -17 357 90V83H611V-82H685V83H950V150H685V257H885V324H685ZM849 787H370V720H442C481 651 533 591 594 540C509 491 413 454 319 432C334 416 352 386 360 368C461 396 563 438 655 495C734 442 825 403 925 378C936 397 956 426 972 441C878 461 791 493 716 537C798 598 866 673 911 762L862 790ZM802 720C764 666 713 619 653 577C598 618 551 666 516 720Z" /><path id="g400-b7" d="M606 380C606 439 559 486 500 486C441 486 394 439 394 380C394 321 441 274 500 274C559 274 606 321 606 380Z" /><path id="g400-534f" d="M453 461 386 474C368 379 335 284 291 220C307 211 336 192 348 181C393 251 432 355 453 461ZM902 471 838 458C866 366 894 244 902 172L972 190C961 260 931 379 902 471ZM233 840H160V606H47V536H160V-79H233V536H340V606H233ZM621 652V831H549V652V650H371V577H548C542 384 501 151 280 -30C298 -42 325 -65 338 -81C571 114 614 367 620 577H759C749 189 739 47 712 15C702 2 692 0 673 0C652 0 600 0 542 5C556 -15 563 -46 565 -68C618 -71 672 -72 703 -68C736 -65 757 -56 777 -29C811 16 821 165 831 612C832 622 832 650 832 650H621Z" /><path id="g400-8bae" d="M605 820 542 793C582 726 624 637 640 582L708 613C691 668 647 754 605 820ZM167 812 113 771C158 724 212 658 238 616L294 663C269 704 213 766 167 812ZM909 766 832 778C799 570 747 383 640 233C539 372 478 554 442 766L371 754C414 517 479 320 589 170C519 91 428 25 311 -25C325 -42 346 -69 356 -87C473 -35 564 32 637 112C712 28 806 -37 922 -83C934 -63 958 -33 976 -18C858 24 764 89 688 173C809 334 869 538 909 766ZM187 -54C203 -34 229 -14 404 111C397 125 385 154 380 175L260 92V527H46V454H187V101C187 49 160 15 144 -1C157 -12 179 -38 187 -54Z" /><path id="g400-5bf9" d="M563 422 502 394C549 323 594 228 610 168L676 201C660 261 611 353 563 422ZM144 500 91 453C152 398 217 332 275 267C215 139 136 42 45 -18C63 -32 86 -60 98 -78C190 -12 268 80 329 203C374 147 411 94 435 49L495 104C466 156 419 218 364 281C410 396 443 533 460 695L411 709L398 706H70V635H378C363 527 339 430 307 344C254 399 198 453 144 500ZM839 22V527H959V599H839V840H765V599H482V527H765V22C765 4 758 -1 741 -2C724 -2 668 -3 605 0C615 -23 626 -58 630 -79C715 -79 766 -77 796 -64C827 -51 839 -28 839 22Z" /><path id="g400-4e3a" d="M226 812 162 784C202 737 247 673 267 632L335 665C314 706 267 768 226 812ZM561 401 499 371C550 310 609 226 635 173L701 209C674 261 613 342 561 401ZM487 719V838H411V719C411 682 410 641 407 599H82V524H399C374 346 295 145 54 -11C73 -23 101 -49 114 -66C370 104 452 328 476 524H821C807 184 791 50 761 19C750 7 739 4 717 5C693 5 630 5 562 11C577 -11 587 -44 588 -67C650 -70 713 -72 748 -69C785 -65 808 -57 831 -28C870 18 884 159 900 560C900 572 901 599 901 599H484C486 641 487 682 487 719Z" /><path id="g400-591a" d="M539 824 456 842C393 759 272 662 111 595C128 583 151 558 163 541C253 583 330 632 396 685H679C629 623 560 569 481 524C445 554 395 589 353 613L298 574C338 551 382 519 415 489C309 437 190 401 78 381C91 365 107 334 114 314C375 369 668 503 796 726L747 756L734 753H473C497 776 519 800 539 824ZM702 475 619 493C547 394 403 283 200 210C216 197 237 171 246 154C372 203 476 264 560 332H833C783 254 711 191 624 142C589 175 540 214 500 242L438 206C477 177 522 139 554 106C414 42 246 7 75 -9C87 -28 100 -61 106 -82C461 -40 804 76 944 373L894 404L880 400H636C660 425 682 450 702 475Z" /><path id="g400-901a" d="M117 800 65 757C124 705 200 632 235 585L290 636C253 681 176 751 117 800ZM256 108V465H43V394H184V110C140 92 90 47 39 -8L86 -70C137 -2 186 56 220 56C243 56 277 22 318 -2C388 -45 471 -57 595 -57C703 -57 879 -51 949 -47C950 -27 961 7 969 26C866 16 714 8 596 8C485 8 400 15 333 56C298 79 276 97 256 108ZM855 803H364V744H786C745 713 693 681 644 658C595 680 544 700 499 717L451 674C513 651 586 619 647 589H363V71H434V237H603V75H671V237H845V146C845 134 841 130 828 129C816 129 774 129 726 130C735 113 744 88 747 69C814 69 857 69 883 80C909 91 917 109 917 146V589H786C765 601 740 614 711 628C786 667 862 719 917 771L870 807ZM845 531V443H671V531ZM434 443V531H603V443ZM434 387H603V296H434ZM845 387V296H671V387Z" /><path id="g400-8fc7" d="M137 812 79 774C135 722 199 650 227 602L289 646C259 693 193 763 137 812ZM441 509 381 477C432 415 493 327 521 275L584 313C555 365 492 449 441 509ZM262 128V465H50V395H188V133C143 117 91 72 37 14L89 -57C140 12 189 71 222 71C245 71 277 37 319 11C389 -33 473 -43 597 -43C693 -43 870 -38 941 -34C942 -11 955 27 964 47C867 37 716 28 599 28C487 28 402 36 336 76C302 96 281 116 262 128ZM796 192V589H935V660H796V837H720V660H332V589H720V192C720 174 713 168 693 168C673 167 604 167 530 170C541 148 553 115 557 93C651 93 712 94 747 107C783 119 796 141 796 192Z" /><path id="g400-5b58" d="M831 525H420V456H760C717 416 663 375 613 349V266H335V196H613V10C613 -4 610 -8 592 -9C574 -10 514 -10 448 -8C458 -29 468 -58 471 -79C557 -79 613 -79 647 -68C680 -56 689 -35 689 9V196H957V266H689V324C762 370 840 432 894 492L846 529ZM462 821 385 840C373 797 359 753 342 709H63V637H311C246 499 154 370 31 284C43 266 62 235 70 216C113 247 152 281 188 319V-78H264V411C315 481 358 557 394 637H939V709H423C438 746 451 784 462 821Z" /><path id="g400-7248" d="M174 423V496H439V563H351V842H282V563H174V820H105V422C105 271 96 90 30 -37C47 -47 72 -69 84 -83C143 20 164 151 171 283H309V-79H378V351H173ZM555 427V479H576C602 345 642 226 700 128C646 61 583 11 514 -21C530 -35 549 -64 559 -82C627 -47 689 2 742 65C789 3 845 -46 912 -82C923 -63 946 -36 963 -22C893 11 834 60 786 123C857 228 908 365 932 539L887 551L875 548H555V712C691 723 842 742 948 768L901 832C800 806 629 784 483 772V427C483 278 474 90 397 -43C415 -52 444 -72 457 -85C543 58 555 259 555 427ZM852 479C830 365 792 268 743 188C694 272 659 371 636 479Z" /><path id="g400-672c" d="M539 839H460V629H65V553H367C294 383 170 221 37 140C55 125 80 98 92 79C237 178 365 357 443 553H460V183H226V107H460V-80H539V107H772V183H539V553H553C630 358 758 177 906 81C920 102 946 131 965 146C826 226 700 384 628 553H937V629H539Z" /><path id="g400-4f8b" d="M757 724H690V165H757ZM923 22V835H853V22C853 6 847 1 831 0C814 0 761 -1 701 2C712 -20 722 -52 727 -72C803 -73 854 -71 883 -58C912 -47 923 -25 923 22ZM399 341 358 290C393 263 435 228 466 199C419 98 357 22 286 -23C302 -37 323 -63 333 -81C487 26 591 235 625 554L581 565L568 563H440C454 612 466 662 476 714H645V785H297V714H403C373 554 323 404 250 306C267 295 295 271 307 260C352 322 389 403 419 494H549C537 411 518 335 494 267C465 292 429 320 399 341ZM142 -78H212V626C238 689 261 755 280 820L212 839C173 692 109 548 33 453C45 434 65 393 71 376C96 408 120 444 142 483Z" /><path id="g400-5931" d="M534 529V589H863V665H534V840H456V665H264C283 711 300 760 314 810L236 826C200 690 137 556 59 472C79 463 115 443 132 432C167 475 200 529 230 589H456V529C456 483 454 436 446 390H54V315H429C387 185 285 66 42 -16C58 -31 80 -63 89 -81C345 7 456 138 502 282C580 96 712 -26 922 -80C932 -60 954 -28 971 -12C767 34 635 146 566 315H947V390H526C532 436 534 483 534 529Z" /><path id="g400-8d25" d="M300 386V656H234V386C234 257 221 76 39 -28C54 -41 75 -65 85 -79C277 42 300 236 300 386ZM341 159 288 127C332 70 387 -8 414 -54L469 -15C442 29 386 104 341 159ZM445 792H89V184H152V724H380V186H445ZM947 664H646C662 714 675 765 686 816L618 831C587 677 535 526 463 427C477 412 500 380 509 365C522 384 535 404 548 426C580 326 622 234 674 155C620 74 553 16 474 -25C488 -37 510 -63 519 -79C594 -38 660 20 714 98C771 24 839 -36 917 -78C928 -61 949 -36 966 -22C883 18 811 80 752 159C813 269 855 412 876 596H947ZM624 596H811C794 440 760 316 711 219C658 304 617 403 589 508C601 536 613 566 624 596Z" /><path id="g400-5b9a" d="M300 370 224 378C203 197 148 54 37 -33C55 -44 86 -69 98 -83C164 -25 213 51 247 144C339 -29 490 -64 698 -64H932C936 -42 949 -6 960 12C911 11 739 11 702 11C643 11 588 14 538 23V225H836V295H538V459H795V532H211V459H460V44C378 75 315 134 276 239C286 280 294 324 300 370ZM500 847 426 826C443 796 461 758 472 727H82V509H156V656H841V509H918V727H558C548 761 522 810 500 847Z" /><path id="g400-4f4d" d="M914 658H369V585H914ZM503 524 435 509C465 369 495 185 503 80L577 102C567 204 536 384 503 524ZM641 847 570 828C588 778 609 712 617 669L692 691C681 734 660 798 641 847ZM955 34H749C786 168 826 365 852 519L774 532C757 382 716 169 679 34H326V-38H955ZM180 -78H255V601C294 669 329 742 357 815L286 836C230 685 136 535 38 437C51 420 73 381 81 363C115 398 148 439 180 484Z" /><path id="g700-66f4" d="M878 639H571V697H941V804H60V697H445V639H147V225H254L162 188C192 143 227 106 266 75C209 50 135 31 39 16C65 -12 98 -63 112 -90C229 -67 317 -35 383 4C528 -60 713 -74 931 -79C938 -39 960 12 982 40C778 38 612 42 482 84C520 126 543 174 556 225H878ZM571 354V387H759V322H570ZM261 322V387H445V355L444 322ZM571 542H759V477H571ZM261 477V542H445V477ZM426 225C414 193 396 164 367 137C331 161 299 189 270 225Z" /><path id="g700-57fa" d="M782 849H659V774H344V850H224V774H86V677H224V377H32V279H225C170 226 97 180 23 153C48 131 83 89 100 62C156 87 211 122 260 165V101H437V36H122V-62H888V36H559V101H742V175C790 132 845 96 900 71C917 99 953 142 979 164C908 189 838 231 783 279H968V377H782V677H919V774H782ZM344 677H659V634H344ZM344 550H659V506H344ZM344 422H659V377H344ZM559 259H437V196H293C319 222 343 250 363 279H648C669 250 693 222 720 196H559Z" /><path id="g700-7840" d="M380 494H208C230 559 248 628 262 697H400V805H43V697H150C125 564 84 441 21 358C37 323 59 247 63 216C77 233 91 252 104 272V-42H202V33H380ZM202 389H281V137H202ZM536 358H416V-33H827V-86H943V356H827V83H739V402H921V751H807V508H739V845H620V508H545V751H437V402H620V83H536Z" /><path id="g400-7ecf" d="M40 57 54 -17C146 7 268 38 383 69L375 135C251 104 124 74 40 57ZM65 182C87 195 121 205 378 255C377 272 377 301 379 322L179 286C259 374 337 481 404 589L338 631C318 594 296 557 273 522L138 508C199 594 258 703 304 807L233 840C191 720 116 590 92 557C70 522 51 499 33 495C42 475 54 438 58 423C73 430 98 436 226 454C180 390 138 340 119 320C86 283 63 259 40 255C49 234 61 198 65 182ZM825 787H424V718H777C685 588 515 482 357 429C373 414 393 385 403 367C492 400 583 446 664 504C757 464 866 407 923 368L967 430C911 465 812 514 724 551C794 611 853 681 893 762L839 790ZM914 332H431V263H630V18H371V-52H961V18H704V263H914Z" /><path id="g400-8bc1" d="M151 814 102 769C156 723 224 657 256 615L309 667C275 708 206 771 151 814ZM962 30H724V360H922V431H724V693H940V763H386V693H647V30H512V512H438V30H352V-40H962ZM181 -52C196 -32 223 -10 393 124C384 138 371 168 364 188L264 111V526H50V454H191V107C191 54 154 15 135 -1C148 -12 172 -37 181 -52Z" /><path id="g400-7684" d="M610 456 552 423C607 350 675 250 705 190L768 229C736 288 666 385 610 456ZM321 828 240 842C232 794 215 727 199 679H87V-54H156V25H435V679H268C285 722 304 778 321 828ZM156 612H366V401H156ZM156 93V335H366V93ZM670 828 598 844C566 706 512 568 443 479C461 469 492 448 506 436C540 484 572 545 600 613H856C844 212 828 58 796 24C784 10 773 7 753 7C730 7 670 8 604 13C618 -6 627 -38 629 -59C685 -62 744 -64 778 -61C814 -57 836 -49 859 -19C899 30 913 185 928 644C929 654 929 682 929 682H627C643 729 658 779 670 828Z" /><path id="g400-8fdb" d="M135 818 81 778C136 728 203 656 233 609L291 657C259 702 190 770 135 818ZM795 819H720V658H555V819H481V658H339V586H481V469L479 407H333V335H471C456 259 423 185 348 128C364 117 392 89 402 74C491 142 530 239 545 335H720V80H795V335H944V407H795V586H924V658H795ZM555 468V586H720V407H553ZM262 115V478H50V408H188V121C143 104 91 60 38 2L88 -65C140 3 189 61 223 61C245 61 277 28 319 2C388 -42 472 -53 596 -53C691 -53 871 -47 942 -43C943 -21 955 15 964 34C867 24 716 16 598 16C485 16 401 23 335 64C302 85 281 104 262 115Z" /><path id="g400-5165" d="M341 819 295 755C361 709 412 653 455 591C391 305 266 103 41 -13C61 -27 96 -59 110 -74C313 45 440 229 517 490C627 289 698 58 926 -70C931 -46 951 -6 964 15C631 214 662 590 341 819Z" /><path id="g400-ff0c" d="M157 -107C262 -70 330 12 330 120C330 190 300 235 245 235C204 235 169 210 169 163C169 116 203 92 244 92L261 94C256 25 212 -22 135 -54Z" /><path id="g400-5728" d="M469 821 391 840C377 789 359 736 338 685H63V613H305C241 485 153 366 39 286C51 268 70 237 78 217C120 247 158 281 193 318V-76H268V407C315 471 356 541 389 613H939V685H421C439 730 455 776 469 821ZM673 561H598V368H373V298H598V14H333V-56H938V14H673V298H900V368H673Z" /><path id="g400-4e13" d="M502 832 425 842 393 728H137V657H372L335 538H56V465H311C288 397 266 334 246 283H712C655 225 582 153 515 91C442 118 366 143 300 161L257 106C412 60 609 -21 708 -81L754 -17C712 8 654 35 590 61C682 150 784 250 856 324L799 358L786 353H350L389 465H929V538H412L450 657H857V728H471Z" /><path id="g400-41" d="M4 0H97L168 224H436L506 0H604L355 733H252ZM191 297 227 410C253 493 277 572 300 658H304C328 573 351 493 378 410L413 297Z" /><path id="g400-67" d="M275 -250C443 -250 550 -163 550 -62C550 28 486 67 361 67H254C181 67 159 92 159 126C159 156 174 174 194 191C218 179 248 172 274 172C386 172 473 245 473 359C473 409 454 445 427 469V473H540V543H351C332 551 305 557 274 557C165 557 71 482 71 363C71 298 106 245 142 217V213C113 193 82 157 82 112C82 69 103 40 131 23V18C80 -13 51 -58 51 -105C51 -198 143 -250 275 -250ZM274 234C212 234 159 284 159 363C159 443 211 490 274 490C339 490 390 443 390 363C390 284 337 234 274 234ZM288 -187C189 -187 131 -150 131 -92C131 -61 147 -28 186 0C210 -6 236 -8 256 -8H350C422 -8 460 -26 460 -77C460 -133 393 -187 288 -187Z" /><path id="g400-74" d="M262 -11C299 -11 335 -1 364 13L345 78C324 67 303 64 283 64C220 64 199 102 199 169V469H347V543H199V718H123L113 543L27 538V469H108V171C108 63 147 -11 262 -11Z" /></defs></svg>
